solid OpenSCAD_Model
  facet normal 0.894074 0.0280936 0.447037
    outer loop
      vertex 0.998027 0.0627905 -1
      vertex 0 0 1
      vertex 1 0 -1
    endloop
  endfacet
  facet normal 0.890546 0.0841812 0.447037
    outer loop
      vertex 0.992115 0.125333 -1
      vertex 0 0 1
      vertex 0.998027 0.0627905 -1
    endloop
  endfacet
  facet normal 0.883501 0.139941 0.447037
    outer loop
      vertex 0.982287 0.187381 -1
      vertex 0 0 1
      vertex 0.992115 0.125333 -1
    endloop
  endfacet
  facet normal 0.872973 0.19513 0.447037
    outer loop
      vertex 0.968583 0.24869 -1
      vertex 0 0 1
      vertex 0.982287 0.187381 -1
    endloop
  endfacet
  facet normal 0.859 0.249554 0.447037
    outer loop
      vertex 0.951057 0.309017 -1
      vertex 0 0 1
      vertex 0.968583 0.24869 -1
    endloop
  endfacet
  facet normal 0.841629 0.303017 0.447037
    outer loop
      vertex 0.929776 0.368125 -1
      vertex 0 0 1
      vertex 0.951057 0.309017 -1
    endloop
  endfacet
  facet normal 0.820946 0.355254 0.447037
    outer loop
      vertex 0.904827 0.425779 -1
      vertex 0 0 1
      vertex 0.929776 0.368125 -1
    endloop
  endfacet
  facet normal 0.797023 0.406094 0.447037
    outer loop
      vertex 0.876307 0.481754 -1
      vertex 0 0 1
      vertex 0.904827 0.425779 -1
    endloop
  endfacet
  facet normal 0.769945 0.455349 0.447037
    outer loop
      vertex 0.844328 0.535827 -1
      vertex 0 0 1
      vertex 0.876307 0.481754 -1
    endloop
  endfacet
  facet normal 0.739834 0.502796 0.447037
    outer loop
      vertex 0.809017 0.587785 -1
      vertex 0 0 1
      vertex 0.844328 0.535827 -1
    endloop
  endfacet
  facet normal 0.706806 0.548255 0.447037
    outer loop
      vertex 0.770513 0.637424 -1
      vertex 0 0 1
      vertex 0.809017 0.587785 -1
    endloop
  endfacet
  facet normal 0.67099 0.59155 0.447037
    outer loop
      vertex 0.728969 0.684547 -1
      vertex 0 0 1
      vertex 0.770513 0.637424 -1
    endloop
  endfacet
  facet normal 0.632518 0.632518 0.447037
    outer loop
      vertex 0.684547 0.728969 -1
      vertex 0 0 1
      vertex 0.728969 0.684547 -1
    endloop
  endfacet
  facet normal 0.59155 0.67099 0.447037
    outer loop
      vertex 0.637424 0.770513 -1
      vertex 0 0 1
      vertex 0.684547 0.728969 -1
    endloop
  endfacet
  facet normal 0.548255 0.706806 0.447037
    outer loop
      vertex 0.587785 0.809017 -1
      vertex 0 0 1
      vertex 0.637424 0.770513 -1
    endloop
  endfacet
  facet normal 0.502796 0.739834 0.447037
    outer loop
      vertex 0.535827 0.844328 -1
      vertex 0 0 1
      vertex 0.587785 0.809017 -1
    endloop
  endfacet
  facet normal 0.455349 0.769945 0.447037
    outer loop
      vertex 0.481754 0.876307 -1
      vertex 0 0 1
      vertex 0.535827 0.844328 -1
    endloop
  endfacet
  facet normal 0.406094 0.797023 0.447037
    outer loop
      vertex 0.425779 0.904827 -1
      vertex 0 0 1
      vertex 0.481754 0.876307 -1
    endloop
  endfacet
  facet normal 0.355254 0.820946 0.447037
    outer loop
      vertex 0.368125 0.929776 -1
      vertex 0 0 1
      vertex 0.425779 0.904827 -1
    endloop
  endfacet
  facet normal 0.303017 0.841629 0.447037
    outer loop
      vertex 0.309017 0.951057 -1
      vertex 0 0 1
      vertex 0.368125 0.929776 -1
    endloop
  endfacet
  facet normal 0.249554 0.859 0.447037
    outer loop
      vertex 0.24869 0.968583 -1
      vertex 0 0 1
      vertex 0.309017 0.951057 -1
    endloop
  endfacet
  facet normal 0.19513 0.872973 0.447037
    outer loop
      vertex 0.187381 0.982287 -1
      vertex 0 0 1
      vertex 0.24869 0.968583 -1
    endloop
  endfacet
  facet normal 0.139941 0.883501 0.447037
    outer loop
      vertex 0.125333 0.992115 -1
      vertex 0 0 1
      vertex 0.187381 0.982287 -1
    endloop
  endfacet
  facet normal 0.0841812 0.890546 0.447037
    outer loop
      vertex 0.0627905 0.998027 -1
      vertex 0 0 1
      vertex 0.125333 0.992115 -1
    endloop
  endfacet
  facet normal 0.0280936 0.894074 0.447037
    outer loop
      vertex 0 1 -1
      vertex 0 0 1
      vertex 0.0627905 0.998027 -1
    endloop
  endfacet
  facet normal -0.0280936 0.894074 0.447037
    outer loop
      vertex -0.0627905 0.998027 -1
      vertex 0 0 1
      vertex 0 1 -1
    endloop
  endfacet
  facet normal -0.0841812 0.890546 0.447037
    outer loop
      vertex -0.125333 0.992115 -1
      vertex 0 0 1
      vertex -0.0627905 0.998027 -1
    endloop
  endfacet
  facet normal -0.139941 0.883501 0.447037
    outer loop
      vertex -0.187381 0.982287 -1
      vertex 0 0 1
      vertex -0.125333 0.992115 -1
    endloop
  endfacet
  facet normal -0.19513 0.872973 0.447037
    outer loop
      vertex -0.24869 0.968583 -1
      vertex 0 0 1
      vertex -0.187381 0.982287 -1
    endloop
  endfacet
  facet normal -0.249554 0.859 0.447037
    outer loop
      vertex -0.309017 0.951057 -1
      vertex 0 0 1
      vertex -0.24869 0.968583 -1
    endloop
  endfacet
  facet normal -0.303017 0.841629 0.447037
    outer loop
      vertex -0.368125 0.929776 -1
      vertex 0 0 1
      vertex -0.309017 0.951057 -1
    endloop
  endfacet
  facet normal -0.355254 0.820946 0.447037
    outer loop
      vertex -0.425779 0.904827 -1
      vertex 0 0 1
      vertex -0.368125 0.929776 -1
    endloop
  endfacet
  facet normal -0.406094 0.797023 0.447037
    outer loop
      vertex -0.481754 0.876307 -1
      vertex 0 0 1
      vertex -0.425779 0.904827 -1
    endloop
  endfacet
  facet normal -0.455349 0.769945 0.447037
    outer loop
      vertex -0.535827 0.844328 -1
      vertex 0 0 1
      vertex -0.481754 0.876307 -1
    endloop
  endfacet
  facet normal -0.502796 0.739834 0.447037
    outer loop
      vertex -0.587785 0.809017 -1
      vertex 0 0 1
      vertex -0.535827 0.844328 -1
    endloop
  endfacet
  facet normal -0.548255 0.706806 0.447037
    outer loop
      vertex -0.637424 0.770513 -1
      vertex 0 0 1
      vertex -0.587785 0.809017 -1
    endloop
  endfacet
  facet normal -0.59155 0.67099 0.447037
    outer loop
      vertex -0.684547 0.728969 -1
      vertex 0 0 1
      vertex -0.637424 0.770513 -1
    endloop
  endfacet
  facet normal -0.632518 0.632518 0.447037
    outer loop
      vertex -0.728969 0.684547 -1
      vertex 0 0 1
      vertex -0.684547 0.728969 -1
    endloop
  endfacet
  facet normal -0.67099 0.59155 0.447037
    outer loop
      vertex -0.770513 0.637424 -1
      vertex 0 0 1
      vertex -0.728969 0.684547 -1
    endloop
  endfacet
  facet normal -0.706806 0.548255 0.447037
    outer loop
      vertex -0.809017 0.587785 -1
      vertex 0 0 1
      vertex -0.770513 0.637424 -1
    endloop
  endfacet
  facet normal -0.739834 0.502796 0.447037
    outer loop
      vertex -0.844328 0.535827 -1
      vertex 0 0 1
      vertex -0.809017 0.587785 -1
    endloop
  endfacet
  facet normal -0.769945 0.455349 0.447037
    outer loop
      vertex -0.876307 0.481754 -1
      vertex 0 0 1
      vertex -0.844328 0.535827 -1
    endloop
  endfacet
  facet normal -0.797023 0.406094 0.447037
    outer loop
      vertex -0.904827 0.425779 -1
      vertex 0 0 1
      vertex -0.876307 0.481754 -1
    endloop
  endfacet
  facet normal -0.820946 0.355254 0.447037
    outer loop
      vertex -0.929776 0.368125 -1
      vertex 0 0 1
      vertex -0.904827 0.425779 -1
    endloop
  endfacet
  facet normal -0.841629 0.303017 0.447037
    outer loop
      vertex -0.951057 0.309017 -1
      vertex 0 0 1
      vertex -0.929776 0.368125 -1
    endloop
  endfacet
  facet normal -0.859 0.249554 0.447037
    outer loop
      vertex -0.968583 0.24869 -1
      vertex 0 0 1
      vertex -0.951057 0.309017 -1
    endloop
  endfacet
  facet normal -0.872973 0.19513 0.447037
    outer loop
      vertex -0.982287 0.187381 -1
      vertex 0 0 1
      vertex -0.968583 0.24869 -1
    endloop
  endfacet
  facet normal -0.883501 0.139941 0.447037
    outer loop
      vertex -0.992115 0.125333 -1
      vertex 0 0 1
      vertex -0.982287 0.187381 -1
    endloop
  endfacet
  facet normal -0.890546 0.0841812 0.447037
    outer loop
      vertex -0.998027 0.0627905 -1
      vertex 0 0 1
      vertex -0.992115 0.125333 -1
    endloop
  endfacet
  facet normal -0.894074 0.0280936 0.447037
    outer loop
      vertex -1 -0 -1
      vertex 0 0 1
      vertex -0.998027 0.0627905 -1
    endloop
  endfacet
  facet normal -0.894074 -0.0280936 0.447037
    outer loop
      vertex -0.998027 -0.0627905 -1
      vertex 0 0 1
      vertex -1 -0 -1
    endloop
  endfacet
  facet normal -0.890546 -0.0841812 0.447037
    outer loop
      vertex -0.992115 -0.125333 -1
      vertex 0 0 1
      vertex -0.998027 -0.0627905 -1
    endloop
  endfacet
  facet normal -0.883501 -0.139941 0.447037
    outer loop
      vertex -0.982287 -0.187381 -1
      vertex 0 0 1
      vertex -0.992115 -0.125333 -1
    endloop
  endfacet
  facet normal -0.872973 -0.19513 0.447037
    outer loop
      vertex -0.968583 -0.24869 -1
      vertex 0 0 1
      vertex -0.982287 -0.187381 -1
    endloop
  endfacet
  facet normal -0.859 -0.249554 0.447037
    outer loop
      vertex -0.951057 -0.309017 -1
      vertex 0 0 1
      vertex -0.968583 -0.24869 -1
    endloop
  endfacet
  facet normal -0.841629 -0.303017 0.447037
    outer loop
      vertex -0.929776 -0.368125 -1
      vertex 0 0 1
      vertex -0.951057 -0.309017 -1
    endloop
  endfacet
  facet normal -0.820946 -0.355254 0.447037
    outer loop
      vertex -0.904827 -0.425779 -1
      vertex 0 0 1
      vertex -0.929776 -0.368125 -1
    endloop
  endfacet
  facet normal -0.797023 -0.406094 0.447037
    outer loop
      vertex -0.876307 -0.481754 -1
      vertex 0 0 1
      vertex -0.904827 -0.425779 -1
    endloop
  endfacet
  facet normal -0.769945 -0.455349 0.447037
    outer loop
      vertex -0.844328 -0.535827 -1
      vertex 0 0 1
      vertex -0.876307 -0.481754 -1
    endloop
  endfacet
  facet normal -0.739834 -0.502796 0.447037
    outer loop
      vertex -0.809017 -0.587785 -1
      vertex 0 0 1
      vertex -0.844328 -0.535827 -1
    endloop
  endfacet
  facet normal -0.706806 -0.548255 0.447037
    outer loop
      vertex -0.770513 -0.637424 -1
      vertex 0 0 1
      vertex -0.809017 -0.587785 -1
    endloop
  endfacet
  facet normal -0.67099 -0.59155 0.447037
    outer loop
      vertex -0.728969 -0.684547 -1
      vertex 0 0 1
      vertex -0.770513 -0.637424 -1
    endloop
  endfacet
  facet normal -0.632518 -0.632518 0.447037
    outer loop
      vertex -0.684547 -0.728969 -1
      vertex 0 0 1
      vertex -0.728969 -0.684547 -1
    endloop
  endfacet
  facet normal -0.59155 -0.67099 0.447037
    outer loop
      vertex -0.637424 -0.770513 -1
      vertex 0 0 1
      vertex -0.684547 -0.728969 -1
    endloop
  endfacet
  facet normal -0.548255 -0.706806 0.447037
    outer loop
      vertex -0.587785 -0.809017 -1
      vertex 0 0 1
      vertex -0.637424 -0.770513 -1
    endloop
  endfacet
  facet normal -0.502796 -0.739834 0.447037
    outer loop
      vertex -0.535827 -0.844328 -1
      vertex 0 0 1
      vertex -0.587785 -0.809017 -1
    endloop
  endfacet
  facet normal -0.455349 -0.769945 0.447037
    outer loop
      vertex -0.481754 -0.876307 -1
      vertex 0 0 1
      vertex -0.535827 -0.844328 -1
    endloop
  endfacet
  facet normal -0.406094 -0.797023 0.447037
    outer loop
      vertex -0.425779 -0.904827 -1
      vertex 0 0 1
      vertex -0.481754 -0.876307 -1
    endloop
  endfacet
  facet normal -0.355254 -0.820946 0.447037
    outer loop
      vertex -0.368125 -0.929776 -1
      vertex 0 0 1
      vertex -0.425779 -0.904827 -1
    endloop
  endfacet
  facet normal -0.303017 -0.841629 0.447037
    outer loop
      vertex -0.309017 -0.951057 -1
      vertex 0 0 1
      vertex -0.368125 -0.929776 -1
    endloop
  endfacet
  facet normal -0.249554 -0.859 0.447037
    outer loop
      vertex -0.24869 -0.968583 -1
      vertex 0 0 1
      vertex -0.309017 -0.951057 -1
    endloop
  endfacet
  facet normal -0.19513 -0.872973 0.447037
    outer loop
      vertex -0.187381 -0.982287 -1
      vertex 0 0 1
      vertex -0.24869 -0.968583 -1
    endloop
  endfacet
  facet normal -0.139941 -0.883501 0.447037
    outer loop
      vertex -0.125333 -0.992115 -1
      vertex 0 0 1
      vertex -0.187381 -0.982287 -1
    endloop
  endfacet
  facet normal -0.0841812 -0.890546 0.447037
    outer loop
      vertex -0.0627905 -0.998027 -1
      vertex 0 0 1
      vertex -0.125333 -0.992115 -1
    endloop
  endfacet
  facet normal -0.0280936 -0.894074 0.447037
    outer loop
      vertex -0 -1 -1
      vertex 0 0 1
      vertex -0.0627905 -0.998027 -1
    endloop
  endfacet
  facet normal 0.0280936 -0.894074 0.447037
    outer loop
      vertex 0.0627905 -0.998027 -1
      vertex 0 0 1
      vertex -0 -1 -1
    endloop
  endfacet
  facet normal 0.0841812 -0.890546 0.447037
    outer loop
      vertex 0.125333 -0.992115 -1
      vertex 0 0 1
      vertex 0.0627905 -0.998027 -1
    endloop
  endfacet
  facet normal 0.139941 -0.883501 0.447037
    outer loop
      vertex 0.187381 -0.982287 -1
      vertex 0 0 1
      vertex 0.125333 -0.992115 -1
    endloop
  endfacet
  facet normal 0.19513 -0.872973 0.447037
    outer loop
      vertex 0.24869 -0.968583 -1
      vertex 0 0 1
      vertex 0.187381 -0.982287 -1
    endloop
  endfacet
  facet normal 0.249554 -0.859 0.447037
    outer loop
      vertex 0.309017 -0.951057 -1
      vertex 0 0 1
      vertex 0.24869 -0.968583 -1
    endloop
  endfacet
  facet normal 0.303017 -0.841629 0.447037
    outer loop
      vertex 0.368125 -0.929776 -1
      vertex 0 0 1
      vertex 0.309017 -0.951057 -1
    endloop
  endfacet
  facet normal 0.355254 -0.820946 0.447037
    outer loop
      vertex 0.425779 -0.904827 -1
      vertex 0 0 1
      vertex 0.368125 -0.929776 -1
    endloop
  endfacet
  facet normal 0.406094 -0.797023 0.447037
    outer loop
      vertex 0.481754 -0.876307 -1
      vertex 0 0 1
      vertex 0.425779 -0.904827 -1
    endloop
  endfacet
  facet normal 0.455349 -0.769945 0.447037
    outer loop
      vertex 0.535827 -0.844328 -1
      vertex 0 0 1
      vertex 0.481754 -0.876307 -1
    endloop
  endfacet
  facet normal 0.502796 -0.739834 0.447037
    outer loop
      vertex 0.587785 -0.809017 -1
      vertex 0 0 1
      vertex 0.535827 -0.844328 -1
    endloop
  endfacet
  facet normal 0.548255 -0.706806 0.447037
    outer loop
      vertex 0.637424 -0.770513 -1
      vertex 0 0 1
      vertex 0.587785 -0.809017 -1
    endloop
  endfacet
  facet normal 0.59155 -0.67099 0.447037
    outer loop
      vertex 0.684547 -0.728969 -1
      vertex 0 0 1
      vertex 0.637424 -0.770513 -1
    endloop
  endfacet
  facet normal 0.632518 -0.632518 0.447037
    outer loop
      vertex 0.728969 -0.684547 -1
      vertex 0 0 1
      vertex 0.684547 -0.728969 -1
    endloop
  endfacet
  facet normal 0.67099 -0.59155 0.447037
    outer loop
      vertex 0.770513 -0.637424 -1
      vertex 0 0 1
      vertex 0.728969 -0.684547 -1
    endloop
  endfacet
  facet normal 0.706806 -0.548255 0.447037
    outer loop
      vertex 0.809017 -0.587785 -1
      vertex 0 0 1
      vertex 0.770513 -0.637424 -1
    endloop
  endfacet
  facet normal 0.739834 -0.502796 0.447037
    outer loop
      vertex 0.844328 -0.535827 -1
      vertex 0 0 1
      vertex 0.809017 -0.587785 -1
    endloop
  endfacet
  facet normal 0.769945 -0.455349 0.447037
    outer loop
      vertex 0.876307 -0.481754 -1
      vertex 0 0 1
      vertex 0.844328 -0.535827 -1
    endloop
  endfacet
  facet normal 0.797023 -0.406094 0.447037
    outer loop
      vertex 0.904827 -0.425779 -1
      vertex 0 0 1
      vertex 0.876307 -0.481754 -1
    endloop
  endfacet
  facet normal 0.820946 -0.355254 0.447037
    outer loop
      vertex 0.929776 -0.368125 -1
      vertex 0 0 1
      vertex 0.904827 -0.425779 -1
    endloop
  endfacet
  facet normal 0.841629 -0.303017 0.447037
    outer loop
      vertex 0.951057 -0.309017 -1
      vertex 0 0 1
      vertex 0.929776 -0.368125 -1
    endloop
  endfacet
  facet normal 0.859 -0.249554 0.447037
    outer loop
      vertex 0.968583 -0.24869 -1
      vertex 0 0 1
      vertex 0.951057 -0.309017 -1
    endloop
  endfacet
  facet normal 0.872973 -0.19513 0.447037
    outer loop
      vertex 0.982287 -0.187381 -1
      vertex 0 0 1
      vertex 0.968583 -0.24869 -1
    endloop
  endfacet
  facet normal 0.883501 -0.139941 0.447037
    outer loop
      vertex 0.992115 -0.125333 -1
      vertex 0 0 1
      vertex 0.982287 -0.187381 -1
    endloop
  endfacet
  facet normal 0.890546 -0.0841812 0.447037
    outer loop
      vertex 0.998027 -0.0627905 -1
      vertex 0 0 1
      vertex 0.992115 -0.125333 -1
    endloop
  endfacet
  facet normal 0.894074 -0.0280936 0.447037
    outer loop
      vertex 1 0 -1
      vertex 0 0 1
      vertex 0.998027 -0.0627905 -1
    endloop
  endfacet
  facet normal 0 0 -1
    outer loop
      vertex 0.998027 -0.0627905 -1
      vertex 0.998027 0.0627905 -1
      vertex 1 0 -1
    endloop
  endfacet
  facet normal 0 0 -1
    outer loop
      vertex 0.992115 -0.125333 -1
      vertex 0.998027 0.0627905 -1
      vertex 0.998027 -0.0627905 -1
    endloop
  endfacet
  facet normal 0 0 -1
    outer loop
      vertex 0.992115 -0.125333 -1
      vertex 0.992115 0.125333 -1
      vertex 0.998027 0.0627905 -1
    endloop
  endfacet
  facet normal 0 0 -1
    outer loop
      vertex 0.982287 -0.187381 -1
      vertex 0.992115 0.125333 -1
      vertex 0.992115 -0.125333 -1
    endloop
  endfacet
  facet normal 0 0 -1
    outer loop
      vertex 0.982287 -0.187381 -1
      vertex 0.982287 0.187381 -1
      vertex 0.992115 0.125333 -1
    endloop
  endfacet
  facet normal 0 0 -1
    outer loop
      vertex 0.968583 -0.24869 -1
      vertex 0.982287 0.187381 -1
      vertex 0.982287 -0.187381 -1
    endloop
  endfacet
  facet normal 0 0 -1
    outer loop
      vertex 0.968583 -0.24869 -1
      vertex 0.968583 0.24869 -1
      vertex 0.982287 0.187381 -1
    endloop
  endfacet
  facet normal 0 0 -1
    outer loop
      vertex 0.951057 -0.309017 -1
      vertex 0.968583 0.24869 -1
      vertex 0.968583 -0.24869 -1
    endloop
  endfacet
  facet normal 0 0 -1
    outer loop
      vertex 0.951057 -0.309017 -1
      vertex 0.951057 0.309017 -1
      vertex 0.968583 0.24869 -1
    endloop
  endfacet
  facet normal 0 0 -1
    outer loop
      vertex 0.929776 -0.368125 -1
      vertex 0.951057 0.309017 -1
      vertex 0.951057 -0.309017 -1
    endloop
  endfacet
  facet normal 0 0 -1
    outer loop
      vertex 0.929776 -0.368125 -1
      vertex 0.929776 0.368125 -1
      vertex 0.951057 0.309017 -1
    endloop
  endfacet
  facet normal 0 0 -1
    outer loop
      vertex 0.904827 -0.425779 -1
      vertex 0.929776 0.368125 -1
      vertex 0.929776 -0.368125 -1
    endloop
  endfacet
  facet normal 0 0 -1
    outer loop
      vertex 0.904827 -0.425779 -1
      vertex 0.904827 0.425779 -1
      vertex 0.929776 0.368125 -1
    endloop
  endfacet
  facet normal 0 0 -1
    outer loop
      vertex 0.876307 -0.481754 -1
      vertex 0.904827 0.425779 -1
      vertex 0.904827 -0.425779 -1
    endloop
  endfacet
  facet normal 0 0 -1
    outer loop
      vertex 0.876307 -0.481754 -1
      vertex 0.876307 0.481754 -1
      vertex 0.904827 0.425779 -1
    endloop
  endfacet
  facet normal 0 0 -1
    outer loop
      vertex 0.844328 -0.535827 -1
      vertex 0.876307 0.481754 -1
      vertex 0.876307 -0.481754 -1
    endloop
  endfacet
  facet normal 0 0 -1
    outer loop
      vertex 0.844328 -0.535827 -1
      vertex 0.844328 0.535827 -1
      vertex 0.876307 0.481754 -1
    endloop
  endfacet
  facet normal 0 0 -1
    outer loop
      vertex 0.809017 -0.587785 -1
      vertex 0.844328 0.535827 -1
      vertex 0.844328 -0.535827 -1
    endloop
  endfacet
  facet normal 0 0 -1
    outer loop
      vertex 0.809017 -0.587785 -1
      vertex 0.809017 0.587785 -1
      vertex 0.844328 0.535827 -1
    endloop
  endfacet
  facet normal 0 0 -1
    outer loop
      vertex 0.770513 -0.637424 -1
      vertex 0.809017 0.587785 -1
      vertex 0.809017 -0.587785 -1
    endloop
  endfacet
  facet normal 0 0 -1
    outer loop
      vertex 0.770513 -0.637424 -1
      vertex 0.770513 0.637424 -1
      vertex 0.809017 0.587785 -1
    endloop
  endfacet
  facet normal 0 0 -1
    outer loop
      vertex 0.728969 -0.684547 -1
      vertex 0.770513 0.637424 -1
      vertex 0.770513 -0.637424 -1
    endloop
  endfacet
  facet normal 0 0 -1
    outer loop
      vertex 0.728969 -0.684547 -1
      vertex 0.728969 0.684547 -1
      vertex 0.770513 0.637424 -1
    endloop
  endfacet
  facet normal 0 0 -1
    outer loop
      vertex 0.684547 -0.728969 -1
      vertex 0.728969 0.684547 -1
      vertex 0.728969 -0.684547 -1
    endloop
  endfacet
  facet normal 0 0 -1
    outer loop
      vertex 0.684547 -0.728969 -1
      vertex 0.684547 0.728969 -1
      vertex 0.728969 0.684547 -1
    endloop
  endfacet
  facet normal 0 0 -1
    outer loop
      vertex 0.637424 -0.770513 -1
      vertex 0.684547 0.728969 -1
      vertex 0.684547 -0.728969 -1
    endloop
  endfacet
  facet normal 0 0 -1
    outer loop
      vertex 0.637424 -0.770513 -1
      vertex 0.637424 0.770513 -1
      vertex 0.684547 0.728969 -1
    endloop
  endfacet
  facet normal 0 0 -1
    outer loop
      vertex 0.587785 -0.809017 -1
      vertex 0.637424 0.770513 -1
      vertex 0.637424 -0.770513 -1
    endloop
  endfacet
  facet normal 0 0 -1
    outer loop
      vertex 0.587785 -0.809017 -1
      vertex 0.587785 0.809017 -1
      vertex 0.637424 0.770513 -1
    endloop
  endfacet
  facet normal 0 0 -1
    outer loop
      vertex 0.535827 -0.844328 -1
      vertex 0.587785 0.809017 -1
      vertex 0.587785 -0.809017 -1
    endloop
  endfacet
  facet normal 0 0 -1
    outer loop
      vertex 0.535827 -0.844328 -1
      vertex 0.535827 0.844328 -1
      vertex 0.587785 0.809017 -1
    endloop
  endfacet
  facet normal 0 0 -1
    outer loop
      vertex 0.481754 -0.876307 -1
      vertex 0.535827 0.844328 -1
      vertex 0.535827 -0.844328 -1
    endloop
  endfacet
  facet normal 0 0 -1
    outer loop
      vertex 0.481754 -0.876307 -1
      vertex 0.481754 0.876307 -1
      vertex 0.535827 0.844328 -1
    endloop
  endfacet
  facet normal 0 0 -1
    outer loop
      vertex 0.425779 -0.904827 -1
      vertex 0.481754 0.876307 -1
      vertex 0.481754 -0.876307 -1
    endloop
  endfacet
  facet normal 0 0 -1
    outer loop
      vertex 0.425779 -0.904827 -1
      vertex 0.425779 0.904827 -1
      vertex 0.481754 0.876307 -1
    endloop
  endfacet
  facet normal 0 0 -1
    outer loop
      vertex 0.368125 -0.929776 -1
      vertex 0.425779 0.904827 -1
      vertex 0.425779 -0.904827 -1
    endloop
  endfacet
  facet normal 0 0 -1
    outer loop
      vertex 0.368125 -0.929776 -1
      vertex 0.368125 0.929776 -1
      vertex 0.425779 0.904827 -1
    endloop
  endfacet
  facet normal 0 0 -1
    outer loop
      vertex 0.309017 -0.951057 -1
      vertex 0.368125 0.929776 -1
      vertex 0.368125 -0.929776 -1
    endloop
  endfacet
  facet normal 0 0 -1
    outer loop
      vertex 0.309017 -0.951057 -1
      vertex 0.309017 0.951057 -1
      vertex 0.368125 0.929776 -1
    endloop
  endfacet
  facet normal 0 0 -1
    outer loop
      vertex 0.24869 -0.968583 -1
      vertex 0.309017 0.951057 -1
      vertex 0.309017 -0.951057 -1
    endloop
  endfacet
  facet normal 0 0 -1
    outer loop
      vertex 0.24869 -0.968583 -1
      vertex 0.24869 0.968583 -1
      vertex 0.309017 0.951057 -1
    endloop
  endfacet
  facet normal 0 0 -1
    outer loop
      vertex 0.187381 -0.982287 -1
      vertex 0.24869 0.968583 -1
      vertex 0.24869 -0.968583 -1
    endloop
  endfacet
  facet normal 0 0 -1
    outer loop
      vertex 0.187381 -0.982287 -1
      vertex 0.187381 0.982287 -1
      vertex 0.24869 0.968583 -1
    endloop
  endfacet
  facet normal 0 0 -1
    outer loop
      vertex 0.125333 -0.992115 -1
      vertex 0.187381 0.982287 -1
      vertex 0.187381 -0.982287 -1
    endloop
  endfacet
  facet normal 0 0 -1
    outer loop
      vertex 0.125333 -0.992115 -1
      vertex 0.125333 0.992115 -1
      vertex 0.187381 0.982287 -1
    endloop
  endfacet
  facet normal 0 0 -1
    outer loop
      vertex 0.0627905 -0.998027 -1
      vertex 0.125333 0.992115 -1
      vertex 0.125333 -0.992115 -1
    endloop
  endfacet
  facet normal 0 0 -1
    outer loop
      vertex 0.0627905 -0.998027 -1
      vertex 0.0627905 0.998027 -1
      vertex 0.125333 0.992115 -1
    endloop
  endfacet
  facet normal 0 0 -1
    outer loop
      vertex -0 -1 -1
      vertex 0.0627905 0.998027 -1
      vertex 0.0627905 -0.998027 -1
    endloop
  endfacet
  facet normal 0 0 -1
    outer loop
      vertex -0 -1 -1
      vertex 0 1 -1
      vertex 0.0627905 0.998027 -1
    endloop
  endfacet
  facet normal 0 0 -1
    outer loop
      vertex -0.0627905 -0.998027 -1
      vertex 0 1 -1
      vertex -0 -1 -1
    endloop
  endfacet
  facet normal 0 0 -1
    outer loop
      vertex -0.0627905 -0.998027 -1
      vertex -0.0627905 0.998027 -1
      vertex 0 1 -1
    endloop
  endfacet
  facet normal 0 0 -1
    outer loop
      vertex -0.125333 -0.992115 -1
      vertex -0.0627905 0.998027 -1
      vertex -0.0627905 -0.998027 -1
    endloop
  endfacet
  facet normal 0 0 -1
    outer loop
      vertex -0.125333 -0.992115 -1
      vertex -0.125333 0.992115 -1
      vertex -0.0627905 0.998027 -1
    endloop
  endfacet
  facet normal 0 0 -1
    outer loop
      vertex -0.187381 -0.982287 -1
      vertex -0.125333 0.992115 -1
      vertex -0.125333 -0.992115 -1
    endloop
  endfacet
  facet normal 0 0 -1
    outer loop
      vertex -0.187381 -0.982287 -1
      vertex -0.187381 0.982287 -1
      vertex -0.125333 0.992115 -1
    endloop
  endfacet
  facet normal 0 0 -1
    outer loop
      vertex -0.24869 -0.968583 -1
      vertex -0.187381 0.982287 -1
      vertex -0.187381 -0.982287 -1
    endloop
  endfacet
  facet normal 0 0 -1
    outer loop
      vertex -0.24869 -0.968583 -1
      vertex -0.24869 0.968583 -1
      vertex -0.187381 0.982287 -1
    endloop
  endfacet
  facet normal 0 0 -1
    outer loop
      vertex -0.309017 -0.951057 -1
      vertex -0.24869 0.968583 -1
      vertex -0.24869 -0.968583 -1
    endloop
  endfacet
  facet normal 0 0 -1
    outer loop
      vertex -0.309017 -0.951057 -1
      vertex -0.309017 0.951057 -1
      vertex -0.24869 0.968583 -1
    endloop
  endfacet
  facet normal 0 0 -1
    outer loop
      vertex -0.368125 -0.929776 -1
      vertex -0.309017 0.951057 -1
      vertex -0.309017 -0.951057 -1
    endloop
  endfacet
  facet normal 0 0 -1
    outer loop
      vertex -0.368125 -0.929776 -1
      vertex -0.368125 0.929776 -1
      vertex -0.309017 0.951057 -1
    endloop
  endfacet
  facet normal 0 0 -1
    outer loop
      vertex -0.425779 -0.904827 -1
      vertex -0.368125 0.929776 -1
      vertex -0.368125 -0.929776 -1
    endloop
  endfacet
  facet normal 0 0 -1
    outer loop
      vertex -0.425779 -0.904827 -1
      vertex -0.425779 0.904827 -1
      vertex -0.368125 0.929776 -1
    endloop
  endfacet
  facet normal 0 0 -1
    outer loop
      vertex -0.481754 -0.876307 -1
      vertex -0.425779 0.904827 -1
      vertex -0.425779 -0.904827 -1
    endloop
  endfacet
  facet normal 0 0 -1
    outer loop
      vertex -0.481754 -0.876307 -1
      vertex -0.481754 0.876307 -1
      vertex -0.425779 0.904827 -1
    endloop
  endfacet
  facet normal 0 0 -1
    outer loop
      vertex -0.535827 -0.844328 -1
      vertex -0.481754 0.876307 -1
      vertex -0.481754 -0.876307 -1
    endloop
  endfacet
  facet normal 0 0 -1
    outer loop
      vertex -0.535827 -0.844328 -1
      vertex -0.535827 0.844328 -1
      vertex -0.481754 0.876307 -1
    endloop
  endfacet
  facet normal 0 0 -1
    outer loop
      vertex -0.587785 -0.809017 -1
      vertex -0.535827 0.844328 -1
      vertex -0.535827 -0.844328 -1
    endloop
  endfacet
  facet normal 0 0 -1
    outer loop
      vertex -0.587785 -0.809017 -1
      vertex -0.587785 0.809017 -1
      vertex -0.535827 0.844328 -1
    endloop
  endfacet
  facet normal 0 0 -1
    outer loop
      vertex -0.637424 -0.770513 -1
      vertex -0.587785 0.809017 -1
      vertex -0.587785 -0.809017 -1
    endloop
  endfacet
  facet normal 0 0 -1
    outer loop
      vertex -0.637424 -0.770513 -1
      vertex -0.637424 0.770513 -1
      vertex -0.587785 0.809017 -1
    endloop
  endfacet
  facet normal 0 0 -1
    outer loop
      vertex -0.684547 -0.728969 -1
      vertex -0.637424 0.770513 -1
      vertex -0.637424 -0.770513 -1
    endloop
  endfacet
  facet normal 0 0 -1
    outer loop
      vertex -0.684547 -0.728969 -1
      vertex -0.684547 0.728969 -1
      vertex -0.637424 0.770513 -1
    endloop
  endfacet
  facet normal 0 0 -1
    outer loop
      vertex -0.728969 -0.684547 -1
      vertex -0.684547 0.728969 -1
      vertex -0.684547 -0.728969 -1
    endloop
  endfacet
  facet normal 0 0 -1
    outer loop
      vertex -0.728969 -0.684547 -1
      vertex -0.728969 0.684547 -1
      vertex -0.684547 0.728969 -1
    endloop
  endfacet
  facet normal 0 0 -1
    outer loop
      vertex -0.770513 -0.637424 -1
      vertex -0.728969 0.684547 -1
      vertex -0.728969 -0.684547 -1
    endloop
  endfacet
  facet normal 0 0 -1
    outer loop
      vertex -0.770513 -0.637424 -1
      vertex -0.770513 0.637424 -1
      vertex -0.728969 0.684547 -1
    endloop
  endfacet
  facet normal 0 0 -1
    outer loop
      vertex -0.809017 -0.587785 -1
      vertex -0.770513 0.637424 -1
      vertex -0.770513 -0.637424 -1
    endloop
  endfacet
  facet normal 0 0 -1
    outer loop
      vertex -0.809017 -0.587785 -1
      vertex -0.809017 0.587785 -1
      vertex -0.770513 0.637424 -1
    endloop
  endfacet
  facet normal 0 0 -1
    outer loop
      vertex -0.844328 -0.535827 -1
      vertex -0.809017 0.587785 -1
      vertex -0.809017 -0.587785 -1
    endloop
  endfacet
  facet normal 0 0 -1
    outer loop
      vertex -0.844328 -0.535827 -1
      vertex -0.844328 0.535827 -1
      vertex -0.809017 0.587785 -1
    endloop
  endfacet
  facet normal 0 0 -1
    outer loop
      vertex -0.876307 -0.481754 -1
      vertex -0.844328 0.535827 -1
      vertex -0.844328 -0.535827 -1
    endloop
  endfacet
  facet normal 0 0 -1
    outer loop
      vertex -0.876307 -0.481754 -1
      vertex -0.876307 0.481754 -1
      vertex -0.844328 0.535827 -1
    endloop
  endfacet
  facet normal 0 0 -1
    outer loop
      vertex -0.904827 -0.425779 -1
      vertex -0.876307 0.481754 -1
      vertex -0.876307 -0.481754 -1
    endloop
  endfacet
  facet normal 0 0 -1
    outer loop
      vertex -0.904827 -0.425779 -1
      vertex -0.904827 0.425779 -1
      vertex -0.876307 0.481754 -1
    endloop
  endfacet
  facet normal 0 0 -1
    outer loop
      vertex -0.929776 -0.368125 -1
      vertex -0.904827 0.425779 -1
      vertex -0.904827 -0.425779 -1
    endloop
  endfacet
  facet normal 0 0 -1
    outer loop
      vertex -0.929776 -0.368125 -1
      vertex -0.929776 0.368125 -1
      vertex -0.904827 0.425779 -1
    endloop
  endfacet
  facet normal 0 0 -1
    outer loop
      vertex -0.951057 -0.309017 -1
      vertex -0.929776 0.368125 -1
      vertex -0.929776 -0.368125 -1
    endloop
  endfacet
  facet normal 0 0 -1
    outer loop
      vertex -0.951057 -0.309017 -1
      vertex -0.951057 0.309017 -1
      vertex -0.929776 0.368125 -1
    endloop
  endfacet
  facet normal 0 0 -1
    outer loop
      vertex -0.968583 -0.24869 -1
      vertex -0.951057 0.309017 -1
      vertex -0.951057 -0.309017 -1
    endloop
  endfacet
  facet normal 0 0 -1
    outer loop
      vertex -0.968583 -0.24869 -1
      vertex -0.968583 0.24869 -1
      vertex -0.951057 0.309017 -1
    endloop
  endfacet
  facet normal 0 0 -1
    outer loop
      vertex -0.982287 -0.187381 -1
      vertex -0.968583 0.24869 -1
      vertex -0.968583 -0.24869 -1
    endloop
  endfacet
  facet normal 0 0 -1
    outer loop
      vertex -0.982287 -0.187381 -1
      vertex -0.982287 0.187381 -1
      vertex -0.968583 0.24869 -1
    endloop
  endfacet
  facet normal 0 0 -1
    outer loop
      vertex -0.992115 -0.125333 -1
      vertex -0.982287 0.187381 -1
      vertex -0.982287 -0.187381 -1
    endloop
  endfacet
  facet normal 0 0 -1
    outer loop
      vertex -0.992115 -0.125333 -1
      vertex -0.992115 0.125333 -1
      vertex -0.982287 0.187381 -1
    endloop
  endfacet
  facet normal 0 0 -1
    outer loop
      vertex -0.998027 -0.0627905 -1
      vertex -0.992115 0.125333 -1
      vertex -0.992115 -0.125333 -1
    endloop
  endfacet
  facet normal 0 0 -1
    outer loop
      vertex -0.998027 -0.0627905 -1
      vertex -0.998027 0.0627905 -1
      vertex -0.992115 0.125333 -1
    endloop
  endfacet
  facet normal 0 -0 -1
    outer loop
      vertex -0.998027 0.0627905 -1
      vertex -0.998027 -0.0627905 -1
      vertex -1 -0 -1
    endloop
  endfacet
endsolid OpenSCAD_Model
