  0
SECTION
  2
HEADER
  9
$ACADVER
  1
AC1009
  9
$DWGCODEPAGE
  3
ANSI_1252
  9
$INSBASE
 10
0.0
 20
0.0
 30
0.0
  9
$EXTMIN
 10
1e+20
 20
1e+20
 30
1e+20
  9
$EXTMAX
 10
-1e+20
 20
-1e+20
 30
-1e+20
  9
$LIMMIN
 10
0.0
 20
0.0
  9
$LIMMAX
 10
420.0
 20
297.0
  9
$ORTHOMODE
 70
0
  9
$REGENMODE
 70
1
  9
$FILLMODE
 70
1
  9
$DRAGMODE
 70
2
  9
$QTEXTMODE
 70
0
  9
$MIRRTEXT
 70
1
  9
$OSMODE
 70
20583
  9
$LTSCALE
 40
1.0
  9
$ATTMODE
 70
1
  9
$TEXTSIZE
 40
2.5
  9
$TRACEWID
 40
1.0
  9
$TEXTSTYLE
  7
Standard
  9
$CLAYER
  8
0
  9
$CELTYPE
  6
ByLayer
  9
$CECOLOR
 62
256
  9
$DIMSCALE
 40
1.0
  9
$DIMASZ
 40
2.5
  9
$DIMEXO
 40
0.625
  9
$DIMDLI
 40
3.75
  9
$DIMRND
 40
0.0
  9
$DIMDLE
 40
0.0
  9
$DIMEXE
 40
1.25
  9
$DIMTP
 40
0.0
  9
$DIMTM
 40
0.0
  9
$DIMTXT
 40
2.5
  9
$DIMCEN
 40
2.5
  9
$DIMTSZ
 40
0.0
  9
$DIMTOL
 70
0
  9
$DIMLIM
 70
0
  9
$DIMTIH
 70
0
  9
$DIMTOH
 70
0
  9
$DIMSE1
 70
0
  9
$DIMSE2
 70
0
  9
$DIMTAD
 70
1
  9
$DIMZIN
 70
8
  9
$DIMBLK
  1

  9
$DIMASO
 70
1
  9
$DIMSHO
 70
1
  9
$DIMPOST
  1

  9
$DIMAPOST
  1

  9
$DIMALT
 70
0
  9
$DIMALTD
 70
3
  9
$DIMALTF
 40
0.03937007874
  9
$DIMLFAC
 40
1.0
  9
$DIMTOFL
 70
1
  9
$DIMTVP
 40
0.0
  9
$DIMTIX
 70
0
  9
$DIMSOXD
 70
0
  9
$DIMSAH
 70
0
  9
$DIMBLK1
  1

  9
$DIMBLK2
  1

  9
$DIMSTYLE
  2
ISO-25
  9
$DIMCLRD
 70
0
  9
$DIMCLRE
 70
0
  9
$DIMCLRT
 70
0
  9
$DIMTFAC
 40
1.0
  9
$DIMGAP
 40
0.625
  9
$COORDS
 70
1
  9
$ATTDIA
 70
0
  9
$ATTREQ
 70
1
  9
$HANDLING
 70
1
  9
$LUNITS
 70
2
  9
$LUPREC
 70
4
  9
$SKETCHINC
 40
1.0
  9
$FILLETRAD
 40
10.0
  9
$AUNITS
 70
0
  9
$AUPREC
 70
2
  9
$MENU
  1
.
  9
$ELEVATION
 40
0.0
  9
$PELEVATION
 40
0.0
  9
$THICKNESS
 40
0.0
  9
$LIMCHECK
 70
0
  9
$CHAMFERA
 40
0.0
  9
$CHAMFERB
 40
0.0
  9
$SKPOLY
 70
0
  9
$TDCREATE
 40
2461050.5353356483
  9
$TDUPDATE
 40
2461050.5353356483
  9
$TDINDWG
 40
0.0
  9
$TDUSRTIMER
 40
0.0
  9
$USRTIMER
 70
1
  9
$ANGBASE
 50
0.0
  9
$ANGDIR
 70
0
  9
$PDMODE
 70
0
  9
$PDSIZE
 40
0.0
  9
$PLINEWID
 40
0.0
  9
$SPLFRAME
 70
0
  9
$SPLINETYPE
 70
6
  9
$SPLINESEGS
 70
8
  9
$HANDSEED
  5
1D7
  9
$SURFTAB1
 70
6
  9
$SURFTAB2
 70
6
  9
$SURFTYPE
 70
6
  9
$SURFU
 70
6
  9
$SURFV
 70
6
  9
$UCSNAME
  2

  9
$UCSORG
 10
0.0
 20
0.0
 30
0.0
  9
$UCSXDIR
 10
1.0
 20
0.0
 30
0.0
  9
$UCSYDIR
 10
0.0
 20
1.0
 30
0.0
  9
$PUCSNAME
  2

  9
$PUCSORG
 10
0.0
 20
0.0
 30
0.0
  9
$PUCSXDIR
 10
1.0
 20
0.0
 30
0.0
  9
$PUCSYDIR
 10
0.0
 20
1.0
 30
0.0
  9
$USERI1
 70
0
  9
$USERI2
 70
0
  9
$USERI3
 70
0
  9
$USERI4
 70
0
  9
$USERI5
 70
0
  9
$USERR1
 40
0.0
  9
$USERR2
 40
0.0
  9
$USERR3
 40
0.0
  9
$USERR4
 40
0.0
  9
$USERR5
 40
0.0
  9
$WORLDVIEW
 70
1
  9
$SHADEDGE
 70
3
  9
$SHADEDIF
 70
70
  9
$TILEMODE
 70
1
  9
$MAXACTVP
 70
64
  9
$PLIMCHECK
 70
0
  9
$PEXTMIN
 10
1e+20
 20
1e+20
 30
1e+20
  9
$PEXTMAX
 10
-1e+20
 20
-1e+20
 30
-1e+20
  9
$PLIMMIN
 10
0.0
 20
0.0
  9
$PLIMMAX
 10
420.0
 20
297.0
  9
$UNITMODE
 70
0
  9
$VISRETAIN
 70
1
  9
$PLINEGEN
 70
0
  9
$PSLTSCALE
 70
1
  0
ENDSEC
  0
SECTION
  2
TABLES
  0
TABLE
  2
VPORT
 70
1
  0
VPORT
  5
1C9
  2
*Active
 70
0
 10
0.0
 20
0.0
 11
1.0
 21
1.0
 12
0.0
 22
0.0
 13
0.0
 23
0.0
 14
0.5
 24
0.5
 15
0.5
 25
0.5
 16
0.0
 26
0.0
 36
1.0
 17
0.0
 27
0.0
 37
0.0
 40
1000.0
 41
1.34
 42
50.0
 43
0.0
 44
0.0
 50
0.0
 51
0.0
 71
0
 72
1000
 73
1
 74
3
 75
0
 76
0
 77
0
 78
0
  0
ENDTAB
  0
TABLE
  2
LTYPE
 70
3
  0
LTYPE
  5
1CA
  2
ByBlock
 70
0
  3

 72
65
 73
0
 40
0.0
  0
LTYPE
  5
1CB
  2
ByLayer
 70
0
  3

 72
65
 73
0
 40
0.0
  0
LTYPE
  5
1CC
  2
Continuous
 70
0
  3

 72
65
 73
0
 40
0.0
  0
ENDTAB
  0
TABLE
  2
LAYER
 70
3
  0
LAYER
  5
1CD
  2
0
 70
0
 62
7
  6
Continuous
  0
LAYER
  5
1CE
  2
Defpoints
 70
0
 62
7
  6
Continuous
  0
LAYER
  5
1D3
  2
BEND
 70
0
 62
1
  6
Continuous
  0
ENDTAB
  0
TABLE
  2
STYLE
 70
1
  0
STYLE
  5
1CF
  2
Standard
 70
0
 40
0.0
 41
1.0
 50
0.0
 71
0
 42
2.5
  3
txt
  4

  0
ENDTAB
  0
TABLE
  2
VIEW
 70
0
  0
ENDTAB
  0
TABLE
  2
UCS
 70
0
  0
ENDTAB
  0
TABLE
  2
APPID
 70
3
  0
APPID
  5
1D0
  2
ACAD
 70
0
  0
APPID
  5
1D5
  2
HATCHBACKGROUNDCOLOR
 70
0
  0
APPID
  5
1D6
  2
EZDXF
 70
0
  0
ENDTAB
  0
TABLE
  2
DIMSTYLE
 70
1
  0
DIMSTYLE
105
1D1
  2
Standard
 70
0
  3

  4

  5

  6

  7

 40
1.0
 41
2.5
 42
0.625
 43
3.75
 44
1.25
 45
0.0
 46
0.0
 47
0.0
 48
0.0
140
2.5
141
2.5
142
0.0
143
0.03937007874
144
1.0
145
0.0
146
1.0
147
0.625
 71
0
 72
0
 73
0
 74
0
 75
0
 76
0
 77
1
 78
8
170
0
171
3
172
1
173
0
174
0
175
0
176
0
177
0
178
0
  0
ENDTAB
  0
ENDSEC
  0
SECTION
  2
BLOCKS
  0
BLOCK
  5
1AA
  8
0
  2
$Model_Space
 70
0
 10
0.0
 20
0.0
 30
0.0
  3
$Model_Space
  1

1001
EZDXF
1000
WRITTEN_BY_EZDXF
1000
1.4.3 @ 2026-01-09T19:50:53.326798+00:00
  0
ENDBLK
  5
1AB
  8
0
  0
BLOCK
  5
1AC
  8
0
  2
$Paper_Space
 70
0
 10
0.0
 20
0.0
 30
0.0
  3
$Paper_Space
  1

  0
ENDBLK
  5
1AD
  8
0
  0
ENDSEC
  0
SECTION
  2
ENTITIES
  0
LINE
  5
100
  8
0
 10
2.24857
 20
-41.7874
 30
0.0
 11
3.70819
 21
-41.4127
 31
0.0
  0
LINE
  5
101
  8
0
 10
3.70819
 20
-41.4127
 30
0.0
 11
49.9094
 21
-24.5794
 31
0.0
  0
LINE
  5
102
  8
0
 10
49.9094
 20
-24.5794
 30
0.0
 11
51.2498
 21
-23.8905
 31
0.0
  0
LINE
  5
103
  8
0
 10
51.2498
 20
-23.8905
 30
0.0
 11
52.4932
 21
-23.0392
 31
0.0
  0
LINE
  5
104
  8
0
 10
52.4932
 20
-23.0392
 30
0.0
 11
53.6201
 21
-22.0386
 31
0.0
  0
LINE
  5
105
  8
0
 10
53.6201
 20
-22.0386
 30
0.0
 11
54.6127
 21
-20.9048
 31
0.0
  0
LINE
  5
106
  8
0
 10
54.6127
 20
-20.9048
 30
0.0
 11
55.4554
 21
-19.6554
 31
0.0
  0
LINE
  5
107
  8
0
 10
55.4554
 20
-19.6554
 30
0.0
 11
56.1349
 21
-18.3103
 31
0.0
  0
LINE
  5
108
  8
0
 10
56.1349
 20
-18.3103
 30
0.0
 11
56.6404
 21
-16.8907
 31
0.0
  0
LINE
  5
109
  8
0
 10
56.6404
 20
-16.8907
 30
0.0
 11
56.964
 21
-15.4189
 31
0.0
  0
LINE
  5
10A
  8
0
 10
56.964
 20
-15.4189
 30
0.0
 11
57.1006
 21
-13.9181
 31
0.0
  0
LINE
  5
10B
  8
0
 10
57.1006
 20
-13.9181
 30
0.0
 11
57.048
 21
-12.412
 31
0.0
  0
LINE
  5
10C
  8
0
 10
57.048
 20
-12.412
 30
0.0
 11
56.807
 21
-10.9244
 31
0.0
  0
LINE
  5
10D
  8
0
 10
56.807
 20
-10.9244
 30
0.0
 11
56.3815
 21
-9.47879
 31
0.0
  0
LINE
  5
10E
  8
0
 10
56.3815
 20
-9.47879
 30
0.0
 11
55.7782
 21
-8.09785
 31
0.0
  0
LINE
  5
10F
  8
0
 10
55.7782
 20
-8.09785
 30
0.0
 11
0.0
 21
98.6747
 31
0.0
  0
LINE
  5
110
  8
0
 10
0.0
 20
98.6747
 30
0.0
 11
0.0
 21
135.0
 31
0.0
  0
LINE
  5
111
  8
0
 10
0.0
 20
135.0
 30
0.0
 11
-0.118271
 21
136.88
 31
0.0
  0
LINE
  5
112
  8
0
 10
-0.118271
 20
136.88
 30
0.0
 11
-0.471252
 21
138.73
 31
0.0
  0
LINE
  5
113
  8
0
 10
-0.471252
 20
138.73
 30
0.0
 11
-1.05334
 21
140.522
 31
0.0
  0
LINE
  5
114
  8
0
 10
-1.05334
 20
140.522
 30
0.0
 11
-1.85539
 21
142.226
 31
0.0
  0
LINE
  5
115
  8
0
 10
-1.85539
 20
142.226
 30
0.0
 11
-2.86473
 21
143.817
 31
0.0
  0
LINE
  5
116
  8
0
 10
-2.86473
 20
143.817
 30
0.0
 11
-4.06546
 21
145.268
 31
0.0
  0
LINE
  5
117
  8
0
 10
-4.06546
 20
145.268
 30
0.0
 11
-5.43863
 21
146.558
 31
0.0
  0
LINE
  5
118
  8
0
 10
-5.43863
 20
146.558
 30
0.0
 11
-6.96259
 21
147.665
 31
0.0
  0
LINE
  5
119
  8
0
 10
-6.96259
 20
147.665
 30
0.0
 11
-8.6133
 21
148.572
 31
0.0
  0
LINE
  5
11A
  8
0
 10
-8.6133
 20
148.572
 30
0.0
 11
-10.3647
 21
149.266
 31
0.0
  0
LINE
  5
11B
  8
0
 10
-10.3647
 20
149.266
 30
0.0
 11
-12.1893
 21
149.734
 31
0.0
  0
LINE
  5
11C
  8
0
 10
-12.1893
 20
149.734
 30
0.0
 11
-14.0581
 21
149.97
 31
0.0
  0
LINE
  5
11D
  8
0
 10
-14.0581
 20
149.97
 30
0.0
 11
-15.9418
 21
149.97
 31
0.0
  0
LINE
  5
11E
  8
0
 10
-15.9418
 20
149.97
 30
0.0
 11
-17.8107
 21
149.734
 31
0.0
  0
LINE
  5
11F
  8
0
 10
-17.8107
 20
149.734
 30
0.0
 11
-19.6353
 21
149.266
 31
0.0
  0
LINE
  5
120
  8
0
 10
-19.6353
 20
149.266
 30
0.0
 11
-21.3867
 21
148.572
 31
0.0
  0
LINE
  5
121
  8
0
 10
-21.3867
 20
148.572
 30
0.0
 11
-23.0374
 21
147.665
 31
0.0
  0
LINE
  5
122
  8
0
 10
-23.0374
 20
147.665
 30
0.0
 11
-24.5614
 21
146.558
 31
0.0
  0
LINE
  5
123
  8
0
 10
-24.5614
 20
146.558
 30
0.0
 11
-25.9345
 21
145.268
 31
0.0
  0
LINE
  5
124
  8
0
 10
-25.9345
 20
145.268
 30
0.0
 11
-27.1353
 21
143.817
 31
0.0
  0
LINE
  5
125
  8
0
 10
-27.1353
 20
143.817
 30
0.0
 11
-28.1446
 21
142.226
 31
0.0
  0
LINE
  5
126
  8
0
 10
-28.1446
 20
142.226
 30
0.0
 11
-28.9466
 21
140.522
 31
0.0
  0
LINE
  5
127
  8
0
 10
-28.9466
 20
140.522
 30
0.0
 11
-29.5287
 21
138.73
 31
0.0
  0
LINE
  5
128
  8
0
 10
-29.5287
 20
138.73
 30
0.0
 11
-29.8817
 21
136.88
 31
0.0
  0
LINE
  5
129
  8
0
 10
-29.8817
 20
136.88
 30
0.0
 11
-30.0
 21
135.0
 31
0.0
  0
LINE
  5
12A
  8
0
 10
-30.0
 20
135.0
 30
0.0
 11
-30.0
 21
95.0
 31
0.0
  0
LINE
  5
12B
  8
0
 10
-30.0
 20
95.0
 30
0.0
 11
-29.8817
 21
93.12
 31
0.0
  0
LINE
  5
12C
  8
0
 10
-29.8817
 20
93.12
 30
0.0
 11
-11.9054
 21
-31.504
 31
0.0
  0
LINE
  5
12D
  8
0
 10
-11.9054
 20
-31.504
 30
0.0
 11
-11.623
 21
-32.9843
 31
0.0
  0
LINE
  5
12E
  8
0
 10
-11.623
 20
-32.9843
 30
0.0
 11
-11.1573
 21
-34.4175
 31
0.0
  0
LINE
  5
12F
  8
0
 10
-11.1573
 20
-34.4175
 30
0.0
 11
-10.5157
 21
-35.781
 31
0.0
  0
LINE
  5
130
  8
0
 10
-10.5157
 20
-35.781
 30
0.0
 11
-9.70819
 21
-37.0534
 31
0.0
  0
LINE
  5
131
  8
0
 10
-9.70819
 20
-37.0534
 30
0.0
 11
-8.74762
 21
-38.2146
 31
0.0
  0
LINE
  5
132
  8
0
 10
-8.74762
 20
-38.2146
 30
0.0
 11
-7.64908
 21
-39.2462
 31
0.0
  0
LINE
  5
133
  8
0
 10
-7.64908
 20
-39.2462
 30
0.0
 11
-6.42992
 21
-40.1319
 31
0.0
  0
LINE
  5
134
  8
0
 10
-6.42992
 20
-40.1319
 30
0.0
 11
-5.10934
 21
-40.8579
 31
0.0
  0
LINE
  5
135
  8
0
 10
-5.10934
 20
-40.8579
 30
0.0
 11
-3.70819
 21
-41.4127
 31
0.0
  0
LINE
  5
136
  8
0
 10
-3.70819
 20
-41.4127
 30
0.0
 11
-2.24857
 21
-41.7874
 31
0.0
  0
LINE
  5
137
  8
0
 10
-2.24857
 20
-41.7874
 30
0.0
 11
-0.753479
 21
-41.9763
 31
0.0
  0
LINE
  5
138
  8
0
 10
-0.753479
 20
-41.9763
 30
0.0
 11
0.753479
 21
-41.9763
 31
0.0
  0
LINE
  5
139
  8
0
 10
0.753479
 20
-41.9763
 30
0.0
 11
2.24857
 21
-41.7874
 31
0.0
  0
LINE
  5
13A
  8
0
 10
25.9942
 20
6.09096
 30
0.0
 11
25.5598
 21
6.1582
 31
0.0
  0
LINE
  5
13B
  8
0
 10
25.5598
 20
6.1582
 30
0.0
 11
25.1373
 21
6.27936
 31
0.0
  0
LINE
  5
13C
  8
0
 10
25.1373
 20
6.27936
 30
0.0
 11
24.7333
 21
6.4525
 31
0.0
  0
LINE
  5
13D
  8
0
 10
24.7333
 20
6.4525
 30
0.0
 11
24.3542
 21
6.67493
 31
0.0
  0
LINE
  5
13E
  8
0
 10
24.3542
 20
6.67493
 30
0.0
 11
24.006
 21
6.9431
 31
0.0
  0
LINE
  5
13F
  8
0
 10
24.006
 20
6.9431
 30
0.0
 11
23.6941
 21
7.25281
 31
0.0
  0
LINE
  5
140
  8
0
 10
23.6941
 20
7.25281
 30
0.0
 11
23.4235
 21
7.59917
 31
0.0
  0
LINE
  5
141
  8
0
 10
23.4235
 20
7.59917
 30
0.0
 11
23.1984
 21
7.97672
 31
0.0
  0
LINE
  5
142
  8
0
 10
23.1984
 20
7.97672
 30
0.0
 11
23.0225
 21
8.37949
 31
0.0
  0
LINE
  5
143
  8
0
 10
23.0225
 20
8.37949
 30
0.0
 11
22.8984
 21
8.80113
 31
0.0
  0
LINE
  5
144
  8
0
 10
22.8984
 20
8.80113
 30
0.0
 11
22.8281
 21
9.23502
 31
0.0
  0
LINE
  5
145
  8
0
 10
22.8281
 20
9.23502
 30
0.0
 11
22.8127
 21
9.67429
 31
0.0
  0
LINE
  5
146
  8
0
 10
22.8127
 20
9.67429
 30
0.0
 11
22.8526
 21
10.112
 31
0.0
  0
LINE
  5
147
  8
0
 10
22.8526
 20
10.112
 30
0.0
 11
22.947
 21
10.5413
 31
0.0
  0
LINE
  5
148
  8
0
 10
22.947
 20
10.5413
 30
0.0
 11
23.0944
 21
10.9554
 31
0.0
  0
LINE
  5
149
  8
0
 10
23.0944
 20
10.9554
 30
0.0
 11
23.2926
 21
11.3477
 31
0.0
  0
LINE
  5
14A
  8
0
 10
23.2926
 20
11.3477
 30
0.0
 11
23.5384
 21
11.7121
 31
0.0
  0
LINE
  5
14B
  8
0
 10
23.5384
 20
11.7121
 30
0.0
 11
23.8279
 21
12.0428
 31
0.0
  0
LINE
  5
14C
  8
0
 10
23.8279
 20
12.0428
 30
0.0
 11
24.1566
 21
12.3346
 31
0.0
  0
LINE
  5
14D
  8
0
 10
24.1566
 20
12.3346
 30
0.0
 11
24.5192
 21
12.5829
 31
0.0
  0
LINE
  5
14E
  8
0
 10
24.5192
 20
12.5829
 30
0.0
 11
24.9102
 21
12.7838
 31
0.0
  0
LINE
  5
14F
  8
0
 10
24.9102
 20
12.7838
 30
0.0
 11
25.3232
 21
12.9342
 31
0.0
  0
LINE
  5
150
  8
0
 10
25.3232
 20
12.9342
 30
0.0
 11
25.7518
 21
13.0315
 31
0.0
  0
LINE
  5
151
  8
0
 10
25.7518
 20
13.0315
 30
0.0
 11
26.1892
 21
13.0744
 31
0.0
  0
LINE
  5
152
  8
0
 10
26.1892
 20
13.0744
 30
0.0
 11
26.6286
 21
13.0621
 31
0.0
  0
LINE
  5
153
  8
0
 10
26.6286
 20
13.0621
 30
0.0
 11
27.063
 21
12.9949
 31
0.0
  0
LINE
  5
154
  8
0
 10
27.063
 20
12.9949
 30
0.0
 11
27.4855
 21
12.8738
 31
0.0
  0
LINE
  5
155
  8
0
 10
27.4855
 20
12.8738
 30
0.0
 11
27.8895
 21
12.7006
 31
0.0
  0
LINE
  5
156
  8
0
 10
27.8895
 20
12.7006
 30
0.0
 11
28.2686
 21
12.4782
 31
0.0
  0
LINE
  5
157
  8
0
 10
28.2686
 20
12.4782
 30
0.0
 11
28.6168
 21
12.21
 31
0.0
  0
LINE
  5
158
  8
0
 10
28.6168
 20
12.21
 30
0.0
 11
28.9287
 21
11.9003
 31
0.0
  0
LINE
  5
159
  8
0
 10
28.9287
 20
11.9003
 30
0.0
 11
29.1993
 21
11.5539
 31
0.0
  0
LINE
  5
15A
  8
0
 10
29.1993
 20
11.5539
 30
0.0
 11
29.4243
 21
11.1764
 31
0.0
  0
LINE
  5
15B
  8
0
 10
29.4243
 20
11.1764
 30
0.0
 11
29.6003
 21
10.7736
 31
0.0
  0
LINE
  5
15C
  8
0
 10
29.6003
 20
10.7736
 30
0.0
 11
29.7244
 21
10.352
 31
0.0
  0
LINE
  5
15D
  8
0
 10
29.7244
 20
10.352
 30
0.0
 11
29.7947
 21
9.91809
 31
0.0
  0
LINE
  5
15E
  8
0
 10
29.7947
 20
9.91809
 30
0.0
 11
29.81
 21
9.47884
 31
0.0
  0
LINE
  5
15F
  8
0
 10
29.81
 20
9.47884
 30
0.0
 11
29.7702
 21
9.04111
 31
0.0
  0
LINE
  5
160
  8
0
 10
29.7702
 20
9.04111
 30
0.0
 11
29.6758
 21
8.61183
 31
0.0
  0
LINE
  5
161
  8
0
 10
29.6758
 20
8.61183
 30
0.0
 11
29.5284
 21
8.19775
 31
0.0
  0
LINE
  5
162
  8
0
 10
29.5284
 20
8.19775
 30
0.0
 11
29.3302
 21
7.80544
 31
0.0
  0
LINE
  5
163
  8
0
 10
29.3302
 20
7.80544
 30
0.0
 11
29.0844
 21
7.44106
 31
0.0
  0
LINE
  5
164
  8
0
 10
29.0844
 20
7.44106
 30
0.0
 11
28.7949
 21
7.11034
 31
0.0
  0
LINE
  5
165
  8
0
 10
28.7949
 20
7.11034
 30
0.0
 11
28.4662
 21
6.81851
 31
0.0
  0
LINE
  5
166
  8
0
 10
28.4662
 20
6.81851
 30
0.0
 11
28.1035
 21
6.57019
 31
0.0
  0
LINE
  5
167
  8
0
 10
28.1035
 20
6.57019
 30
0.0
 11
27.7126
 21
6.36929
 31
0.0
  0
LINE
  5
168
  8
0
 10
27.7126
 20
6.36929
 30
0.0
 11
27.2996
 21
6.21896
 31
0.0
  0
LINE
  5
169
  8
0
 10
27.2996
 20
6.21896
 30
0.0
 11
26.871
 21
6.12158
 31
0.0
  0
LINE
  5
16A
  8
0
 10
26.871
 20
6.12158
 30
0.0
 11
26.4335
 21
6.07869
 31
0.0
  0
LINE
  5
16B
  8
0
 10
26.4335
 20
6.07869
 30
0.0
 11
25.9942
 21
6.09096
 31
0.0
  0
LINE
  5
16C
  8
0
 10
-0.219757
 20
-3.49309
 30
0.0
 11
-0.655823
 21
-3.438
 31
0.0
  0
LINE
  5
16D
  8
0
 10
-0.655823
 20
-3.438
 30
0.0
 11
-1.08156
 21
-3.32869
 31
0.0
  0
LINE
  5
16E
  8
0
 10
-1.08156
 20
-3.32869
 30
0.0
 11
-1.49022
 21
-3.16689
 31
0.0
  0
LINE
  5
16F
  8
0
 10
-1.49022
 20
-3.16689
 30
0.0
 11
-1.87538
 21
-2.95514
 31
0.0
  0
LINE
  5
170
  8
0
 10
-1.87538
 20
-2.95514
 30
0.0
 11
-2.23097
 21
-2.69679
 31
0.0
  0
LINE
  5
171
  8
0
 10
-2.23097
 20
-2.69679
 30
0.0
 11
-2.55138
 21
-2.3959
 31
0.0
  0
LINE
  5
172
  8
0
 10
-2.55138
 20
-2.3959
 30
0.0
 11
-2.83156
 21
-2.05724
 31
0.0
  0
LINE
  5
173
  8
0
 10
-2.83156
 20
-2.05724
 30
0.0
 11
-3.06706
 21
-1.68613
 31
0.0
  0
LINE
  5
174
  8
0
 10
-3.06706
 20
-1.68613
 30
0.0
 11
-3.25421
 21
-1.28842
 31
0.0
  0
LINE
  5
175
  8
0
 10
-3.25421
 20
-1.28842
 30
0.0
 11
-3.39003
 21
-0.870407
 31
0.0
  0
LINE
  5
176
  8
0
 10
-3.39003
 20
-0.870407
 30
0.0
 11
-3.4724
 21
-0.43866
 31
0.0
  0
LINE
  5
177
  8
0
 10
-3.4724
 20
-0.43866
 30
0.0
 11
-3.5
 21
0.0
 31
0.0
  0
LINE
  5
178
  8
0
 10
-3.5
 20
0.0
 30
0.0
 11
-3.4724
 21
0.43866
 31
0.0
  0
LINE
  5
179
  8
0
 10
-3.4724
 20
0.43866
 30
0.0
 11
-3.39003
 21
0.870407
 31
0.0
  0
LINE
  5
17A
  8
0
 10
-3.39003
 20
0.870407
 30
0.0
 11
-3.25421
 21
1.28842
 31
0.0
  0
LINE
  5
17B
  8
0
 10
-3.25421
 20
1.28842
 30
0.0
 11
-3.06706
 21
1.68613
 31
0.0
  0
LINE
  5
17C
  8
0
 10
-3.06706
 20
1.68613
 30
0.0
 11
-2.83156
 21
2.05724
 31
0.0
  0
LINE
  5
17D
  8
0
 10
-2.83156
 20
2.05724
 30
0.0
 11
-2.55138
 21
2.3959
 31
0.0
  0
LINE
  5
17E
  8
0
 10
-2.55138
 20
2.3959
 30
0.0
 11
-2.23097
 21
2.69679
 31
0.0
  0
LINE
  5
17F
  8
0
 10
-2.23097
 20
2.69679
 30
0.0
 11
-1.87538
 21
2.95514
 31
0.0
  0
LINE
  5
180
  8
0
 10
-1.87538
 20
2.95514
 30
0.0
 11
-1.49022
 21
3.16689
 31
0.0
  0
LINE
  5
181
  8
0
 10
-1.49022
 20
3.16689
 30
0.0
 11
-1.08156
 21
3.32869
 31
0.0
  0
LINE
  5
182
  8
0
 10
-1.08156
 20
3.32869
 30
0.0
 11
-0.655823
 21
3.438
 31
0.0
  0
LINE
  5
183
  8
0
 10
-0.655823
 20
3.438
 30
0.0
 11
-0.219757
 21
3.49309
 31
0.0
  0
LINE
  5
184
  8
0
 10
-0.219757
 20
3.49309
 30
0.0
 11
0.219757
 21
3.49309
 31
0.0
  0
LINE
  5
185
  8
0
 10
0.219757
 20
3.49309
 30
0.0
 11
0.655823
 21
3.438
 31
0.0
  0
LINE
  5
186
  8
0
 10
0.655823
 20
3.438
 30
0.0
 11
1.08156
 21
3.32869
 31
0.0
  0
LINE
  5
187
  8
0
 10
1.08156
 20
3.32869
 30
0.0
 11
1.49022
 21
3.16689
 31
0.0
  0
LINE
  5
188
  8
0
 10
1.49022
 20
3.16689
 30
0.0
 11
1.87538
 21
2.95514
 31
0.0
  0
LINE
  5
189
  8
0
 10
1.87538
 20
2.95514
 30
0.0
 11
2.23097
 21
2.69679
 31
0.0
  0
LINE
  5
18A
  8
0
 10
2.23097
 20
2.69679
 30
0.0
 11
2.55138
 21
2.3959
 31
0.0
  0
LINE
  5
18B
  8
0
 10
2.55138
 20
2.3959
 30
0.0
 11
2.83156
 21
2.05724
 31
0.0
  0
LINE
  5
18C
  8
0
 10
2.83156
 20
2.05724
 30
0.0
 11
3.06706
 21
1.68613
 31
0.0
  0
LINE
  5
18D
  8
0
 10
3.06706
 20
1.68613
 30
0.0
 11
3.25421
 21
1.28842
 31
0.0
  0
LINE
  5
18E
  8
0
 10
3.25421
 20
1.28842
 30
0.0
 11
3.39003
 21
0.870407
 31
0.0
  0
LINE
  5
18F
  8
0
 10
3.39003
 20
0.870407
 30
0.0
 11
3.4724
 21
0.43866
 31
0.0
  0
LINE
  5
190
  8
0
 10
3.4724
 20
0.43866
 30
0.0
 11
3.5
 21
0.0
 31
0.0
  0
LINE
  5
191
  8
0
 10
3.5
 20
0.0
 30
0.0
 11
3.4724
 21
-0.43866
 31
0.0
  0
LINE
  5
192
  8
0
 10
3.4724
 20
-0.43866
 30
0.0
 11
3.39003
 21
-0.870407
 31
0.0
  0
LINE
  5
193
  8
0
 10
3.39003
 20
-0.870407
 30
0.0
 11
3.25421
 21
-1.28842
 31
0.0
  0
LINE
  5
194
  8
0
 10
3.25421
 20
-1.28842
 30
0.0
 11
3.06706
 21
-1.68613
 31
0.0
  0
LINE
  5
195
  8
0
 10
3.06706
 20
-1.68613
 30
0.0
 11
2.83156
 21
-2.05724
 31
0.0
  0
LINE
  5
196
  8
0
 10
2.83156
 20
-2.05724
 30
0.0
 11
2.55138
 21
-2.3959
 31
0.0
  0
LINE
  5
197
  8
0
 10
2.55138
 20
-2.3959
 30
0.0
 11
2.23097
 21
-2.69679
 31
0.0
  0
LINE
  5
198
  8
0
 10
2.23097
 20
-2.69679
 30
0.0
 11
1.87538
 21
-2.95514
 31
0.0
  0
LINE
  5
199
  8
0
 10
1.87538
 20
-2.95514
 30
0.0
 11
1.49022
 21
-3.16689
 31
0.0
  0
LINE
  5
19A
  8
0
 10
1.49022
 20
-3.16689
 30
0.0
 11
1.08156
 21
-3.32869
 31
0.0
  0
LINE
  5
19B
  8
0
 10
1.08156
 20
-3.32869
 30
0.0
 11
0.655823
 21
-3.438
 31
0.0
  0
LINE
  5
19C
  8
0
 10
0.655823
 20
-3.438
 30
0.0
 11
0.219757
 21
-3.49309
 31
0.0
  0
LINE
  5
19D
  8
0
 10
0.219757
 20
-3.49309
 30
0.0
 11
-0.219757
 21
-3.49309
 31
0.0
  0
LINE
  5
1D4
  8
BEND
 10
-100.0
 20
95.0
 30
0.0
 11
100.0
 21
95.0
 31
0.0
  0
ENDSEC
  0
EOF
