  0
SECTION
  2
BLOCKS
  0
ENDSEC
  0
SECTION
  2
ENTITIES
  0
LINE
  8
0
 10
2.24857
 20
-41.7874
 11
3.70819
 21
-41.4127
  0
LINE
  8
0
 10
3.70819
 20
-41.4127
 11
49.9094
 21
-24.5794
  0
LINE
  8
0
 10
49.9094
 20
-24.5794
 11
51.2498
 21
-23.8905
  0
LINE
  8
0
 10
51.2498
 20
-23.8905
 11
52.4932
 21
-23.0392
  0
LINE
  8
0
 10
52.4932
 20
-23.0392
 11
53.6201
 21
-22.0386
  0
LINE
  8
0
 10
53.6201
 20
-22.0386
 11
54.6127
 21
-20.9048
  0
LINE
  8
0
 10
54.6127
 20
-20.9048
 11
55.4554
 21
-19.6554
  0
LINE
  8
0
 10
55.4554
 20
-19.6554
 11
56.1349
 21
-18.3103
  0
LINE
  8
0
 10
56.1349
 20
-18.3103
 11
56.6404
 21
-16.8907
  0
LINE
  8
0
 10
56.6404
 20
-16.8907
 11
56.964
 21
-15.4189
  0
LINE
  8
0
 10
56.964
 20
-15.4189
 11
57.1006
 21
-13.9181
  0
LINE
  8
0
 10
57.1006
 20
-13.9181
 11
57.048
 21
-12.412
  0
LINE
  8
0
 10
57.048
 20
-12.412
 11
56.807
 21
-10.9244
  0
LINE
  8
0
 10
56.807
 20
-10.9244
 11
56.3815
 21
-9.47879
  0
LINE
  8
0
 10
56.3815
 20
-9.47879
 11
55.7782
 21
-8.09785
  0
LINE
  8
0
 10
55.7782
 20
-8.09785
 11
0
 21
98.6747
  0
LINE
  8
0
 10
0
 20
98.6747
 11
0
 21
135
  0
LINE
  8
0
 10
0
 20
135
 11
-0.118271
 21
136.88
  0
LINE
  8
0
 10
-0.118271
 20
136.88
 11
-0.471252
 21
138.73
  0
LINE
  8
0
 10
-0.471252
 20
138.73
 11
-1.05334
 21
140.522
  0
LINE
  8
0
 10
-1.05334
 20
140.522
 11
-1.85539
 21
142.226
  0
LINE
  8
0
 10
-1.85539
 20
142.226
 11
-2.86473
 21
143.817
  0
LINE
  8
0
 10
-2.86473
 20
143.817
 11
-4.06546
 21
145.268
  0
LINE
  8
0
 10
-4.06546
 20
145.268
 11
-5.43863
 21
146.558
  0
LINE
  8
0
 10
-5.43863
 20
146.558
 11
-6.96259
 21
147.665
  0
LINE
  8
0
 10
-6.96259
 20
147.665
 11
-8.6133
 21
148.572
  0
LINE
  8
0
 10
-8.6133
 20
148.572
 11
-10.3647
 21
149.266
  0
LINE
  8
0
 10
-10.3647
 20
149.266
 11
-12.1893
 21
149.734
  0
LINE
  8
0
 10
-12.1893
 20
149.734
 11
-14.0581
 21
149.97
  0
LINE
  8
0
 10
-14.0581
 20
149.97
 11
-15.9418
 21
149.97
  0
LINE
  8
0
 10
-15.9418
 20
149.97
 11
-17.8107
 21
149.734
  0
LINE
  8
0
 10
-17.8107
 20
149.734
 11
-19.6353
 21
149.266
  0
LINE
  8
0
 10
-19.6353
 20
149.266
 11
-21.3867
 21
148.572
  0
LINE
  8
0
 10
-21.3867
 20
148.572
 11
-23.0374
 21
147.665
  0
LINE
  8
0
 10
-23.0374
 20
147.665
 11
-24.5614
 21
146.558
  0
LINE
  8
0
 10
-24.5614
 20
146.558
 11
-25.9345
 21
145.268
  0
LINE
  8
0
 10
-25.9345
 20
145.268
 11
-27.1353
 21
143.817
  0
LINE
  8
0
 10
-27.1353
 20
143.817
 11
-28.1446
 21
142.226
  0
LINE
  8
0
 10
-28.1446
 20
142.226
 11
-28.9466
 21
140.522
  0
LINE
  8
0
 10
-28.9466
 20
140.522
 11
-29.5287
 21
138.73
  0
LINE
  8
0
 10
-29.5287
 20
138.73
 11
-29.8817
 21
136.88
  0
LINE
  8
0
 10
-29.8817
 20
136.88
 11
-30
 21
135
  0
LINE
  8
0
 10
-30
 20
135
 11
-30
 21
95
  0
LINE
  8
0
 10
-30
 20
95
 11
-29.8817
 21
93.12
  0
LINE
  8
0
 10
-29.8817
 20
93.12
 11
-11.9054
 21
-31.504
  0
LINE
  8
0
 10
-11.9054
 20
-31.504
 11
-11.623
 21
-32.9843
  0
LINE
  8
0
 10
-11.623
 20
-32.9843
 11
-11.1573
 21
-34.4175
  0
LINE
  8
0
 10
-11.1573
 20
-34.4175
 11
-10.5157
 21
-35.781
  0
LINE
  8
0
 10
-10.5157
 20
-35.781
 11
-9.70819
 21
-37.0534
  0
LINE
  8
0
 10
-9.70819
 20
-37.0534
 11
-8.74762
 21
-38.2146
  0
LINE
  8
0
 10
-8.74762
 20
-38.2146
 11
-7.64908
 21
-39.2462
  0
LINE
  8
0
 10
-7.64908
 20
-39.2462
 11
-6.42992
 21
-40.1319
  0
LINE
  8
0
 10
-6.42992
 20
-40.1319
 11
-5.10934
 21
-40.8579
  0
LINE
  8
0
 10
-5.10934
 20
-40.8579
 11
-3.70819
 21
-41.4127
  0
LINE
  8
0
 10
-3.70819
 20
-41.4127
 11
-2.24857
 21
-41.7874
  0
LINE
  8
0
 10
-2.24857
 20
-41.7874
 11
-0.753479
 21
-41.9763
  0
LINE
  8
0
 10
-0.753479
 20
-41.9763
 11
0.753479
 21
-41.9763
  0
LINE
  8
0
 10
0.753479
 20
-41.9763
 11
2.24857
 21
-41.7874
  0
LINE
  8
0
 10
25.9942
 20
6.09096
 11
25.5598
 21
6.1582
  0
LINE
  8
0
 10
25.5598
 20
6.1582
 11
25.1373
 21
6.27936
  0
LINE
  8
0
 10
25.1373
 20
6.27936
 11
24.7333
 21
6.4525
  0
LINE
  8
0
 10
24.7333
 20
6.4525
 11
24.3542
 21
6.67493
  0
LINE
  8
0
 10
24.3542
 20
6.67493
 11
24.006
 21
6.9431
  0
LINE
  8
0
 10
24.006
 20
6.9431
 11
23.6941
 21
7.25281
  0
LINE
  8
0
 10
23.6941
 20
7.25281
 11
23.4235
 21
7.59917
  0
LINE
  8
0
 10
23.4235
 20
7.59917
 11
23.1984
 21
7.97672
  0
LINE
  8
0
 10
23.1984
 20
7.97672
 11
23.0225
 21
8.37949
  0
LINE
  8
0
 10
23.0225
 20
8.37949
 11
22.8984
 21
8.80113
  0
LINE
  8
0
 10
22.8984
 20
8.80113
 11
22.8281
 21
9.23502
  0
LINE
  8
0
 10
22.8281
 20
9.23502
 11
22.8127
 21
9.67429
  0
LINE
  8
0
 10
22.8127
 20
9.67429
 11
22.8526
 21
10.112
  0
LINE
  8
0
 10
22.8526
 20
10.112
 11
22.947
 21
10.5413
  0
LINE
  8
0
 10
22.947
 20
10.5413
 11
23.0944
 21
10.9554
  0
LINE
  8
0
 10
23.0944
 20
10.9554
 11
23.2926
 21
11.3477
  0
LINE
  8
0
 10
23.2926
 20
11.3477
 11
23.5384
 21
11.7121
  0
LINE
  8
0
 10
23.5384
 20
11.7121
 11
23.8279
 21
12.0428
  0
LINE
  8
0
 10
23.8279
 20
12.0428
 11
24.1566
 21
12.3346
  0
LINE
  8
0
 10
24.1566
 20
12.3346
 11
24.5192
 21
12.5829
  0
LINE
  8
0
 10
24.5192
 20
12.5829
 11
24.9102
 21
12.7838
  0
LINE
  8
0
 10
24.9102
 20
12.7838
 11
25.3232
 21
12.9342
  0
LINE
  8
0
 10
25.3232
 20
12.9342
 11
25.7518
 21
13.0315
  0
LINE
  8
0
 10
25.7518
 20
13.0315
 11
26.1892
 21
13.0744
  0
LINE
  8
0
 10
26.1892
 20
13.0744
 11
26.6286
 21
13.0621
  0
LINE
  8
0
 10
26.6286
 20
13.0621
 11
27.063
 21
12.9949
  0
LINE
  8
0
 10
27.063
 20
12.9949
 11
27.4855
 21
12.8738
  0
LINE
  8
0
 10
27.4855
 20
12.8738
 11
27.8895
 21
12.7006
  0
LINE
  8
0
 10
27.8895
 20
12.7006
 11
28.2686
 21
12.4782
  0
LINE
  8
0
 10
28.2686
 20
12.4782
 11
28.6168
 21
12.21
  0
LINE
  8
0
 10
28.6168
 20
12.21
 11
28.9287
 21
11.9003
  0
LINE
  8
0
 10
28.9287
 20
11.9003
 11
29.1993
 21
11.5539
  0
LINE
  8
0
 10
29.1993
 20
11.5539
 11
29.4243
 21
11.1764
  0
LINE
  8
0
 10
29.4243
 20
11.1764
 11
29.6003
 21
10.7736
  0
LINE
  8
0
 10
29.6003
 20
10.7736
 11
29.7244
 21
10.352
  0
LINE
  8
0
 10
29.7244
 20
10.352
 11
29.7947
 21
9.91809
  0
LINE
  8
0
 10
29.7947
 20
9.91809
 11
29.81
 21
9.47884
  0
LINE
  8
0
 10
29.81
 20
9.47884
 11
29.7702
 21
9.04111
  0
LINE
  8
0
 10
29.7702
 20
9.04111
 11
29.6758
 21
8.61183
  0
LINE
  8
0
 10
29.6758
 20
8.61183
 11
29.5284
 21
8.19775
  0
LINE
  8
0
 10
29.5284
 20
8.19775
 11
29.3302
 21
7.80544
  0
LINE
  8
0
 10
29.3302
 20
7.80544
 11
29.0844
 21
7.44106
  0
LINE
  8
0
 10
29.0844
 20
7.44106
 11
28.7949
 21
7.11034
  0
LINE
  8
0
 10
28.7949
 20
7.11034
 11
28.4662
 21
6.81851
  0
LINE
  8
0
 10
28.4662
 20
6.81851
 11
28.1035
 21
6.57019
  0
LINE
  8
0
 10
28.1035
 20
6.57019
 11
27.7126
 21
6.36929
  0
LINE
  8
0
 10
27.7126
 20
6.36929
 11
27.2996
 21
6.21896
  0
LINE
  8
0
 10
27.2996
 20
6.21896
 11
26.871
 21
6.12158
  0
LINE
  8
0
 10
26.871
 20
6.12158
 11
26.4335
 21
6.07869
  0
LINE
  8
0
 10
26.4335
 20
6.07869
 11
25.9942
 21
6.09096
  0
LINE
  8
0
 10
-0.219757
 20
-3.49309
 11
-0.655823
 21
-3.438
  0
LINE
  8
0
 10
-0.655823
 20
-3.438
 11
-1.08156
 21
-3.32869
  0
LINE
  8
0
 10
-1.08156
 20
-3.32869
 11
-1.49022
 21
-3.16689
  0
LINE
  8
0
 10
-1.49022
 20
-3.16689
 11
-1.87538
 21
-2.95514
  0
LINE
  8
0
 10
-1.87538
 20
-2.95514
 11
-2.23097
 21
-2.69679
  0
LINE
  8
0
 10
-2.23097
 20
-2.69679
 11
-2.55138
 21
-2.3959
  0
LINE
  8
0
 10
-2.55138
 20
-2.3959
 11
-2.83156
 21
-2.05724
  0
LINE
  8
0
 10
-2.83156
 20
-2.05724
 11
-3.06706
 21
-1.68613
  0
LINE
  8
0
 10
-3.06706
 20
-1.68613
 11
-3.25421
 21
-1.28842
  0
LINE
  8
0
 10
-3.25421
 20
-1.28842
 11
-3.39003
 21
-0.870407
  0
LINE
  8
0
 10
-3.39003
 20
-0.870407
 11
-3.4724
 21
-0.43866
  0
LINE
  8
0
 10
-3.4724
 20
-0.43866
 11
-3.5
 21
0
  0
LINE
  8
0
 10
-3.5
 20
0
 11
-3.4724
 21
0.43866
  0
LINE
  8
0
 10
-3.4724
 20
0.43866
 11
-3.39003
 21
0.870407
  0
LINE
  8
0
 10
-3.39003
 20
0.870407
 11
-3.25421
 21
1.28842
  0
LINE
  8
0
 10
-3.25421
 20
1.28842
 11
-3.06706
 21
1.68613
  0
LINE
  8
0
 10
-3.06706
 20
1.68613
 11
-2.83156
 21
2.05724
  0
LINE
  8
0
 10
-2.83156
 20
2.05724
 11
-2.55138
 21
2.3959
  0
LINE
  8
0
 10
-2.55138
 20
2.3959
 11
-2.23097
 21
2.69679
  0
LINE
  8
0
 10
-2.23097
 20
2.69679
 11
-1.87538
 21
2.95514
  0
LINE
  8
0
 10
-1.87538
 20
2.95514
 11
-1.49022
 21
3.16689
  0
LINE
  8
0
 10
-1.49022
 20
3.16689
 11
-1.08156
 21
3.32869
  0
LINE
  8
0
 10
-1.08156
 20
3.32869
 11
-0.655823
 21
3.438
  0
LINE
  8
0
 10
-0.655823
 20
3.438
 11
-0.219757
 21
3.49309
  0
LINE
  8
0
 10
-0.219757
 20
3.49309
 11
0.219757
 21
3.49309
  0
LINE
  8
0
 10
0.219757
 20
3.49309
 11
0.655823
 21
3.438
  0
LINE
  8
0
 10
0.655823
 20
3.438
 11
1.08156
 21
3.32869
  0
LINE
  8
0
 10
1.08156
 20
3.32869
 11
1.49022
 21
3.16689
  0
LINE
  8
0
 10
1.49022
 20
3.16689
 11
1.87538
 21
2.95514
  0
LINE
  8
0
 10
1.87538
 20
2.95514
 11
2.23097
 21
2.69679
  0
LINE
  8
0
 10
2.23097
 20
2.69679
 11
2.55138
 21
2.3959
  0
LINE
  8
0
 10
2.55138
 20
2.3959
 11
2.83156
 21
2.05724
  0
LINE
  8
0
 10
2.83156
 20
2.05724
 11
3.06706
 21
1.68613
  0
LINE
  8
0
 10
3.06706
 20
1.68613
 11
3.25421
 21
1.28842
  0
LINE
  8
0
 10
3.25421
 20
1.28842
 11
3.39003
 21
0.870407
  0
LINE
  8
0
 10
3.39003
 20
0.870407
 11
3.4724
 21
0.43866
  0
LINE
  8
0
 10
3.4724
 20
0.43866
 11
3.5
 21
0
  0
LINE
  8
0
 10
3.5
 20
0
 11
3.4724
 21
-0.43866
  0
LINE
  8
0
 10
3.4724
 20
-0.43866
 11
3.39003
 21
-0.870407
  0
LINE
  8
0
 10
3.39003
 20
-0.870407
 11
3.25421
 21
-1.28842
  0
LINE
  8
0
 10
3.25421
 20
-1.28842
 11
3.06706
 21
-1.68613
  0
LINE
  8
0
 10
3.06706
 20
-1.68613
 11
2.83156
 21
-2.05724
  0
LINE
  8
0
 10
2.83156
 20
-2.05724
 11
2.55138
 21
-2.3959
  0
LINE
  8
0
 10
2.55138
 20
-2.3959
 11
2.23097
 21
-2.69679
  0
LINE
  8
0
 10
2.23097
 20
-2.69679
 11
1.87538
 21
-2.95514
  0
LINE
  8
0
 10
1.87538
 20
-2.95514
 11
1.49022
 21
-3.16689
  0
LINE
  8
0
 10
1.49022
 20
-3.16689
 11
1.08156
 21
-3.32869
  0
LINE
  8
0
 10
1.08156
 20
-3.32869
 11
0.655823
 21
-3.438
  0
LINE
  8
0
 10
0.655823
 20
-3.438
 11
0.219757
 21
-3.49309
  0
LINE
  8
0
 10
0.219757
 20
-3.49309
 11
-0.219757
 21
-3.49309
  0
ENDSEC
  0
SECTION
  2
OBJECTS
  0
DICTIONARY
  0
ENDSEC
  0
EOF
