  0
SECTION
  2
HEADER
  9
$ACADVER
  1
AC1009
  9
$FILLMODE
 70
 0
  9
$SPLFRAME
 70
 1
  9
$EXTMIN
 10
0
 20
0
 30
0.0
  9
$EXTMAX
 10
1058.33
 20
1058.33
 30
0.0
  0
ENDSEC
  0
SECTION
  2
TABLES
  0
TABLE
  2
LAYER
 70
1
  0
LAYER
  2
0
 70
     0
 62
     7
  6
CONTINUOUS
  0
ENDTAB
  0
ENDSEC
  0
SECTION
  2
ENTITIES
  0
LINE
  8
0
 62
     7
 10
0
 20
575.522
 30
0.0
 11
822.325
 21
575.522
 31
0.0
  0
LINE
  8
0
 62
     7
 10
822.325
 20
575.522
 30
0.0
 11
822.325
 21
-1.37117
 31
0.0
  0
LINE
  8
0
 62
     7
 10
822.325
 20
-1.37117
 30
0.0
 11
0
 21
-1.37117
 31
0.0
  0
LINE
  8
0
 62
     7
 10
0
 20
-1.37117
 30
0.0
 11
0
 21
575.522
 31
0.0
  0
LINE
  8
0
 62
     0
 10
66.5759
 20
63.8761
 30
0.0
 11
66.3734
 21
64.1544
 31
0.0
  0
LINE
  8
0
 62
     0
 10
66.3734
 20
64.1544
 30
0.0
 11
64.3985
 21
66.9699
 31
0.0
  0
LINE
  8
0
 62
     0
 10
64.3985
 20
66.9699
 30
0.0
 11
64.207
 21
67.2553
 31
0.0
  0
LINE
  8
0
 62
     0
 10
64.207
 20
67.2553
 30
0.0
 11
64.3971
 21
66.9713
 31
0.0
  0
LINE
  8
0
 62
     0
 10
64.3971
 20
66.9713
 30
0.0
 11
66.3734
 21
64.1558
 31
0.0
  0
LINE
  8
0
 62
     0
 10
66.3734
 20
64.1558
 30
0.0
 11
66.5759
 21
63.8761
 31
0.0
  0
LINE
  8
0
 62
     0
 10
72.3512
 20
56.5284
 30
0.0
 11
72.9121
 21
55.874
 31
0.0
  0
LINE
  8
0
 62
     0
 10
72.9121
 20
55.874
 30
0.0
 11
78.8582
 21
49.5268
 31
0.0
  0
LINE
  8
0
 62
     0
 10
78.8582
 20
49.5268
 30
0.0
 11
79.4907
 21
48.9162
 31
0.0
  0
LINE
  8
0
 62
     0
 10
79.4907
 20
48.9162
 30
0.0
 11
81.074
 21
47.3576
 31
0.0
  0
LINE
  8
0
 62
     0
 10
81.074
 20
47.3576
 30
0.0
 11
86.0958
 21
42.9549
 31
0.0
  0
LINE
  8
0
 62
     0
 10
86.0958
 20
42.9549
 30
0.0
 11
93.2258
 21
37.5239
 31
0.0
  0
LINE
  8
0
 62
     0
 10
93.2258
 20
37.5239
 30
0.0
 11
100.797
 21
32.6581
 31
0.0
  0
LINE
  8
0
 62
     0
 10
100.797
 20
32.6581
 30
0.0
 11
106.706
 21
29.3825
 31
0.0
  0
LINE
  8
0
 62
     0
 10
106.706
 20
29.3825
 30
0.0
 11
108.726
 21
28.3945
 31
0.0
  0
LINE
  8
0
 62
     0
 10
108.726
 20
28.3945
 30
0.0
 11
109.718
 21
27.9301
 31
0.0
  0
LINE
  8
0
 62
     0
 10
109.718
 20
27.9301
 30
0.0
 11
114.565
 21
25.5984
 31
0.0
  0
LINE
  8
0
 62
     0
 10
114.565
 20
25.5984
 30
0.0
 11
119.572
 21
23.3674
 31
0.0
  0
LINE
  8
0
 62
     0
 10
119.572
 20
23.3674
 30
0.0
 11
120.646
 21
22.9526
 31
0.0
  0
LINE
  8
0
 62
     0
 10
120.646
 20
22.9526
 30
0.0
 11
120.913
 21
22.8506
 31
0.0
  0
LINE
  8
0
 62
     0
 10
120.913
 20
22.8506
 30
0.0
 11
123.675
 21
21.8019
 31
0.0
  0
LINE
  8
0
 62
     0
 10
123.675
 20
21.8019
 30
0.0
 11
123.963
 21
21.7027
 31
0.0
  0
LINE
  8
0
 62
     0
 10
123.963
 20
21.7027
 30
0.0
 11
124.252
 21
21.6118
 31
0.0
  0
LINE
  8
0
 62
     0
 10
124.252
 20
21.6118
 30
0.0
 11
127.27
 21
20.6954
 31
0.0
  0
LINE
  8
0
 62
     0
 10
127.27
 20
20.6954
 30
0.0
 11
127.584
 21
20.603
 31
0.0
  0
LINE
  8
0
 62
     0
 10
127.584
 20
20.603
 30
0.0
 11
127.897
 21
20.5066
 31
0.0
  0
LINE
  8
0
 62
     0
 10
127.897
 20
20.5066
 30
0.0
 11
131.215
 21
19.7197
 31
0.0
  0
LINE
  8
0
 62
     0
 10
131.215
 20
19.7197
 30
0.0
 11
131.564
 21
19.6467
 31
0.0
  0
LINE
  8
0
 62
     0
 10
131.564
 20
19.6467
 30
0.0
 11
131.913
 21
19.5764
 31
0.0
  0
LINE
  8
0
 62
     0
 10
131.913
 20
19.5764
 30
0.0
 11
133.704
 21
19.2209
 31
0.0
  0
LINE
  8
0
 62
     0
 10
133.704
 20
19.2209
 30
0.0
 11
135.576
 21
18.926
 31
0.0
  0
LINE
  8
0
 62
     0
 10
135.576
 20
18.926
 30
0.0
 11
135.965
 21
18.886
 31
0.0
  0
LINE
  8
0
 62
     0
 10
135.965
 20
18.886
 30
0.0
 11
134.047
 21
19.2912
 31
0.0
  0
LINE
  8
0
 62
     0
 10
134.047
 20
19.2912
 30
0.0
 11
124.573
 21
21.9274
 31
0.0
  0
LINE
  8
0
 62
     0
 10
124.573
 20
21.9274
 30
0.0
 11
115.321
 21
25.3724
 31
0.0
  0
LINE
  8
0
 62
     0
 10
115.321
 20
25.3724
 30
0.0
 11
113.514
 21
26.1813
 31
0.0
  0
LINE
  8
0
 62
     0
 10
113.514
 20
26.1813
 30
0.0
 11
111.708
 21
26.9944
 31
0.0
  0
LINE
  8
0
 62
     0
 10
111.708
 20
26.9944
 30
0.0
 11
102.939
 21
31.6301
 31
0.0
  0
LINE
  8
0
 62
     0
 10
102.939
 20
31.6301
 30
0.0
 11
94.5691
 21
36.9919
 31
0.0
  0
LINE
  8
0
 62
     0
 10
94.5691
 20
36.9919
 30
0.0
 11
92.964
 21
38.1674
 31
0.0
  0
LINE
  8
0
 62
     0
 10
92.964
 20
38.1674
 30
0.0
 11
90.5563
 21
39.9313
 31
0.0
  0
LINE
  8
0
 62
     0
 10
90.5563
 20
39.9313
 30
0.0
 11
83.6937
 21
45.7122
 31
0.0
  0
LINE
  8
0
 62
     0
 10
83.6937
 20
45.7122
 30
0.0
 11
75.2256
 21
54.1708
 31
0.0
  0
LINE
  8
0
 62
     0
 10
75.2256
 20
54.1708
 30
0.0
 11
67.6603
 21
63.4531
 31
0.0
  0
LINE
  8
0
 62
     0
 10
67.6603
 20
63.4531
 30
0.0
 11
62.6043
 21
70.8875
 31
0.0
  0
LINE
  8
0
 62
     0
 10
62.6043
 20
70.8875
 30
0.0
 11
61.1036
 21
73.4716
 31
0.0
  0
LINE
  8
0
 62
     0
 10
61.1036
 20
73.4716
 30
0.0
 11
61.0196
 21
73.575
 31
0.0
  0
LINE
  8
0
 62
     0
 10
61.0196
 20
73.575
 30
0.0
 11
60.4862
 21
74.3521
 31
0.0
  0
LINE
  8
0
 62
     0
 10
60.4862
 20
74.3521
 30
0.0
 11
59.8166
 21
75.4242
 31
0.0
  0
LINE
  8
0
 62
     0
 10
59.8166
 20
75.4242
 30
0.0
 11
59.6664
 21
75.6737
 31
0.0
  0
LINE
  8
0
 62
     0
 10
59.6664
 20
75.6737
 30
0.0
 11
59.5919
 21
75.8003
 31
0.0
  0
LINE
  8
0
 62
     0
 10
59.5919
 20
75.8003
 30
0.0
 11
58.7816
 21
77.1687
 31
0.0
  0
LINE
  8
0
 62
     0
 10
58.7816
 20
77.1687
 30
0.0
 11
58.6962
 21
77.3148
 31
0.0
  0
LINE
  8
0
 62
     0
 10
58.6962
 20
77.3148
 30
0.0
 11
58.6176
 21
77.4665
 31
0.0
  0
LINE
  8
0
 62
     0
 10
58.6176
 20
77.4665
 30
0.0
 11
57.8019
 21
79.043
 31
0.0
  0
LINE
  8
0
 62
     0
 10
57.8019
 20
79.043
 30
0.0
 11
57.7176
 21
79.2043
 31
0.0
  0
LINE
  8
0
 62
     0
 10
57.7176
 20
79.2043
 30
0.0
 11
57.555
 21
79.532
 31
0.0
  0
LINE
  8
0
 62
     0
 10
57.555
 20
79.532
 30
0.0
 11
55.8892
 21
82.8118
 31
0.0
  0
LINE
  8
0
 62
     0
 10
55.8892
 20
82.8118
 30
0.0
 11
55.7459
 21
83.1328
 31
0.0
  0
LINE
  8
0
 62
     0
 10
55.7459
 20
83.1328
 30
0.0
 11
55.5971
 21
83.4528
 31
0.0
  0
LINE
  8
0
 62
     0
 10
55.5971
 20
83.4528
 30
0.0
 11
54.8901
 21
84.9492
 31
0.0
  0
LINE
  8
0
 62
     0
 10
54.8901
 20
84.9492
 30
0.0
 11
54.2466
 21
86.2556
 31
0.0
  0
LINE
  8
0
 62
     0
 10
54.2466
 20
86.2556
 30
0.0
 11
54.1306
 21
86.4803
 31
0.0
  0
LINE
  8
0
 62
     0
 10
54.1306
 20
86.4803
 30
0.0
 11
54.7536
 21
84.927
 31
0.0
  0
LINE
  8
0
 62
     0
 10
54.7536
 20
84.927
 30
0.0
 11
58.1547
 21
77.6813
 31
0.0
  0
LINE
  8
0
 62
     0
 10
58.1547
 20
77.6813
 30
0.0
 11
61.922
 21
70.9595
 31
0.0
  0
LINE
  8
0
 62
     0
 10
61.922
 20
70.9595
 30
0.0
 11
62.7285
 21
69.6666
 31
0.0
  0
LINE
  8
0
 62
     0
 10
62.7285
 20
69.6666
 30
0.0
 11
63.0975
 21
69.0785
 31
0.0
  0
LINE
  8
0
 62
     0
 10
63.0975
 20
69.0785
 30
0.0
 11
67.0207
 21
63.2975
 31
0.0
  0
LINE
  8
0
 62
     0
 10
67.0207
 20
63.2975
 30
0.0
 11
67.4398
 21
62.7285
 31
0.0
  0
LINE
  8
0
 62
     0
 10
67.4398
 20
62.7285
 30
0.0
 11
67.3806
 21
62.8082
 31
0.0
  0
LINE
  8
0
 62
     0
 10
67.3806
 20
62.8082
 30
0.0
 11
66.7879
 21
63.5882
 31
0.0
  0
LINE
  8
0
 62
     0
 10
66.7879
 20
63.5882
 30
0.0
 11
66.73
 21
63.6669
 31
0.0
  0
LINE
  8
0
 62
     0
 10
66.73
 20
63.6669
 30
0.0
 11
67.1696
 21
63.0633
 31
0.0
  0
LINE
  8
0
 62
     0
 10
67.1696
 20
63.0633
 30
0.0
 11
71.8358
 21
57.132
 31
0.0
  0
LINE
  8
0
 62
     0
 10
71.8358
 20
57.132
 30
0.0
 11
72.3318
 21
56.5535
 31
0.0
  0
LINE
  8
0
 62
     0
 10
72.3318
 20
56.5535
 30
0.0
 11
72.3332
 21
56.552
 31
0.0
  0
LINE
  8
0
 62
     0
 10
72.3332
 20
56.552
 30
0.0
 11
72.3484
 21
56.5312
 31
0.0
  0
LINE
  8
0
 62
     0
 10
72.3484
 20
56.5312
 30
0.0
 11
72.3512
 21
56.5284
 31
0.0
  0
LINE
  8
0
 62
     0
 10
66.7272
 20
63.6683
 30
0.0
 11
66.7135
 21
63.6859
 31
0.0
  0
LINE
  8
0
 62
     0
 10
66.7135
 20
63.6859
 30
0.0
 11
66.5882
 21
63.8584
 31
0.0
  0
LINE
  8
0
 62
     0
 10
66.5882
 20
63.8584
 30
0.0
 11
66.5759
 21
63.875
 31
0.0
  0
LINE
  8
0
 62
     0
 10
66.5759
 20
63.875
 30
0.0
 11
66.5882
 21
63.8584
 31
0.0
  0
LINE
  8
0
 62
     0
 10
66.5882
 20
63.8584
 30
0.0
 11
66.7149
 21
63.6859
 31
0.0
  0
LINE
  8
0
 62
     0
 10
66.7149
 20
63.6859
 30
0.0
 11
66.7272
 21
63.6683
 31
0.0
  0
LINE
  8
0
 62
     0
 10
46.3832
 20
116.08
 30
0.0
 11
46.3338
 21
116.469
 31
0.0
  0
LINE
  8
0
 62
     0
 10
46.3338
 20
116.469
 30
0.0
 11
45.8445
 21
120.401
 31
0.0
  0
LINE
  8
0
 62
     0
 10
45.8445
 20
120.401
 30
0.0
 11
45.7951
 21
120.799
 31
0.0
  0
LINE
  8
0
 62
     0
 10
45.7951
 20
120.799
 30
0.0
 11
45.872
 21
120.08
 31
0.0
  0
LINE
  8
0
 62
     0
 10
45.872
 20
120.08
 30
0.0
 11
46.331
 21
116.266
 31
0.0
  0
LINE
  8
0
 62
     0
 10
46.331
 20
116.266
 30
0.0
 11
46.965
 21
112.284
 31
0.0
  0
LINE
  8
0
 62
     0
 10
46.965
 20
112.284
 30
0.0
 11
47.1304
 21
111.478
 31
0.0
  0
LINE
  8
0
 62
     0
 10
47.1304
 20
111.478
 30
0.0
 11
47.0958
 21
111.668
 31
0.0
  0
LINE
  8
0
 62
     0
 10
47.0958
 20
111.668
 30
0.0
 11
46.7653
 21
113.575
 31
0.0
  0
LINE
  8
0
 62
     0
 10
46.7653
 20
113.575
 30
0.0
 11
46.7321
 21
113.765
 31
0.0
  0
LINE
  8
0
 62
     0
 10
46.7321
 20
113.765
 30
0.0
 11
46.6947
 21
113.957
 31
0.0
  0
LINE
  8
0
 62
     0
 10
46.6947
 20
113.957
 30
0.0
 11
46.404
 21
115.886
 31
0.0
  0
LINE
  8
0
 62
     0
 10
46.404
 20
115.886
 30
0.0
 11
46.3832
 21
116.08
 31
0.0
  0
LINE
  8
0
 62
     0
 10
149.271
 20
19.2195
 30
0.0
 11
151.295
 21
19.0155
 31
0.0
  0
LINE
  8
0
 62
     0
 10
151.295
 20
19.0155
 30
0.0
 11
161.647
 21
18.7909
 31
0.0
  0
LINE
  8
0
 62
     0
 10
161.647
 20
18.7909
 30
0.0
 11
172.11
 21
19.6329
 31
0.0
  0
LINE
  8
0
 62
     0
 10
172.11
 20
19.6329
 30
0.0
 11
174.191
 21
19.9622
 31
0.0
  0
LINE
  8
0
 62
     0
 10
174.191
 20
19.9622
 30
0.0
 11
176.272
 21
20.2902
 31
0.0
  0
LINE
  8
0
 62
     0
 10
176.272
 20
20.2902
 30
0.0
 11
186.494
 21
22.6481
 31
0.0
  0
LINE
  8
0
 62
     0
 10
186.494
 20
22.6481
 30
0.0
 11
196.34
 21
25.8479
 31
0.0
  0
LINE
  8
0
 62
     0
 10
196.34
 20
25.8479
 30
0.0
 11
198.234
 21
26.5975
 31
0.0
  0
LINE
  8
0
 62
     0
 10
198.234
 20
26.5975
 30
0.0
 11
195.636
 21
25.5764
 31
0.0
  0
LINE
  8
0
 62
     0
 10
195.636
 20
25.5764
 30
0.0
 11
187.632
 21
23.0532
 31
0.0
  0
LINE
  8
0
 62
     0
 10
187.632
 20
23.0532
 30
0.0
 11
176.82
 21
20.6306
 31
0.0
  0
LINE
  8
0
 62
     0
 10
176.82
 20
20.6306
 30
0.0
 11
165.909
 21
19.3145
 31
0.0
  0
LINE
  8
0
 62
     0
 10
165.909
 20
19.3145
 30
0.0
 11
157.729
 21
19.0073
 31
0.0
  0
LINE
  8
0
 62
     0
 10
157.729
 20
19.0073
 30
0.0
 11
155.009
 21
19.0831
 31
0.0
  0
LINE
  8
0
 62
     0
 10
155.009
 20
19.0831
 30
0.0
 11
154.524
 21
19.0913
 31
0.0
  0
LINE
  8
0
 62
     0
 10
154.524
 20
19.0913
 30
0.0
 11
149.743
 21
19.1864
 31
0.0
  0
LINE
  8
0
 62
     0
 10
149.743
 20
19.1864
 30
0.0
 11
149.271
 21
19.2195
 31
0.0
  0
LINE
  8
0
 62
     0
 10
101.301
 20
35.7932
 30
0.0
 11
101.275
 21
35.8098
 31
0.0
  0
LINE
  8
0
 62
     0
 10
101.275
 20
35.8098
 30
0.0
 11
101.012
 21
35.9763
 31
0.0
  0
LINE
  8
0
 62
     0
 10
101.012
 20
35.9763
 30
0.0
 11
100.985
 21
35.9929
 31
0.0
  0
LINE
  8
0
 62
     0
 10
100.985
 20
35.9929
 30
0.0
 11
101.012
 21
35.9763
 31
0.0
  0
LINE
  8
0
 62
     0
 10
101.012
 20
35.9763
 30
0.0
 11
101.273
 21
35.8098
 31
0.0
  0
LINE
  8
0
 62
     0
 10
101.273
 20
35.8098
 30
0.0
 11
101.301
 21
35.7932
 31
0.0
  0
LINE
  8
0
 62
     0
 10
100.985
 20
35.9929
 30
0.0
 11
100.725
 21
36.1583
 31
0.0
  0
LINE
  8
0
 62
     0
 10
100.725
 20
36.1583
 30
0.0
 11
98.1742
 21
37.852
 31
0.0
  0
LINE
  8
0
 62
     0
 10
98.1742
 20
37.852
 30
0.0
 11
97.9234
 21
38.0242
 31
0.0
  0
LINE
  8
0
 62
     0
 10
97.9234
 20
38.0242
 30
0.0
 11
98.1728
 21
37.8506
 31
0.0
  0
LINE
  8
0
 62
     0
 10
98.1728
 20
37.8506
 30
0.0
 11
100.726
 21
36.1597
 31
0.0
  0
LINE
  8
0
 62
     0
 10
100.726
 20
36.1597
 30
0.0
 11
100.985
 21
35.9929
 31
0.0
  0
LINE
  8
0
 62
     0
 10
97.9234
 20
38.0242
 30
0.0
 11
97.6492
 21
38.2143
 31
0.0
  0
LINE
  8
0
 62
     0
 10
97.6492
 20
38.2143
 30
0.0
 11
94.9456
 21
40.1366
 31
0.0
  0
LINE
  8
0
 62
     0
 10
94.9456
 20
40.1366
 30
0.0
 11
94.6838
 21
40.3338
 31
0.0
  0
LINE
  8
0
 62
     0
 10
94.6838
 20
40.3338
 30
0.0
 11
94.947
 21
40.1366
 31
0.0
  0
LINE
  8
0
 62
     0
 10
94.947
 20
40.1366
 30
0.0
 11
97.6492
 21
38.2129
 31
0.0
  0
LINE
  8
0
 62
     0
 10
97.6492
 20
38.2129
 30
0.0
 11
97.9234
 21
38.0242
 31
0.0
  0
LINE
  8
0
 62
     0
 10
113.056
 20
29.3178
 30
0.0
 11
114.711
 21
28.5474
 31
0.0
  0
LINE
  8
0
 62
     0
 10
114.711
 20
28.5474
 30
0.0
 11
123.275
 21
25.2181
 31
0.0
  0
LINE
  8
0
 62
     0
 10
123.275
 20
25.2181
 30
0.0
 11
132.115
 21
22.6343
 31
0.0
  0
LINE
  8
0
 62
     0
 10
132.115
 20
22.6343
 30
0.0
 11
133.91
 21
22.2346
 31
0.0
  0
LINE
  8
0
 62
     0
 10
133.91
 20
22.2346
 30
0.0
 11
131.71
 21
22.7362
 31
0.0
  0
LINE
  8
0
 62
     0
 10
131.71
 20
22.7362
 30
0.0
 11
125.2
 21
24.6283
 31
0.0
  0
LINE
  8
0
 62
     0
 10
125.2
 20
24.6283
 30
0.0
 11
116.819
 21
27.7289
 31
0.0
  0
LINE
  8
0
 62
     0
 10
116.819
 20
27.7289
 30
0.0
 11
108.831
 21
31.473
 31
0.0
  0
LINE
  8
0
 62
     0
 10
108.831
 20
31.473
 30
0.0
 11
103.135
 21
34.637
 31
0.0
  0
LINE
  8
0
 62
     0
 10
103.135
 20
34.637
 30
0.0
 11
101.301
 21
35.7932
 31
0.0
  0
LINE
  8
0
 62
     0
 10
101.301
 20
35.7932
 30
0.0
 11
102.233
 21
35.2006
 31
0.0
  0
LINE
  8
0
 62
     0
 10
102.233
 20
35.2006
 30
0.0
 11
107.033
 21
32.3825
 31
0.0
  0
LINE
  8
0
 62
     0
 10
107.033
 20
32.3825
 30
0.0
 11
112.028
 21
29.7959
 31
0.0
  0
LINE
  8
0
 62
     0
 10
112.028
 20
29.7959
 30
0.0
 11
113.056
 21
29.3178
 31
0.0
  0
LINE
  8
0
 62
     0
 10
260.333
 20
114.799
 30
0.0
 11
260.356
 21
115.16
 31
0.0
  0
LINE
  8
0
 62
     0
 10
260.356
 20
115.16
 30
0.0
 11
260.441
 21
116.242
 31
0.0
  0
LINE
  8
0
 62
     0
 10
260.441
 20
116.242
 30
0.0
 11
260.566
 21
117.613
 31
0.0
  0
LINE
  8
0
 62
     0
 10
260.566
 20
117.613
 30
0.0
 11
260.68
 21
118.802
 31
0.0
  0
LINE
  8
0
 62
     0
 10
260.68
 20
118.802
 30
0.0
 11
260.74
 21
119.479
 31
0.0
  0
LINE
  8
0
 62
     0
 10
260.74
 20
119.479
 30
0.0
 11
260.755
 21
119.703
 31
0.0
  0
LINE
  8
0
 62
     0
 10
260.755
 20
119.703
 30
0.0
 11
260.936
 21
121.248
 31
0.0
  0
LINE
  8
0
 62
     0
 10
260.936
 20
121.248
 30
0.0
 11
261.491
 21
128.405
 31
0.0
  0
LINE
  8
0
 62
     0
 10
261.491
 20
128.405
 30
0.0
 11
261.669
 21
135.121
 31
0.0
  0
LINE
  8
0
 62
     0
 10
261.669
 20
135.121
 30
0.0
 11
261.662
 21
136.442
 31
0.0
  0
LINE
  8
0
 62
     0
 10
261.662
 20
136.442
 30
0.0
 11
261.632
 21
136.659
 31
0.0
  0
LINE
  8
0
 62
     0
 10
261.632
 20
136.659
 30
0.0
 11
261.521
 21
137.305
 31
0.0
  0
LINE
  8
0
 62
     0
 10
261.521
 20
137.305
 30
0.0
 11
261.334
 21
138.424
 31
0.0
  0
LINE
  8
0
 62
     0
 10
261.334
 20
138.424
 30
0.0
 11
261.142
 21
139.746
 31
0.0
  0
LINE
  8
0
 62
     0
 10
261.142
 20
139.746
 30
0.0
 11
261.02
 21
140.847
 31
0.0
  0
LINE
  8
0
 62
     0
 10
261.02
 20
140.847
 30
0.0
 11
260.992
 21
141.214
 31
0.0
  0
LINE
  8
0
 62
     0
 10
260.992
 20
141.214
 30
0.0
 11
260.945
 21
141.724
 31
0.0
  0
LINE
  8
0
 62
     0
 10
260.945
 20
141.724
 30
0.0
 11
260.358
 21
146.72
 31
0.0
  0
LINE
  8
0
 62
     0
 10
260.358
 20
146.72
 30
0.0
 11
260.3
 21
147.21
 31
0.0
  0
LINE
  8
0
 62
     0
 10
260.3
 20
147.21
 30
0.0
 11
260.212
 21
147.698
 31
0.0
  0
LINE
  8
0
 62
     0
 10
260.212
 20
147.698
 30
0.0
 11
259.357
 21
152.51
 31
0.0
  0
LINE
  8
0
 62
     0
 10
259.357
 20
152.51
 30
0.0
 11
259.26
 21
152.983
 31
0.0
  0
LINE
  8
0
 62
     0
 10
259.26
 20
152.983
 30
0.0
 11
259.774
 21
150.356
 31
0.0
  0
LINE
  8
0
 62
     0
 10
259.774
 20
150.356
 30
0.0
 11
260.814
 21
142.376
 31
0.0
  0
LINE
  8
0
 62
     0
 10
260.814
 20
142.376
 30
0.0
 11
261.342
 21
131.829
 31
0.0
  0
LINE
  8
0
 62
     0
 10
261.342
 20
131.829
 30
0.0
 11
260.872
 21
121.42
 31
0.0
  0
LINE
  8
0
 62
     0
 10
260.872
 20
121.42
 30
0.0
 11
259.916
 21
113.757
 31
0.0
  0
LINE
  8
0
 62
     0
 10
259.916
 20
113.757
 30
0.0
 11
259.436
 21
111.233
 31
0.0
  0
LINE
  8
0
 62
     0
 10
259.436
 20
111.233
 30
0.0
 11
259.511
 21
111.548
 31
0.0
  0
LINE
  8
0
 62
     0
 10
259.511
 20
111.548
 30
0.0
 11
260.258
 21
114.522
 31
0.0
  0
LINE
  8
0
 62
     0
 10
260.258
 20
114.522
 30
0.0
 11
260.333
 21
114.799
 31
0.0
  0
LINE
  8
0
 62
     0
 10
45.8378
 20
143.554
 30
0.0
 11
46.0294
 21
145.117
 31
0.0
  0
LINE
  8
0
 62
     0
 10
46.0294
 20
145.117
 30
0.0
 11
46.8104
 21
149.779
 31
0.0
  0
LINE
  8
0
 62
     0
 10
46.8104
 20
149.779
 30
0.0
 11
48.102
 21
155.685
 31
0.0
  0
LINE
  8
0
 62
     0
 10
48.102
 20
155.685
 30
0.0
 11
49.59
 21
161.04
 31
0.0
  0
LINE
  8
0
 62
     0
 10
49.59
 20
161.04
 30
0.0
 11
50.7284
 21
164.48
 31
0.0
  0
LINE
  8
0
 62
     0
 10
50.7284
 20
164.48
 30
0.0
 11
51.1598
 21
165.606
 31
0.0
  0
LINE
  8
0
 62
     0
 10
51.1598
 20
165.606
 30
0.0
 11
50.3135
 21
161.612
 31
0.0
  0
LINE
  8
0
 62
     0
 10
50.3135
 20
161.612
 30
0.0
 11
50.443
 21
161.906
 31
0.0
  0
LINE
  8
0
 62
     0
 10
50.443
 20
161.906
 30
0.0
 11
51.3362
 21
164.356
 31
0.0
  0
LINE
  8
0
 62
     0
 10
51.3362
 20
164.356
 30
0.0
 11
52.5431
 21
167.66
 31
0.0
  0
LINE
  8
0
 62
     0
 10
52.5431
 20
167.66
 30
0.0
 11
52.8313
 21
168.38
 31
0.0
  0
LINE
  8
0
 62
     0
 10
52.8313
 20
168.38
 30
0.0
 11
52.8987
 21
168.562
 31
0.0
  0
LINE
  8
0
 62
     0
 10
52.8987
 20
168.562
 30
0.0
 11
53.5905
 21
170.39
 31
0.0
  0
LINE
  8
0
 62
     0
 10
53.5905
 20
170.39
 30
0.0
 11
53.6607
 21
170.574
 31
0.0
  0
LINE
  8
0
 62
     0
 10
53.6607
 20
170.574
 30
0.0
 11
53.7379
 21
170.754
 31
0.0
  0
LINE
  8
0
 62
     0
 10
53.7379
 20
170.754
 30
0.0
 11
54.5028
 21
172.529
 31
0.0
  0
LINE
  8
0
 62
     0
 10
54.5028
 20
172.529
 30
0.0
 11
54.5786
 21
172.701
 31
0.0
  0
LINE
  8
0
 62
     0
 10
54.5786
 20
172.701
 30
0.0
 11
54.7303
 21
173.046
 31
0.0
  0
LINE
  8
0
 62
     0
 10
54.7303
 20
173.046
 30
0.0
 11
55.4344
 21
174.686
 31
0.0
  0
LINE
  8
0
 62
     0
 10
55.4344
 20
174.686
 30
0.0
 11
56.104
 21
176.137
 31
0.0
  0
LINE
  8
0
 62
     0
 10
56.104
 20
176.137
 30
0.0
 11
56.2391
 21
176.386
 31
0.0
  0
LINE
  8
0
 62
     0
 10
56.2391
 20
176.386
 30
0.0
 11
56.1467
 21
176.152
 31
0.0
  0
LINE
  8
0
 62
     0
 10
56.1467
 20
176.152
 30
0.0
 11
55.1917
 21
173.674
 31
0.0
  0
LINE
  8
0
 62
     0
 10
55.1917
 20
173.674
 30
0.0
 11
55.0855
 21
173.419
 31
0.0
  0
LINE
  8
0
 62
     0
 10
55.0855
 20
173.419
 30
0.0
 11
54.9797
 21
173.164
 31
0.0
  0
LINE
  8
0
 62
     0
 10
54.9797
 20
173.164
 30
0.0
 11
53.8565
 21
170.583
 31
0.0
  0
LINE
  8
0
 62
     0
 10
53.8565
 20
170.583
 30
0.0
 11
53.745
 21
170.323
 31
0.0
  0
LINE
  8
0
 62
     0
 10
53.745
 20
170.323
 30
0.0
 11
53.8812
 21
170.632
 31
0.0
  0
LINE
  8
0
 62
     0
 10
53.8812
 20
170.632
 30
0.0
 11
54.2907
 21
171.555
 31
0.0
  0
LINE
  8
0
 62
     0
 10
54.2907
 20
171.555
 30
0.0
 11
54.664
 21
172.397
 31
0.0
  0
LINE
  8
0
 62
     0
 10
54.664
 20
172.397
 30
0.0
 11
55.039
 21
173.241
 31
0.0
  0
LINE
  8
0
 62
     0
 10
55.039
 20
173.241
 30
0.0
 11
55.451
 21
174.167
 31
0.0
  0
LINE
  8
0
 62
     0
 10
55.451
 20
174.167
 30
0.0
 11
55.5886
 21
174.475
 31
0.0
  0
LINE
  8
0
 62
     0
 10
55.5886
 20
174.475
 30
0.0
 11
55.1889
 21
173.481
 31
0.0
  0
LINE
  8
0
 62
     0
 10
55.1889
 20
173.481
 30
0.0
 11
53.1357
 21
167.837
 31
0.0
  0
LINE
  8
0
 62
     0
 10
53.1357
 20
167.837
 30
0.0
 11
51.1542
 21
161.539
 31
0.0
  0
LINE
  8
0
 62
     0
 10
51.1542
 20
161.539
 30
0.0
 11
50.7905
 21
160.218
 31
0.0
  0
LINE
  8
0
 62
     0
 10
50.7905
 20
160.218
 30
0.0
 11
50.4444
 21
158.893
 31
0.0
  0
LINE
  8
0
 62
     0
 10
50.4444
 20
158.893
 30
0.0
 11
48.9631
 21
152.17
 31
0.0
  0
LINE
  8
0
 62
     0
 10
48.9631
 20
152.17
 30
0.0
 11
47.8786
 21
145.597
 31
0.0
  0
LINE
  8
0
 62
     0
 10
47.8786
 20
145.597
 30
0.0
 11
47.7326
 21
144.347
 31
0.0
  0
LINE
  8
0
 62
     0
 10
47.7326
 20
144.347
 30
0.0
 11
47.6899
 21
144.035
 31
0.0
  0
LINE
  8
0
 62
     0
 10
47.6899
 20
144.035
 30
0.0
 11
47.4197
 21
141.011
 31
0.0
  0
LINE
  8
0
 62
     0
 10
47.4197
 20
141.011
 30
0.0
 11
47.3922
 21
140.72
 31
0.0
  0
LINE
  8
0
 62
     0
 10
47.3922
 20
140.72
 30
0.0
 11
47.3714
 21
140.43
 31
0.0
  0
LINE
  8
0
 62
     0
 10
47.3714
 20
140.43
 30
0.0
 11
47.1607
 21
137.663
 31
0.0
  0
LINE
  8
0
 62
     0
 10
47.1607
 20
137.663
 30
0.0
 11
47.1579
 21
137.401
 31
0.0
  0
LINE
  8
0
 62
     0
 10
47.1579
 20
137.401
 30
0.0
 11
47.1442
 21
136.879
 31
0.0
  0
LINE
  8
0
 62
     0
 10
47.1442
 20
136.879
 30
0.0
 11
47.0807
 21
134.47
 31
0.0
  0
LINE
  8
0
 62
     0
 10
47.0807
 20
134.47
 30
0.0
 11
47.0613
 21
132.376
 31
0.0
  0
LINE
  8
0
 62
     0
 10
47.0613
 20
132.376
 30
0.0
 11
47.0711
 21
132.009
 31
0.0
  0
LINE
  8
0
 62
     0
 10
47.0711
 20
132.009
 30
0.0
 11
47.0916
 21
131.532
 31
0.0
  0
LINE
  8
0
 62
     0
 10
47.0916
 20
131.532
 30
0.0
 11
47.1759
 21
130.098
 31
0.0
  0
LINE
  8
0
 62
     0
 10
47.1759
 20
130.098
 30
0.0
 11
47.3026
 21
128.814
 31
0.0
  0
LINE
  8
0
 62
     0
 10
47.3026
 20
128.814
 30
0.0
 11
47.4528
 21
128.233
 31
0.0
  0
LINE
  8
0
 62
     0
 10
47.4528
 20
128.233
 30
0.0
 11
47.6127
 21
128.374
 31
0.0
  0
LINE
  8
0
 62
     0
 10
47.6127
 20
128.374
 30
0.0
 11
47.6306
 21
128.431
 31
0.0
  0
LINE
  8
0
 62
     0
 10
47.6306
 20
128.431
 30
0.0
 11
47.698
 21
128.651
 31
0.0
  0
LINE
  8
0
 62
     0
 10
47.698
 20
128.651
 30
0.0
 11
47.7972
 21
129.345
 31
0.0
  0
LINE
  8
0
 62
     0
 10
47.7972
 20
129.345
 30
0.0
 11
47.9446
 21
130.838
 31
0.0
  0
LINE
  8
0
 62
     0
 10
47.9446
 20
130.838
 30
0.0
 11
48.0963
 21
132.851
 31
0.0
  0
LINE
  8
0
 62
     0
 10
48.0963
 20
132.851
 30
0.0
 11
48.2808
 21
135.332
 31
0.0
  0
LINE
  8
0
 62
     0
 10
48.2808
 20
135.332
 30
0.0
 11
48.5235
 21
138.227
 31
0.0
  0
LINE
  8
0
 62
     0
 10
48.5235
 20
138.227
 30
0.0
 11
48.8502
 21
141.48
 31
0.0
  0
LINE
  8
0
 62
     0
 10
48.8502
 20
141.48
 30
0.0
 11
49.2898
 21
145.04
 31
0.0
  0
LINE
  8
0
 62
     0
 10
49.2898
 20
145.04
 30
0.0
 11
49.7085
 21
147.901
 31
0.0
  0
LINE
  8
0
 62
     0
 10
49.7085
 20
147.901
 30
0.0
 11
49.8669
 21
148.85
 31
0.0
  0
LINE
  8
0
 62
     0
 10
49.8669
 20
148.85
 30
0.0
 11
50.1001
 21
150.152
 31
0.0
  0
LINE
  8
0
 62
     0
 10
50.1001
 20
150.152
 30
0.0
 11
51.5814
 21
156.963
 31
0.0
  0
LINE
  8
0
 62
     0
 10
51.5814
 20
156.963
 30
0.0
 11
53.5065
 21
163.966
 31
0.0
  0
LINE
  8
0
 62
     0
 10
53.5065
 20
163.966
 30
0.0
 11
53.9627
 21
165.365
 31
0.0
  0
LINE
  8
0
 62
     0
 10
53.9627
 20
165.365
 30
0.0
 11
54.4132
 21
166.766
 31
0.0
  0
LINE
  8
0
 62
     0
 10
54.4132
 20
166.766
 30
0.0
 11
57.0329
 21
173.58
 31
0.0
  0
LINE
  8
0
 62
     0
 10
57.0329
 20
173.58
 30
0.0
 11
59.975
 21
179.99
 31
0.0
  0
LINE
  8
0
 62
     0
 10
59.975
 20
179.99
 30
0.0
 11
60.5882
 21
181.187
 31
0.0
  0
LINE
  8
0
 62
     0
 10
60.5882
 20
181.187
 30
0.0
 11
60.5275
 21
181.058
 31
0.0
  0
LINE
  8
0
 62
     0
 10
60.5275
 20
181.058
 30
0.0
 11
59.9253
 21
179.746
 31
0.0
  0
LINE
  8
0
 62
     0
 10
59.9253
 20
179.746
 30
0.0
 11
59.866
 21
179.614
 31
0.0
  0
LINE
  8
0
 62
     0
 10
59.866
 20
179.614
 30
0.0
 11
59.811
 21
179.48
 31
0.0
  0
LINE
  8
0
 62
     0
 10
59.811
 20
179.48
 30
0.0
 11
59.2586
 21
178.129
 31
0.0
  0
LINE
  8
0
 62
     0
 10
59.2586
 20
178.129
 30
0.0
 11
59.2032
 21
177.993
 31
0.0
  0
LINE
  8
0
 62
     0
 10
59.2032
 20
177.993
 30
0.0
 11
59.0903
 21
177.723
 31
0.0
  0
LINE
  8
0
 62
     0
 10
59.0903
 20
177.723
 30
0.0
 11
57.9575
 21
174.992
 31
0.0
  0
LINE
  8
0
 62
     0
 10
57.9575
 20
174.992
 30
0.0
 11
57.8432
 21
174.716
 31
0.0
  0
LINE
  8
0
 62
     0
 10
57.8432
 20
174.716
 30
0.0
 11
57.7398
 21
174.436
 31
0.0
  0
LINE
  8
0
 62
     0
 10
57.7398
 20
174.436
 30
0.0
 11
56.7009
 21
171.615
 31
0.0
  0
LINE
  8
0
 62
     0
 10
56.7009
 20
171.615
 30
0.0
 11
56.5961
 21
171.33
 31
0.0
  0
LINE
  8
0
 62
     0
 10
56.5961
 20
171.33
 30
0.0
 11
56.5436
 21
171.188
 31
0.0
  0
LINE
  8
0
 62
     0
 10
56.5436
 20
171.188
 30
0.0
 11
56.0144
 21
169.766
 31
0.0
  0
LINE
  8
0
 62
     0
 10
56.0144
 20
169.766
 30
0.0
 11
55.9622
 21
169.623
 31
0.0
  0
LINE
  8
0
 62
     0
 10
55.9622
 20
169.623
 30
0.0
 11
55.9153
 21
169.478
 31
0.0
  0
LINE
  8
0
 62
     0
 10
55.9153
 20
169.478
 30
0.0
 11
55.4468
 21
168.023
 31
0.0
  0
LINE
  8
0
 62
     0
 10
55.4468
 20
168.023
 30
0.0
 11
55.4013
 21
167.877
 31
0.0
  0
LINE
  8
0
 62
     0
 10
55.4013
 20
167.877
 30
0.0
 11
54.9988
 21
166.718
 31
0.0
  0
LINE
  8
0
 62
     0
 10
54.9988
 20
166.718
 30
0.0
 11
53.2613
 21
160.763
 31
0.0
  0
LINE
  8
0
 62
     0
 10
53.2613
 20
160.763
 30
0.0
 11
51.8047
 21
154.667
 31
0.0
  0
LINE
  8
0
 62
     0
 10
51.8047
 20
154.667
 30
0.0
 11
51.5426
 21
153.436
 31
0.0
  0
LINE
  8
0
 62
     0
 10
51.5426
 20
153.436
 30
0.0
 11
50.8621
 21
149.72
 31
0.0
  0
LINE
  8
0
 62
     0
 10
50.8621
 20
149.72
 30
0.0
 11
50.7986
 21
149.411
 31
0.0
  0
LINE
  8
0
 62
     0
 10
50.7986
 20
149.411
 30
0.0
 11
50.3671
 21
146.295
 31
0.0
  0
LINE
  8
0
 62
     0
 10
50.3671
 20
146.295
 30
0.0
 11
50.322
 21
145.984
 31
0.0
  0
LINE
  8
0
 62
     0
 10
50.322
 20
145.984
 30
0.0
 11
50.2239
 21
145.364
 31
0.0
  0
LINE
  8
0
 62
     0
 10
50.2239
 20
145.364
 30
0.0
 11
49.6316
 21
139.139
 31
0.0
  0
LINE
  8
0
 62
     0
 10
49.6316
 20
139.139
 30
0.0
 11
49.5776
 21
138.52
 31
0.0
  0
LINE
  8
0
 62
     0
 10
49.5776
 20
138.52
 30
0.0
 11
49.5169
 21
137.28
 31
0.0
  0
LINE
  8
0
 62
     0
 10
49.5169
 20
137.28
 30
0.0
 11
49.397
 21
131.142
 31
0.0
  0
LINE
  8
0
 62
     0
 10
49.397
 20
131.142
 30
0.0
 11
49.6231
 21
125.144
 31
0.0
  0
LINE
  8
0
 62
     0
 10
49.6231
 20
125.144
 30
0.0
 11
49.736
 21
123.971
 31
0.0
  0
LINE
  8
0
 62
     0
 10
49.736
 20
123.971
 30
0.0
 11
49.7307
 21
124.249
 31
0.0
  0
LINE
  8
0
 62
     0
 10
49.7307
 20
124.249
 30
0.0
 11
49.7113
 21
126.792
 31
0.0
  0
LINE
  8
0
 62
     0
 10
49.7113
 20
126.792
 30
0.0
 11
49.7156
 21
127.03
 31
0.0
  0
LINE
  8
0
 62
     0
 10
49.7156
 20
127.03
 30
0.0
 11
49.7265
 21
127.27
 31
0.0
  0
LINE
  8
0
 62
     0
 10
49.7265
 20
127.27
 30
0.0
 11
49.8436
 21
129.653
 31
0.0
  0
LINE
  8
0
 62
     0
 10
49.8436
 20
129.653
 30
0.0
 11
49.856
 21
129.899
 31
0.0
  0
LINE
  8
0
 62
     0
 10
49.856
 20
129.899
 30
0.0
 11
49.8697
 21
130.146
 31
0.0
  0
LINE
  8
0
 62
     0
 10
49.8697
 20
130.146
 30
0.0
 11
49.9124
 21
131.434
 31
0.0
  0
LINE
  8
0
 62
     0
 10
49.9124
 20
131.434
 30
0.0
 11
49.9717
 21
132.828
 31
0.0
  0
LINE
  8
0
 62
     0
 10
49.9717
 20
132.828
 30
0.0
 11
49.9953
 21
133.127
 31
0.0
  0
LINE
  8
0
 62
     0
 10
49.9953
 20
133.127
 30
0.0
 11
50.0158
 21
133.426
 31
0.0
  0
LINE
  8
0
 62
     0
 10
50.0158
 20
133.426
 30
0.0
 11
50.1167
 21
135.048
 31
0.0
  0
LINE
  8
0
 62
     0
 10
50.1167
 20
135.048
 30
0.0
 11
50.2087
 21
136.871
 31
0.0
  0
LINE
  8
0
 62
     0
 10
50.2087
 20
136.871
 30
0.0
 11
50.2267
 21
137.269
 31
0.0
  0
LINE
  8
0
 62
     0
 10
50.2267
 20
137.269
 30
0.0
 11
50.3453
 21
139.281
 31
0.0
  0
LINE
  8
0
 62
     0
 10
50.3453
 20
139.281
 30
0.0
 11
51.6421
 21
149.26
 31
0.0
  0
LINE
  8
0
 62
     0
 10
51.6421
 20
149.26
 30
0.0
 11
53.818
 21
159.068
 31
0.0
  0
LINE
  8
0
 62
     0
 10
53.818
 20
159.068
 30
0.0
 11
54.3775
 21
160.995
 31
0.0
  0
LINE
  8
0
 62
     0
 10
54.3775
 20
160.995
 30
0.0
 11
54.7673
 21
162.413
 31
0.0
  0
LINE
  8
0
 62
     0
 10
54.7673
 20
162.413
 30
0.0
 11
56.0599
 21
166.634
 31
0.0
  0
LINE
  8
0
 62
     0
 10
56.0599
 20
166.634
 30
0.0
 11
57.967
 21
171.952
 31
0.0
  0
LINE
  8
0
 62
     0
 10
57.967
 20
171.952
 30
0.0
 11
60.1761
 21
176.977
 31
0.0
  0
LINE
  8
0
 62
     0
 10
60.1761
 20
176.977
 30
0.0
 11
62.067
 21
180.578
 31
0.0
  0
LINE
  8
0
 62
     0
 10
62.067
 20
180.578
 30
0.0
 11
62.7683
 21
181.734
 31
0.0
  0
LINE
  8
0
 62
     0
 10
62.7683
 20
181.734
 30
0.0
 11
62.8495
 21
181.892
 31
0.0
  0
LINE
  8
0
 62
     0
 10
62.8495
 20
181.892
 30
0.0
 11
63.6626
 21
183.44
 31
0.0
  0
LINE
  8
0
 62
     0
 10
63.6626
 20
183.44
 30
0.0
 11
63.7438
 21
183.593
 31
0.0
  0
LINE
  8
0
 62
     0
 10
63.7438
 20
183.593
 30
0.0
 11
63.9078
 21
183.906
 31
0.0
  0
LINE
  8
0
 62
     0
 10
63.9078
 20
183.906
 30
0.0
 11
65.4763
 21
187.012
 31
0.0
  0
LINE
  8
0
 62
     0
 10
65.4763
 20
187.012
 30
0.0
 11
65.6512
 21
187.325
 31
0.0
  0
LINE
  8
0
 62
     0
 10
65.6512
 20
187.325
 30
0.0
 11
65.8495
 21
187.67
 31
0.0
  0
LINE
  8
0
 62
     0
 10
65.8495
 20
187.67
 30
0.0
 11
66.8031
 21
189.162
 31
0.0
  0
LINE
  8
0
 62
     0
 10
66.8031
 20
189.162
 30
0.0
 11
67.6684
 21
190.439
 31
0.0
  0
LINE
  8
0
 62
     0
 10
67.6684
 20
190.439
 30
0.0
 11
67.8229
 21
190.675
 31
0.0
  0
LINE
  8
0
 62
     0
 10
67.8229
 20
190.675
 30
0.0
 11
67.9813
 21
190.909
 31
0.0
  0
LINE
  8
0
 62
     0
 10
67.9813
 20
190.909
 30
0.0
 11
69.4588
 21
193.027
 31
0.0
  0
LINE
  8
0
 62
     0
 10
69.4588
 20
193.027
 30
0.0
 11
69.6129
 21
193.226
 31
0.0
  0
LINE
  8
0
 62
     0
 10
69.6129
 20
193.226
 30
0.0
 11
69.8391
 21
193.538
 31
0.0
  0
LINE
  8
0
 62
     0
 10
69.8391
 20
193.538
 30
0.0
 11
70.5185
 21
194.477
 31
0.0
  0
LINE
  8
0
 62
     0
 10
70.5185
 20
194.477
 30
0.0
 11
71.5176
 21
195.857
 31
0.0
  0
LINE
  8
0
 62
     0
 10
71.5176
 20
195.857
 30
0.0
 11
72.686
 21
197.469
 31
0.0
  0
LINE
  8
0
 62
     0
 10
72.686
 20
197.469
 30
0.0
 11
73.7443
 21
198.93
 31
0.0
  0
LINE
  8
0
 62
     0
 10
73.7443
 20
198.93
 30
0.0
 11
74.0971
 21
199.416
 31
0.0
  0
LINE
  8
0
 62
     0
 10
74.0971
 20
199.416
 30
0.0
 11
74.0971
 21
199.416
 31
0.0
  0
LINE
  8
0
 62
     0
 10
74.0971
 20
199.416
 30
0.0
 11
74.0904
 21
199.263
 31
0.0
  0
LINE
  8
0
 62
     0
 10
74.0904
 20
199.263
 30
0.0
 11
73.9069
 21
198.927
 31
0.0
  0
LINE
  8
0
 62
     0
 10
73.9069
 20
198.927
 30
0.0
 11
73.8533
 21
198.839
 31
0.0
  0
LINE
  8
0
 62
     0
 10
73.8533
 20
198.839
 30
0.0
 11
74.0061
 21
199.061
 31
0.0
  0
LINE
  8
0
 62
     0
 10
74.0061
 20
199.061
 30
0.0
 11
74.9268
 21
200.291
 31
0.0
  0
LINE
  8
0
 62
     0
 10
74.9268
 20
200.291
 30
0.0
 11
76.0056
 21
201.608
 31
0.0
  0
LINE
  8
0
 62
     0
 10
76.0056
 20
201.608
 30
0.0
 11
76.2399
 21
201.871
 31
0.0
  0
LINE
  8
0
 62
     0
 10
76.2399
 20
201.871
 30
0.0
 11
76.4688
 21
202.139
 31
0.0
  0
LINE
  8
0
 62
     0
 10
76.4688
 20
202.139
 30
0.0
 11
77.585
 21
203.485
 31
0.0
  0
LINE
  8
0
 62
     0
 10
77.585
 20
203.485
 30
0.0
 11
78.6183
 21
204.767
 31
0.0
  0
LINE
  8
0
 62
     0
 10
78.6183
 20
204.767
 30
0.0
 11
78.8088
 21
205
 31
0.0
  0
LINE
  8
0
 62
     0
 10
78.8088
 20
205
 30
0.0
 11
78.8529
 21
205.002
 31
0.0
  0
LINE
  8
0
 62
     0
 10
78.8529
 20
205.002
 30
0.0
 11
79.1009
 21
205.048
 31
0.0
  0
LINE
  8
0
 62
     0
 10
79.1009
 20
205.048
 30
0.0
 11
79.4646
 21
205.233
 31
0.0
  0
LINE
  8
0
 62
     0
 10
79.4646
 20
205.233
 30
0.0
 11
79.5666
 21
205.306
 31
0.0
  0
LINE
  8
0
 62
     0
 10
79.5666
 20
205.306
 30
0.0
 11
81.5428
 21
207.407
 31
0.0
  0
LINE
  8
0
 62
     0
 10
81.5428
 20
207.407
 30
0.0
 11
87.9105
 21
213.298
 31
0.0
  0
LINE
  8
0
 62
     0
 10
87.9105
 20
213.298
 30
0.0
 11
97.0926
 21
220.39
 31
0.0
  0
LINE
  8
0
 62
     0
 10
97.0926
 20
220.39
 30
0.0
 11
107.039
 21
226.461
 31
0.0
  0
LINE
  8
0
 62
     0
 10
107.039
 20
226.461
 30
0.0
 11
114.954
 21
230.317
 31
0.0
  0
LINE
  8
0
 62
     0
 10
114.954
 20
230.317
 30
0.0
 11
117.677
 21
231.389
 31
0.0
  0
LINE
  8
0
 62
     0
 10
117.677
 20
231.389
 30
0.0
 11
117.949
 21
231.495
 31
0.0
  0
LINE
  8
0
 62
     0
 10
117.949
 20
231.495
 30
0.0
 11
120.656
 21
232.549
 31
0.0
  0
LINE
  8
0
 62
     0
 10
120.656
 20
232.549
 30
0.0
 11
120.926
 21
232.654
 31
0.0
  0
LINE
  8
0
 62
     0
 10
120.926
 20
232.654
 30
0.0
 11
121.2
 21
232.747
 31
0.0
  0
LINE
  8
0
 62
     0
 10
121.2
 20
232.747
 30
0.0
 11
123.939
 21
233.657
 31
0.0
  0
LINE
  8
0
 62
     0
 10
123.939
 20
233.657
 30
0.0
 11
124.214
 21
233.748
 31
0.0
  0
LINE
  8
0
 62
     0
 10
124.214
 20
233.748
 30
0.0
 11
125.849
 21
234.294
 31
0.0
  0
LINE
  8
0
 62
     0
 10
125.849
 20
234.294
 30
0.0
 11
127.506
 21
234.757
 31
0.0
  0
LINE
  8
0
 62
     0
 10
127.506
 20
234.757
 30
0.0
 11
127.781
 21
234.834
 31
0.0
  0
LINE
  8
0
 62
     0
 10
127.781
 20
234.834
 30
0.0
 11
130.532
 21
235.599
 31
0.0
  0
LINE
  8
0
 62
     0
 10
130.532
 20
235.599
 30
0.0
 11
130.806
 21
235.675
 31
0.0
  0
LINE
  8
0
 62
     0
 10
130.806
 20
235.675
 30
0.0
 11
131.277
 21
235.789
 31
0.0
  0
LINE
  8
0
 62
     0
 10
131.277
 20
235.789
 30
0.0
 11
136.069
 21
236.9
 31
0.0
  0
LINE
  8
0
 62
     0
 10
136.069
 20
236.9
 30
0.0
 11
136.557
 21
237.003
 31
0.0
  0
LINE
  8
0
 62
     0
 10
136.557
 20
237.003
 30
0.0
 11
136.802
 21
237.047
 31
0.0
  0
LINE
  8
0
 62
     0
 10
136.802
 20
237.047
 30
0.0
 11
139.276
 21
237.479
 31
0.0
  0
LINE
  8
0
 62
     0
 10
139.276
 20
237.479
 30
0.0
 11
139.525
 21
237.521
 31
0.0
  0
LINE
  8
0
 62
     0
 10
139.525
 20
237.521
 30
0.0
 11
139.773
 21
237.565
 31
0.0
  0
LINE
  8
0
 62
     0
 10
139.773
 20
237.565
 30
0.0
 11
142.294
 21
237.958
 31
0.0
  0
LINE
  8
0
 62
     0
 10
142.294
 20
237.958
 30
0.0
 11
142.55
 21
237.982
 31
0.0
  0
LINE
  8
0
 62
     0
 10
142.55
 20
237.982
 30
0.0
 11
142.918
 21
238.026
 31
0.0
  0
LINE
  8
0
 62
     0
 10
142.918
 20
238.026
 30
0.0
 11
144.02
 21
238.206
 31
0.0
  0
LINE
  8
0
 62
     0
 10
144.02
 20
238.206
 30
0.0
 11
145.342
 21
238.471
 31
0.0
  0
LINE
  8
0
 62
     0
 10
145.342
 20
238.471
 30
0.0
 11
146.461
 21
238.713
 31
0.0
  0
LINE
  8
0
 62
     0
 10
146.461
 20
238.713
 30
0.0
 11
147.107
 21
238.843
 31
0.0
  0
LINE
  8
0
 62
     0
 10
147.107
 20
238.843
 30
0.0
 11
147.325
 21
238.87
 31
0.0
  0
LINE
  8
0
 62
     0
 10
147.325
 20
238.87
 30
0.0
 11
148.655
 21
238.946
 31
0.0
  0
LINE
  8
0
 62
     0
 10
148.655
 20
238.946
 30
0.0
 11
155.415
 21
239.043
 31
0.0
  0
LINE
  8
0
 62
     0
 10
155.415
 20
239.043
 30
0.0
 11
162.633
 21
238.734
 31
0.0
  0
LINE
  8
0
 62
     0
 10
162.633
 20
238.734
 30
0.0
 11
164.192
 21
238.607
 31
0.0
  0
LINE
  8
0
 62
     0
 10
164.192
 20
238.607
 30
0.0
 11
164.312
 21
238.606
 31
0.0
  0
LINE
  8
0
 62
     0
 10
164.312
 20
238.606
 30
0.0
 11
165.1
 21
238.573
 31
0.0
  0
LINE
  8
0
 62
     0
 10
165.1
 20
238.573
 30
0.0
 11
166.082
 21
238.519
 31
0.0
  0
LINE
  8
0
 62
     0
 10
166.082
 20
238.519
 30
0.0
 11
166.302
 21
238.507
 31
0.0
  0
LINE
  8
0
 62
     0
 10
166.302
 20
238.507
 30
0.0
 11
166.519
 21
238.494
 31
0.0
  0
LINE
  8
0
 62
     0
 10
166.519
 20
238.494
 30
0.0
 11
168.899
 21
238.366
 31
0.0
  0
LINE
  8
0
 62
     0
 10
168.899
 20
238.366
 30
0.0
 11
169.142
 21
238.344
 31
0.0
  0
LINE
  8
0
 62
     0
 10
169.142
 20
238.344
 30
0.0
 11
169.426
 21
238.281
 31
0.0
  0
LINE
  8
0
 62
     0
 10
169.426
 20
238.281
 30
0.0
 11
172.442
 21
237.649
 31
0.0
  0
LINE
  8
0
 62
     0
 10
172.442
 20
237.649
 30
0.0
 11
172.761
 21
237.588
 31
0.0
  0
LINE
  8
0
 62
     0
 10
172.761
 20
237.588
 30
0.0
 11
174.699
 21
237.287
 31
0.0
  0
LINE
  8
0
 62
     0
 10
174.699
 20
237.287
 30
0.0
 11
184.19
 21
235.103
 31
0.0
  0
LINE
  8
0
 62
     0
 10
184.19
 20
235.103
 30
0.0
 11
193.369
 21
232.088
 31
0.0
  0
LINE
  8
0
 62
     0
 10
193.369
 20
232.088
 30
0.0
 11
195.153
 21
231.372
 31
0.0
  0
LINE
  8
0
 62
     0
 10
195.153
 20
231.372
 30
0.0
 11
195.145
 21
231.407
 31
0.0
  0
LINE
  8
0
 62
     0
 10
195.145
 20
231.407
 30
0.0
 11
195.367
 21
231.319
 31
0.0
  0
LINE
  8
0
 62
     0
 10
195.367
 20
231.319
 30
0.0
 11
197.645
 21
230.412
 31
0.0
  0
LINE
  8
0
 62
     0
 10
197.645
 20
230.412
 30
0.0
 11
197.878
 21
230.318
 31
0.0
  0
LINE
  8
0
 62
     0
 10
197.878
 20
230.318
 30
0.0
 11
198.106
 21
230.214
 31
0.0
  0
LINE
  8
0
 62
     0
 10
198.106
 20
230.214
 30
0.0
 11
200.43
 21
229.14
 31
0.0
  0
LINE
  8
0
 62
     0
 10
200.43
 20
229.14
 30
0.0
 11
200.667
 21
229.03
 31
0.0
  0
LINE
  8
0
 62
     0
 10
200.667
 20
229.03
 30
0.0
 11
201.145
 21
228.822
 31
0.0
  0
LINE
  8
0
 62
     0
 10
201.145
 20
228.822
 30
0.0
 11
205.907
 21
226.379
 31
0.0
  0
LINE
  8
0
 62
     0
 10
205.907
 20
226.379
 30
0.0
 11
206.392
 21
226.128
 31
0.0
  0
LINE
  8
0
 62
     0
 10
206.392
 20
226.128
 30
0.0
 11
206.634
 21
226.004
 31
0.0
  0
LINE
  8
0
 62
     0
 10
206.634
 20
226.004
 30
0.0
 11
208.999
 21
224.616
 31
0.0
  0
LINE
  8
0
 62
     0
 10
208.999
 20
224.616
 30
0.0
 11
209.238
 21
224.478
 31
0.0
  0
LINE
  8
0
 62
     0
 10
209.238
 20
224.478
 30
0.0
 11
209.473
 21
224.335
 31
0.0
  0
LINE
  8
0
 62
     0
 10
209.473
 20
224.335
 30
0.0
 11
211.837
 21
222.917
 31
0.0
  0
LINE
  8
0
 62
     0
 10
211.837
 20
222.917
 30
0.0
 11
212.065
 21
222.758
 31
0.0
  0
LINE
  8
0
 62
     0
 10
212.065
 20
222.758
 30
0.0
 11
212.524
 21
222.454
 31
0.0
  0
LINE
  8
0
 62
     0
 10
212.524
 20
222.454
 30
0.0
 11
214.817
 21
220.945
 31
0.0
  0
LINE
  8
0
 62
     0
 10
214.817
 20
220.945
 30
0.0
 11
217.049
 21
219.393
 31
0.0
  0
LINE
  8
0
 62
     0
 10
217.049
 20
219.393
 30
0.0
 11
217.479
 21
219.067
 31
0.0
  0
LINE
  8
0
 62
     0
 10
217.479
 20
219.067
 30
0.0
 11
218.21
 21
218.543
 31
0.0
  0
LINE
  8
0
 62
     0
 10
218.21
 20
218.543
 30
0.0
 11
224.914
 21
213.251
 31
0.0
  0
LINE
  8
0
 62
     0
 10
224.914
 20
213.251
 30
0.0
 11
225.517
 21
212.736
 31
0.0
  0
LINE
  8
0
 62
     0
 10
225.517
 20
212.736
 30
0.0
 11
225.531
 21
212.724
 31
0.0
  0
LINE
  8
0
 62
     0
 10
225.531
 20
212.724
 30
0.0
 11
225.673
 21
212.6
 31
0.0
  0
LINE
  8
0
 62
     0
 10
225.673
 20
212.6
 30
0.0
 11
225.688
 21
212.587
 31
0.0
  0
LINE
  8
0
 62
     0
 10
225.688
 20
212.587
 30
0.0
 11
225.694
 21
212.583
 31
0.0
  0
LINE
  8
0
 62
     0
 10
225.694
 20
212.583
 30
0.0
 11
225.735
 21
212.546
 31
0.0
  0
LINE
  8
0
 62
     0
 10
225.735
 20
212.546
 30
0.0
 11
225.739
 21
212.542
 31
0.0
  0
LINE
  8
0
 62
     0
 10
225.739
 20
212.542
 30
0.0
 11
227.514
 21
210.931
 31
0.0
  0
LINE
  8
0
 62
     0
 10
227.514
 20
210.931
 30
0.0
 11
229.212
 21
209.237
 31
0.0
  0
LINE
  8
0
 62
     0
 10
229.212
 20
209.237
 30
0.0
 11
230.911
 21
207.542
 31
0.0
  0
LINE
  8
0
 62
     0
 10
230.911
 20
207.542
 30
0.0
 11
231.051
 21
207.4
 31
0.0
  0
LINE
  8
0
 62
     0
 10
231.051
 20
207.4
 30
0.0
 11
232.402
 21
205.925
 31
0.0
  0
LINE
  8
0
 62
     0
 10
232.402
 20
205.925
 30
0.0
 11
232.538
 21
205.777
 31
0.0
  0
LINE
  8
0
 62
     0
 10
232.538
 20
205.777
 30
0.0
 11
232.472
 21
205.884
 31
0.0
  0
LINE
  8
0
 62
     0
 10
232.472
 20
205.884
 30
0.0
 11
232.314
 21
206.258
 31
0.0
  0
LINE
  8
0
 62
     0
 10
232.314
 20
206.258
 30
0.0
 11
232.293
 21
206.503
 31
0.0
  0
LINE
  8
0
 62
     0
 10
232.293
 20
206.503
 30
0.0
 11
232.296
 21
206.544
 31
0.0
  0
LINE
  8
0
 62
     0
 10
232.296
 20
206.544
 30
0.0
 11
232.085
 21
206.746
 31
0.0
  0
LINE
  8
0
 62
     0
 10
232.085
 20
206.746
 30
0.0
 11
230.941
 21
207.841
 31
0.0
  0
LINE
  8
0
 62
     0
 10
230.941
 20
207.841
 30
0.0
 11
229.727
 21
209.003
 31
0.0
  0
LINE
  8
0
 62
     0
 10
229.727
 20
209.003
 30
0.0
 11
229.483
 21
209.236
 31
0.0
  0
LINE
  8
0
 62
     0
 10
229.483
 20
209.236
 30
0.0
 11
229.891
 21
208.864
 31
0.0
  0
LINE
  8
0
 62
     0
 10
229.891
 20
208.864
 30
0.0
 11
231.774
 21
207.125
 31
0.0
  0
LINE
  8
0
 62
     0
 10
231.774
 20
207.125
 30
0.0
 11
233.425
 21
205.578
 31
0.0
  0
LINE
  8
0
 62
     0
 10
233.425
 20
205.578
 30
0.0
 11
233.718
 21
205.303
 31
0.0
  0
LINE
  8
0
 62
     0
 10
233.718
 20
205.303
 30
0.0
 11
233.831
 21
205.16
 31
0.0
  0
LINE
  8
0
 62
     0
 10
233.831
 20
205.16
 30
0.0
 11
235.013
 21
203.695
 31
0.0
  0
LINE
  8
0
 62
     0
 10
235.013
 20
203.695
 30
0.0
 11
235.131
 21
203.539
 31
0.0
  0
LINE
  8
0
 62
     0
 10
235.131
 20
203.539
 30
0.0
 11
235.248
 21
203.385
 31
0.0
  0
LINE
  8
0
 62
     0
 10
235.248
 20
203.385
 30
0.0
 11
236.451
 21
201.796
 31
0.0
  0
LINE
  8
0
 62
     0
 10
236.451
 20
201.796
 30
0.0
 11
236.575
 21
201.632
 31
0.0
  0
LINE
  8
0
 62
     0
 10
236.575
 20
201.632
 30
0.0
 11
236.699
 21
201.471
 31
0.0
  0
LINE
  8
0
 62
     0
 10
236.699
 20
201.471
 30
0.0
 11
237.98
 21
199.817
 31
0.0
  0
LINE
  8
0
 62
     0
 10
237.98
 20
199.817
 30
0.0
 11
238.111
 21
199.648
 31
0.0
  0
LINE
  8
0
 62
     0
 10
238.111
 20
199.648
 30
0.0
 11
238.235
 21
199.474
 31
0.0
  0
LINE
  8
0
 62
     0
 10
238.235
 20
199.474
 30
0.0
 11
239.509
 21
197.696
 31
0.0
  0
LINE
  8
0
 62
     0
 10
239.509
 20
197.696
 30
0.0
 11
239.639
 21
197.514
 31
0.0
  0
LINE
  8
0
 62
     0
 10
239.639
 20
197.514
 30
0.0
 11
240.316
 21
196.65
 31
0.0
  0
LINE
  8
0
 62
     0
 10
240.316
 20
196.65
 30
0.0
 11
243.491
 21
192.17
 31
0.0
  0
LINE
  8
0
 62
     0
 10
243.491
 20
192.17
 30
0.0
 11
246.447
 21
187.533
 31
0.0
  0
LINE
  8
0
 62
     0
 10
246.447
 20
187.533
 30
0.0
 11
247.016
 21
186.591
 31
0.0
  0
LINE
  8
0
 62
     0
 10
247.016
 20
186.591
 30
0.0
 11
247.279
 21
186.107
 31
0.0
  0
LINE
  8
0
 62
     0
 10
247.279
 20
186.107
 30
0.0
 11
249.932
 21
181.277
 31
0.0
  0
LINE
  8
0
 62
     0
 10
249.932
 20
181.277
 30
0.0
 11
250.166
 21
180.777
 31
0.0
  0
LINE
  8
0
 62
     0
 10
250.166
 20
180.777
 30
0.0
 11
251.643
 21
177.81
 31
0.0
  0
LINE
  8
0
 62
     0
 10
251.643
 20
177.81
 30
0.0
 11
252.973
 21
174.768
 31
0.0
  0
LINE
  8
0
 62
     0
 10
252.973
 20
174.768
 30
0.0
 11
253.016
 21
174.697
 31
0.0
  0
LINE
  8
0
 62
     0
 10
253.016
 20
174.697
 30
0.0
 11
253.172
 21
174.493
 31
0.0
  0
LINE
  8
0
 62
     0
 10
253.172
 20
174.493
 30
0.0
 11
253.239
 21
174.526
 31
0.0
  0
LINE
  8
0
 62
     0
 10
253.239
 20
174.526
 30
0.0
 11
253.243
 21
174.702
 31
0.0
  0
LINE
  8
0
 62
     0
 10
253.243
 20
174.702
 30
0.0
 11
253.242
 21
174.825
 31
0.0
  0
LINE
  8
0
 62
     0
 10
253.242
 20
174.825
 30
0.0
 11
253.255
 21
174.851
 31
0.0
  0
LINE
  8
0
 62
     0
 10
253.255
 20
174.851
 30
0.0
 11
253.626
 21
173.95
 31
0.0
  0
LINE
  8
0
 62
     0
 10
253.626
 20
173.95
 30
0.0
 11
256.76
 21
164.658
 31
0.0
  0
LINE
  8
0
 62
     0
 10
256.76
 20
164.658
 30
0.0
 11
257.033
 21
163.712
 31
0.0
  0
LINE
  8
0
 62
     0
 10
257.033
 20
163.712
 30
0.0
 11
257.547
 21
162.021
 31
0.0
  0
LINE
  8
0
 62
     0
 10
257.547
 20
162.021
 30
0.0
 11
259.621
 21
153.384
 31
0.0
  0
LINE
  8
0
 62
     0
 10
259.621
 20
153.384
 30
0.0
 11
261.01
 21
144.545
 31
0.0
  0
LINE
  8
0
 62
     0
 10
261.01
 20
144.545
 30
0.0
 11
261.184
 21
142.752
 31
0.0
  0
LINE
  8
0
 62
     0
 10
261.184
 20
142.752
 30
0.0
 11
261.251
 21
142.333
 31
0.0
  0
LINE
  8
0
 62
     0
 10
261.251
 20
142.333
 30
0.0
 11
261.755
 21
138.115
 31
0.0
  0
LINE
  8
0
 62
     0
 10
261.755
 20
138.115
 30
0.0
 11
261.816
 21
137.695
 31
0.0
  0
LINE
  8
0
 62
     0
 10
261.816
 20
137.695
 30
0.0
 11
261.805
 21
137.455
 31
0.0
  0
LINE
  8
0
 62
     0
 10
261.805
 20
137.455
 30
0.0
 11
261.747
 21
136.081
 31
0.0
  0
LINE
  8
0
 62
     0
 10
261.747
 20
136.081
 30
0.0
 11
261.681
 21
134.484
 31
0.0
  0
LINE
  8
0
 62
     0
 10
261.681
 20
134.484
 30
0.0
 11
261.667
 21
134.133
 31
0.0
  0
LINE
  8
0
 62
     0
 10
261.667
 20
134.133
 30
0.0
 11
261.666
 21
133.798
 31
0.0
  0
LINE
  8
0
 62
     0
 10
261.666
 20
133.798
 30
0.0
 11
261.694
 21
130.438
 31
0.0
  0
LINE
  8
0
 62
     0
 10
261.694
 20
130.438
 30
0.0
 11
261.68
 21
130.101
 31
0.0
  0
LINE
  8
0
 62
     0
 10
261.68
 20
130.101
 30
0.0
 11
261.666
 21
129.766
 31
0.0
  0
LINE
  8
0
 62
     0
 10
261.666
 20
129.766
 30
0.0
 11
261.535
 21
126.39
 31
0.0
  0
LINE
  8
0
 62
     0
 10
261.535
 20
126.39
 30
0.0
 11
261.523
 21
126.051
 31
0.0
  0
LINE
  8
0
 62
     0
 10
261.523
 20
126.051
 30
0.0
 11
261.517
 21
125.823
 31
0.0
  0
LINE
  8
0
 62
     0
 10
261.517
 20
125.823
 30
0.0
 11
261.314
 21
123.328
 31
0.0
  0
LINE
  8
0
 62
     0
 10
261.314
 20
123.328
 30
0.0
 11
261.295
 21
123.056
 31
0.0
  0
LINE
  8
0
 62
     0
 10
261.295
 20
123.056
 30
0.0
 11
261.269
 21
122.786
 31
0.0
  0
LINE
  8
0
 62
     0
 10
261.269
 20
122.786
 30
0.0
 11
261.022
 21
119.885
 31
0.0
  0
LINE
  8
0
 62
     0
 10
261.022
 20
119.885
 30
0.0
 11
260.984
 21
119.578
 31
0.0
  0
LINE
  8
0
 62
     0
 10
260.984
 20
119.578
 30
0.0
 11
260.944
 21
119.272
 31
0.0
  0
LINE
  8
0
 62
     0
 10
260.944
 20
119.272
 30
0.0
 11
260.525
 21
116.031
 31
0.0
  0
LINE
  8
0
 62
     0
 10
260.525
 20
116.031
 30
0.0
 11
260.482
 21
115.69
 31
0.0
  0
LINE
  8
0
 62
     0
 10
260.482
 20
115.69
 30
0.0
 11
260.441
 21
115.35
 31
0.0
  0
LINE
  8
0
 62
     0
 10
260.441
 20
115.35
 30
0.0
 11
259.832
 21
111.829
 31
0.0
  0
LINE
  8
0
 62
     0
 10
259.832
 20
111.829
 30
0.0
 11
259.772
 21
111.463
 31
0.0
  0
LINE
  8
0
 62
     0
 10
259.772
 20
111.463
 30
0.0
 11
259.503
 21
110.005
 31
0.0
  0
LINE
  8
0
 62
     0
 10
259.503
 20
110.005
 30
0.0
 11
257.663
 21
102.274
 31
0.0
  0
LINE
  8
0
 62
     0
 10
257.663
 20
102.274
 30
0.0
 11
255.134
 21
94.2262
 31
0.0
  0
LINE
  8
0
 62
     0
 10
255.134
 20
94.2262
 30
0.0
 11
254.521
 21
92.6084
 31
0.0
  0
LINE
  8
0
 62
     0
 10
254.521
 20
92.6084
 30
0.0
 11
254.447
 21
92.3576
 31
0.0
  0
LINE
  8
0
 62
     0
 10
254.447
 20
92.3576
 30
0.0
 11
254.124
 21
91.2703
 31
0.0
  0
LINE
  8
0
 62
     0
 10
254.124
 20
91.2703
 30
0.0
 11
253.848
 21
90.4614
 31
0.0
  0
LINE
  8
0
 62
     0
 10
253.848
 20
90.4614
 30
0.0
 11
253.799
 21
90.3482
 31
0.0
  0
LINE
  8
0
 62
     0
 10
253.799
 20
90.3482
 30
0.0
 11
253.607
 21
89.8924
 31
0.0
  0
LINE
  8
0
 62
     0
 10
253.607
 20
89.8924
 30
0.0
 11
251.63
 21
85.4452
 31
0.0
  0
LINE
  8
0
 62
     0
 10
251.63
 20
85.4452
 30
0.0
 11
251.434
 21
85.0085
 31
0.0
  0
LINE
  8
0
 62
     0
 10
251.434
 20
85.0085
 30
0.0
 11
251.214
 21
84.5841
 31
0.0
  0
LINE
  8
0
 62
     0
 10
251.214
 20
84.5841
 30
0.0
 11
249.068
 21
80.4086
 31
0.0
  0
LINE
  8
0
 62
     0
 10
249.068
 20
80.4086
 30
0.0
 11
248.843
 21
80.0061
 31
0.0
  0
LINE
  8
0
 62
     0
 10
248.843
 20
80.0061
 30
0.0
 11
248.099
 21
78.5922
 31
0.0
  0
LINE
  8
0
 62
     0
 10
248.099
 20
78.5922
 30
0.0
 11
244.122
 21
71.9459
 31
0.0
  0
LINE
  8
0
 62
     0
 10
244.122
 20
71.9459
 30
0.0
 11
239.985
 21
65.997
 31
0.0
  0
LINE
  8
0
 62
     0
 10
239.985
 20
65.997
 30
0.0
 11
239.163
 21
64.9305
 31
0.0
  0
LINE
  8
0
 62
     0
 10
239.163
 20
64.9305
 30
0.0
 11
239.059
 21
64.7968
 31
0.0
  0
LINE
  8
0
 62
     0
 10
239.059
 20
64.7968
 30
0.0
 11
238.062
 21
63.4753
 31
0.0
  0
LINE
  8
0
 62
     0
 10
238.062
 20
63.4753
 30
0.0
 11
237.96
 21
63.3497
 31
0.0
  0
LINE
  8
0
 62
     0
 10
237.96
 20
63.3497
 30
0.0
 11
237.856
 21
63.2259
 31
0.0
  0
LINE
  8
0
 62
     0
 10
237.856
 20
63.2259
 30
0.0
 11
236.842
 21
62.0021
 31
0.0
  0
LINE
  8
0
 62
     0
 10
236.842
 20
62.0021
 30
0.0
 11
236.744
 21
61.8822
 31
0.0
  0
LINE
  8
0
 62
     0
 10
236.744
 20
61.8822
 30
0.0
 11
236.543
 21
61.6451
 31
0.0
  0
LINE
  8
0
 62
     0
 10
236.543
 20
61.6451
 30
0.0
 11
234.649
 21
59.3672
 31
0.0
  0
LINE
  8
0
 62
     0
 10
234.649
 20
59.3672
 30
0.0
 11
234.459
 21
59.1605
 31
0.0
  0
LINE
  8
0
 62
     0
 10
234.459
 20
59.1605
 30
0.0
 11
234.078
 21
58.7498
 31
0.0
  0
LINE
  8
0
 62
     0
 10
234.078
 20
58.7498
 30
0.0
 11
232.337
 21
56.8138
 31
0.0
  0
LINE
  8
0
 62
     0
 10
232.337
 20
56.8138
 30
0.0
 11
230.757
 21
55.1272
 31
0.0
  0
LINE
  8
0
 62
     0
 10
230.757
 20
55.1272
 30
0.0
 11
230.458
 21
54.839
 31
0.0
  0
LINE
  8
0
 62
     0
 10
230.458
 20
54.839
 30
0.0
 11
230.263
 21
54.6365
 31
0.0
  0
LINE
  8
0
 62
     0
 10
230.263
 20
54.6365
 30
0.0
 11
229.697
 21
54.011
 31
0.0
  0
LINE
  8
0
 62
     0
 10
229.697
 20
54.011
 30
0.0
 11
229.435
 21
53.6374
 31
0.0
  0
LINE
  8
0
 62
     0
 10
229.435
 20
53.6374
 30
0.0
 11
229.61
 21
53.6621
 31
0.0
  0
LINE
  8
0
 62
     0
 10
229.61
 20
53.6621
 30
0.0
 11
230.025
 21
53.9323
 31
0.0
  0
LINE
  8
0
 62
     0
 10
230.025
 20
53.9323
 30
0.0
 11
230.159
 21
54.0286
 31
0.0
  0
LINE
  8
0
 62
     0
 10
230.159
 20
54.0286
 30
0.0
 11
230.276
 21
54.1168
 31
0.0
  0
LINE
  8
0
 62
     0
 10
230.276
 20
54.1168
 30
0.0
 11
231.016
 21
54.6806
 31
0.0
  0
LINE
  8
0
 62
     0
 10
231.016
 20
54.6806
 30
0.0
 11
231.918
 21
55.3999
 31
0.0
  0
LINE
  8
0
 62
     0
 10
231.918
 20
55.3999
 30
0.0
 11
232.117
 21
55.5653
 31
0.0
  0
LINE
  8
0
 62
     0
 10
232.117
 20
55.5653
 30
0.0
 11
232.308
 21
55.7389
 31
0.0
  0
LINE
  8
0
 62
     0
 10
232.308
 20
55.7389
 30
0.0
 11
234.469
 21
57.6887
 31
0.0
  0
LINE
  8
0
 62
     0
 10
234.469
 20
57.6887
 30
0.0
 11
234.701
 21
57.8968
 31
0.0
  0
LINE
  8
0
 62
     0
 10
234.701
 20
57.8968
 30
0.0
 11
234.936
 21
58.1036
 31
0.0
  0
LINE
  8
0
 62
     0
 10
234.936
 20
58.1036
 30
0.0
 11
237.205
 21
60.3098
 31
0.0
  0
LINE
  8
0
 62
     0
 10
237.205
 20
60.3098
 30
0.0
 11
237.424
 21
60.5289
 31
0.0
  0
LINE
  8
0
 62
     0
 10
237.424
 20
60.5289
 30
0.0
 11
237.639
 21
60.7494
 31
0.0
  0
LINE
  8
0
 62
     0
 10
237.639
 20
60.7494
 30
0.0
 11
238.691
 21
61.7954
 31
0.0
  0
LINE
  8
0
 62
     0
 10
238.691
 20
61.7954
 30
0.0
 11
239.647
 21
62.7627
 31
0.0
  0
LINE
  8
0
 62
     0
 10
239.647
 20
62.7627
 30
0.0
 11
239.813
 21
62.9447
 31
0.0
  0
LINE
  8
0
 62
     0
 10
239.813
 20
62.9447
 30
0.0
 11
240.038
 21
63.1899
 31
0.0
  0
LINE
  8
0
 62
     0
 10
240.038
 20
63.1899
 30
0.0
 11
240.722
 21
63.9177
 31
0.0
  0
LINE
  8
0
 62
     0
 10
240.722
 20
63.9177
 30
0.0
 11
241.402
 21
64.612
 31
0.0
  0
LINE
  8
0
 62
     0
 10
241.402
 20
64.612
 30
0.0
 11
241.796
 21
64.9609
 31
0.0
  0
LINE
  8
0
 62
     0
 10
241.796
 20
64.9609
 30
0.0
 11
241.851
 21
64.9016
 31
0.0
  0
LINE
  8
0
 62
     0
 10
241.851
 20
64.9016
 30
0.0
 11
241.847
 21
64.8917
 31
0.0
  0
LINE
  8
0
 62
     0
 10
241.847
 20
64.8917
 30
0.0
 11
241.405
 21
64.0609
 31
0.0
  0
LINE
  8
0
 62
     0
 10
241.405
 20
64.0609
 30
0.0
 11
239.889
 21
61.6659
 31
0.0
  0
LINE
  8
0
 62
     0
 10
239.889
 20
61.6659
 30
0.0
 11
237.261
 21
58.1215
 31
0.0
  0
LINE
  8
0
 62
     0
 10
237.261
 20
58.1215
 30
0.0
 11
233.959
 21
54.2988
 31
0.0
  0
LINE
  8
0
 62
     0
 10
233.959
 20
54.2988
 30
0.0
 11
231.003
 21
51.2216
 31
0.0
  0
LINE
  8
0
 62
     0
 10
231.003
 20
51.2216
 30
0.0
 11
229.981
 21
50.2348
 31
0.0
  0
LINE
  8
0
 62
     0
 10
229.981
 20
50.2348
 30
0.0
 11
229.245
 21
49.5572
 31
0.0
  0
LINE
  8
0
 62
     0
 10
229.245
 20
49.5572
 30
0.0
 11
225.265
 21
46.0333
 31
0.0
  0
LINE
  8
0
 62
     0
 10
225.265
 20
46.0333
 30
0.0
 11
220.8
 21
42.4448
 31
0.0
  0
LINE
  8
0
 62
     0
 10
220.8
 20
42.4448
 30
0.0
 11
219.823
 21
41.734
 31
0.0
  0
LINE
  8
0
 62
     0
 10
219.823
 20
41.734
 30
0.0
 11
219.347
 21
41.3632
 31
0.0
  0
LINE
  8
0
 62
     0
 10
219.347
 20
41.3632
 30
0.0
 11
214.175
 21
37.7733
 31
0.0
  0
LINE
  8
0
 62
     0
 10
214.175
 20
37.7733
 30
0.0
 11
213.634
 21
37.4015
 31
0.0
  0
LINE
  8
0
 62
     0
 10
213.634
 20
37.4015
 30
0.0
 11
213.075
 21
37.0597
 31
0.0
  0
LINE
  8
0
 62
     0
 10
213.075
 20
37.0597
 30
0.0
 11
207.246
 21
33.5387
 31
0.0
  0
LINE
  8
0
 62
     0
 10
207.246
 20
33.5387
 30
0.0
 11
206.623
 21
33.2052
 31
0.0
  0
LINE
  8
0
 62
     0
 10
206.623
 20
33.2052
 30
0.0
 11
206.408
 21
33.0895
 31
0.0
  0
LINE
  8
0
 62
     0
 10
206.408
 20
33.0895
 30
0.0
 11
205.769
 21
32.7367
 31
0.0
  0
LINE
  8
0
 62
     0
 10
205.769
 20
32.7367
 30
0.0
 11
205.231
 21
32.4293
 31
0.0
  0
LINE
  8
0
 62
     0
 10
205.231
 20
32.4293
 30
0.0
 11
204.975
 21
32.2682
 31
0.0
  0
LINE
  8
0
 62
     0
 10
204.975
 20
32.2682
 30
0.0
 11
204.962
 21
32.2323
 31
0.0
  0
LINE
  8
0
 62
     0
 10
204.962
 20
32.2323
 30
0.0
 11
205.161
 21
32.3067
 31
0.0
  0
LINE
  8
0
 62
     0
 10
205.161
 20
32.3067
 30
0.0
 11
205.533
 21
32.4693
 31
0.0
  0
LINE
  8
0
 62
     0
 10
205.533
 20
32.4693
 30
0.0
 11
206.043
 21
32.705
 31
0.0
  0
LINE
  8
0
 62
     0
 10
206.043
 20
32.705
 30
0.0
 11
206.656
 21
32.9944
 31
0.0
  0
LINE
  8
0
 62
     0
 10
206.656
 20
32.9944
 30
0.0
 11
207.336
 21
33.3196
 31
0.0
  0
LINE
  8
0
 62
     0
 10
207.336
 20
33.3196
 30
0.0
 11
208.046
 21
33.6613
 31
0.0
  0
LINE
  8
0
 62
     0
 10
208.046
 20
33.6613
 30
0.0
 11
208.753
 21
34.0017
 31
0.0
  0
LINE
  8
0
 62
     0
 10
208.753
 20
34.0017
 30
0.0
 11
209.421
 21
34.3228
 31
0.0
  0
LINE
  8
0
 62
     0
 10
209.421
 20
34.3228
 30
0.0
 11
210.013
 21
34.6067
 31
0.0
  0
LINE
  8
0
 62
     0
 10
210.013
 20
34.6067
 30
0.0
 11
210.493
 21
34.834
 31
0.0
  0
LINE
  8
0
 62
     0
 10
210.493
 20
34.834
 30
0.0
 11
210.827
 21
34.987
 31
0.0
  0
LINE
  8
0
 62
     0
 10
210.827
 20
34.987
 30
0.0
 11
210.939
 21
35.0407
 31
0.0
  0
LINE
  8
0
 62
     0
 10
210.939
 20
35.0407
 30
0.0
 11
210.979
 21
35.0477
 31
0.0
  0
LINE
  8
0
 62
     0
 10
210.979
 20
35.0477
 30
0.0
 11
210.794
 21
34.9043
 31
0.0
  0
LINE
  8
0
 62
     0
 10
210.794
 20
34.9043
 30
0.0
 11
209.697
 21
34.0982
 31
0.0
  0
LINE
  8
0
 62
     0
 10
209.697
 20
34.0982
 30
0.0
 11
208.379
 21
33.2259
 31
0.0
  0
LINE
  8
0
 62
     0
 10
208.379
 20
33.2259
 30
0.0
 11
208.084
 21
33.0495
 31
0.0
  0
LINE
  8
0
 62
     0
 10
208.084
 20
33.0495
 30
0.0
 11
207.633
 21
32.8111
 31
0.0
  0
LINE
  8
0
 62
     0
 10
207.633
 20
32.8111
 30
0.0
 11
205.383
 21
31.6163
 31
0.0
  0
LINE
  8
0
 62
     0
 10
205.383
 20
31.6163
 30
0.0
 11
203.101
 21
30.4891
 31
0.0
  0
LINE
  8
0
 62
     0
 10
203.101
 20
30.4891
 30
0.0
 11
202.635
 21
30.2824
 31
0.0
  0
LINE
  8
0
 62
     0
 10
202.635
 20
30.2824
 30
0.0
 11
202.362
 21
30.157
 31
0.0
  0
LINE
  8
0
 62
     0
 10
202.362
 20
30.157
 30
0.0
 11
199.648
 21
28.8906
 31
0.0
  0
LINE
  8
0
 62
     0
 10
199.648
 20
28.8906
 30
0.0
 11
199.372
 21
28.7734
 31
0.0
  0
LINE
  8
0
 62
     0
 10
199.372
 20
28.7734
 30
0.0
 11
196.048
 21
27.4064
 31
0.0
  0
LINE
  8
0
 62
     0
 10
196.048
 20
27.4064
 30
0.0
 11
196.194
 21
27.4643
 31
0.0
  0
LINE
  8
0
 62
     0
 10
196.194
 20
27.4643
 30
0.0
 11
197.659
 21
28.0403
 31
0.0
  0
LINE
  8
0
 62
     0
 10
197.659
 20
28.0403
 30
0.0
 11
197.808
 21
28.0982
 31
0.0
  0
LINE
  8
0
 62
     0
 10
197.808
 20
28.0982
 30
0.0
 11
198.706
 21
28.4565
 31
0.0
  0
LINE
  8
0
 62
     0
 10
198.706
 20
28.4565
 30
0.0
 11
203.013
 21
30.3982
 31
0.0
  0
LINE
  8
0
 62
     0
 10
203.013
 20
30.3982
 30
0.0
 11
207.038
 21
32.4583
 31
0.0
  0
LINE
  8
0
 62
     0
 10
207.038
 20
32.4583
 30
0.0
 11
207.797
 21
32.8745
 31
0.0
  0
LINE
  8
0
 62
     0
 10
207.797
 20
32.8745
 30
0.0
 11
207.512
 21
32.7022
 31
0.0
  0
LINE
  8
0
 62
     0
 10
207.512
 20
32.7022
 30
0.0
 11
204.384
 21
30.8488
 31
0.0
  0
LINE
  8
0
 62
     0
 10
204.384
 20
30.8488
 30
0.0
 11
204.043
 21
30.6682
 31
0.0
  0
LINE
  8
0
 62
     0
 10
204.043
 20
30.6682
 30
0.0
 11
203.677
 21
30.4794
 31
0.0
  0
LINE
  8
0
 62
     0
 10
203.677
 20
30.4794
 30
0.0
 11
199.92
 21
28.5281
 31
0.0
  0
LINE
  8
0
 62
     0
 10
199.92
 20
28.5281
 30
0.0
 11
199.54
 21
28.3435
 31
0.0
  0
LINE
  8
0
 62
     0
 10
199.54
 20
28.3435
 30
0.0
 11
199.155
 21
28.1657
 31
0.0
  0
LINE
  8
0
 62
     0
 10
199.155
 20
28.1657
 30
0.0
 11
195.469
 21
26.45
 31
0.0
  0
LINE
  8
0
 62
     0
 10
195.469
 20
26.45
 30
0.0
 11
195.125
 21
26.2902
 31
0.0
  0
LINE
  8
0
 62
     0
 10
195.125
 20
26.2902
 30
0.0
 11
198.082
 21
27.3651
 31
0.0
  0
LINE
  8
0
 62
     0
 10
198.082
 20
27.3651
 30
0.0
 11
206.703
 21
31.2842
 31
0.0
  0
LINE
  8
0
 62
     0
 10
206.703
 20
31.2842
 30
0.0
 11
217.638
 21
37.6054
 31
0.0
  0
LINE
  8
0
 62
     0
 10
217.638
 20
37.6054
 30
0.0
 11
227.765
 21
45.1707
 31
0.0
  0
LINE
  8
0
 62
     0
 10
227.765
 20
45.1707
 30
0.0
 11
234.775
 21
51.5856
 31
0.0
  0
LINE
  8
0
 62
     0
 10
234.775
 20
51.5856
 30
0.0
 11
236.923
 21
53.8977
 31
0.0
  0
LINE
  8
0
 62
     0
 10
236.923
 20
53.8977
 30
0.0
 11
238.361
 21
55.4411
 31
0.0
  0
LINE
  8
0
 62
     0
 10
238.361
 20
55.4411
 30
0.0
 11
245.044
 21
63.6034
 31
0.0
  0
LINE
  8
0
 62
     0
 10
245.044
 20
63.6034
 30
0.0
 11
250.942
 21
72.3441
 31
0.0
  0
LINE
  8
0
 62
     0
 10
250.942
 20
72.3441
 30
0.0
 11
251.988
 21
74.1772
 31
0.0
  0
LINE
  8
0
 62
     0
 10
251.988
 20
74.1772
 30
0.0
 11
253.039
 21
76.0056
 31
0.0
  0
LINE
  8
0
 62
     0
 10
253.039
 20
76.0056
 30
0.0
 11
257.677
 21
85.4714
 31
0.0
  0
LINE
  8
0
 62
     0
 10
257.677
 20
85.4714
 30
0.0
 11
261.458
 21
95.3036
 31
0.0
  0
LINE
  8
0
 62
     0
 10
261.458
 20
95.3036
 30
0.0
 11
262.082
 21
97.3155
 31
0.0
  0
LINE
  8
0
 62
     0
 10
262.082
 20
97.3155
 30
0.0
 11
261.367
 21
95.0655
 31
0.0
  0
LINE
  8
0
 62
     0
 10
261.367
 20
95.0655
 30
0.0
 11
258.814
 21
88.4424
 31
0.0
  0
LINE
  8
0
 62
     0
 10
258.814
 20
88.4424
 30
0.0
 11
254.827
 21
80.0047
 31
0.0
  0
LINE
  8
0
 62
     0
 10
254.827
 20
80.0047
 30
0.0
 11
250.21
 21
72.0757
 31
0.0
  0
LINE
  8
0
 62
     0
 10
250.21
 20
72.0757
 30
0.0
 11
246.418
 21
66.5014
 31
0.0
  0
LINE
  8
0
 62
     0
 10
246.418
 20
66.5014
 30
0.0
 11
245.054
 21
64.7196
 31
0.0
  0
LINE
  8
0
 62
     0
 10
245.054
 20
64.7196
 30
0.0
 11
246.279
 21
66.3758
 31
0.0
  0
LINE
  8
0
 62
     0
 10
246.279
 20
66.3758
 30
0.0
 11
249.71
 21
71.5257
 31
0.0
  0
LINE
  8
0
 62
     0
 10
249.71
 20
71.5257
 30
0.0
 11
253.854
 21
78.6666
 31
0.0
  0
LINE
  8
0
 62
     0
 10
253.854
 20
78.6666
 30
0.0
 11
257.467
 21
86.1053
 31
0.0
  0
LINE
  8
0
 62
     0
 10
257.467
 20
86.1053
 30
0.0
 11
260.533
 21
93.8018
 31
0.0
  0
LINE
  8
0
 62
     0
 10
260.533
 20
93.8018
 30
0.0
 11
263.034
 21
101.717
 31
0.0
  0
LINE
  8
0
 62
     0
 10
263.034
 20
101.717
 30
0.0
 11
264.954
 21
109.812
 31
0.0
  0
LINE
  8
0
 62
     0
 10
264.954
 20
109.812
 30
0.0
 11
266.273
 21
118.048
 31
0.0
  0
LINE
  8
0
 62
     0
 10
266.273
 20
118.048
 30
0.0
 11
266.879
 21
124.299
 31
0.0
  0
LINE
  8
0
 62
     0
 10
266.879
 20
124.299
 30
0.0
 11
266.976
 21
126.387
 31
0.0
  0
LINE
  8
0
 62
     0
 10
266.976
 20
126.387
 30
0.0
 11
266.974
 21
126.08
 31
0.0
  0
LINE
  8
0
 62
     0
 10
266.974
 20
126.08
 30
0.0
 11
266.791
 21
123.009
 31
0.0
  0
LINE
  8
0
 62
     0
 10
266.791
 20
123.009
 30
0.0
 11
266.772
 21
122.702
 31
0.0
  0
LINE
  8
0
 62
     0
 10
266.772
 20
122.702
 30
0.0
 11
266.746
 21
122.396
 31
0.0
  0
LINE
  8
0
 62
     0
 10
266.746
 20
122.396
 30
0.0
 11
266.514
 21
119.328
 31
0.0
  0
LINE
  8
0
 62
     0
 10
266.514
 20
119.328
 30
0.0
 11
266.478
 21
119.023
 31
0.0
  0
LINE
  8
0
 62
     0
 10
266.478
 20
119.023
 30
0.0
 11
266.399
 21
118.412
 31
0.0
  0
LINE
  8
0
 62
     0
 10
266.399
 20
118.412
 30
0.0
 11
265.588
 21
112.31
 31
0.0
  0
LINE
  8
0
 62
     0
 10
265.588
 20
112.31
 30
0.0
 11
265.471
 21
111.704
 31
0.0
  0
LINE
  8
0
 62
     0
 10
265.471
 20
111.704
 30
0.0
 11
265.281
 21
110.487
 31
0.0
  0
LINE
  8
0
 62
     0
 10
265.281
 20
110.487
 30
0.0
 11
264.014
 21
104.457
 31
0.0
  0
LINE
  8
0
 62
     0
 10
264.014
 20
104.457
 30
0.0
 11
262.431
 21
98.498
 31
0.0
  0
LINE
  8
0
 62
     0
 10
262.431
 20
98.498
 30
0.0
 11
262.082
 21
97.3155
 31
0.0
  0
LINE
  8
0
 62
     0
 10
262.082
 20
97.3155
 30
0.0
 11
262.77
 21
99.453
 31
0.0
  0
LINE
  8
0
 62
     0
 10
262.77
 20
99.453
 30
0.0
 11
265.396
 21
110.439
 31
0.0
  0
LINE
  8
0
 62
     0
 10
265.396
 20
110.439
 30
0.0
 11
266.969
 21
121.682
 31
0.0
  0
LINE
  8
0
 62
     0
 10
266.969
 20
121.682
 30
0.0
 11
267.131
 21
123.948
 31
0.0
  0
LINE
  8
0
 62
     0
 10
267.131
 20
123.948
 30
0.0
 11
267.299
 21
126.217
 31
0.0
  0
LINE
  8
0
 62
     0
 10
267.299
 20
126.217
 30
0.0
 11
267.264
 21
137.559
 31
0.0
  0
LINE
  8
0
 62
     0
 10
267.264
 20
137.559
 30
0.0
 11
266.193
 21
148.787
 31
0.0
  0
LINE
  8
0
 62
     0
 10
266.193
 20
148.787
 30
0.0
 11
265.843
 21
150.998
 31
0.0
  0
LINE
  8
0
 62
     0
 10
265.843
 20
150.998
 30
0.0
 11
266.302
 21
148.758
 31
0.0
  0
LINE
  8
0
 62
     0
 10
266.302
 20
148.758
 30
0.0
 11
267.262
 21
141.945
 31
0.0
  0
LINE
  8
0
 62
     0
 10
267.262
 20
141.945
 30
0.0
 11
267.889
 21
132.467
 31
0.0
  0
LINE
  8
0
 62
     0
 10
267.889
 20
132.467
 30
0.0
 11
267.681
 21
122.725
 31
0.0
  0
LINE
  8
0
 62
     0
 10
267.681
 20
122.725
 30
0.0
 11
266.977
 21
115.325
 31
0.0
  0
LINE
  8
0
 62
     0
 10
266.977
 20
115.325
 30
0.0
 11
266.597
 21
112.882
 31
0.0
  0
LINE
  8
0
 62
     0
 10
266.597
 20
112.882
 30
0.0
 11
266.956
 21
114.999
 31
0.0
  0
LINE
  8
0
 62
     0
 10
266.956
 20
114.999
 30
0.0
 11
267.969
 21
125.729
 31
0.0
  0
LINE
  8
0
 62
     0
 10
267.969
 20
125.729
 30
0.0
 11
267.987
 21
136.555
 31
0.0
  0
LINE
  8
0
 62
     0
 10
267.987
 20
136.555
 30
0.0
 11
267.849
 21
138.718
 31
0.0
  0
LINE
  8
0
 62
     0
 10
267.849
 20
138.718
 30
0.0
 11
267.818
 21
139.544
 31
0.0
  0
LINE
  8
0
 62
     0
 10
267.818
 20
139.544
 30
0.0
 11
267.505
 21
143.629
 31
0.0
  0
LINE
  8
0
 62
     0
 10
267.505
 20
143.629
 30
0.0
 11
267.095
 21
147.58
 31
0.0
  0
LINE
  8
0
 62
     0
 10
267.095
 20
147.58
 30
0.0
 11
267.016
 21
148.339
 31
0.0
  0
LINE
  8
0
 62
     0
 10
267.016
 20
148.339
 30
0.0
 11
266.9
 21
149.094
 31
0.0
  0
LINE
  8
0
 62
     0
 10
266.9
 20
149.094
 30
0.0
 11
266.383
 21
152.652
 31
0.0
  0
LINE
  8
0
 62
     0
 10
266.383
 20
152.652
 30
0.0
 11
265.874
 21
155.829
 31
0.0
  0
LINE
  8
0
 62
     0
 10
265.874
 20
155.829
 30
0.0
 11
265.764
 21
156.391
 31
0.0
  0
LINE
  8
0
 62
     0
 10
265.764
 20
156.391
 30
0.0
 11
266.08
 21
154.894
 31
0.0
  0
LINE
  8
0
 62
     0
 10
266.08
 20
154.894
 30
0.0
 11
266.894
 21
150.373
 31
0.0
  0
LINE
  8
0
 62
     0
 10
266.894
 20
150.373
 30
0.0
 11
267.693
 21
144.737
 31
0.0
  0
LINE
  8
0
 62
     0
 10
267.693
 20
144.737
 30
0.0
 11
268.224
 21
139.406
 31
0.0
  0
LINE
  8
0
 62
     0
 10
268.224
 20
139.406
 30
0.0
 11
268.491
 21
135.581
 31
0.0
  0
LINE
  8
0
 62
     0
 10
268.491
 20
135.581
 30
0.0
 11
268.556
 21
134.304
 31
0.0
  0
LINE
  8
0
 62
     0
 10
268.556
 20
134.304
 30
0.0
 11
268.496
 21
137.047
 31
0.0
  0
LINE
  8
0
 62
     0
 10
268.496
 20
137.047
 30
0.0
 11
267.804
 21
145.263
 31
0.0
  0
LINE
  8
0
 62
     0
 10
267.804
 20
145.263
 30
0.0
 11
266.019
 21
156.192
 31
0.0
  0
LINE
  8
0
 62
     0
 10
266.019
 20
156.192
 30
0.0
 11
263.183
 21
166.988
 31
0.0
  0
LINE
  8
0
 62
     0
 10
263.183
 20
166.988
 30
0.0
 11
260.382
 21
174.965
 31
0.0
  0
LINE
  8
0
 62
     0
 10
260.382
 20
174.965
 30
0.0
 11
259.276
 21
177.551
 31
0.0
  0
LINE
  8
0
 62
     0
 10
259.276
 20
177.551
 30
0.0
 11
260.085
 21
175.667
 31
0.0
  0
LINE
  8
0
 62
     0
 10
260.085
 20
175.667
 30
0.0
 11
263.642
 21
165.857
 31
0.0
  0
LINE
  8
0
 62
     0
 10
263.642
 20
165.857
 30
0.0
 11
266.39
 21
155.647
 31
0.0
  0
LINE
  8
0
 62
     0
 10
266.39
 20
155.647
 30
0.0
 11
266.796
 21
153.562
 31
0.0
  0
LINE
  8
0
 62
     0
 10
266.796
 20
153.562
 30
0.0
 11
267.204
 21
151.48
 31
0.0
  0
LINE
  8
0
 62
     0
 10
267.204
 20
151.48
 30
0.0
 11
268.515
 21
140.987
 31
0.0
  0
LINE
  8
0
 62
     0
 10
268.515
 20
140.987
 30
0.0
 11
268.818
 21
130.561
 31
0.0
  0
LINE
  8
0
 62
     0
 10
268.818
 20
130.561
 30
0.0
 11
268.721
 21
128.51
 31
0.0
  0
LINE
  8
0
 62
     0
 10
268.721
 20
128.51
 30
0.0
 11
268.716
 21
128.75
 31
0.0
  0
LINE
  8
0
 62
     0
 10
268.716
 20
128.75
 30
0.0
 11
268.701
 21
131.152
 31
0.0
  0
LINE
  8
0
 62
     0
 10
268.701
 20
131.152
 30
0.0
 11
268.687
 21
131.392
 31
0.0
  0
LINE
  8
0
 62
     0
 10
268.687
 20
131.392
 30
0.0
 11
268.676
 21
131.633
 31
0.0
  0
LINE
  8
0
 62
     0
 10
268.676
 20
131.633
 30
0.0
 11
268.567
 21
134.06
 31
0.0
  0
LINE
  8
0
 62
     0
 10
268.567
 20
134.06
 30
0.0
 11
268.556
 21
134.304
 31
0.0
  0
LINE
  8
0
 62
     0
 10
268.556
 20
134.304
 30
0.0
 11
268.621
 21
131.838
 31
0.0
  0
LINE
  8
0
 62
     0
 10
268.621
 20
131.838
 30
0.0
 11
268.377
 21
124.426
 31
0.0
  0
LINE
  8
0
 62
     0
 10
268.377
 20
124.426
 30
0.0
 11
267.34
 21
114.654
 31
0.0
  0
LINE
  8
0
 62
     0
 10
267.34
 20
114.654
 30
0.0
 11
265.48
 21
105.051
 31
0.0
  0
LINE
  8
0
 62
     0
 10
265.48
 20
105.051
 30
0.0
 11
263.594
 21
97.9897
 31
0.0
  0
LINE
  8
0
 62
     0
 10
263.594
 20
97.9897
 30
0.0
 11
262.837
 21
95.6772
 31
0.0
  0
LINE
  8
0
 62
     0
 10
262.837
 20
95.6772
 30
0.0
 11
262.33
 21
94.138
 31
0.0
  0
LINE
  8
0
 62
     0
 10
262.33
 20
94.138
 30
0.0
 11
259.438
 21
86.5861
 31
0.0
  0
LINE
  8
0
 62
     0
 10
259.438
 20
86.5861
 30
0.0
 11
256.042
 21
79.266
 31
0.0
  0
LINE
  8
0
 62
     0
 10
256.042
 20
79.266
 30
0.0
 11
255.286
 21
77.8425
 31
0.0
  0
LINE
  8
0
 62
     0
 10
255.286
 20
77.8425
 30
0.0
 11
254.529
 21
76.4205
 31
0.0
  0
LINE
  8
0
 62
     0
 10
254.529
 20
76.4205
 30
0.0
 11
250.405
 21
69.511
 31
0.0
  0
LINE
  8
0
 62
     0
 10
250.405
 20
69.511
 30
0.0
 11
245.838
 21
62.9006
 31
0.0
  0
LINE
  8
0
 62
     0
 10
245.838
 20
62.9006
 30
0.0
 11
244.861
 21
61.626
 31
0.0
  0
LINE
  8
0
 62
     0
 10
244.861
 20
61.626
 30
0.0
 11
245.748
 21
62.665
 31
0.0
  0
LINE
  8
0
 62
     0
 10
245.748
 20
62.665
 30
0.0
 11
248.243
 21
65.9268
 31
0.0
  0
LINE
  8
0
 62
     0
 10
248.243
 20
65.9268
 30
0.0
 11
251.608
 21
70.9041
 31
0.0
  0
LINE
  8
0
 62
     0
 10
251.608
 20
70.9041
 30
0.0
 11
254.839
 21
76.4219
 31
0.0
  0
LINE
  8
0
 62
     0
 10
254.839
 20
76.4219
 30
0.0
 11
257.128
 21
80.844
 31
0.0
  0
LINE
  8
0
 62
     0
 10
257.128
 20
80.844
 30
0.0
 11
257.827
 21
82.3475
 31
0.0
  0
LINE
  8
0
 62
     0
 10
257.827
 20
82.3475
 30
0.0
 11
258.531
 21
83.8743
 31
0.0
  0
LINE
  8
0
 62
     0
 10
258.531
 20
83.8743
 30
0.0
 11
260.46
 21
88.5416
 31
0.0
  0
LINE
  8
0
 62
     0
 10
260.46
 20
88.5416
 30
0.0
 11
262.742
 21
94.8171
 31
0.0
  0
LINE
  8
0
 62
     0
 10
262.742
 20
94.8171
 30
0.0
 11
264.679
 21
101.007
 31
0.0
  0
LINE
  8
0
 62
     0
 10
264.679
 20
101.007
 30
0.0
 11
265.908
 21
105.456
 31
0.0
  0
LINE
  8
0
 62
     0
 10
265.908
 20
105.456
 30
0.0
 11
266.281
 21
106.947
 31
0.0
  0
LINE
  8
0
 62
     0
 10
266.281
 20
106.947
 30
0.0
 11
265.749
 21
104.349
 31
0.0
  0
LINE
  8
0
 62
     0
 10
265.749
 20
104.349
 30
0.0
 11
263.649
 21
96.6597
 31
0.0
  0
LINE
  8
0
 62
     0
 10
263.649
 20
96.6597
 30
0.0
 11
260.003
 21
86.5614
 31
0.0
  0
LINE
  8
0
 62
     0
 10
260.003
 20
86.5614
 30
0.0
 11
255.361
 21
76.769
 31
0.0
  0
LINE
  8
0
 62
     0
 10
255.361
 20
76.769
 30
0.0
 11
251.265
 21
69.6694
 31
0.0
  0
LINE
  8
0
 62
     0
 10
251.265
 20
69.6694
 30
0.0
 11
249.751
 21
67.4028
 31
0.0
  0
LINE
  8
0
 62
     0
 10
249.751
 20
67.4028
 30
0.0
 11
248.231
 21
65.1207
 31
0.0
  0
LINE
  8
0
 62
     0
 10
248.231
 20
65.1207
 30
0.0
 11
243.224
 21
58.5735
 31
0.0
  0
LINE
  8
0
 62
     0
 10
243.224
 20
58.5735
 30
0.0
 11
235.835
 21
50.3908
 31
0.0
  0
LINE
  8
0
 62
     0
 10
235.835
 20
50.3908
 30
0.0
 11
227.663
 21
42.9493
 31
0.0
  0
LINE
  8
0
 62
     0
 10
227.663
 20
42.9493
 30
0.0
 11
221.084
 21
37.8809
 31
0.0
  0
LINE
  8
0
 62
     0
 10
221.084
 20
37.8809
 30
0.0
 11
218.789
 21
36.3442
 31
0.0
  0
LINE
  8
0
 62
     0
 10
218.789
 20
36.3442
 30
0.0
 11
216.497
 21
34.8051
 31
0.0
  0
LINE
  8
0
 62
     0
 10
216.497
 20
34.8051
 30
0.0
 11
209.309
 21
30.6517
 31
0.0
  0
LINE
  8
0
 62
     0
 10
209.309
 20
30.6517
 30
0.0
 11
199.333
 21
25.9416
 31
0.0
  0
LINE
  8
0
 62
     0
 10
199.333
 20
25.9416
 30
0.0
 11
188.979
 21
22.247
 31
0.0
  0
LINE
  8
0
 62
     0
 10
188.979
 20
22.247
 30
0.0
 11
181.047
 21
20.1304
 31
0.0
  0
LINE
  8
0
 62
     0
 10
181.047
 20
20.1304
 30
0.0
 11
178.369
 21
19.6012
 31
0.0
  0
LINE
  8
0
 62
     0
 10
178.369
 20
19.6012
 30
0.0
 11
176.586
 21
19.2484
 31
0.0
  0
LINE
  8
0
 62
     0
 10
176.586
 20
19.2484
 30
0.0
 11
167.626
 21
17.9903
 31
0.0
  0
LINE
  8
0
 62
     0
 10
167.626
 20
17.9903
 30
0.0
 11
158.654
 21
17.4115
 31
0.0
  0
LINE
  8
0
 62
     0
 10
158.654
 20
17.4115
 30
0.0
 11
156.863
 21
17.3977
 31
0.0
  0
LINE
  8
0
 62
     0
 10
156.863
 20
17.3977
 30
0.0
 11
155.073
 21
17.3881
 31
0.0
  0
LINE
  8
0
 62
     0
 10
155.073
 20
17.3881
 30
0.0
 11
146.192
 21
17.8373
 31
0.0
  0
LINE
  8
0
 62
     0
 10
146.192
 20
17.8373
 30
0.0
 11
137.443
 21
18.9315
 31
0.0
  0
LINE
  8
0
 62
     0
 10
137.443
 20
18.9315
 30
0.0
 11
135.72
 21
19.2429
 31
0.0
  0
LINE
  8
0
 62
     0
 10
135.72
 20
19.2429
 30
0.0
 11
139.379
 21
18.5484
 31
0.0
  0
LINE
  8
0
 62
     0
 10
139.379
 20
18.5484
 30
0.0
 11
139.683
 21
18.4905
 31
0.0
  0
LINE
  8
0
 62
     0
 10
139.683
 20
18.4905
 30
0.0
 11
142.758
 21
18.0523
 31
0.0
  0
LINE
  8
0
 62
     0
 10
142.758
 20
18.0523
 30
0.0
 11
143.065
 21
18.0054
 31
0.0
  0
LINE
  8
0
 62
     0
 10
143.065
 20
18.0054
 30
0.0
 11
143.678
 21
17.9076
 31
0.0
  0
LINE
  8
0
 62
     0
 10
143.678
 20
17.9076
 30
0.0
 11
149.86
 21
17.293
 31
0.0
  0
LINE
  8
0
 62
     0
 10
149.86
 20
17.293
 30
0.0
 11
150.479
 21
17.2351
 31
0.0
  0
LINE
  8
0
 62
     0
 10
150.479
 20
17.2351
 30
0.0
 11
151.718
 21
17.1662
 31
0.0
  0
LINE
  8
0
 62
     0
 10
151.718
 20
17.1662
 30
0.0
 11
157.934
 21
16.9912
 31
0.0
  0
LINE
  8
0
 62
     0
 10
157.934
 20
16.9912
 30
0.0
 11
164.155
 21
17.1469
 31
0.0
  0
LINE
  8
0
 62
     0
 10
164.155
 20
17.1469
 30
0.0
 11
165.398
 21
17.2406
 31
0.0
  0
LINE
  8
0
 62
     0
 10
165.398
 20
17.2406
 30
0.0
 11
166.642
 21
17.3067
 31
0.0
  0
LINE
  8
0
 62
     0
 10
166.642
 20
17.3067
 30
0.0
 11
172.845
 21
17.9572
 31
0.0
  0
LINE
  8
0
 62
     0
 10
172.845
 20
17.9572
 30
0.0
 11
179.02
 21
18.9301
 31
0.0
  0
LINE
  8
0
 62
     0
 10
179.02
 20
18.9301
 30
0.0
 11
180.251
 21
19.1561
 31
0.0
  0
LINE
  8
0
 62
     0
 10
180.251
 20
19.1561
 30
0.0
 11
180.862
 21
19.2953
 31
0.0
  0
LINE
  8
0
 62
     0
 10
180.862
 20
19.2953
 30
0.0
 11
186.976
 21
20.6995
 31
0.0
  0
LINE
  8
0
 62
     0
 10
186.976
 20
20.6995
 30
0.0
 11
187.58
 21
20.8773
 31
0.0
  0
LINE
  8
0
 62
     0
 10
187.58
 20
20.8773
 30
0.0
 11
187.882
 21
20.9627
 31
0.0
  0
LINE
  8
0
 62
     0
 10
187.882
 20
20.9627
 30
0.0
 11
190.918
 21
21.7951
 31
0.0
  0
LINE
  8
0
 62
     0
 10
190.918
 20
21.7951
 30
0.0
 11
191.218
 21
21.8888
 31
0.0
  0
LINE
  8
0
 62
     0
 10
191.218
 20
21.8888
 30
0.0
 11
194.817
 21
23.0546
 31
0.0
  0
LINE
  8
0
 62
     0
 10
194.817
 20
23.0546
 30
0.0
 11
194.363
 21
22.914
 31
0.0
  0
LINE
  8
0
 62
     0
 10
194.363
 20
22.914
 30
0.0
 11
189.556
 21
21.3376
 31
0.0
  0
LINE
  8
0
 62
     0
 10
189.556
 20
21.3376
 30
0.0
 11
189.046
 21
21.1998
 31
0.0
  0
LINE
  8
0
 62
     0
 10
189.046
 20
21.1998
 30
0.0
 11
188.835
 21
21.1391
 31
0.0
  0
LINE
  8
0
 62
     0
 10
188.835
 20
21.1391
 30
0.0
 11
186.701
 21
20.5107
 31
0.0
  0
LINE
  8
0
 62
     0
 10
186.701
 20
20.5107
 30
0.0
 11
186.487
 21
20.4473
 31
0.0
  0
LINE
  8
0
 62
     0
 10
186.487
 20
20.4473
 30
0.0
 11
187.842
 21
20.8111
 31
0.0
  0
LINE
  8
0
 62
     0
 10
187.842
 20
20.8111
 30
0.0
 11
194.474
 21
22.9003
 31
0.0
  0
LINE
  8
0
 62
     0
 10
194.474
 20
22.9003
 30
0.0
 11
200.939
 21
25.3697
 31
0.0
  0
LINE
  8
0
 62
     0
 10
200.939
 20
25.3697
 30
0.0
 11
202.21
 21
25.9237
 31
0.0
  0
LINE
  8
0
 62
     0
 10
202.21
 20
25.9237
 30
0.0
 11
202.789
 21
26.1772
 31
0.0
  0
LINE
  8
0
 62
     0
 10
202.789
 20
26.1772
 30
0.0
 11
208.525
 21
28.9209
 31
0.0
  0
LINE
  8
0
 62
     0
 10
208.525
 20
28.9209
 30
0.0
 11
209.092
 21
29.2172
 31
0.0
  0
LINE
  8
0
 62
     0
 10
209.092
 20
29.2172
 30
0.0
 11
208.034
 21
28.6577
 31
0.0
  0
LINE
  8
0
 62
     0
 10
208.034
 20
28.6577
 30
0.0
 11
197.159
 21
23.7105
 31
0.0
  0
LINE
  8
0
 62
     0
 10
197.159
 20
23.7105
 30
0.0
 11
196.044
 21
23.2833
 31
0.0
  0
LINE
  8
0
 62
     0
 10
196.044
 20
23.2833
 30
0.0
 11
193.911
 21
22.4868
 31
0.0
  0
LINE
  8
0
 62
     0
 10
193.911
 20
22.4868
 30
0.0
 11
183.017
 21
19.2512
 31
0.0
  0
LINE
  8
0
 62
     0
 10
183.017
 20
19.2512
 30
0.0
 11
171.905
 21
17.0229
 31
0.0
  0
LINE
  8
0
 62
     0
 10
171.905
 20
17.0229
 30
0.0
 11
169.663
 21
16.7294
 31
0.0
  0
LINE
  8
0
 62
     0
 10
169.663
 20
16.7294
 30
0.0
 11
169.324
 21
16.677
 31
0.0
  0
LINE
  8
0
 62
     0
 10
169.324
 20
16.677
 30
0.0
 11
167.725
 21
16.4951
 31
0.0
  0
LINE
  8
0
 62
     0
 10
167.725
 20
16.4951
 30
0.0
 11
166.249
 21
16.3614
 31
0.0
  0
LINE
  8
0
 62
     0
 10
166.249
 20
16.3614
 30
0.0
 11
165.974
 21
16.3325
 31
0.0
  0
LINE
  8
0
 62
     0
 10
165.974
 20
16.3325
 30
0.0
 11
165.697
 21
16.305
 31
0.0
  0
LINE
  8
0
 62
     0
 10
165.697
 20
16.305
 30
0.0
 11
163.234
 21
16.0624
 31
0.0
  0
LINE
  8
0
 62
     0
 10
163.234
 20
16.0624
 30
0.0
 11
163.016
 21
16.0404
 31
0.0
  0
LINE
  8
0
 62
     0
 10
163.016
 20
16.0404
 30
0.0
 11
162.581
 21
16.0059
 31
0.0
  0
LINE
  8
0
 62
     0
 10
162.581
 20
16.0059
 30
0.0
 11
160.739
 21
15.8764
 31
0.0
  0
LINE
  8
0
 62
     0
 10
160.739
 20
15.8764
 30
0.0
 11
159.318
 21
15.7661
 31
0.0
  0
LINE
  8
0
 62
     0
 10
159.318
 20
15.7661
 30
0.0
 11
159.093
 21
15.7413
 31
0.0
  0
LINE
  8
0
 62
     0
 10
159.093
 20
15.7413
 30
0.0
 11
158.824
 21
15.7151
 31
0.0
  0
LINE
  8
0
 62
     0
 10
158.824
 20
15.7151
 30
0.0
 11
158.024
 21
15.6104
 31
0.0
  0
LINE
  8
0
 62
     0
 10
158.024
 20
15.6104
 30
0.0
 11
157.479
 21
15.485
 31
0.0
  0
LINE
  8
0
 62
     0
 10
157.479
 20
15.485
 30
0.0
 11
157.408
 21
15.3679
 31
0.0
  0
LINE
  8
0
 62
     0
 10
157.408
 20
15.3679
 30
0.0
 11
157.666
 21
15.2769
 31
0.0
  0
LINE
  8
0
 62
     0
 10
157.666
 20
15.2769
 30
0.0
 11
157.755
 21
15.259
 31
0.0
  0
LINE
  8
0
 62
     0
 10
157.755
 20
15.259
 30
0.0
 11
157.93
 21
15.226
 31
0.0
  0
LINE
  8
0
 62
     0
 10
157.93
 20
15.226
 30
0.0
 11
158.464
 21
15.1626
 31
0.0
  0
LINE
  8
0
 62
     0
 10
158.464
 20
15.1626
 30
0.0
 11
159.482
 21
15.0771
 31
0.0
  0
LINE
  8
0
 62
     0
 10
159.482
 20
15.0771
 30
0.0
 11
160.755
 21
15.0068
 31
0.0
  0
LINE
  8
0
 62
     0
 10
160.755
 20
15.0068
 30
0.0
 11
161.859
 21
14.9641
 31
0.0
  0
LINE
  8
0
 62
     0
 10
161.859
 20
14.9641
 30
0.0
 11
162.228
 21
14.9531
 31
0.0
  0
LINE
  8
0
 62
     0
 10
162.228
 20
14.9531
 30
0.0
 11
162.745
 21
14.9572
 31
0.0
  0
LINE
  8
0
 62
     0
 10
162.745
 20
14.9572
 30
0.0
 11
165.541
 21
15.0454
 31
0.0
  0
LINE
  8
0
 62
     0
 10
165.541
 20
15.0454
 30
0.0
 11
168.418
 21
15.2287
 31
0.0
  0
LINE
  8
0
 62
     0
 10
168.418
 20
15.2287
 30
0.0
 11
168.976
 21
15.2797
 31
0.0
  0
LINE
  8
0
 62
     0
 10
168.976
 20
15.2797
 30
0.0
 11
171.061
 21
15.4933
 31
0.0
  0
LINE
  8
0
 62
     0
 10
171.061
 20
15.4933
 30
0.0
 11
177.287
 21
16.4428
 31
0.0
  0
LINE
  8
0
 62
     0
 10
177.287
 20
16.4428
 30
0.0
 11
185.401
 21
18.1887
 31
0.0
  0
LINE
  8
0
 62
     0
 10
185.401
 20
18.1887
 30
0.0
 11
193.29
 21
20.4928
 31
0.0
  0
LINE
  8
0
 62
     0
 10
193.29
 20
20.4928
 30
0.0
 11
200.928
 21
23.3329
 31
0.0
  0
LINE
  8
0
 62
     0
 10
200.928
 20
23.3329
 30
0.0
 11
208.288
 21
26.6816
 31
0.0
  0
LINE
  8
0
 62
     0
 10
208.288
 20
26.6816
 30
0.0
 11
215.345
 21
30.5153
 31
0.0
  0
LINE
  8
0
 62
     0
 10
215.345
 20
30.5153
 30
0.0
 11
222.071
 21
34.8078
 31
0.0
  0
LINE
  8
0
 62
     0
 10
222.071
 20
34.8078
 30
0.0
 11
226.891
 21
38.2986
 31
0.0
  0
LINE
  8
0
 62
     0
 10
226.891
 20
38.2986
 30
0.0
 11
228.44
 21
39.5344
 31
0.0
  0
LINE
  8
0
 62
     0
 10
228.44
 20
39.5344
 30
0.0
 11
229.982
 21
40.7666
 31
0.0
  0
LINE
  8
0
 62
     0
 10
229.982
 20
40.7666
 30
0.0
 11
234.442
 21
44.6719
 31
0.0
  0
LINE
  8
0
 62
     0
 10
234.442
 20
44.6719
 30
0.0
 11
240.061
 21
50.1897
 31
0.0
  0
LINE
  8
0
 62
     0
 10
240.061
 20
50.1897
 30
0.0
 11
245.278
 21
56.067
 31
0.0
  0
LINE
  8
0
 62
     0
 10
245.278
 20
56.067
 30
0.0
 11
250.073
 21
62.2804
 31
0.0
  0
LINE
  8
0
 62
     0
 10
250.073
 20
62.2804
 30
0.0
 11
254.423
 21
68.8068
 31
0.0
  0
LINE
  8
0
 62
     0
 10
254.423
 20
68.8068
 30
0.0
 11
258.311
 21
75.6239
 31
0.0
  0
LINE
  8
0
 62
     0
 10
258.311
 20
75.6239
 30
0.0
 11
261.714
 21
82.707
 31
0.0
  0
LINE
  8
0
 62
     0
 10
261.714
 20
82.707
 30
0.0
 11
263.956
 21
88.1793
 31
0.0
  0
LINE
  8
0
 62
     0
 10
263.956
 20
88.1793
 30
0.0
 11
264.615
 21
90.0342
 31
0.0
  0
LINE
  8
0
 62
     0
 10
264.615
 20
90.0342
 30
0.0
 11
264.725
 21
90.322
 31
0.0
  0
LINE
  8
0
 62
     0
 10
264.725
 20
90.322
 30
0.0
 11
265.672
 21
93.26
 31
0.0
  0
LINE
  8
0
 62
     0
 10
265.672
 20
93.26
 30
0.0
 11
265.764
 21
93.5535
 31
0.0
  0
LINE
  8
0
 62
     0
 10
265.764
 20
93.5535
 30
0.0
 11
265.853
 21
93.8498
 31
0.0
  0
LINE
  8
0
 62
     0
 10
265.853
 20
93.8498
 30
0.0
 11
266.756
 21
96.8029
 31
0.0
  0
LINE
  8
0
 62
     0
 10
266.756
 20
96.8029
 30
0.0
 11
266.838
 21
97.1007
 31
0.0
  0
LINE
  8
0
 62
     0
 10
266.838
 20
97.1007
 30
0.0
 11
266.986
 21
97.7015
 31
0.0
  0
LINE
  8
0
 62
     0
 10
266.986
 20
97.7015
 30
0.0
 11
268.487
 21
103.699
 31
0.0
  0
LINE
  8
0
 62
     0
 10
268.487
 20
103.699
 30
0.0
 11
268.602
 21
104.307
 31
0.0
  0
LINE
  8
0
 62
     0
 10
268.602
 20
104.307
 30
0.0
 11
269.355
 21
107.942
 31
0.0
  0
LINE
  8
0
 62
     0
 10
269.355
 20
107.942
 30
0.0
 11
269.949
 21
111.61
 31
0.0
  0
LINE
  8
0
 62
     0
 10
269.949
 20
111.61
 30
0.0
 11
270.243
 21
113.446
 31
0.0
  0
LINE
  8
0
 62
     0
 10
270.243
 20
113.446
 30
0.0
 11
270.453
 21
115.293
 31
0.0
  0
LINE
  8
0
 62
     0
 10
270.453
 20
115.293
 30
0.0
 11
270.868
 21
118.988
 31
0.0
  0
LINE
  8
0
 62
     0
 10
270.868
 20
118.988
 30
0.0
 11
271.081
 21
121.459
 31
0.0
  0
LINE
  8
0
 62
     0
 10
271.081
 20
121.459
 30
0.0
 11
271.256
 21
133.854
 31
0.0
  0
LINE
  8
0
 62
     0
 10
271.256
 20
133.854
 30
0.0
 11
270.254
 21
146.208
 31
0.0
  0
LINE
  8
0
 62
     0
 10
270.254
 20
146.208
 30
0.0
 11
269.879
 21
148.659
 31
0.0
  0
LINE
  8
0
 62
     0
 10
269.879
 20
148.659
 30
0.0
 11
269.678
 21
150.046
 31
0.0
  0
LINE
  8
0
 62
     0
 10
269.678
 20
150.046
 30
0.0
 11
268.242
 21
157.537
 31
0.0
  0
LINE
  8
0
 62
     0
 10
268.242
 20
157.537
 30
0.0
 11
266.296
 21
165.188
 31
0.0
  0
LINE
  8
0
 62
     0
 10
266.296
 20
165.188
 30
0.0
 11
265.841
 21
166.654
 31
0.0
  0
LINE
  8
0
 62
     0
 10
265.841
 20
166.654
 30
0.0
 11
265.72
 21
167.019
 31
0.0
  0
LINE
  8
0
 62
     0
 10
265.72
 20
167.019
 30
0.0
 11
264.553
 21
170.557
 31
0.0
  0
LINE
  8
0
 62
     0
 10
264.553
 20
170.557
 30
0.0
 11
264.442
 21
170.898
 31
0.0
  0
LINE
  8
0
 62
     0
 10
264.442
 20
170.898
 30
0.0
 11
264.319
 21
171.235
 31
0.0
  0
LINE
  8
0
 62
     0
 10
264.319
 20
171.235
 30
0.0
 11
263.091
 21
174.414
 31
0.0
  0
LINE
  8
0
 62
     0
 10
263.091
 20
174.414
 30
0.0
 11
262.976
 21
174.713
 31
0.0
  0
LINE
  8
0
 62
     0
 10
262.976
 20
174.713
 30
0.0
 11
262.917
 21
174.863
 31
0.0
  0
LINE
  8
0
 62
     0
 10
262.917
 20
174.863
 30
0.0
 11
262.352
 21
176.299
 31
0.0
  0
LINE
  8
0
 62
     0
 10
262.352
 20
176.299
 30
0.0
 11
262.298
 21
176.437
 31
0.0
  0
LINE
  8
0
 62
     0
 10
262.298
 20
176.437
 30
0.0
 11
262.237
 21
176.572
 31
0.0
  0
LINE
  8
0
 62
     0
 10
262.237
 20
176.572
 30
0.0
 11
261.658
 21
177.863
 31
0.0
  0
LINE
  8
0
 62
     0
 10
261.658
 20
177.863
 30
0.0
 11
261.603
 21
177.985
 31
0.0
  0
LINE
  8
0
 62
     0
 10
261.603
 20
177.985
 30
0.0
 11
261.489
 21
178.229
 31
0.0
  0
LINE
  8
0
 62
     0
 10
261.489
 20
178.229
 30
0.0
 11
260.493
 21
180.387
 31
0.0
  0
LINE
  8
0
 62
     0
 10
260.493
 20
180.387
 30
0.0
 11
260.408
 21
180.571
 31
0.0
  0
LINE
  8
0
 62
     0
 10
260.408
 20
180.571
 30
0.0
 11
259.453
 21
182.507
 31
0.0
  0
LINE
  8
0
 62
     0
 10
259.453
 20
182.507
 30
0.0
 11
253.967
 21
191.9
 31
0.0
  0
LINE
  8
0
 62
     0
 10
253.967
 20
191.9
 30
0.0
 11
247.583
 21
200.855
 31
0.0
  0
LINE
  8
0
 62
     0
 10
247.583
 20
200.855
 30
0.0
 11
246.18
 21
202.572
 31
0.0
  0
LINE
  8
0
 62
     0
 10
246.18
 20
202.572
 30
0.0
 11
244.777
 21
204.29
 31
0.0
  0
LINE
  8
0
 62
     0
 10
244.777
 20
204.29
 30
0.0
 11
237.141
 21
212.46
 31
0.0
  0
LINE
  8
0
 62
     0
 10
237.141
 20
212.46
 30
0.0
 11
228.679
 21
219.964
 31
0.0
  0
LINE
  8
0
 62
     0
 10
228.679
 20
219.964
 30
0.0
 11
226.862
 21
221.349
 31
0.0
  0
LINE
  8
0
 62
     0
 10
226.862
 20
221.349
 30
0.0
 11
226.635
 21
221.521
 31
0.0
  0
LINE
  8
0
 62
     0
 10
226.635
 20
221.521
 30
0.0
 11
224.357
 21
223.25
 31
0.0
  0
LINE
  8
0
 62
     0
 10
224.357
 20
223.25
 30
0.0
 11
224.13
 21
223.423
 31
0.0
  0
LINE
  8
0
 62
     0
 10
224.13
 20
223.423
 30
0.0
 11
223.894
 21
223.587
 31
0.0
  0
LINE
  8
0
 62
     0
 10
223.894
 20
223.587
 30
0.0
 11
221.531
 21
225.218
 31
0.0
  0
LINE
  8
0
 62
     0
 10
221.531
 20
225.218
 30
0.0
 11
221.295
 21
225.381
 31
0.0
  0
LINE
  8
0
 62
     0
 10
221.295
 20
225.381
 30
0.0
 11
219.876
 21
226.362
 31
0.0
  0
LINE
  8
0
 62
     0
 10
219.876
 20
226.362
 30
0.0
 11
218.409
 21
227.284
 31
0.0
  0
LINE
  8
0
 62
     0
 10
218.409
 20
227.284
 30
0.0
 11
218.164
 21
227.437
 31
0.0
  0
LINE
  8
0
 62
     0
 10
218.164
 20
227.437
 30
0.0
 11
215.711
 21
228.967
 31
0.0
  0
LINE
  8
0
 62
     0
 10
215.711
 20
228.967
 30
0.0
 11
215.466
 21
229.12
 31
0.0
  0
LINE
  8
0
 62
     0
 10
215.466
 20
229.12
 30
0.0
 11
214.463
 21
229.7
 31
0.0
  0
LINE
  8
0
 62
     0
 10
214.463
 20
229.7
 30
0.0
 11
209.357
 21
232.499
 31
0.0
  0
LINE
  8
0
 62
     0
 10
209.357
 20
232.499
 30
0.0
 11
204.091
 21
235.064
 31
0.0
  0
LINE
  8
0
 62
     0
 10
204.091
 20
235.064
 30
0.0
 11
203.008
 21
235.528
 31
0.0
  0
LINE
  8
0
 62
     0
 10
203.008
 20
235.528
 30
0.0
 11
201.936
 21
236.014
 31
0.0
  0
LINE
  8
0
 62
     0
 10
201.936
 20
236.014
 30
0.0
 11
196.441
 21
238.197
 31
0.0
  0
LINE
  8
0
 62
     0
 10
196.441
 20
238.197
 30
0.0
 11
190.806
 21
240.112
 31
0.0
  0
LINE
  8
0
 62
     0
 10
190.806
 20
240.112
 30
0.0
 11
189.664
 21
240.465
 31
0.0
  0
LINE
  8
0
 62
     0
 10
189.664
 20
240.465
 30
0.0
 11
189.086
 21
240.623
 31
0.0
  0
LINE
  8
0
 62
     0
 10
189.086
 20
240.623
 30
0.0
 11
183.285
 21
242.17
 31
0.0
  0
LINE
  8
0
 62
     0
 10
183.285
 20
242.17
 30
0.0
 11
182.693
 21
242.291
 31
0.0
  0
LINE
  8
0
 62
     0
 10
182.693
 20
242.291
 30
0.0
 11
182.398
 21
242.356
 31
0.0
  0
LINE
  8
0
 62
     0
 10
182.398
 20
242.356
 30
0.0
 11
179.45
 21
243.016
 31
0.0
  0
LINE
  8
0
 62
     0
 10
179.45
 20
243.016
 30
0.0
 11
179.152
 21
243.068
 31
0.0
  0
LINE
  8
0
 62
     0
 10
179.152
 20
243.068
 30
0.0
 11
178.853
 21
243.122
 31
0.0
  0
LINE
  8
0
 62
     0
 10
178.853
 20
243.122
 30
0.0
 11
175.865
 21
243.649
 31
0.0
  0
LINE
  8
0
 62
     0
 10
175.865
 20
243.649
 30
0.0
 11
175.566
 21
243.702
 31
0.0
  0
LINE
  8
0
 62
     0
 10
175.566
 20
243.702
 30
0.0
 11
173.422
 21
244.08
 31
0.0
  0
LINE
  8
0
 62
     0
 10
173.422
 20
244.08
 30
0.0
 11
162.49
 21
245.118
 31
0.0
  0
LINE
  8
0
 62
     0
 10
162.49
 20
245.118
 30
0.0
 11
151.39
 21
245.069
 31
0.0
  0
LINE
  8
0
 62
     0
 10
151.39
 20
245.069
 30
0.0
 11
149.163
 21
244.901
 31
0.0
  0
LINE
  8
0
 62
     0
 10
149.163
 20
244.901
 30
0.0
 11
146.936
 21
244.73
 31
0.0
  0
LINE
  8
0
 62
     0
 10
146.936
 20
244.73
 30
0.0
 11
135.826
 21
243.09
 31
0.0
  0
LINE
  8
0
 62
     0
 10
135.826
 20
243.09
 30
0.0
 11
124.882
 21
240.336
 31
0.0
  0
LINE
  8
0
 62
     0
 10
124.882
 20
240.336
 30
0.0
 11
122.739
 21
239.605
 31
0.0
  0
LINE
  8
0
 62
     0
 10
122.739
 20
239.605
 30
0.0
 11
119.53
 21
238.493
 31
0.0
  0
LINE
  8
0
 62
     0
 10
119.53
 20
238.493
 30
0.0
 11
119.261
 21
238.403
 31
0.0
  0
LINE
  8
0
 62
     0
 10
119.261
 20
238.403
 30
0.0
 11
116.63
 21
237.355
 31
0.0
  0
LINE
  8
0
 62
     0
 10
116.63
 20
237.355
 30
0.0
 11
116.367
 21
237.251
 31
0.0
  0
LINE
  8
0
 62
     0
 10
116.367
 20
237.251
 30
0.0
 11
116.105
 21
237.143
 31
0.0
  0
LINE
  8
0
 62
     0
 10
116.105
 20
237.143
 30
0.0
 11
113.484
 21
236.07
 31
0.0
  0
LINE
  8
0
 62
     0
 10
113.484
 20
236.07
 30
0.0
 11
113.228
 21
235.949
 31
0.0
  0
LINE
  8
0
 62
     0
 10
113.228
 20
235.949
 30
0.0
 11
110.144
 21
234.521
 31
0.0
  0
LINE
  8
0
 62
     0
 10
110.144
 20
234.521
 30
0.0
 11
109.883
 21
234.407
 31
0.0
  0
LINE
  8
0
 62
     0
 10
109.883
 20
234.407
 30
0.0
 11
107.353
 21
233.138
 31
0.0
  0
LINE
  8
0
 62
     0
 10
107.353
 20
233.138
 30
0.0
 11
107.104
 21
233.004
 31
0.0
  0
LINE
  8
0
 62
     0
 10
107.104
 20
233.004
 30
0.0
 11
104.097
 21
231.425
 31
0.0
  0
LINE
  8
0
 62
     0
 10
104.097
 20
231.425
 30
0.0
 11
101.171
 21
229.705
 31
0.0
  0
LINE
  8
0
 62
     0
 10
101.171
 20
229.705
 30
0.0
 11
100.928
 21
229.562
 31
0.0
  0
LINE
  8
0
 62
     0
 10
100.928
 20
229.562
 30
0.0
 11
98.516
 21
228.09
 31
0.0
  0
LINE
  8
0
 62
     0
 10
98.516
 20
228.09
 30
0.0
 11
98.2832
 21
227.93
 31
0.0
  0
LINE
  8
0
 62
     0
 10
98.2832
 20
227.93
 30
0.0
 11
95.4525
 21
226.068
 31
0.0
  0
LINE
  8
0
 62
     0
 10
95.4525
 20
226.068
 30
0.0
 11
95.214
 21
225.918
 31
0.0
  0
LINE
  8
0
 62
     0
 10
95.214
 20
225.918
 30
0.0
 11
92.928
 21
224.269
 31
0.0
  0
LINE
  8
0
 62
     0
 10
92.928
 20
224.269
 30
0.0
 11
92.698
 21
224.106
 31
0.0
  0
LINE
  8
0
 62
     0
 10
92.698
 20
224.106
 30
0.0
 11
92.4719
 21
223.938
 31
0.0
  0
LINE
  8
0
 62
     0
 10
92.4719
 20
223.938
 30
0.0
 11
90.2049
 21
222.269
 31
0.0
  0
LINE
  8
0
 62
     0
 10
90.2049
 20
222.269
 30
0.0
 11
89.9873
 21
222.092
 31
0.0
  0
LINE
  8
0
 62
     0
 10
89.9873
 20
222.092
 30
0.0
 11
87.3608
 21
219.976
 31
0.0
  0
LINE
  8
0
 62
     0
 10
87.3608
 20
219.976
 30
0.0
 11
87.1375
 21
219.805
 31
0.0
  0
LINE
  8
0
 62
     0
 10
87.1375
 20
219.805
 30
0.0
 11
85.0071
 21
217.981
 31
0.0
  0
LINE
  8
0
 62
     0
 10
85.0071
 20
217.981
 30
0.0
 11
84.799
 21
217.793
 31
0.0
  0
LINE
  8
0
 62
     0
 10
84.799
 20
217.793
 30
0.0
 11
82.2868
 21
215.565
 31
0.0
  0
LINE
  8
0
 62
     0
 10
82.2868
 20
215.565
 30
0.0
 11
79.8862
 21
213.228
 31
0.0
  0
LINE
  8
0
 62
     0
 10
79.8862
 20
213.228
 30
0.0
 11
79.6865
 21
213.034
 31
0.0
  0
LINE
  8
0
 62
     0
 10
79.6865
 20
213.034
 30
0.0
 11
77.7215
 21
211.06
 31
0.0
  0
LINE
  8
0
 62
     0
 10
77.7215
 20
211.06
 30
0.0
 11
77.5353
 21
210.852
 31
0.0
  0
LINE
  8
0
 62
     0
 10
77.5353
 20
210.852
 30
0.0
 11
76.0028
 21
209.24
 31
0.0
  0
LINE
  8
0
 62
     0
 10
76.0028
 20
209.24
 30
0.0
 11
68.931
 21
200.757
 31
0.0
  0
LINE
  8
0
 62
     0
 10
68.931
 20
200.757
 30
0.0
 11
62.7214
 21
191.776
 31
0.0
  0
LINE
  8
0
 62
     0
 10
62.7214
 20
191.776
 30
0.0
 11
61.6218
 21
189.913
 31
0.0
  0
LINE
  8
0
 62
     0
 10
61.6218
 20
189.913
 30
0.0
 11
60.5208
 21
188.051
 31
0.0
  0
LINE
  8
0
 62
     0
 10
60.5208
 20
188.051
 30
0.0
 11
55.681
 21
178.521
 31
0.0
  0
LINE
  8
0
 62
     0
 10
55.681
 20
178.521
 30
0.0
 11
51.7246
 21
168.785
 31
0.0
  0
LINE
  8
0
 62
     0
 10
51.7246
 20
168.785
 30
0.0
 11
51.066
 21
166.82
 31
0.0
  0
LINE
  8
0
 62
     0
 10
51.066
 20
166.82
 30
0.0
 11
50.0835
 21
163.919
 31
0.0
  0
LINE
  8
0
 62
     0
 10
50.0835
 20
163.919
 30
0.0
 11
47.7573
 21
155.005
 31
0.0
  0
LINE
  8
0
 62
     0
 10
47.7573
 20
155.005
 30
0.0
 11
45.7274
 21
143.272
 31
0.0
  0
LINE
  8
0
 62
     0
 10
45.7274
 20
143.272
 30
0.0
 11
44.8303
 21
131.786
 31
0.0
  0
LINE
  8
0
 62
     0
 10
44.8303
 20
131.786
 30
0.0
 11
44.7834
 21
123.476
 31
0.0
  0
LINE
  8
0
 62
     0
 10
44.7834
 20
123.476
 30
0.0
 11
44.9199
 21
120.713
 31
0.0
  0
LINE
  8
0
 62
     0
 10
44.9199
 20
120.713
 30
0.0
 11
44.8881
 21
121.937
 31
0.0
  0
LINE
  8
0
 62
     0
 10
44.8881
 20
121.937
 30
0.0
 11
44.8441
 21
125.605
 31
0.0
  0
LINE
  8
0
 62
     0
 10
44.8441
 20
125.605
 30
0.0
 11
44.909
 21
131.21
 31
0.0
  0
LINE
  8
0
 62
     0
 10
44.909
 20
131.21
 30
0.0
 11
45.2092
 21
137.277
 31
0.0
  0
LINE
  8
0
 62
     0
 10
45.2092
 20
137.277
 30
0.0
 11
45.6336
 21
141.992
 31
0.0
  0
LINE
  8
0
 62
     0
 10
45.6336
 20
141.992
 30
0.0
 11
45.8378
 21
143.554
 31
0.0
  0
LINE
  8
0
 62
     0
 10
217.726
 20
33.405
 30
0.0
 11
218.651
 21
34.0045
 31
0.0
  0
LINE
  8
0
 62
     0
 10
218.651
 20
34.0045
 30
0.0
 11
227.55
 21
40.4883
 31
0.0
  0
LINE
  8
0
 62
     0
 10
227.55
 20
40.4883
 30
0.0
 11
228.401
 21
41.1854
 31
0.0
  0
LINE
  8
0
 62
     0
 10
228.401
 20
41.1854
 30
0.0
 11
227.536
 21
40.4742
 31
0.0
  0
LINE
  8
0
 62
     0
 10
227.536
 20
40.4742
 30
0.0
 11
218.641
 21
33.981
 31
0.0
  0
LINE
  8
0
 62
     0
 10
218.641
 20
33.981
 30
0.0
 11
217.726
 21
33.405
 31
0.0
  0
LINE
  8
0
 62
     0
 10
266.708
 20
99.5123
 30
0.0
 11
266.617
 21
99.2382
 31
0.0
  0
LINE
  8
0
 62
     0
 10
266.617
 20
99.2382
 30
0.0
 11
265.734
 21
96.5549
 31
0.0
  0
LINE
  8
0
 62
     0
 10
265.734
 20
96.5549
 30
0.0
 11
265.634
 21
96.296
 31
0.0
  0
LINE
  8
0
 62
     0
 10
265.634
 20
96.296
 30
0.0
 11
265.534
 21
96.0367
 31
0.0
  0
LINE
  8
0
 62
     0
 10
265.534
 20
96.0367
 30
0.0
 11
264.564
 21
93.4766
 31
0.0
  0
LINE
  8
0
 62
     0
 10
264.564
 20
93.4766
 30
0.0
 11
264.468
 21
93.2229
 31
0.0
  0
LINE
  8
0
 62
     0
 10
264.468
 20
93.2229
 30
0.0
 11
263.901
 21
91.7028
 31
0.0
  0
LINE
  8
0
 62
     0
 10
263.901
 20
91.7028
 30
0.0
 11
263.276
 21
90.2035
 31
0.0
  0
LINE
  8
0
 62
     0
 10
263.276
 20
90.2035
 30
0.0
 11
263.172
 21
89.9541
 31
0.0
  0
LINE
  8
0
 62
     0
 10
263.172
 20
89.9541
 30
0.0
 11
262.159
 21
87.4173
 31
0.0
  0
LINE
  8
0
 62
     0
 10
262.159
 20
87.4173
 30
0.0
 11
262.062
 21
87.1583
 31
0.0
  0
LINE
  8
0
 62
     0
 10
262.062
 20
87.1583
 30
0.0
 11
261.498
 21
85.7567
 31
0.0
  0
LINE
  8
0
 62
     0
 10
261.498
 20
85.7567
 30
0.0
 11
258.361
 21
78.8748
 31
0.0
  0
LINE
  8
0
 62
     0
 10
258.361
 20
78.8748
 30
0.0
 11
254.809
 21
72.1995
 31
0.0
  0
LINE
  8
0
 62
     0
 10
254.809
 20
72.1995
 30
0.0
 11
254.038
 21
70.9002
 31
0.0
  0
LINE
  8
0
 62
     0
 10
254.038
 20
70.9002
 30
0.0
 11
253.271
 21
69.5992
 31
0.0
  0
LINE
  8
0
 62
     0
 10
253.271
 20
69.5992
 30
0.0
 11
249.097
 21
63.3331
 31
0.0
  0
LINE
  8
0
 62
     0
 10
249.097
 20
63.3331
 30
0.0
 11
244.558
 21
57.3814
 31
0.0
  0
LINE
  8
0
 62
     0
 10
244.558
 20
57.3814
 30
0.0
 11
243.607
 21
56.2363
 31
0.0
  0
LINE
  8
0
 62
     0
 10
243.607
 20
56.2363
 30
0.0
 11
243.137
 21
55.6588
 31
0.0
  0
LINE
  8
0
 62
     0
 10
243.137
 20
55.6588
 30
0.0
 11
238.175
 21
50.1717
 31
0.0
  0
LINE
  8
0
 62
     0
 10
238.175
 20
50.1717
 30
0.0
 11
237.672
 21
49.6341
 31
0.0
  0
LINE
  8
0
 62
     0
 10
237.672
 20
49.6341
 30
0.0
 11
237.409
 21
49.378
 31
0.0
  0
LINE
  8
0
 62
     0
 10
237.409
 20
49.378
 30
0.0
 11
234.789
 21
46.8175
 31
0.0
  0
LINE
  8
0
 62
     0
 10
234.789
 20
46.8175
 30
0.0
 11
234.528
 21
46.5624
 31
0.0
  0
LINE
  8
0
 62
     0
 10
234.528
 20
46.5624
 30
0.0
 11
234.269
 21
46.3049
 31
0.0
  0
LINE
  8
0
 62
     0
 10
234.269
 20
46.3049
 30
0.0
 11
231.565
 21
43.8781
 31
0.0
  0
LINE
  8
0
 62
     0
 10
231.565
 20
43.8781
 30
0.0
 11
231.298
 21
43.634
 31
0.0
  0
LINE
  8
0
 62
     0
 10
231.298
 20
43.634
 30
0.0
 11
231.074
 21
43.44
 31
0.0
  0
LINE
  8
0
 62
     0
 10
231.074
 20
43.44
 30
0.0
 11
228.815
 21
41.5301
 31
0.0
  0
LINE
  8
0
 62
     0
 10
228.815
 20
41.5301
 30
0.0
 11
228.588
 21
41.3424
 31
0.0
  0
LINE
  8
0
 62
     0
 10
228.588
 20
41.3424
 30
0.0
 11
229.431
 21
42.037
 31
0.0
  0
LINE
  8
0
 62
     0
 10
229.431
 20
42.037
 30
0.0
 11
237.448
 21
49.4577
 31
0.0
  0
LINE
  8
0
 62
     0
 10
237.448
 20
49.4577
 30
0.0
 11
238.205
 21
50.2476
 31
0.0
  0
LINE
  8
0
 62
     0
 10
238.205
 20
50.2476
 30
0.0
 11
237.05
 21
49.0541
 31
0.0
  0
LINE
  8
0
 62
     0
 10
237.05
 20
49.0541
 30
0.0
 11
231.215
 21
43.6164
 31
0.0
  0
LINE
  8
0
 62
     0
 10
231.215
 20
43.6164
 30
0.0
 11
225.209
 21
38.7477
 31
0.0
  0
LINE
  8
0
 62
     0
 10
225.209
 20
38.7477
 30
0.0
 11
223.968
 21
37.8397
 31
0.0
  0
LINE
  8
0
 62
     0
 10
223.968
 20
37.8397
 30
0.0
 11
223.653
 21
37.6206
 31
0.0
  0
LINE
  8
0
 62
     0
 10
223.653
 20
37.6206
 30
0.0
 11
220.504
 21
35.3977
 31
0.0
  0
LINE
  8
0
 62
     0
 10
220.504
 20
35.3977
 30
0.0
 11
220.177
 21
35.1896
 31
0.0
  0
LINE
  8
0
 62
     0
 10
220.177
 20
35.1896
 30
0.0
 11
219.849
 21
34.9815
 31
0.0
  0
LINE
  8
0
 62
     0
 10
219.849
 20
34.9815
 30
0.0
 11
216.554
 21
32.8827
 31
0.0
  0
LINE
  8
0
 62
     0
 10
216.554
 20
32.8827
 30
0.0
 11
216.222
 21
32.6705
 31
0.0
  0
LINE
  8
0
 62
     0
 10
216.222
 20
32.6705
 30
0.0
 11
215.879
 21
32.4762
 31
0.0
  0
LINE
  8
0
 62
     0
 10
215.879
 20
32.4762
 30
0.0
 11
212.397
 21
30.4974
 31
0.0
  0
LINE
  8
0
 62
     0
 10
212.397
 20
30.4974
 30
0.0
 11
212.044
 21
30.2962
 31
0.0
  0
LINE
  8
0
 62
     0
 10
212.044
 20
30.2962
 30
0.0
 11
211.689
 21
30.0991
 31
0.0
  0
LINE
  8
0
 62
     0
 10
211.689
 20
30.0991
 30
0.0
 11
207.994
 21
28.2305
 31
0.0
  0
LINE
  8
0
 62
     0
 10
207.994
 20
28.2305
 30
0.0
 11
207.619
 21
28.0376
 31
0.0
  0
LINE
  8
0
 62
     0
 10
207.619
 20
28.0376
 30
0.0
 11
207.837
 21
28.1699
 31
0.0
  0
LINE
  8
0
 62
     0
 10
207.837
 20
28.1699
 30
0.0
 11
209.112
 21
28.8988
 31
0.0
  0
LINE
  8
0
 62
     0
 10
209.112
 20
28.8988
 30
0.0
 11
210.577
 21
29.705
 31
0.0
  0
LINE
  8
0
 62
     0
 10
210.577
 20
29.705
 30
0.0
 11
210.889
 21
29.8731
 31
0.0
  0
LINE
  8
0
 62
     0
 10
210.889
 20
29.8731
 30
0.0
 11
211.2
 21
30.0468
 31
0.0
  0
LINE
  8
0
 62
     0
 10
211.2
 20
30.0468
 30
0.0
 11
214.393
 21
31.9402
 31
0.0
  0
LINE
  8
0
 62
     0
 10
214.393
 20
31.9402
 30
0.0
 11
214.711
 21
32.1262
 31
0.0
  0
LINE
  8
0
 62
     0
 10
214.711
 20
32.1262
 30
0.0
 11
215.032
 21
32.3095
 31
0.0
  0
LINE
  8
0
 62
     0
 10
215.032
 20
32.3095
 30
0.0
 11
216.538
 21
33.2534
 31
0.0
  0
LINE
  8
0
 62
     0
 10
216.538
 20
33.2534
 30
0.0
 11
217.889
 21
34.1671
 31
0.0
  0
LINE
  8
0
 62
     0
 10
217.889
 20
34.1671
 30
0.0
 11
218.131
 21
34.3352
 31
0.0
  0
LINE
  8
0
 62
     0
 10
218.131
 20
34.3352
 30
0.0
 11
218.372
 21
34.5033
 31
0.0
  0
LINE
  8
0
 62
     0
 10
218.372
 20
34.5033
 30
0.0
 11
219.408
 21
35.2475
 31
0.0
  0
LINE
  8
0
 62
     0
 10
219.408
 20
35.2475
 30
0.0
 11
220.157
 21
35.8359
 31
0.0
  0
LINE
  8
0
 62
     0
 10
220.157
 20
35.8359
 30
0.0
 11
220.256
 21
35.9255
 31
0.0
  0
LINE
  8
0
 62
     0
 10
220.256
 20
35.9255
 30
0.0
 11
220.114
 21
35.8302
 31
0.0
  0
LINE
  8
0
 62
     0
 10
220.114
 20
35.8302
 30
0.0
 11
218.686
 21
34.8933
 31
0.0
  0
LINE
  8
0
 62
     0
 10
218.686
 20
34.8933
 30
0.0
 11
218.543
 21
34.7996
 31
0.0
  0
LINE
  8
0
 62
     0
 10
218.543
 20
34.7996
 30
0.0
 11
218.696
 21
34.9016
 31
0.0
  0
LINE
  8
0
 62
     0
 10
218.696
 20
34.9016
 30
0.0
 11
220.226
 21
35.9311
 31
0.0
  0
LINE
  8
0
 62
     0
 10
220.226
 20
35.9311
 30
0.0
 11
220.379
 21
36.0355
 31
0.0
  0
LINE
  8
0
 62
     0
 10
220.379
 20
36.0355
 30
0.0
 11
220.372
 21
36.0288
 31
0.0
  0
LINE
  8
0
 62
     0
 10
220.372
 20
36.0288
 30
0.0
 11
220.267
 21
35.935
 31
0.0
  0
LINE
  8
0
 62
     0
 10
220.267
 20
35.935
 30
0.0
 11
220.256
 21
35.9255
 31
0.0
  0
LINE
  8
0
 62
     0
 10
220.256
 20
35.9255
 30
0.0
 11
222.746
 21
37.6273
 31
0.0
  0
LINE
  8
0
 62
     0
 10
222.746
 20
37.6273
 30
0.0
 11
229.858
 21
43.2622
 31
0.0
  0
LINE
  8
0
 62
     0
 10
229.858
 20
43.2622
 30
0.0
 11
238.639
 21
51.5592
 31
0.0
  0
LINE
  8
0
 62
     0
 10
238.639
 20
51.5592
 30
0.0
 11
246.517
 21
60.7053
 31
0.0
  0
LINE
  8
0
 62
     0
 10
246.517
 20
60.7053
 30
0.0
 11
251.818
 21
68.0364
 31
0.0
  0
LINE
  8
0
 62
     0
 10
251.818
 20
68.0364
 30
0.0
 11
253.412
 21
70.5887
 31
0.0
  0
LINE
  8
0
 62
     0
 10
253.412
 20
70.5887
 30
0.0
 11
255.006
 21
73.1326
 31
0.0
  0
LINE
  8
0
 62
     0
 10
255.006
 20
73.1326
 30
0.0
 11
259.25
 21
81.1004
 31
0.0
  0
LINE
  8
0
 62
     0
 10
259.25
 20
81.1004
 30
0.0
 11
263.945
 21
92.1247
 31
0.0
  0
LINE
  8
0
 62
     0
 10
263.945
 20
92.1247
 30
0.0
 11
267.472
 21
103.525
 31
0.0
  0
LINE
  8
0
 62
     0
 10
267.472
 20
103.525
 30
0.0
 11
269.372
 21
112.232
 31
0.0
  0
LINE
  8
0
 62
     0
 10
269.372
 20
112.232
 30
0.0
 11
269.805
 21
115.163
 31
0.0
  0
LINE
  8
0
 62
     0
 10
269.805
 20
115.163
 30
0.0
 11
269.715
 21
114.044
 31
0.0
  0
LINE
  8
0
 62
     0
 10
269.715
 20
114.044
 30
0.0
 11
269.314
 21
110.694
 31
0.0
  0
LINE
  8
0
 62
     0
 10
269.314
 20
110.694
 30
0.0
 11
268.613
 21
106.635
 31
0.0
  0
LINE
  8
0
 62
     0
 10
268.613
 20
106.635
 30
0.0
 11
267.734
 21
102.929
 31
0.0
  0
LINE
  8
0
 62
     0
 10
267.734
 20
102.929
 30
0.0
 11
266.986
 21
100.358
 31
0.0
  0
LINE
  8
0
 62
     0
 10
266.986
 20
100.358
 30
0.0
 11
266.708
 21
99.5123
 31
0.0
  0
LINE
  8
0
 62
     0
 10
258.604
 20
179.101
 30
0.0
 11
258.514
 21
179.31
 31
0.0
  0
LINE
  8
0
 62
     0
 10
258.514
 20
179.31
 30
0.0
 11
257.58
 21
181.379
 31
0.0
  0
LINE
  8
0
 62
     0
 10
257.58
 20
181.379
 30
0.0
 11
257.479
 21
181.579
 31
0.0
  0
LINE
  8
0
 62
     0
 10
257.479
 20
181.579
 30
0.0
 11
257.581
 21
181.376
 31
0.0
  0
LINE
  8
0
 62
     0
 10
257.581
 20
181.376
 30
0.0
 11
258.514
 21
179.309
 31
0.0
  0
LINE
  8
0
 62
     0
 10
258.514
 20
179.309
 30
0.0
 11
258.604
 21
179.101
 31
0.0
  0
LINE
  8
0
 62
     0
 10
248.314
 20
194.565
 30
0.0
 11
249.235
 21
193.176
 31
0.0
  0
LINE
  8
0
 62
     0
 10
249.235
 20
193.176
 30
0.0
 11
253.448
 21
186.013
 31
0.0
  0
LINE
  8
0
 62
     0
 10
253.448
 20
186.013
 30
0.0
 11
257.127
 21
178.602
 31
0.0
  0
LINE
  8
0
 62
     0
 10
257.127
 20
178.602
 30
0.0
 11
257.781
 21
177.087
 31
0.0
  0
LINE
  8
0
 62
     0
 10
257.781
 20
177.087
 30
0.0
 11
257.857
 21
176.921
 31
0.0
  0
LINE
  8
0
 62
     0
 10
257.857
 20
176.921
 30
0.0
 11
258.586
 21
175.231
 31
0.0
  0
LINE
  8
0
 62
     0
 10
258.586
 20
175.231
 30
0.0
 11
258.658
 21
175.06
 31
0.0
  0
LINE
  8
0
 62
     0
 10
258.658
 20
175.06
 30
0.0
 11
259.784
 21
172.302
 31
0.0
  0
LINE
  8
0
 62
     0
 10
259.784
 20
172.302
 30
0.0
 11
262.574
 21
163.778
 31
0.0
  0
LINE
  8
0
 62
     0
 10
262.574
 20
163.778
 30
0.0
 11
265.271
 21
152.215
 31
0.0
  0
LINE
  8
0
 62
     0
 10
265.271
 20
152.215
 30
0.0
 11
266.756
 21
140.494
 31
0.0
  0
LINE
  8
0
 62
     0
 10
266.756
 20
140.494
 30
0.0
 11
267.123
 21
131.673
 31
0.0
  0
LINE
  8
0
 62
     0
 10
267.123
 20
131.673
 30
0.0
 11
267.049
 21
128.738
 31
0.0
  0
LINE
  8
0
 62
     0
 10
267.049
 20
128.738
 30
0.0
 11
267.074
 21
130.032
 31
0.0
  0
LINE
  8
0
 62
     0
 10
267.074
 20
130.032
 30
0.0
 11
266.894
 21
136.496
 31
0.0
  0
LINE
  8
0
 62
     0
 10
266.894
 20
136.496
 30
0.0
 11
266.378
 21
142.936
 31
0.0
  0
LINE
  8
0
 62
     0
 10
266.378
 20
142.936
 30
0.0
 11
266.234
 21
144.217
 31
0.0
  0
LINE
  8
0
 62
     0
 10
266.234
 20
144.217
 30
0.0
 11
266.072
 21
145.696
 31
0.0
  0
LINE
  8
0
 62
     0
 10
266.072
 20
145.696
 30
0.0
 11
264.867
 21
153.024
 31
0.0
  0
LINE
  8
0
 62
     0
 10
264.867
 20
153.024
 30
0.0
 11
263.192
 21
160.255
 31
0.0
  0
LINE
  8
0
 62
     0
 10
263.192
 20
160.255
 30
0.0
 11
262.795
 21
161.683
 31
0.0
  0
LINE
  8
0
 62
     0
 10
262.795
 20
161.683
 30
0.0
 11
262.21
 21
163.827
 31
0.0
  0
LINE
  8
0
 62
     0
 10
262.21
 20
163.827
 30
0.0
 11
260.098
 21
170.157
 31
0.0
  0
LINE
  8
0
 62
     0
 10
260.098
 20
170.157
 30
0.0
 11
256.726
 21
178.373
 31
0.0
  0
LINE
  8
0
 62
     0
 10
256.726
 20
178.373
 30
0.0
 11
252.732
 21
186.298
 31
0.0
  0
LINE
  8
0
 62
     0
 10
252.732
 20
186.298
 30
0.0
 11
249.379
 21
192.041
 31
0.0
  0
LINE
  8
0
 62
     0
 10
249.379
 20
192.041
 30
0.0
 11
248.174
 21
193.895
 31
0.0
  0
LINE
  8
0
 62
     0
 10
248.174
 20
193.895
 30
0.0
 11
248.321
 21
193.692
 31
0.0
  0
LINE
  8
0
 62
     0
 10
248.321
 20
193.692
 30
0.0
 11
249.87
 21
191.493
 31
0.0
  0
LINE
  8
0
 62
     0
 10
249.87
 20
191.493
 30
0.0
 11
250.031
 21
191.258
 31
0.0
  0
LINE
  8
0
 62
     0
 10
250.031
 20
191.258
 30
0.0
 11
250.194
 21
191.025
 31
0.0
  0
LINE
  8
0
 62
     0
 10
250.194
 20
191.025
 30
0.0
 11
251.813
 21
188.527
 31
0.0
  0
LINE
  8
0
 62
     0
 10
251.813
 20
188.527
 30
0.0
 11
251.967
 21
188.258
 31
0.0
  0
LINE
  8
0
 62
     0
 10
251.967
 20
188.258
 30
0.0
 11
251.19
 21
189.609
 31
0.0
  0
LINE
  8
0
 62
     0
 10
251.19
 20
189.609
 30
0.0
 11
250.351
 21
190.923
 31
0.0
  0
LINE
  8
0
 62
     0
 10
250.351
 20
190.923
 30
0.0
 11
248.672
 21
193.548
 31
0.0
  0
LINE
  8
0
 62
     0
 10
248.672
 20
193.548
 30
0.0
 11
248.386
 21
193.982
 31
0.0
  0
LINE
  8
0
 62
     0
 10
248.386
 20
193.982
 30
0.0
 11
245.397
 21
198.229
 31
0.0
  0
LINE
  8
0
 62
     0
 10
245.397
 20
198.229
 30
0.0
 11
245.099
 21
198.654
 31
0.0
  0
LINE
  8
0
 62
     0
 10
245.099
 20
198.654
 30
0.0
 11
244.776
 21
199.061
 31
0.0
  0
LINE
  8
0
 62
     0
 10
244.776
 20
199.061
 30
0.0
 11
241.57
 21
203.144
 31
0.0
  0
LINE
  8
0
 62
     0
 10
241.57
 20
203.144
 30
0.0
 11
241.234
 21
203.539
 31
0.0
  0
LINE
  8
0
 62
     0
 10
241.234
 20
203.539
 30
0.0
 11
240.979
 21
203.83
 31
0.0
  0
LINE
  8
0
 62
     0
 10
240.979
 20
203.83
 30
0.0
 11
238.465
 21
206.76
 31
0.0
  0
LINE
  8
0
 62
     0
 10
238.465
 20
206.76
 30
0.0
 11
238.208
 21
207.045
 31
0.0
  0
LINE
  8
0
 62
     0
 10
238.208
 20
207.045
 30
0.0
 11
239.118
 21
206.084
 31
0.0
  0
LINE
  8
0
 62
     0
 10
239.118
 20
206.084
 30
0.0
 11
243.485
 21
201.057
 31
0.0
  0
LINE
  8
0
 62
     0
 10
243.485
 20
201.057
 30
0.0
 11
247.554
 21
195.694
 31
0.0
  0
LINE
  8
0
 62
     0
 10
247.554
 20
195.694
 30
0.0
 11
248.314
 21
194.565
 31
0.0
  0
LINE
  8
0
 62
     0
 10
162.757
 20
243.821
 30
0.0
 11
163.204
 21
243.797
 31
0.0
  0
LINE
  8
0
 62
     0
 10
163.204
 20
243.797
 30
0.0
 11
167.677
 21
243.453
 31
0.0
  0
LINE
  8
0
 62
     0
 10
167.677
 20
243.453
 30
0.0
 11
168.125
 21
243.418
 31
0.0
  0
LINE
  8
0
 62
     0
 10
168.125
 20
243.418
 30
0.0
 11
168.491
 21
243.388
 31
0.0
  0
LINE
  8
0
 62
     0
 10
168.491
 20
243.388
 30
0.0
 11
172.134
 21
242.956
 31
0.0
  0
LINE
  8
0
 62
     0
 10
172.134
 20
242.956
 30
0.0
 11
172.495
 21
242.915
 31
0.0
  0
LINE
  8
0
 62
     0
 10
172.495
 20
242.915
 30
0.0
 11
172.602
 21
242.911
 31
0.0
  0
LINE
  8
0
 62
     0
 10
172.602
 20
242.911
 30
0.0
 11
173.816
 21
242.819
 31
0.0
  0
LINE
  8
0
 62
     0
 10
173.816
 20
242.819
 30
0.0
 11
173.961
 21
242.802
 31
0.0
  0
LINE
  8
0
 62
     0
 10
173.961
 20
242.802
 30
0.0
 11
174.104
 21
242.783
 31
0.0
  0
LINE
  8
0
 62
     0
 10
174.104
 20
242.783
 30
0.0
 11
174.917
 21
242.635
 31
0.0
  0
LINE
  8
0
 62
     0
 10
174.917
 20
242.635
 30
0.0
 11
175.891
 21
242.423
 31
0.0
  0
LINE
  8
0
 62
     0
 10
175.891
 20
242.423
 30
0.0
 11
176.116
 21
242.372
 31
0.0
  0
LINE
  8
0
 62
     0
 10
176.116
 20
242.372
 30
0.0
 11
177.337
 21
242.17
 31
0.0
  0
LINE
  8
0
 62
     0
 10
177.337
 20
242.17
 30
0.0
 11
180.983
 21
241.443
 31
0.0
  0
LINE
  8
0
 62
     0
 10
180.983
 20
241.443
 30
0.0
 11
185.521
 21
240.351
 31
0.0
  0
LINE
  8
0
 62
     0
 10
185.521
 20
240.351
 30
0.0
 11
189.619
 21
239.142
 31
0.0
  0
LINE
  8
0
 62
     0
 10
189.619
 20
239.142
 30
0.0
 11
192.293
 21
238.216
 31
0.0
  0
LINE
  8
0
 62
     0
 10
192.293
 20
238.216
 30
0.0
 11
193.168
 21
237.866
 31
0.0
  0
LINE
  8
0
 62
     0
 10
193.168
 20
237.866
 30
0.0
 11
195.238
 21
237.083
 31
0.0
  0
LINE
  8
0
 62
     0
 10
195.238
 20
237.083
 30
0.0
 11
205.136
 21
232.614
 31
0.0
  0
LINE
  8
0
 62
     0
 10
205.136
 20
232.614
 30
0.0
 11
214.391
 21
227.458
 31
0.0
  0
LINE
  8
0
 62
     0
 10
214.391
 20
227.458
 30
0.0
 11
216.138
 21
226.332
 31
0.0
  0
LINE
  8
0
 62
     0
 10
216.138
 20
226.332
 30
0.0
 11
217.886
 21
225.209
 31
0.0
  0
LINE
  8
0
 62
     0
 10
217.886
 20
225.209
 30
0.0
 11
226.053
 21
219.147
 31
0.0
  0
LINE
  8
0
 62
     0
 10
226.053
 20
219.147
 30
0.0
 11
233.381
 21
212.54
 31
0.0
  0
LINE
  8
0
 62
     0
 10
233.381
 20
212.54
 30
0.0
 11
234.707
 21
211.145
 31
0.0
  0
LINE
  8
0
 62
     0
 10
234.707
 20
211.145
 30
0.0
 11
234.9
 21
210.934
 31
0.0
  0
LINE
  8
0
 62
     0
 10
234.9
 20
210.934
 30
0.0
 11
235.481
 21
210.297
 31
0.0
  0
LINE
  8
0
 62
     0
 10
235.481
 20
210.297
 30
0.0
 11
235.988
 21
209.721
 31
0.0
  0
LINE
  8
0
 62
     0
 10
235.988
 20
209.721
 30
0.0
 11
236.258
 21
209.39
 31
0.0
  0
LINE
  8
0
 62
     0
 10
236.258
 20
209.39
 30
0.0
 11
236.321
 21
209.273
 31
0.0
  0
LINE
  8
0
 62
     0
 10
236.321
 20
209.273
 30
0.0
 11
236.206
 21
209.34
 31
0.0
  0
LINE
  8
0
 62
     0
 10
236.206
 20
209.34
 30
0.0
 11
235.942
 21
209.564
 31
0.0
  0
LINE
  8
0
 62
     0
 10
235.942
 20
209.564
 30
0.0
 11
235.56
 21
209.914
 31
0.0
  0
LINE
  8
0
 62
     0
 10
235.56
 20
209.914
 30
0.0
 11
235.206
 21
210.246
 31
0.0
  0
LINE
  8
0
 62
     0
 10
235.206
 20
210.246
 30
0.0
 11
235.09
 21
210.358
 31
0.0
  0
LINE
  8
0
 62
     0
 10
235.09
 20
210.358
 30
0.0
 11
235.257
 21
210.18
 31
0.0
  0
LINE
  8
0
 62
     0
 10
235.257
 20
210.18
 30
0.0
 11
236.944
 21
208.39
 31
0.0
  0
LINE
  8
0
 62
     0
 10
236.944
 20
208.39
 30
0.0
 11
237.115
 21
208.209
 31
0.0
  0
LINE
  8
0
 62
     0
 10
237.115
 20
208.209
 30
0.0
 11
236.89
 21
208.434
 31
0.0
  0
LINE
  8
0
 62
     0
 10
236.89
 20
208.434
 30
0.0
 11
234.655
 21
210.666
 31
0.0
  0
LINE
  8
0
 62
     0
 10
234.655
 20
210.666
 30
0.0
 11
234.428
 21
210.884
 31
0.0
  0
LINE
  8
0
 62
     0
 10
234.428
 20
210.884
 30
0.0
 11
231.626
 21
213.429
 31
0.0
  0
LINE
  8
0
 62
     0
 10
231.626
 20
213.429
 30
0.0
 11
231.793
 21
213.283
 31
0.0
  0
LINE
  8
0
 62
     0
 10
231.793
 20
213.283
 30
0.0
 11
232.296
 21
212.845
 31
0.0
  0
LINE
  8
0
 62
     0
 10
232.296
 20
212.845
 30
0.0
 11
233.19
 21
212.062
 31
0.0
  0
LINE
  8
0
 62
     0
 10
233.19
 20
212.062
 30
0.0
 11
234.169
 21
211.195
 31
0.0
  0
LINE
  8
0
 62
     0
 10
234.169
 20
211.195
 30
0.0
 11
234.862
 21
210.57
 31
0.0
  0
LINE
  8
0
 62
     0
 10
234.862
 20
210.57
 30
0.0
 11
235.09
 21
210.358
 31
0.0
  0
LINE
  8
0
 62
     0
 10
235.09
 20
210.358
 30
0.0
 11
233.407
 21
212.076
 31
0.0
  0
LINE
  8
0
 62
     0
 10
233.407
 20
212.076
 30
0.0
 11
228.065
 21
216.946
 31
0.0
  0
LINE
  8
0
 62
     0
 10
228.065
 20
216.946
 30
0.0
 11
220.533
 21
222.904
 31
0.0
  0
LINE
  8
0
 62
     0
 10
220.533
 20
222.904
 30
0.0
 11
212.551
 21
228.195
 31
0.0
  0
LINE
  8
0
 62
     0
 10
212.551
 20
228.195
 30
0.0
 11
206.321
 21
231.72
 31
0.0
  0
LINE
  8
0
 62
     0
 10
206.321
 20
231.72
 30
0.0
 11
204.185
 21
232.771
 31
0.0
  0
LINE
  8
0
 62
     0
 10
204.185
 20
232.771
 30
0.0
 11
202.058
 21
233.819
 31
0.0
  0
LINE
  8
0
 62
     0
 10
202.058
 20
233.819
 30
0.0
 11
195.489
 21
236.575
 31
0.0
  0
LINE
  8
0
 62
     0
 10
195.489
 20
236.575
 30
0.0
 11
186.546
 21
239.58
 31
0.0
  0
LINE
  8
0
 62
     0
 10
186.546
 20
239.58
 30
0.0
 11
177.44
 21
241.795
 31
0.0
  0
LINE
  8
0
 62
     0
 10
177.44
 20
241.795
 30
0.0
 11
170.561
 21
242.962
 31
0.0
  0
LINE
  8
0
 62
     0
 10
170.561
 20
242.962
 30
0.0
 11
168.254
 21
243.221
 31
0.0
  0
LINE
  8
0
 62
     0
 10
168.254
 20
243.221
 30
0.0
 11
168.579
 21
243.185
 31
0.0
  0
LINE
  8
0
 62
     0
 10
168.579
 20
243.185
 30
0.0
 11
169.558
 21
243.087
 31
0.0
  0
LINE
  8
0
 62
     0
 10
169.558
 20
243.087
 30
0.0
 11
170.576
 21
243.003
 31
0.0
  0
LINE
  8
0
 62
     0
 10
170.576
 20
243.003
 30
0.0
 11
171.398
 21
242.955
 31
0.0
  0
LINE
  8
0
 62
     0
 10
171.398
 20
242.955
 30
0.0
 11
171.934
 21
242.934
 31
0.0
  0
LINE
  8
0
 62
     0
 10
171.934
 20
242.934
 30
0.0
 11
172.113
 21
242.929
 31
0.0
  0
LINE
  8
0
 62
     0
 10
172.113
 20
242.929
 30
0.0
 11
171.782
 21
242.969
 31
0.0
  0
LINE
  8
0
 62
     0
 10
171.782
 20
242.969
 30
0.0
 11
168.46
 21
243.388
 31
0.0
  0
LINE
  8
0
 62
     0
 10
168.46
 20
243.388
 30
0.0
 11
168.125
 21
243.418
 31
0.0
  0
LINE
  8
0
 62
     0
 10
168.125
 20
243.418
 30
0.0
 11
167.674
 21
243.448
 31
0.0
  0
LINE
  8
0
 62
     0
 10
167.674
 20
243.448
 30
0.0
 11
163.184
 21
243.762
 31
0.0
  0
LINE
  8
0
 62
     0
 10
163.184
 20
243.762
 30
0.0
 11
162.738
 21
243.785
 31
0.0
  0
LINE
  8
0
 62
     0
 10
162.738
 20
243.785
 30
0.0
 11
162.29
 21
243.796
 31
0.0
  0
LINE
  8
0
 62
     0
 10
162.29
 20
243.796
 30
0.0
 11
157.864
 21
243.9
 31
0.0
  0
LINE
  8
0
 62
     0
 10
157.864
 20
243.9
 30
0.0
 11
157.428
 21
243.91
 31
0.0
  0
LINE
  8
0
 62
     0
 10
157.428
 20
243.91
 30
0.0
 11
157.868
 21
243.911
 31
0.0
  0
LINE
  8
0
 62
     0
 10
157.868
 20
243.911
 30
0.0
 11
162.31
 21
243.832
 31
0.0
  0
LINE
  8
0
 62
     0
 10
162.31
 20
243.832
 30
0.0
 11
162.757
 21
243.821
 31
0.0
  0
LINE
  8
0
 62
     0
 10
185.966
 20
20.2985
 30
0.0
 11
186.009
 21
20.3123
 31
0.0
  0
LINE
  8
0
 62
     0
 10
186.009
 20
20.3123
 30
0.0
 11
186.442
 21
20.4377
 31
0.0
  0
LINE
  8
0
 62
     0
 10
186.442
 20
20.4377
 30
0.0
 11
186.486
 21
20.4501
 31
0.0
  0
LINE
  8
0
 62
     0
 10
186.486
 20
20.4501
 30
0.0
 11
186.349
 21
20.4143
 31
0.0
  0
LINE
  8
0
 62
     0
 10
186.349
 20
20.4143
 30
0.0
 11
184.997
 21
20.0394
 31
0.0
  0
LINE
  8
0
 62
     0
 10
184.997
 20
20.0394
 30
0.0
 11
184.861
 21
20.005
 31
0.0
  0
LINE
  8
0
 62
     0
 10
184.861
 20
20.005
 30
0.0
 11
184.953
 21
20.0284
 31
0.0
  0
LINE
  8
0
 62
     0
 10
184.953
 20
20.0284
 30
0.0
 11
185.875
 21
20.2709
 31
0.0
  0
LINE
  8
0
 62
     0
 10
185.875
 20
20.2709
 30
0.0
 11
185.966
 21
20.2985
 31
0.0
  0
LINE
  8
0
 62
     0
 10
240.143
 20
67.2331
 30
0.0
 11
241.122
 21
68.5271
 31
0.0
  0
LINE
  8
0
 62
     0
 10
241.122
 20
68.5271
 30
0.0
 11
243.881
 21
72.547
 31
0.0
  0
LINE
  8
0
 62
     0
 10
243.881
 20
72.547
 30
0.0
 11
247.297
 21
78.1279
 31
0.0
  0
LINE
  8
0
 62
     0
 10
247.297
 20
78.1279
 30
0.0
 11
250.292
 21
83.7463
 31
0.0
  0
LINE
  8
0
 62
     0
 10
250.292
 20
83.7463
 30
0.0
 11
252.196
 21
87.7962
 31
0.0
  0
LINE
  8
0
 62
     0
 10
252.196
 20
87.7962
 30
0.0
 11
252.768
 21
89.1716
 31
0.0
  0
LINE
  8
0
 62
     0
 10
252.768
 20
89.1716
 30
0.0
 11
252.732
 21
89.1646
 31
0.0
  0
LINE
  8
0
 62
     0
 10
252.732
 20
89.1646
 30
0.0
 11
252.042
 21
87.5358
 31
0.0
  0
LINE
  8
0
 62
     0
 10
252.042
 20
87.5358
 30
0.0
 11
249.751
 21
82.7401
 31
0.0
  0
LINE
  8
0
 62
     0
 10
249.751
 20
82.7401
 30
0.0
 11
246.359
 21
76.5598
 31
0.0
  0
LINE
  8
0
 62
     0
 10
246.359
 20
76.5598
 30
0.0
 11
242.575
 21
70.6423
 31
0.0
  0
LINE
  8
0
 62
     0
 10
242.575
 20
70.6423
 30
0.0
 11
238.417
 21
65.0064
 31
0.0
  0
LINE
  8
0
 62
     0
 10
238.417
 20
65.0064
 30
0.0
 11
233.905
 21
59.6692
 31
0.0
  0
LINE
  8
0
 62
     0
 10
233.905
 20
59.6692
 30
0.0
 11
229.059
 21
54.6488
 31
0.0
  0
LINE
  8
0
 62
     0
 10
229.059
 20
54.6488
 30
0.0
 11
223.895
 21
49.965
 31
0.0
  0
LINE
  8
0
 62
     0
 10
223.895
 20
49.965
 30
0.0
 11
219.834
 21
46.6686
 31
0.0
  0
LINE
  8
0
 62
     0
 10
219.834
 20
46.6686
 30
0.0
 11
218.436
 21
45.6325
 31
0.0
  0
LINE
  8
0
 62
     0
 10
218.436
 20
45.6325
 30
0.0
 11
219.159
 21
46.1352
 31
0.0
  0
LINE
  8
0
 62
     0
 10
219.159
 20
46.1352
 30
0.0
 11
222.567
 21
48.587
 31
0.0
  0
LINE
  8
0
 62
     0
 10
222.567
 20
48.587
 30
0.0
 11
225.676
 21
50.9185
 31
0.0
  0
LINE
  8
0
 62
     0
 10
225.676
 20
50.9185
 30
0.0
 11
226.252
 21
51.3609
 31
0.0
  0
LINE
  8
0
 62
     0
 10
226.252
 20
51.3609
 30
0.0
 11
226.96
 21
52.1021
 31
0.0
  0
LINE
  8
0
 62
     0
 10
226.96
 20
52.1021
 30
0.0
 11
229.091
 21
54.3264
 31
0.0
  0
LINE
  8
0
 62
     0
 10
229.091
 20
54.3264
 30
0.0
 11
232.515
 21
58.0154
 31
0.0
  0
LINE
  8
0
 62
     0
 10
232.515
 20
58.0154
 30
0.0
 11
236.28
 21
62.3454
 31
0.0
  0
LINE
  8
0
 62
     0
 10
236.28
 20
62.3454
 30
0.0
 11
239.212
 21
65.986
 31
0.0
  0
LINE
  8
0
 62
     0
 10
239.212
 20
65.986
 30
0.0
 11
240.143
 21
67.2331
 31
0.0
  0
LINE
  8
0
 62
     0
 10
87.8113
 20
46.9
 30
0.0
 11
89.4676
 21
45.4187
 31
0.0
  0
LINE
  8
0
 62
     0
 10
89.4676
 20
45.4187
 30
0.0
 11
94.6891
 21
41.2531
 31
0.0
  0
LINE
  8
0
 62
     0
 10
94.6891
 20
41.2531
 30
0.0
 11
102.186
 21
36.0976
 31
0.0
  0
LINE
  8
0
 62
     0
 10
102.186
 20
36.0976
 30
0.0
 11
110.243
 21
31.5488
 31
0.0
  0
LINE
  8
0
 62
     0
 10
110.243
 20
31.5488
 30
0.0
 11
116.623
 21
28.5695
 31
0.0
  0
LINE
  8
0
 62
     0
 10
116.623
 20
28.5695
 30
0.0
 11
118.805
 21
27.7179
 31
0.0
  0
LINE
  8
0
 62
     0
 10
118.805
 20
27.7179
 30
0.0
 11
119.947
 21
27.2879
 31
0.0
  0
LINE
  8
0
 62
     0
 10
119.947
 20
27.2879
 30
0.0
 11
125.735
 21
25.3269
 31
0.0
  0
LINE
  8
0
 62
     0
 10
125.735
 20
25.3269
 30
0.0
 11
131.622
 21
23.694
 31
0.0
  0
LINE
  8
0
 62
     0
 10
131.622
 20
23.694
 30
0.0
 11
132.815
 21
23.428
 31
0.0
  0
LINE
  8
0
 62
     0
 10
132.815
 20
23.428
 30
0.0
 11
133.406
 21
23.275
 31
0.0
  0
LINE
  8
0
 62
     0
 10
133.406
 20
23.275
 30
0.0
 11
139.398
 21
22.1023
 31
0.0
  0
LINE
  8
0
 62
     0
 10
139.398
 20
22.1023
 30
0.0
 11
139.999
 21
21.9893
 31
0.0
  0
LINE
  8
0
 62
     0
 10
139.999
 20
21.9893
 30
0.0
 11
140.299
 21
21.937
 31
0.0
  0
LINE
  8
0
 62
     0
 10
140.299
 20
21.937
 30
0.0
 11
143.324
 21
21.5305
 31
0.0
  0
LINE
  8
0
 62
     0
 10
143.324
 20
21.5305
 30
0.0
 11
143.627
 21
21.4878
 31
0.0
  0
LINE
  8
0
 62
     0
 10
143.627
 20
21.4878
 30
0.0
 11
143.929
 21
21.4492
 31
0.0
  0
LINE
  8
0
 62
     0
 10
143.929
 20
21.4492
 30
0.0
 11
146.959
 21
21.1005
 31
0.0
  0
LINE
  8
0
 62
     0
 10
146.959
 20
21.1005
 30
0.0
 11
147.265
 21
21.0826
 31
0.0
  0
LINE
  8
0
 62
     0
 10
147.265
 20
21.0826
 30
0.0
 11
145.889
 21
21.2356
 31
0.0
  0
LINE
  8
0
 62
     0
 10
145.889
 20
21.2356
 30
0.0
 11
139.052
 21
22.2539
 31
0.0
  0
LINE
  8
0
 62
     0
 10
139.052
 20
22.2539
 30
0.0
 11
132.308
 21
23.6926
 31
0.0
  0
LINE
  8
0
 62
     0
 10
132.308
 20
23.6926
 30
0.0
 11
130.98
 21
24.0536
 31
0.0
  0
LINE
  8
0
 62
     0
 10
130.98
 20
24.0536
 30
0.0
 11
129.65
 21
24.4147
 31
0.0
  0
LINE
  8
0
 62
     0
 10
129.65
 20
24.4147
 30
0.0
 11
123.095
 21
26.4831
 31
0.0
  0
LINE
  8
0
 62
     0
 10
123.095
 20
26.4831
 30
0.0
 11
116.684
 21
28.925
 31
0.0
  0
LINE
  8
0
 62
     0
 10
116.684
 20
28.925
 30
0.0
 11
115.427
 21
29.4721
 31
0.0
  0
LINE
  8
0
 62
     0
 10
115.427
 20
29.4721
 30
0.0
 11
114.175
 21
30.0302
 31
0.0
  0
LINE
  8
0
 62
     0
 10
114.175
 20
30.0302
 30
0.0
 11
108.044
 21
33.0702
 31
0.0
  0
LINE
  8
0
 62
     0
 10
108.044
 20
33.0702
 30
0.0
 11
102.1
 21
36.4395
 31
0.0
  0
LINE
  8
0
 62
     0
 10
102.1
 20
36.4395
 30
0.0
 11
100.941
 21
37.1616
 31
0.0
  0
LINE
  8
0
 62
     0
 10
100.941
 20
37.1616
 30
0.0
 11
99.7878
 21
37.8947
 31
0.0
  0
LINE
  8
0
 62
     0
 10
99.7878
 20
37.8947
 30
0.0
 11
94.2012
 21
41.807
 31
0.0
  0
LINE
  8
0
 62
     0
 10
94.2012
 20
41.807
 30
0.0
 11
88.8478
 21
46.0181
 31
0.0
  0
LINE
  8
0
 62
     0
 10
88.8478
 20
46.0181
 30
0.0
 11
87.8113
 21
46.9
 31
0.0
  0
LINE
  8
0
 62
     0
 10
195.63
 20
32.9792
 30
0.0
 11
192.928
 21
31.9181
 31
0.0
  0
LINE
  8
0
 62
     0
 10
192.928
 20
31.9181
 30
0.0
 11
190.168
 21
30.9976
 31
0.0
  0
LINE
  8
0
 62
     0
 10
190.168
 20
30.9976
 30
0.0
 11
189.71
 21
30.8336
 31
0.0
  0
LINE
  8
0
 62
     0
 10
189.71
 20
30.8336
 30
0.0
 11
185.047
 21
29.4569
 31
0.0
  0
LINE
  8
0
 62
     0
 10
185.047
 20
29.4569
 30
0.0
 11
184.579
 21
29.326
 31
0.0
  0
LINE
  8
0
 62
     0
 10
184.579
 20
29.326
 30
0.0
 11
185.05
 21
29.4445
 31
0.0
  0
LINE
  8
0
 62
     0
 10
185.05
 20
29.4445
 30
0.0
 11
189.748
 21
30.7013
 31
0.0
  0
LINE
  8
0
 62
     0
 10
189.748
 20
30.7013
 30
0.0
 11
190.209
 21
30.8529
 31
0.0
  0
LINE
  8
0
 62
     0
 10
190.209
 20
30.8529
 30
0.0
 11
190.441
 21
30.9245
 31
0.0
  0
LINE
  8
0
 62
     0
 10
190.441
 20
30.9245
 30
0.0
 11
192.758
 21
31.6328
 31
0.0
  0
LINE
  8
0
 62
     0
 10
192.758
 20
31.6328
 30
0.0
 11
192.99
 21
31.7031
 31
0.0
  0
LINE
  8
0
 62
     0
 10
192.99
 20
31.7031
 30
0.0
 11
193.216
 21
31.7858
 31
0.0
  0
LINE
  8
0
 62
     0
 10
193.216
 20
31.7858
 30
0.0
 11
195.48
 21
32.614
 31
0.0
  0
LINE
  8
0
 62
     0
 10
195.48
 20
32.614
 30
0.0
 11
195.706
 21
32.6953
 31
0.0
  0
LINE
  8
0
 62
     0
 10
195.706
 20
32.6953
 30
0.0
 11
195.68
 21
32.7091
 31
0.0
  0
LINE
  8
0
 62
     0
 10
195.68
 20
32.7091
 30
0.0
 11
195.559
 21
32.7133
 31
0.0
  0
LINE
  8
0
 62
     0
 10
195.559
 20
32.7133
 30
0.0
 11
195.385
 21
32.727
 31
0.0
  0
LINE
  8
0
 62
     0
 10
195.385
 20
32.727
 30
0.0
 11
195.354
 21
32.7959
 31
0.0
  0
LINE
  8
0
 62
     0
 10
195.354
 20
32.7959
 30
0.0
 11
195.557
 21
32.9406
 31
0.0
  0
LINE
  8
0
 62
     0
 10
195.557
 20
32.9406
 30
0.0
 11
195.63
 21
32.9792
 31
0.0
  0
LINE
  8
0
 62
     0
 10
163.729
 20
26.0518
 30
0.0
 11
163.375
 21
26.0229
 31
0.0
  0
LINE
  8
0
 62
     0
 10
163.375
 20
26.0229
 30
0.0
 11
159.829
 21
25.9319
 31
0.0
  0
LINE
  8
0
 62
     0
 10
159.829
 20
25.9319
 30
0.0
 11
159.474
 21
25.9278
 31
0.0
  0
LINE
  8
0
 62
     0
 10
159.474
 20
25.9278
 30
0.0
 11
159.117
 21
25.9237
 31
0.0
  0
LINE
  8
0
 62
     0
 10
159.117
 20
25.9237
 30
0.0
 11
155.554
 21
25.9512
 31
0.0
  0
LINE
  8
0
 62
     0
 10
155.554
 20
25.9512
 30
0.0
 11
155.199
 21
25.9746
 31
0.0
  0
LINE
  8
0
 62
     0
 10
155.199
 20
25.9746
 30
0.0
 11
155.371
 21
25.9595
 31
0.0
  0
LINE
  8
0
 62
     0
 10
155.371
 20
25.9595
 30
0.0
 11
156.971
 21
25.8079
 31
0.0
  0
LINE
  8
0
 62
     0
 10
156.971
 20
25.8079
 30
0.0
 11
157.118
 21
25.7941
 31
0.0
  0
LINE
  8
0
 62
     0
 10
157.118
 20
25.7941
 30
0.0
 11
157.264
 21
25.7859
 31
0.0
  0
LINE
  8
0
 62
     0
 10
157.264
 20
25.7859
 30
0.0
 11
158.581
 21
25.6701
 31
0.0
  0
LINE
  8
0
 62
     0
 10
158.581
 20
25.6701
 30
0.0
 11
158.696
 21
25.6563
 31
0.0
  0
LINE
  8
0
 62
     0
 10
158.696
 20
25.6563
 30
0.0
 11
159.117
 21
25.6921
 31
0.0
  0
LINE
  8
0
 62
     0
 10
159.117
 20
25.6921
 30
0.0
 11
163.309
 21
25.9994
 31
0.0
  0
LINE
  8
0
 62
     0
 10
163.309
 20
25.9994
 30
0.0
 11
163.729
 21
26.0518
 31
0.0
  0
LINE
  8
0
 62
     0
 10
107.408
 20
39.1513
 30
0.0
 11
107.816
 21
38.9117
 31
0.0
  0
LINE
  8
0
 62
     0
 10
107.816
 20
38.9117
 30
0.0
 11
112.066
 21
36.6518
 31
0.0
  0
LINE
  8
0
 62
     0
 10
112.066
 20
36.6518
 30
0.0
 11
112.498
 21
36.4187
 31
0.0
  0
LINE
  8
0
 62
     0
 10
112.498
 20
36.4187
 30
0.0
 11
112.605
 21
36.3594
 31
0.0
  0
LINE
  8
0
 62
     0
 10
112.605
 20
36.3594
 30
0.0
 11
113.388
 21
36.0331
 31
0.0
  0
LINE
  8
0
 62
     0
 10
113.388
 20
36.0331
 30
0.0
 11
114.446
 21
35.6443
 31
0.0
  0
LINE
  8
0
 62
     0
 10
114.446
 20
35.6443
 30
0.0
 11
114.691
 21
35.5547
 31
0.0
  0
LINE
  8
0
 62
     0
 10
114.691
 20
35.5547
 30
0.0
 11
114.166
 21
35.7808
 31
0.0
  0
LINE
  8
0
 62
     0
 10
114.166
 20
35.7808
 30
0.0
 11
109.055
 21
38.348
 31
0.0
  0
LINE
  8
0
 62
     0
 10
109.055
 20
38.348
 30
0.0
 11
108.545
 21
38.6059
 31
0.0
  0
LINE
  8
0
 62
     0
 10
108.545
 20
38.6059
 30
0.0
 11
108.292
 21
38.7406
 31
0.0
  0
LINE
  8
0
 62
     0
 10
108.292
 20
38.7406
 30
0.0
 11
105.817
 21
40.1655
 31
0.0
  0
LINE
  8
0
 62
     0
 10
105.817
 20
40.1655
 30
0.0
 11
105.57
 21
40.3049
 31
0.0
  0
LINE
  8
0
 62
     0
 10
105.57
 20
40.3049
 30
0.0
 11
105.322
 21
40.4467
 31
0.0
  0
LINE
  8
0
 62
     0
 10
105.322
 20
40.4467
 30
0.0
 11
102.893
 21
41.9075
 31
0.0
  0
LINE
  8
0
 62
     0
 10
102.893
 20
41.9075
 30
0.0
 11
102.66
 21
42.0645
 31
0.0
  0
LINE
  8
0
 62
     0
 10
102.66
 20
42.0645
 30
0.0
 11
102.754
 21
42.0014
 31
0.0
  0
LINE
  8
0
 62
     0
 10
102.754
 20
42.0014
 30
0.0
 11
103.704
 21
41.366
 31
0.0
  0
LINE
  8
0
 62
     0
 10
103.704
 20
41.366
 30
0.0
 11
103.801
 21
41.3025
 31
0.0
  0
LINE
  8
0
 62
     0
 10
103.801
 20
41.3025
 30
0.0
 11
103.899
 21
41.2433
 31
0.0
  0
LINE
  8
0
 62
     0
 10
103.899
 20
41.2433
 30
0.0
 11
104.891
 21
40.652
 31
0.0
  0
LINE
  8
0
 62
     0
 10
104.891
 20
40.652
 30
0.0
 11
104.991
 21
40.5913
 31
0.0
  0
LINE
  8
0
 62
     0
 10
104.991
 20
40.5913
 30
0.0
 11
105.19
 21
40.4731
 31
0.0
  0
LINE
  8
0
 62
     0
 10
105.19
 20
40.4731
 30
0.0
 11
107.205
 21
39.2726
 31
0.0
  0
LINE
  8
0
 62
     0
 10
107.205
 20
39.2726
 30
0.0
 11
107.408
 21
39.1513
 31
0.0
  0
LINE
  8
0
 62
     0
 10
200.703
 20
129.632
 30
0.0
 11
201.508
 21
128.522
 31
0.0
  0
LINE
  8
0
 62
     0
 10
201.508
 20
128.522
 30
0.0
 11
203.668
 21
125.003
 31
0.0
  0
LINE
  8
0
 62
     0
 10
203.668
 20
125.003
 30
0.0
 11
205.978
 21
120.249
 31
0.0
  0
LINE
  8
0
 62
     0
 10
205.978
 20
120.249
 30
0.0
 11
207.644
 21
115.419
 31
0.0
  0
LINE
  8
0
 62
     0
 10
207.644
 20
115.419
 30
0.0
 11
208.682
 21
110.557
 31
0.0
  0
LINE
  8
0
 62
     0
 10
208.682
 20
110.557
 30
0.0
 11
209.106
 21
105.713
 31
0.0
  0
LINE
  8
0
 62
     0
 10
209.106
 20
105.713
 30
0.0
 11
208.931
 21
100.933
 31
0.0
  0
LINE
  8
0
 62
     0
 10
208.931
 20
100.933
 30
0.0
 11
208.171
 21
96.2642
 31
0.0
  0
LINE
  8
0
 62
     0
 10
208.171
 20
96.2642
 30
0.0
 11
206.839
 21
91.754
 31
0.0
  0
LINE
  8
0
 62
     0
 10
206.839
 20
91.754
 30
0.0
 11
204.953
 21
87.449
 31
0.0
  0
LINE
  8
0
 62
     0
 10
204.953
 20
87.449
 30
0.0
 11
202.523
 21
83.3949
 31
0.0
  0
LINE
  8
0
 62
     0
 10
202.523
 20
83.3949
 30
0.0
 11
199.566
 21
79.641
 31
0.0
  0
LINE
  8
0
 62
     0
 10
199.566
 20
79.641
 30
0.0
 11
196.098
 21
76.2332
 31
0.0
  0
LINE
  8
0
 62
     0
 10
196.098
 20
76.2332
 30
0.0
 11
192.129
 21
73.2194
 31
0.0
  0
LINE
  8
0
 62
     0
 10
192.129
 20
73.2194
 30
0.0
 11
187.678
 21
70.6466
 31
0.0
  0
LINE
  8
0
 62
     0
 10
187.678
 20
70.6466
 30
0.0
 11
182.755
 21
68.5602
 31
0.0
  0
LINE
  8
0
 62
     0
 10
182.755
 20
68.5602
 30
0.0
 11
178.741
 21
67.3171
 31
0.0
  0
LINE
  8
0
 62
     0
 10
178.741
 20
67.3171
 30
0.0
 11
177.38
 21
67.0084
 31
0.0
  0
LINE
  8
0
 62
     0
 10
177.38
 20
67.0084
 30
0.0
 11
176.737
 21
67.9319
 31
0.0
  0
LINE
  8
0
 62
     0
 10
176.737
 20
67.9319
 30
0.0
 11
175.092
 21
70.896
 31
0.0
  0
LINE
  8
0
 62
     0
 10
175.092
 20
70.896
 30
0.0
 11
173.615
 21
74.7434
 31
0.0
  0
LINE
  8
0
 62
     0
 10
173.615
 20
74.7434
 30
0.0
 11
172.883
 21
78.5594
 31
0.0
  0
LINE
  8
0
 62
     0
 10
172.883
 20
78.5594
 30
0.0
 11
172.829
 21
82.3542
 31
0.0
  0
LINE
  8
0
 62
     0
 10
172.829
 20
82.3542
 30
0.0
 11
173.386
 21
86.1385
 31
0.0
  0
LINE
  8
0
 62
     0
 10
173.386
 20
86.1385
 30
0.0
 11
174.486
 21
89.9185
 31
0.0
  0
LINE
  8
0
 62
     0
 10
174.486
 20
89.9185
 30
0.0
 11
176.064
 21
93.7066
 31
0.0
  0
LINE
  8
0
 62
     0
 10
176.064
 20
93.7066
 30
0.0
 11
178.052
 21
97.5099
 31
0.0
  0
LINE
  8
0
 62
     0
 10
178.052
 20
97.5099
 30
0.0
 11
180.382
 21
101.34
 31
0.0
  0
LINE
  8
0
 62
     0
 10
180.382
 20
101.34
 30
0.0
 11
182.991
 21
105.202
 31
0.0
  0
LINE
  8
0
 62
     0
 10
182.991
 20
105.202
 30
0.0
 11
185.808
 21
109.11
 31
0.0
  0
LINE
  8
0
 62
     0
 10
185.808
 20
109.11
 30
0.0
 11
188.768
 21
113.071
 31
0.0
  0
LINE
  8
0
 62
     0
 10
188.768
 20
113.071
 30
0.0
 11
191.805
 21
117.095
 31
0.0
  0
LINE
  8
0
 62
     0
 10
191.805
 20
117.095
 30
0.0
 11
194.85
 21
121.189
 31
0.0
  0
LINE
  8
0
 62
     0
 10
194.85
 20
121.189
 30
0.0
 11
197.838
 21
125.366
 31
0.0
  0
LINE
  8
0
 62
     0
 10
197.838
 20
125.366
 30
0.0
 11
200.007
 21
128.553
 31
0.0
  0
LINE
  8
0
 62
     0
 10
200.007
 20
128.553
 30
0.0
 11
200.703
 21
129.632
 31
0.0
  0
LINE
  8
0
 62
     0
 10
122.571
 20
73.2952
 30
0.0
 11
123.422
 21
72.7329
 31
0.0
  0
LINE
  8
0
 62
     0
 10
123.422
 20
72.7329
 30
0.0
 11
124.445
 21
72.07
 31
0.0
  0
LINE
  8
0
 62
     0
 10
124.445
 20
72.07
 30
0.0
 11
127.677
 21
70.3322
 31
0.0
  0
LINE
  8
0
 62
     0
 10
127.677
 20
70.3322
 30
0.0
 11
132.128
 21
68.5176
 31
0.0
  0
LINE
  8
0
 62
     0
 10
132.128
 20
68.5176
 30
0.0
 11
136.774
 21
67.291
 31
0.0
  0
LINE
  8
0
 62
     0
 10
136.774
 20
67.291
 30
0.0
 11
140.401
 21
66.7371
 31
0.0
  0
LINE
  8
0
 62
     0
 10
140.401
 20
66.7371
 30
0.0
 11
141.618
 21
66.6517
 31
0.0
  0
LINE
  8
0
 62
     0
 10
141.618
 20
66.6517
 30
0.0
 11
141.268
 21
67.3791
 31
0.0
  0
LINE
  8
0
 62
     0
 10
141.268
 20
67.3791
 30
0.0
 11
139.823
 21
71.1137
 31
0.0
  0
LINE
  8
0
 62
     0
 10
139.823
 20
71.1137
 30
0.0
 11
138.777
 21
74.979
 31
0.0
  0
LINE
  8
0
 62
     0
 10
138.777
 20
74.979
 30
0.0
 11
138.628
 21
75.7714
 31
0.0
  0
LINE
  8
0
 62
     0
 10
138.628
 20
75.7714
 30
0.0
 11
138.478
 21
76.5651
 31
0.0
  0
LINE
  8
0
 62
     0
 10
138.478
 20
76.5651
 30
0.0
 11
138.029
 21
84.5495
 31
0.0
  0
LINE
  8
0
 62
     0
 10
138.029
 20
84.5495
 30
0.0
 11
138.089
 21
85.3542
 31
0.0
  0
LINE
  8
0
 62
     0
 10
138.089
 20
85.3542
 30
0.0
 11
138.148
 21
86.1589
 31
0.0
  0
LINE
  8
0
 62
     0
 10
138.148
 20
86.1589
 30
0.0
 11
138.755
 21
90.1167
 31
0.0
  0
LINE
  8
0
 62
     0
 10
138.755
 20
90.1167
 30
0.0
 11
139.772
 21
93.9906
 31
0.0
  0
LINE
  8
0
 62
     0
 10
139.772
 20
93.9906
 30
0.0
 11
140.038
 21
94.7512
 31
0.0
  0
LINE
  8
0
 62
     0
 10
140.038
 20
94.7512
 30
0.0
 11
140.302
 21
95.5132
 31
0.0
  0
LINE
  8
0
 62
     0
 10
140.302
 20
95.5132
 30
0.0
 11
141.909
 21
99.1828
 31
0.0
  0
LINE
  8
0
 62
     0
 10
141.909
 20
99.1828
 30
0.0
 11
143.891
 21
102.663
 31
0.0
  0
LINE
  8
0
 62
     0
 10
143.891
 20
102.663
 30
0.0
 11
144.344
 21
103.329
 31
0.0
  0
LINE
  8
0
 62
     0
 10
144.344
 20
103.329
 30
0.0
 11
165.283
 21
133.993
 31
0.0
  0
LINE
  8
0
 62
     0
 10
165.283
 20
133.993
 30
0.0
 11
165.974
 21
135.029
 31
0.0
  0
LINE
  8
0
 62
     0
 10
165.974
 20
135.029
 30
0.0
 11
168.754
 21
140.476
 31
0.0
  0
LINE
  8
0
 62
     0
 10
168.754
 20
140.476
 30
0.0
 11
170.64
 21
146.295
 31
0.0
  0
LINE
  8
0
 62
     0
 10
170.64
 20
146.295
 30
0.0
 11
170.882
 21
147.515
 31
0.0
  0
LINE
  8
0
 62
     0
 10
170.882
 20
147.515
 30
0.0
 11
171.123
 21
148.734
 31
0.0
  0
LINE
  8
0
 62
     0
 10
171.123
 20
148.734
 30
0.0
 11
171.607
 21
154.832
 31
0.0
  0
LINE
  8
0
 62
     0
 10
171.607
 20
154.832
 30
0.0
 11
171.119
 21
160.93
 31
0.0
  0
LINE
  8
0
 62
     0
 10
171.119
 20
160.93
 30
0.0
 11
170.877
 21
162.15
 31
0.0
  0
LINE
  8
0
 62
     0
 10
170.877
 20
162.15
 30
0.0
 11
170.633
 21
163.369
 31
0.0
  0
LINE
  8
0
 62
     0
 10
170.633
 20
163.369
 30
0.0
 11
168.743
 21
169.187
 31
0.0
  0
LINE
  8
0
 62
     0
 10
168.743
 20
169.187
 30
0.0
 11
165.959
 21
174.633
 31
0.0
  0
LINE
  8
0
 62
     0
 10
165.959
 20
174.633
 30
0.0
 11
165.267
 21
175.667
 31
0.0
  0
LINE
  8
0
 62
     0
 10
165.267
 20
175.667
 30
0.0
 11
164.575
 21
176.7
 31
0.0
  0
LINE
  8
0
 62
     0
 10
164.575
 20
176.7
 30
0.0
 11
160.601
 21
181.351
 31
0.0
  0
LINE
  8
0
 62
     0
 10
160.601
 20
181.351
 30
0.0
 11
155.942
 21
185.315
 31
0.0
  0
LINE
  8
0
 62
     0
 10
155.942
 20
185.315
 30
0.0
 11
154.908
 21
186.004
 31
0.0
  0
LINE
  8
0
 62
     0
 10
154.908
 20
186.004
 30
0.0
 11
154.073
 21
186.549
 31
0.0
  0
LINE
  8
0
 62
     0
 10
154.073
 20
186.549
 30
0.0
 11
153.049
 21
187.214
 31
0.0
  0
LINE
  8
0
 62
     0
 10
153.049
 20
187.214
 30
0.0
 11
149.818
 21
188.952
 31
0.0
  0
LINE
  8
0
 62
     0
 10
149.818
 20
188.952
 30
0.0
 11
145.368
 21
190.766
 31
0.0
  0
LINE
  8
0
 62
     0
 10
145.368
 20
190.766
 30
0.0
 11
140.72
 21
191.992
 31
0.0
  0
LINE
  8
0
 62
     0
 10
140.72
 20
191.992
 30
0.0
 11
137.093
 21
192.546
 31
0.0
  0
LINE
  8
0
 62
     0
 10
137.093
 20
192.546
 30
0.0
 11
135.877
 21
192.63
 31
0.0
  0
LINE
  8
0
 62
     0
 10
135.877
 20
192.63
 30
0.0
 11
136.226
 21
191.903
 31
0.0
  0
LINE
  8
0
 62
     0
 10
136.226
 20
191.903
 30
0.0
 11
137.67
 21
188.166
 31
0.0
  0
LINE
  8
0
 62
     0
 10
137.67
 20
188.166
 30
0.0
 11
138.715
 21
184.297
 31
0.0
  0
LINE
  8
0
 62
     0
 10
138.715
 20
184.297
 30
0.0
 11
138.864
 21
183.504
 31
0.0
  0
LINE
  8
0
 62
     0
 10
138.864
 20
183.504
 30
0.0
 11
139.012
 21
182.711
 31
0.0
  0
LINE
  8
0
 62
     0
 10
139.012
 20
182.711
 30
0.0
 11
139.456
 21
174.72
 31
0.0
  0
LINE
  8
0
 62
     0
 10
139.456
 20
174.72
 30
0.0
 11
139.396
 21
173.915
 31
0.0
  0
LINE
  8
0
 62
     0
 10
139.396
 20
173.915
 30
0.0
 11
139.335
 21
173.111
 31
0.0
  0
LINE
  8
0
 62
     0
 10
139.335
 20
173.111
 30
0.0
 11
138.723
 21
169.151
 31
0.0
  0
LINE
  8
0
 62
     0
 10
138.723
 20
169.151
 30
0.0
 11
137.702
 21
165.276
 31
0.0
  0
LINE
  8
0
 62
     0
 10
137.702
 20
165.276
 30
0.0
 11
137.436
 21
164.514
 31
0.0
  0
LINE
  8
0
 62
     0
 10
137.436
 20
164.514
 30
0.0
 11
137.168
 21
163.752
 31
0.0
  0
LINE
  8
0
 62
     0
 10
137.168
 20
163.752
 30
0.0
 11
135.558
 21
160.084
 31
0.0
  0
LINE
  8
0
 62
     0
 10
135.558
 20
160.084
 30
0.0
 11
133.57
 21
156.604
 31
0.0
  0
LINE
  8
0
 62
     0
 10
133.57
 20
156.604
 30
0.0
 11
133.117
 21
155.936
 31
0.0
  0
LINE
  8
0
 62
     0
 10
133.117
 20
155.936
 30
0.0
 11
112.179
 21
125.272
 31
0.0
  0
LINE
  8
0
 62
     0
 10
112.179
 20
125.272
 30
0.0
 11
111.489
 21
124.238
 31
0.0
  0
LINE
  8
0
 62
     0
 10
111.489
 20
124.238
 30
0.0
 11
108.715
 21
118.791
 31
0.0
  0
LINE
  8
0
 62
     0
 10
108.715
 20
118.791
 30
0.0
 11
106.837
 21
112.974
 31
0.0
  0
LINE
  8
0
 62
     0
 10
106.837
 20
112.974
 30
0.0
 11
106.595
 21
111.755
 31
0.0
  0
LINE
  8
0
 62
     0
 10
106.595
 20
111.755
 30
0.0
 11
106.353
 21
110.537
 31
0.0
  0
LINE
  8
0
 62
     0
 10
106.353
 20
110.537
 30
0.0
 11
105.875
 21
104.443
 31
0.0
  0
LINE
  8
0
 62
     0
 10
105.875
 20
104.443
 30
0.0
 11
106.365
 21
98.3506
 31
0.0
  0
LINE
  8
0
 62
     0
 10
106.365
 20
98.3506
 30
0.0
 11
106.609
 21
97.131
 31
0.0
  0
LINE
  8
0
 62
     0
 10
106.609
 20
97.131
 30
0.0
 11
106.852
 21
95.9129
 31
0.0
  0
LINE
  8
0
 62
     0
 10
106.852
 20
95.9129
 30
0.0
 11
108.742
 21
90.0987
 31
0.0
  0
LINE
  8
0
 62
     0
 10
108.742
 20
90.0987
 30
0.0
 11
111.528
 21
84.6586
 31
0.0
  0
LINE
  8
0
 62
     0
 10
111.528
 20
84.6586
 30
0.0
 11
112.219
 21
83.6249
 31
0.0
  0
LINE
  8
0
 62
     0
 10
112.219
 20
83.6249
 30
0.0
 11
112.91
 21
82.5927
 31
0.0
  0
LINE
  8
0
 62
     0
 10
112.91
 20
82.5927
 30
0.0
 11
116.881
 21
77.9459
 31
0.0
  0
LINE
  8
0
 62
     0
 10
116.881
 20
77.9459
 30
0.0
 11
121.536
 21
73.9856
 31
0.0
  0
LINE
  8
0
 62
     0
 10
121.536
 20
73.9856
 30
0.0
 11
122.571
 21
73.2952
 31
0.0
  0
LINE
  8
0
 62
     0
 10
122.571
 20
73.2952
 30
0.0
 11
122.571
 21
73.2952
 31
0.0
  0
LINE
  8
0
 62
     0
 10
176.306
 20
108.645
 30
0.0
 11
176.379
 21
108.645
 31
0.0
  0
LINE
  8
0
 62
     0
 10
176.379
 20
108.645
 30
0.0
 11
176.601
 21
109
 31
0.0
  0
LINE
  8
0
 62
     0
 10
176.601
 20
109
 30
0.0
 11
177.334
 21
109.976
 31
0.0
  0
LINE
  8
0
 62
     0
 10
177.334
 20
109.976
 30
0.0
 11
178.408
 21
111.441
 31
0.0
  0
LINE
  8
0
 62
     0
 10
178.408
 20
111.441
 30
0.0
 11
179.722
 21
113.26
 31
0.0
  0
LINE
  8
0
 62
     0
 10
179.722
 20
113.26
 30
0.0
 11
181.183
 21
115.302
 31
0.0
  0
LINE
  8
0
 62
     0
 10
181.183
 20
115.302
 30
0.0
 11
182.689
 21
117.435
 31
0.0
  0
LINE
  8
0
 62
     0
 10
182.689
 20
117.435
 30
0.0
 11
184.146
 21
119.524
 31
0.0
  0
LINE
  8
0
 62
     0
 10
184.146
 20
119.524
 30
0.0
 11
185.131
 21
120.959
 31
0.0
  0
LINE
  8
0
 62
     0
 10
185.131
 20
120.959
 30
0.0
 11
185.455
 21
121.438
 31
0.0
  0
LINE
  8
0
 62
     0
 10
185.455
 20
121.438
 30
0.0
 11
194.262
 21
134.419
 31
0.0
  0
LINE
  8
0
 62
     0
 10
194.262
 20
134.419
 30
0.0
 11
194.735
 21
135.115
 31
0.0
  0
LINE
  8
0
 62
     0
 10
194.735
 20
135.115
 30
0.0
 11
195.946
 21
137.343
 31
0.0
  0
LINE
  8
0
 62
     0
 10
195.946
 20
137.343
 30
0.0
 11
197.006
 21
140.181
 31
0.0
  0
LINE
  8
0
 62
     0
 10
197.006
 20
140.181
 30
0.0
 11
197.509
 21
142.919
 31
0.0
  0
LINE
  8
0
 62
     0
 10
197.509
 20
142.919
 30
0.0
 11
197.52
 21
145.544
 31
0.0
  0
LINE
  8
0
 62
     0
 10
197.52
 20
145.544
 30
0.0
 11
197.106
 21
148.041
 31
0.0
  0
LINE
  8
0
 62
     0
 10
197.106
 20
148.041
 30
0.0
 11
196.336
 21
150.398
 31
0.0
  0
LINE
  8
0
 62
     0
 10
196.336
 20
150.398
 30
0.0
 11
195.275
 21
152.599
 31
0.0
  0
LINE
  8
0
 62
     0
 10
195.275
 20
152.599
 30
0.0
 11
193.989
 21
154.631
 31
0.0
  0
LINE
  8
0
 62
     0
 10
193.989
 20
154.631
 30
0.0
 11
192.546
 21
156.48
 31
0.0
  0
LINE
  8
0
 62
     0
 10
192.546
 20
156.48
 30
0.0
 11
191.013
 21
158.133
 31
0.0
  0
LINE
  8
0
 62
     0
 10
191.013
 20
158.133
 30
0.0
 11
189.455
 21
159.573
 31
0.0
  0
LINE
  8
0
 62
     0
 10
189.455
 20
159.573
 30
0.0
 11
187.942
 21
160.789
 31
0.0
  0
LINE
  8
0
 62
     0
 10
187.942
 20
160.789
 30
0.0
 11
186.537
 21
161.767
 31
0.0
  0
LINE
  8
0
 62
     0
 10
186.537
 20
161.767
 30
0.0
 11
185.309
 21
162.491
 31
0.0
  0
LINE
  8
0
 62
     0
 10
185.309
 20
162.491
 30
0.0
 11
184.324
 21
162.949
 31
0.0
  0
LINE
  8
0
 62
     0
 10
184.324
 20
162.949
 30
0.0
 11
183.819
 21
163.116
 31
0.0
  0
LINE
  8
0
 62
     0
 10
183.819
 20
163.116
 30
0.0
 11
183.648
 21
163.125
 31
0.0
  0
LINE
  8
0
 62
     0
 10
183.648
 20
163.125
 30
0.0
 11
183.878
 21
162.643
 31
0.0
  0
LINE
  8
0
 62
     0
 10
183.878
 20
162.643
 30
0.0
 11
184.322
 21
161.075
 31
0.0
  0
LINE
  8
0
 62
     0
 10
184.322
 20
161.075
 30
0.0
 11
184.61
 21
158.681
 31
0.0
  0
LINE
  8
0
 62
     0
 10
184.61
 20
158.681
 30
0.0
 11
184.555
 21
156.061
 31
0.0
  0
LINE
  8
0
 62
     0
 10
184.555
 20
156.061
 30
0.0
 11
184.197
 21
153.332
 31
0.0
  0
LINE
  8
0
 62
     0
 10
184.197
 20
153.332
 30
0.0
 11
183.58
 21
150.61
 31
0.0
  0
LINE
  8
0
 62
     0
 10
183.58
 20
150.61
 30
0.0
 11
182.743
 21
148.012
 31
0.0
  0
LINE
  8
0
 62
     0
 10
182.743
 20
148.012
 30
0.0
 11
181.729
 21
145.655
 31
0.0
  0
LINE
  8
0
 62
     0
 10
181.729
 20
145.655
 30
0.0
 11
180.903
 21
144.131
 31
0.0
  0
LINE
  8
0
 62
     0
 10
180.903
 20
144.131
 30
0.0
 11
180.582
 21
143.654
 31
0.0
  0
LINE
  8
0
 62
     0
 10
180.582
 20
143.654
 30
0.0
 11
171.774
 21
130.671
 31
0.0
  0
LINE
  8
0
 62
     0
 10
171.774
 20
130.671
 30
0.0
 11
171.483
 21
130.231
 31
0.0
  0
LINE
  8
0
 62
     0
 10
171.483
 20
130.231
 30
0.0
 11
170.321
 21
127.914
 31
0.0
  0
LINE
  8
0
 62
     0
 10
170.321
 20
127.914
 30
0.0
 11
169.539
 21
125.441
 31
0.0
  0
LINE
  8
0
 62
     0
 10
169.539
 20
125.441
 30
0.0
 11
169.44
 21
124.923
 31
0.0
  0
LINE
  8
0
 62
     0
 10
169.44
 20
124.923
 30
0.0
 11
169.34
 21
124.406
 31
0.0
  0
LINE
  8
0
 62
     0
 10
169.34
 20
124.406
 30
0.0
 11
169.375
 21
119.237
 31
0.0
  0
LINE
  8
0
 62
     0
 10
169.375
 20
119.237
 30
0.0
 11
169.481
 21
118.721
 31
0.0
  0
LINE
  8
0
 62
     0
 10
169.481
 20
118.721
 30
0.0
 11
169.587
 21
118.205
 31
0.0
  0
LINE
  8
0
 62
     0
 10
169.587
 20
118.205
 30
0.0
 11
170.403
 21
115.743
 31
0.0
  0
LINE
  8
0
 62
     0
 10
170.403
 20
115.743
 30
0.0
 11
171.596
 21
113.441
 31
0.0
  0
LINE
  8
0
 62
     0
 10
171.596
 20
113.441
 30
0.0
 11
171.892
 21
113.005
 31
0.0
  0
LINE
  8
0
 62
     0
 10
171.892
 20
113.005
 30
0.0
 11
172.187
 21
112.569
 31
0.0
  0
LINE
  8
0
 62
     0
 10
172.187
 20
112.569
 30
0.0
 11
173.882
 21
110.605
 31
0.0
  0
LINE
  8
0
 62
     0
 10
173.882
 20
110.605
 30
0.0
 11
175.865
 21
108.935
 31
0.0
  0
LINE
  8
0
 62
     0
 10
175.865
 20
108.935
 30
0.0
 11
176.306
 21
108.645
 31
0.0
  0
LINE
  8
0
 62
     0
 10
366.889
 20
156.542
 30
0.0
 11
366.134
 21
156.934
 31
0.0
  0
LINE
  8
0
 62
     0
 10
366.134
 20
156.934
 30
0.0
 11
363.827
 21
158.035
 31
0.0
  0
LINE
  8
0
 62
     0
 10
363.827
 20
158.035
 30
0.0
 11
360.101
 21
159.424
 31
0.0
  0
LINE
  8
0
 62
     0
 10
360.101
 20
159.424
 30
0.0
 11
355.466
 21
160.448
 31
0.0
  0
LINE
  8
0
 62
     0
 10
355.466
 20
160.448
 30
0.0
 11
351.119
 21
160.846
 31
0.0
  0
LINE
  8
0
 62
     0
 10
351.119
 20
160.846
 30
0.0
 11
349.67
 21
160.846
 31
0.0
  0
LINE
  8
0
 62
     0
 10
349.67
 20
160.846
 30
0.0
 11
347.942
 21
160.846
 31
0.0
  0
LINE
  8
0
 62
     0
 10
347.942
 20
160.846
 30
0.0
 11
342.761
 21
160.167
 31
0.0
  0
LINE
  8
0
 62
     0
 10
342.761
 20
160.167
 30
0.0
 11
336.775
 21
158.246
 31
0.0
  0
LINE
  8
0
 62
     0
 10
336.775
 20
158.246
 30
0.0
 11
331.707
 21
155.259
 31
0.0
  0
LINE
  8
0
 62
     0
 10
331.707
 20
155.259
 30
0.0
 11
327.564
 21
151.387
 31
0.0
  0
LINE
  8
0
 62
     0
 10
327.564
 20
151.387
 30
0.0
 11
324.339
 21
146.804
 31
0.0
  0
LINE
  8
0
 62
     0
 10
324.339
 20
146.804
 30
0.0
 11
322.036
 21
141.69
 31
0.0
  0
LINE
  8
0
 62
     0
 10
322.036
 20
141.69
 30
0.0
 11
320.654
 21
136.221
 31
0.0
  0
LINE
  8
0
 62
     0
 10
320.654
 20
136.221
 30
0.0
 11
320.194
 21
130.575
 31
0.0
  0
LINE
  8
0
 62
     0
 10
320.194
 20
130.575
 30
0.0
 11
320.654
 21
124.929
 31
0.0
  0
LINE
  8
0
 62
     0
 10
320.654
 20
124.929
 30
0.0
 11
322.036
 21
119.459
 31
0.0
  0
LINE
  8
0
 62
     0
 10
322.036
 20
119.459
 30
0.0
 11
324.339
 21
114.346
 31
0.0
  0
LINE
  8
0
 62
     0
 10
324.339
 20
114.346
 30
0.0
 11
327.564
 21
109.762
 31
0.0
  0
LINE
  8
0
 62
     0
 10
327.564
 20
109.762
 30
0.0
 11
331.707
 21
105.89
 31
0.0
  0
LINE
  8
0
 62
     0
 10
331.707
 20
105.89
 30
0.0
 11
336.775
 21
102.904
 31
0.0
  0
LINE
  8
0
 62
     0
 10
336.775
 20
102.904
 30
0.0
 11
342.761
 21
100.983
 31
0.0
  0
LINE
  8
0
 62
     0
 10
342.761
 20
100.983
 30
0.0
 11
347.942
 21
100.302
 31
0.0
  0
LINE
  8
0
 62
     0
 10
347.942
 20
100.302
 30
0.0
 11
349.67
 21
100.302
 31
0.0
  0
LINE
  8
0
 62
     0
 10
349.67
 20
100.302
 30
0.0
 11
351.195
 21
100.302
 31
0.0
  0
LINE
  8
0
 62
     0
 10
351.195
 20
100.302
 30
0.0
 11
355.769
 21
100.724
 31
0.0
  0
LINE
  8
0
 62
     0
 10
355.769
 20
100.724
 30
0.0
 11
361.075
 21
101.796
 31
0.0
  0
LINE
  8
0
 62
     0
 10
361.075
 20
101.796
 30
0.0
 11
365.467
 21
103.232
 31
0.0
  0
LINE
  8
0
 62
     0
 10
365.467
 20
103.232
 30
0.0
 11
368.018
 21
104.323
 31
0.0
  0
LINE
  8
0
 62
     0
 10
368.018
 20
104.323
 30
0.0
 11
368.836
 21
104.746
 31
0.0
  0
LINE
  8
0
 62
     0
 10
368.836
 20
104.746
 30
0.0
 11
371.475
 21
84.1939
 31
0.0
  0
LINE
  8
0
 62
     0
 10
371.475
 20
84.1939
 30
0.0
 11
370.251
 21
83.6951
 31
0.0
  0
LINE
  8
0
 62
     0
 10
370.251
 20
83.6951
 30
0.0
 11
366.466
 21
82.4893
 31
0.0
  0
LINE
  8
0
 62
     0
 10
366.466
 20
82.4893
 30
0.0
 11
360.885
 21
81.1749
 31
0.0
  0
LINE
  8
0
 62
     0
 10
360.885
 20
81.1749
 30
0.0
 11
355.145
 21
80.3286
 31
0.0
  0
LINE
  8
0
 62
     0
 10
355.145
 20
80.3286
 30
0.0
 11
351.039
 21
80.0283
 31
0.0
  0
LINE
  8
0
 62
     0
 10
351.039
 20
80.0283
 30
0.0
 11
349.67
 21
80.0283
 31
0.0
  0
LINE
  8
0
 62
     0
 10
349.67
 20
80.0283
 30
0.0
 11
348.141
 21
80.0283
 31
0.0
  0
LINE
  8
0
 62
     0
 10
348.141
 20
80.0283
 30
0.0
 11
343.553
 21
80.3176
 31
0.0
  0
LINE
  8
0
 62
     0
 10
343.553
 20
80.3176
 30
0.0
 11
337.832
 21
81.1611
 31
0.0
  0
LINE
  8
0
 62
     0
 10
337.832
 20
81.1611
 30
0.0
 11
332.505
 21
82.5211
 31
0.0
  0
LINE
  8
0
 62
     0
 10
332.505
 20
82.5211
 30
0.0
 11
327.575
 21
84.3608
 31
0.0
  0
LINE
  8
0
 62
     0
 10
327.575
 20
84.3608
 30
0.0
 11
323.04
 21
86.644
 31
0.0
  0
LINE
  8
0
 62
     0
 10
323.04
 20
86.644
 30
0.0
 11
318.899
 21
89.3329
 31
0.0
  0
LINE
  8
0
 62
     0
 10
318.899
 20
89.3329
 30
0.0
 11
315.153
 21
92.3907
 31
0.0
  0
LINE
  8
0
 62
     0
 10
315.153
 20
92.3907
 30
0.0
 11
311.803
 21
95.7806
 31
0.0
  0
LINE
  8
0
 62
     0
 10
311.803
 20
95.7806
 30
0.0
 11
308.847
 21
99.4668
 31
0.0
  0
LINE
  8
0
 62
     0
 10
308.847
 20
99.4668
 30
0.0
 11
306.287
 21
103.411
 31
0.0
  0
LINE
  8
0
 62
     0
 10
306.287
 20
103.411
 30
0.0
 11
304.121
 21
107.576
 31
0.0
  0
LINE
  8
0
 62
     0
 10
304.121
 20
107.576
 30
0.0
 11
302.349
 21
111.927
 31
0.0
  0
LINE
  8
0
 62
     0
 10
302.349
 20
111.927
 30
0.0
 11
300.972
 21
116.425
 31
0.0
  0
LINE
  8
0
 62
     0
 10
300.972
 20
116.425
 30
0.0
 11
299.989
 21
121.035
 31
0.0
  0
LINE
  8
0
 62
     0
 10
299.989
 20
121.035
 30
0.0
 11
299.401
 21
125.717
 31
0.0
  0
LINE
  8
0
 62
     0
 10
299.401
 20
125.717
 30
0.0
 11
299.207
 21
130.435
 31
0.0
  0
LINE
  8
0
 62
     0
 10
299.207
 20
130.435
 30
0.0
 11
299.408
 21
135.155
 31
0.0
  0
LINE
  8
0
 62
     0
 10
299.408
 20
135.155
 30
0.0
 11
300.002
 21
139.838
 31
0.0
  0
LINE
  8
0
 62
     0
 10
300.002
 20
139.838
 30
0.0
 11
300.991
 21
144.447
 31
0.0
  0
LINE
  8
0
 62
     0
 10
300.991
 20
144.447
 30
0.0
 11
302.373
 21
148.945
 31
0.0
  0
LINE
  8
0
 62
     0
 10
302.373
 20
148.945
 30
0.0
 11
304.149
 21
153.296
 31
0.0
  0
LINE
  8
0
 62
     0
 10
304.149
 20
153.296
 30
0.0
 11
306.32
 21
157.462
 31
0.0
  0
LINE
  8
0
 62
     0
 10
306.32
 20
157.462
 30
0.0
 11
308.884
 21
161.405
 31
0.0
  0
LINE
  8
0
 62
     0
 10
308.884
 20
161.405
 30
0.0
 11
311.842
 21
165.092
 31
0.0
  0
LINE
  8
0
 62
     0
 10
311.842
 20
165.092
 30
0.0
 11
315.193
 21
168.482
 31
0.0
  0
LINE
  8
0
 62
     0
 10
315.193
 20
168.482
 30
0.0
 11
318.939
 21
171.54
 31
0.0
  0
LINE
  8
0
 62
     0
 10
318.939
 20
171.54
 30
0.0
 11
323.077
 21
174.228
 31
0.0
  0
LINE
  8
0
 62
     0
 10
323.077
 20
174.228
 30
0.0
 11
327.609
 21
176.512
 31
0.0
  0
LINE
  8
0
 62
     0
 10
327.609
 20
176.512
 30
0.0
 11
332.534
 21
178.351
 31
0.0
  0
LINE
  8
0
 62
     0
 10
332.534
 20
178.351
 30
0.0
 11
337.854
 21
179.711
 31
0.0
  0
LINE
  8
0
 62
     0
 10
337.854
 20
179.711
 30
0.0
 11
343.564
 21
180.555
 31
0.0
  0
LINE
  8
0
 62
     0
 10
343.564
 20
180.555
 30
0.0
 11
348.143
 21
180.843
 31
0.0
  0
LINE
  8
0
 62
     0
 10
348.143
 20
180.843
 30
0.0
 11
349.67
 21
180.843
 31
0.0
  0
LINE
  8
0
 62
     0
 10
349.67
 20
180.843
 30
0.0
 11
350.957
 21
180.843
 31
0.0
  0
LINE
  8
0
 62
     0
 10
350.957
 20
180.843
 30
0.0
 11
354.82
 21
180.607
 31
0.0
  0
LINE
  8
0
 62
     0
 10
354.82
 20
180.607
 30
0.0
 11
359.826
 21
179.889
 31
0.0
  0
LINE
  8
0
 62
     0
 10
359.826
 20
179.889
 30
0.0
 11
364.649
 21
178.676
 31
0.0
  0
LINE
  8
0
 62
     0
 10
364.649
 20
178.676
 30
0.0
 11
368.131
 21
177.451
 31
0.0
  0
LINE
  8
0
 62
     0
 10
368.131
 20
177.451
 30
0.0
 11
369.252
 21
176.955
 31
0.0
  0
LINE
  8
0
 62
     0
 10
369.252
 20
176.955
 30
0.0
 11
366.889
 21
156.542
 31
0.0
  0
LINE
  8
0
 62
     0
 10
366.889
 20
156.542
 30
0.0
 11
366.889
 21
156.542
 31
0.0
  0
LINE
  8
0
 62
     0
 10
459.243
 20
80.3053
 30
0.0
 11
436.746
 21
80.3053
 31
0.0
  0
LINE
  8
0
 62
     0
 10
436.746
 20
80.3053
 30
0.0
 11
416.747
 21
118.215
 31
0.0
  0
LINE
  8
0
 62
     0
 10
416.747
 20
118.215
 30
0.0
 11
407.162
 21
118.215
 31
0.0
  0
LINE
  8
0
 62
     0
 10
407.162
 20
118.215
 30
0.0
 11
407.162
 21
80.3053
 31
0.0
  0
LINE
  8
0
 62
     0
 10
407.162
 20
80.3053
 30
0.0
 11
387.304
 21
80.3053
 31
0.0
  0
LINE
  8
0
 62
     0
 10
387.304
 20
80.3053
 30
0.0
 11
387.304
 21
179.593
 31
0.0
  0
LINE
  8
0
 62
     0
 10
387.304
 20
179.593
 30
0.0
 11
426.466
 21
179.593
 31
0.0
  0
LINE
  8
0
 62
     0
 10
426.466
 20
179.593
 30
0.0
 11
428.032
 21
179.593
 31
0.0
  0
LINE
  8
0
 62
     0
 10
428.032
 20
179.593
 30
0.0
 11
432.731
 21
179.032
 31
0.0
  0
LINE
  8
0
 62
     0
 10
432.731
 20
179.032
 30
0.0
 11
438.249
 21
177.435
 31
0.0
  0
LINE
  8
0
 62
     0
 10
438.249
 20
177.435
 30
0.0
 11
443.015
 21
174.937
 31
0.0
  0
LINE
  8
0
 62
     0
 10
443.015
 20
174.937
 30
0.0
 11
447.026
 21
171.672
 31
0.0
  0
LINE
  8
0
 62
     0
 10
447.026
 20
171.672
 30
0.0
 11
450.286
 21
167.772
 31
0.0
  0
LINE
  8
0
 62
     0
 10
450.286
 20
167.772
 30
0.0
 11
452.794
 21
163.373
 31
0.0
  0
LINE
  8
0
 62
     0
 10
452.794
 20
163.373
 30
0.0
 11
454.547
 21
158.608
 31
0.0
  0
LINE
  8
0
 62
     0
 10
454.547
 20
158.608
 30
0.0
 11
455.542
 21
153.609
 31
0.0
  0
LINE
  8
0
 62
     0
 10
455.542
 20
153.609
 30
0.0
 11
455.782
 21
148.511
 31
0.0
  0
LINE
  8
0
 62
     0
 10
455.782
 20
148.511
 30
0.0
 11
455.267
 21
143.447
 31
0.0
  0
LINE
  8
0
 62
     0
 10
455.267
 20
143.447
 30
0.0
 11
453.986
 21
138.551
 31
0.0
  0
LINE
  8
0
 62
     0
 10
453.986
 20
138.551
 30
0.0
 11
451.951
 21
133.958
 31
0.0
  0
LINE
  8
0
 62
     0
 10
451.951
 20
133.958
 30
0.0
 11
449.153
 21
129.799
 31
0.0
  0
LINE
  8
0
 62
     0
 10
449.153
 20
129.799
 30
0.0
 11
445.597
 21
126.209
 31
0.0
  0
LINE
  8
0
 62
     0
 10
445.597
 20
126.209
 30
0.0
 11
441.272
 21
123.322
 31
0.0
  0
LINE
  8
0
 62
     0
 10
441.272
 20
123.322
 30
0.0
 11
437.497
 21
121.65
 31
0.0
  0
LINE
  8
0
 62
     0
 10
437.497
 20
121.65
 30
0.0
 11
436.189
 21
121.27
 31
0.0
  0
LINE
  8
0
 62
     0
 10
436.189
 20
121.27
 30
0.0
 11
459.243
 21
80.3053
 31
0.0
  0
LINE
  8
0
 62
     0
 10
407.162
 20
159.735
 30
0.0
 11
407.162
 21
137.517
 31
0.0
  0
LINE
  8
0
 62
     0
 10
407.162
 20
137.517
 30
0.0
 11
424.663
 21
137.517
 31
0.0
  0
LINE
  8
0
 62
     0
 10
424.663
 20
137.517
 30
0.0
 11
425.252
 21
137.517
 31
0.0
  0
LINE
  8
0
 62
     0
 10
425.252
 20
137.517
 30
0.0
 11
427.03
 21
137.768
 31
0.0
  0
LINE
  8
0
 62
     0
 10
427.03
 20
137.768
 30
0.0
 11
429.08
 21
138.472
 31
0.0
  0
LINE
  8
0
 62
     0
 10
429.08
 20
138.472
 30
0.0
 11
430.816
 21
139.568
 31
0.0
  0
LINE
  8
0
 62
     0
 10
430.816
 20
139.568
 30
0.0
 11
432.237
 21
140.99
 31
0.0
  0
LINE
  8
0
 62
     0
 10
432.237
 20
140.99
 30
0.0
 11
433.345
 21
142.671
 31
0.0
  0
LINE
  8
0
 62
     0
 10
433.345
 20
142.671
 30
0.0
 11
434.132
 21
144.548
 31
0.0
  0
LINE
  8
0
 62
     0
 10
434.132
 20
144.548
 30
0.0
 11
434.605
 21
146.554
 31
0.0
  0
LINE
  8
0
 62
     0
 10
434.605
 20
146.554
 30
0.0
 11
434.763
 21
148.627
 31
0.0
  0
LINE
  8
0
 62
     0
 10
434.763
 20
148.627
 30
0.0
 11
434.605
 21
150.7
 31
0.0
  0
LINE
  8
0
 62
     0
 10
434.605
 20
150.7
 30
0.0
 11
434.132
 21
152.706
 31
0.0
  0
LINE
  8
0
 62
     0
 10
434.132
 20
152.706
 30
0.0
 11
433.345
 21
154.583
 31
0.0
  0
LINE
  8
0
 62
     0
 10
433.345
 20
154.583
 30
0.0
 11
432.237
 21
156.264
 31
0.0
  0
LINE
  8
0
 62
     0
 10
432.237
 20
156.264
 30
0.0
 11
430.816
 21
157.686
 31
0.0
  0
LINE
  8
0
 62
     0
 10
430.816
 20
157.686
 30
0.0
 11
429.08
 21
158.782
 31
0.0
  0
LINE
  8
0
 62
     0
 10
429.08
 20
158.782
 30
0.0
 11
427.03
 21
159.486
 31
0.0
  0
LINE
  8
0
 62
     0
 10
427.03
 20
159.486
 30
0.0
 11
425.252
 21
159.735
 31
0.0
  0
LINE
  8
0
 62
     0
 10
425.252
 20
159.735
 30
0.0
 11
424.663
 21
159.735
 31
0.0
  0
LINE
  8
0
 62
     0
 10
424.663
 20
159.735
 30
0.0
 11
407.162
 21
159.735
 31
0.0
  0
LINE
  8
0
 62
     0
 10
543.676
 20
114.883
 30
0.0
 11
543.676
 21
112.809
 31
0.0
  0
LINE
  8
0
 62
     0
 10
543.676
 20
112.809
 30
0.0
 11
542.869
 21
106.584
 31
0.0
  0
LINE
  8
0
 62
     0
 10
542.869
 20
106.584
 30
0.0
 11
540.59
 21
99.3909
 31
0.0
  0
LINE
  8
0
 62
     0
 10
540.59
 20
99.3909
 30
0.0
 11
537.048
 21
93.3055
 31
0.0
  0
LINE
  8
0
 62
     0
 10
537.048
 20
93.3055
 30
0.0
 11
532.458
 21
88.3253
 31
0.0
  0
LINE
  8
0
 62
     0
 10
532.458
 20
88.3253
 30
0.0
 11
527.025
 21
84.4532
 31
0.0
  0
LINE
  8
0
 62
     0
 10
527.025
 20
84.4532
 30
0.0
 11
520.958
 21
81.686
 31
0.0
  0
LINE
  8
0
 62
     0
 10
520.958
 20
81.686
 30
0.0
 11
514.473
 21
80.0269
 31
0.0
  0
LINE
  8
0
 62
     0
 10
514.473
 20
80.0269
 30
0.0
 11
507.778
 21
79.4727
 31
0.0
  0
LINE
  8
0
 62
     0
 10
507.778
 20
79.4727
 30
0.0
 11
501.082
 21
80.0269
 31
0.0
  0
LINE
  8
0
 62
     0
 10
501.082
 20
80.0269
 30
0.0
 11
494.594
 21
81.686
 31
0.0
  0
LINE
  8
0
 62
     0
 10
494.594
 20
81.686
 30
0.0
 11
488.53
 21
84.4532
 31
0.0
  0
LINE
  8
0
 62
     0
 10
488.53
 20
84.4532
 30
0.0
 11
483.097
 21
88.3253
 31
0.0
  0
LINE
  8
0
 62
     0
 10
483.097
 20
88.3253
 30
0.0
 11
478.504
 21
93.3055
 31
0.0
  0
LINE
  8
0
 62
     0
 10
478.504
 20
93.3055
 30
0.0
 11
474.962
 21
99.3909
 31
0.0
  0
LINE
  8
0
 62
     0
 10
474.962
 20
99.3909
 30
0.0
 11
472.683
 21
106.584
 31
0.0
  0
LINE
  8
0
 62
     0
 10
472.683
 20
106.584
 30
0.0
 11
471.879
 21
112.809
 31
0.0
  0
LINE
  8
0
 62
     0
 10
471.879
 20
112.809
 30
0.0
 11
471.879
 21
114.883
 31
0.0
  0
LINE
  8
0
 62
     0
 10
471.879
 20
114.883
 30
0.0
 11
471.879
 21
179.593
 31
0.0
  0
LINE
  8
0
 62
     0
 10
471.879
 20
179.593
 30
0.0
 11
491.737
 21
179.593
 31
0.0
  0
LINE
  8
0
 62
     0
 10
491.737
 20
179.593
 30
0.0
 11
491.737
 21
115.022
 31
0.0
  0
LINE
  8
0
 62
     0
 10
491.737
 20
115.022
 30
0.0
 11
491.737
 21
114.107
 31
0.0
  0
LINE
  8
0
 62
     0
 10
491.737
 20
114.107
 30
0.0
 11
492.1
 21
111.361
 31
0.0
  0
LINE
  8
0
 62
     0
 10
492.1
 20
111.361
 30
0.0
 11
493.12
 21
108.188
 31
0.0
  0
LINE
  8
0
 62
     0
 10
493.12
 20
108.188
 30
0.0
 11
494.711
 21
105.503
 31
0.0
  0
LINE
  8
0
 62
     0
 10
494.711
 20
105.503
 30
0.0
 11
496.771
 21
103.306
 31
0.0
  0
LINE
  8
0
 62
     0
 10
496.771
 20
103.306
 30
0.0
 11
499.209
 21
101.597
 31
0.0
  0
LINE
  8
0
 62
     0
 10
499.209
 20
101.597
 30
0.0
 11
501.932
 21
100.376
 31
0.0
  0
LINE
  8
0
 62
     0
 10
501.932
 20
100.376
 30
0.0
 11
504.843
 21
99.6446
 31
0.0
  0
LINE
  8
0
 62
     0
 10
504.843
 20
99.6446
 30
0.0
 11
507.848
 21
99.3994
 31
0.0
  0
LINE
  8
0
 62
     0
 10
507.848
 20
99.3994
 30
0.0
 11
510.85
 21
99.6446
 31
0.0
  0
LINE
  8
0
 62
     0
 10
510.85
 20
99.6446
 30
0.0
 11
513.761
 21
100.376
 31
0.0
  0
LINE
  8
0
 62
     0
 10
513.761
 20
100.376
 30
0.0
 11
516.484
 21
101.597
 31
0.0
  0
LINE
  8
0
 62
     0
 10
516.484
 20
101.597
 30
0.0
 11
518.922
 21
103.306
 31
0.0
  0
LINE
  8
0
 62
     0
 10
518.922
 20
103.306
 30
0.0
 11
520.982
 21
105.503
 31
0.0
  0
LINE
  8
0
 62
     0
 10
520.982
 20
105.503
 30
0.0
 11
522.57
 21
108.188
 31
0.0
  0
LINE
  8
0
 62
     0
 10
522.57
 20
108.188
 30
0.0
 11
523.593
 21
111.361
 31
0.0
  0
LINE
  8
0
 62
     0
 10
523.593
 20
111.361
 30
0.0
 11
523.956
 21
114.107
 31
0.0
  0
LINE
  8
0
 62
     0
 10
523.956
 20
114.107
 30
0.0
 11
523.956
 21
115.022
 31
0.0
  0
LINE
  8
0
 62
     0
 10
523.956
 20
115.022
 30
0.0
 11
523.956
 21
179.593
 31
0.0
  0
LINE
  8
0
 62
     0
 10
523.956
 20
179.593
 30
0.0
 11
543.676
 21
179.593
 31
0.0
  0
LINE
  8
0
 62
     0
 10
543.676
 20
179.593
 30
0.0
 11
543.676
 21
114.883
 31
0.0
  0
LINE
  8
0
 62
     0
 10
561.037
 20
86.6937
 30
0.0
 11
563.534
 21
107.523
 31
0.0
  0
LINE
  8
0
 62
     0
 10
563.534
 20
107.523
 30
0.0
 11
564.564
 21
106.794
 31
0.0
  0
LINE
  8
0
 62
     0
 10
564.564
 20
106.794
 30
0.0
 11
567.835
 21
104.854
 31
0.0
  0
LINE
  8
0
 62
     0
 10
567.835
 20
104.854
 30
0.0
 11
572.121
 21
102.83
 31
0.0
  0
LINE
  8
0
 62
     0
 10
572.121
 20
102.83
 30
0.0
 11
576.294
 21
101.37
 31
0.0
  0
LINE
  8
0
 62
     0
 10
576.294
 20
101.37
 30
0.0
 11
580.249
 21
100.389
 31
0.0
  0
LINE
  8
0
 62
     0
 10
580.249
 20
100.389
 30
0.0
 11
583.89
 21
99.8058
 31
0.0
  0
LINE
  8
0
 62
     0
 10
583.89
 20
99.8058
 30
0.0
 11
587.103
 21
99.537
 31
0.0
  0
LINE
  8
0
 62
     0
 10
587.103
 20
99.537
 30
0.0
 11
589.799
 21
99.4985
 31
0.0
  0
LINE
  8
0
 62
     0
 10
589.799
 20
99.4985
 30
0.0
 11
591.351
 21
99.562
 31
0.0
  0
LINE
  8
0
 62
     0
 10
591.351
 20
99.562
 30
0.0
 11
591.866
 21
99.6075
 31
0.0
  0
LINE
  8
0
 62
     0
 10
591.866
 20
99.6075
 30
0.0
 11
592.402
 21
99.646
 31
0.0
  0
LINE
  8
0
 62
     0
 10
592.402
 20
99.646
 30
0.0
 11
594.004
 21
99.9352
 31
0.0
  0
LINE
  8
0
 62
     0
 10
594.004
 20
99.9352
 30
0.0
 11
596.007
 21
100.584
 31
0.0
  0
LINE
  8
0
 62
     0
 10
596.007
 20
100.584
 30
0.0
 11
597.824
 21
101.527
 31
0.0
  0
LINE
  8
0
 62
     0
 10
597.824
 20
101.527
 30
0.0
 11
599.398
 21
102.733
 31
0.0
  0
LINE
  8
0
 62
     0
 10
599.398
 20
102.733
 30
0.0
 11
600.671
 21
104.173
 31
0.0
  0
LINE
  8
0
 62
     0
 10
600.671
 20
104.173
 30
0.0
 11
601.588
 21
105.818
 31
0.0
  0
LINE
  8
0
 62
     0
 10
601.588
 20
105.818
 30
0.0
 11
602.096
 21
107.64
 31
0.0
  0
LINE
  8
0
 62
     0
 10
602.096
 20
107.64
 30
0.0
 11
602.192
 21
109.121
 31
0.0
  0
LINE
  8
0
 62
     0
 10
602.192
 20
109.121
 30
0.0
 11
602.142
 21
109.606
 31
0.0
  0
LINE
  8
0
 62
     0
 10
602.142
 20
109.606
 30
0.0
 11
602.072
 21
110.548
 31
0.0
  0
LINE
  8
0
 62
     0
 10
602.072
 20
110.548
 30
0.0
 11
601.14
 21
113.319
 31
0.0
  0
LINE
  8
0
 62
     0
 10
601.14
 20
113.319
 30
0.0
 11
598.928
 21
116.08
 31
0.0
  0
LINE
  8
0
 62
     0
 10
598.928
 20
116.08
 30
0.0
 11
595.753
 21
118.141
 31
0.0
  0
LINE
  8
0
 62
     0
 10
595.753
 20
118.141
 30
0.0
 11
592.857
 21
119.397
 31
0.0
  0
LINE
  8
0
 62
     0
 10
592.857
 20
119.397
 30
0.0
 11
591.866
 21
119.743
 31
0.0
  0
LINE
  8
0
 62
     0
 10
591.866
 20
119.743
 30
0.0
 11
590.419
 21
120.273
 31
0.0
  0
LINE
  8
0
 62
     0
 10
590.419
 20
120.273
 30
0.0
 11
586.133
 21
121.995
 31
0.0
  0
LINE
  8
0
 62
     0
 10
586.133
 20
121.995
 30
0.0
 11
580.704
 21
124.532
 31
0.0
  0
LINE
  8
0
 62
     0
 10
580.704
 20
124.532
 30
0.0
 11
575.712
 21
127.43
 31
0.0
  0
LINE
  8
0
 62
     0
 10
575.712
 20
127.43
 30
0.0
 11
571.309
 21
130.766
 31
0.0
  0
LINE
  8
0
 62
     0
 10
571.309
 20
130.766
 30
0.0
 11
567.637
 21
134.615
 31
0.0
  0
LINE
  8
0
 62
     0
 10
567.637
 20
134.615
 30
0.0
 11
564.836
 21
139.057
 31
0.0
  0
LINE
  8
0
 62
     0
 10
564.836
 20
139.057
 30
0.0
 11
563.051
 21
144.163
 31
0.0
  0
LINE
  8
0
 62
     0
 10
563.051
 20
144.163
 30
0.0
 11
562.423
 21
148.553
 31
0.0
  0
LINE
  8
0
 62
     0
 10
562.423
 20
148.553
 30
0.0
 11
562.423
 21
150.015
 31
0.0
  0
LINE
  8
0
 62
     0
 10
562.423
 20
150.015
 30
0.0
 11
562.423
 21
151.528
 31
0.0
  0
LINE
  8
0
 62
     0
 10
562.423
 20
151.528
 30
0.0
 11
562.949
 21
156.067
 31
0.0
  0
LINE
  8
0
 62
     0
 10
562.949
 20
156.067
 30
0.0
 11
564.483
 21
161.659
 31
0.0
  0
LINE
  8
0
 62
     0
 10
564.483
 20
161.659
 30
0.0
 11
566.942
 21
166.697
 31
0.0
  0
LINE
  8
0
 62
     0
 10
566.942
 20
166.697
 30
0.0
 11
570.251
 21
171.089
 31
0.0
  0
LINE
  8
0
 62
     0
 10
570.251
 20
171.089
 30
0.0
 11
574.336
 21
174.738
 31
0.0
  0
LINE
  8
0
 62
     0
 10
574.336
 20
174.738
 30
0.0
 11
579.12
 21
177.551
 31
0.0
  0
LINE
  8
0
 62
     0
 10
579.12
 20
177.551
 30
0.0
 11
584.525
 21
179.432
 31
0.0
  0
LINE
  8
0
 62
     0
 10
584.525
 20
179.432
 30
0.0
 11
588.98
 21
180.213
 31
0.0
  0
LINE
  8
0
 62
     0
 10
588.98
 20
180.213
 30
0.0
 11
590.476
 21
180.287
 31
0.0
  0
LINE
  8
0
 62
     0
 10
590.476
 20
180.287
 30
0.0
 11
590.977
 21
180.315
 31
0.0
  0
LINE
  8
0
 62
     0
 10
590.977
 20
180.315
 30
0.0
 11
592.49
 21
180.371
 31
0.0
  0
LINE
  8
0
 62
     0
 10
592.49
 20
180.371
 30
0.0
 11
594.709
 21
180.38
 31
0.0
  0
LINE
  8
0
 62
     0
 10
594.709
 20
180.38
 30
0.0
 11
597.186
 21
180.264
 31
0.0
  0
LINE
  8
0
 62
     0
 10
597.186
 20
180.264
 30
0.0
 11
599.969
 21
179.976
 31
0.0
  0
LINE
  8
0
 62
     0
 10
599.969
 20
179.976
 30
0.0
 11
603.112
 21
179.466
 31
0.0
  0
LINE
  8
0
 62
     0
 10
603.112
 20
179.466
 30
0.0
 11
606.665
 21
178.688
 31
0.0
  0
LINE
  8
0
 62
     0
 10
606.665
 20
178.688
 30
0.0
 11
610.676
 21
177.589
 31
0.0
  0
LINE
  8
0
 62
     0
 10
610.676
 20
177.589
 30
0.0
 11
614.073
 21
176.512
 31
0.0
  0
LINE
  8
0
 62
     0
 10
614.073
 20
176.512
 30
0.0
 11
615.195
 21
176.121
 31
0.0
  0
LINE
  8
0
 62
     0
 10
615.195
 20
176.121
 30
0.0
 11
612.694
 21
156.959
 31
0.0
  0
LINE
  8
0
 62
     0
 10
612.694
 20
156.959
 30
0.0
 11
611.731
 21
157.35
 31
0.0
  0
LINE
  8
0
 62
     0
 10
611.731
 20
157.35
 30
0.0
 11
608.799
 21
158.419
 31
0.0
  0
LINE
  8
0
 62
     0
 10
608.799
 20
158.419
 30
0.0
 11
605.328
 21
159.505
 31
0.0
  0
LINE
  8
0
 62
     0
 10
605.328
 20
159.505
 30
0.0
 11
602.262
 21
160.267
 31
0.0
  0
LINE
  8
0
 62
     0
 10
602.262
 20
160.267
 30
0.0
 11
599.588
 21
160.76
 31
0.0
  0
LINE
  8
0
 62
     0
 10
599.588
 20
160.76
 30
0.0
 11
597.285
 21
161.04
 31
0.0
  0
LINE
  8
0
 62
     0
 10
597.285
 20
161.04
 30
0.0
 11
595.334
 21
161.157
 31
0.0
  0
LINE
  8
0
 62
     0
 10
595.334
 20
161.157
 30
0.0
 11
593.718
 21
161.168
 31
0.0
  0
LINE
  8
0
 62
     0
 10
593.718
 20
161.168
 30
0.0
 11
592.744
 21
161.139
 31
0.0
  0
LINE
  8
0
 62
     0
 10
592.744
 20
161.139
 30
0.0
 11
592.42
 21
161.124
 31
0.0
  0
LINE
  8
0
 62
     0
 10
592.42
 20
161.124
 30
0.0
 11
591.799
 21
161.089
 31
0.0
  0
LINE
  8
0
 62
     0
 10
591.799
 20
161.089
 30
0.0
 11
589.947
 21
160.757
 31
0.0
  0
LINE
  8
0
 62
     0
 10
589.947
 20
160.757
 30
0.0
 11
587.83
 21
159.994
 31
0.0
  0
LINE
  8
0
 62
     0
 10
587.83
 20
159.994
 30
0.0
 11
586.077
 21
158.892
 31
0.0
  0
LINE
  8
0
 62
     0
 10
586.077
 20
158.892
 30
0.0
 11
584.676
 21
157.497
 31
0.0
  0
LINE
  8
0
 62
     0
 10
584.676
 20
157.497
 30
0.0
 11
583.629
 21
155.862
 31
0.0
  0
LINE
  8
0
 62
     0
 10
583.629
 20
155.862
 30
0.0
 11
582.926
 21
154.036
 31
0.0
  0
LINE
  8
0
 62
     0
 10
582.926
 20
154.036
 30
0.0
 11
582.574
 21
152.071
 31
0.0
  0
LINE
  8
0
 62
     0
 10
582.574
 20
152.071
 30
0.0
 11
582.521
 21
150.526
 31
0.0
  0
LINE
  8
0
 62
     0
 10
582.521
 20
150.526
 30
0.0
 11
582.56
 21
150.015
 31
0.0
  0
LINE
  8
0
 62
     0
 10
582.56
 20
150.015
 30
0.0
 11
582.651
 21
149.087
 31
0.0
  0
LINE
  8
0
 62
     0
 10
582.651
 20
149.087
 30
0.0
 11
583.727
 21
146.383
 31
0.0
  0
LINE
  8
0
 62
     0
 10
583.727
 20
146.383
 30
0.0
 11
586.186
 21
143.663
 31
0.0
  0
LINE
  8
0
 62
     0
 10
586.186
 20
143.663
 30
0.0
 11
589.608
 21
141.619
 31
0.0
  0
LINE
  8
0
 62
     0
 10
589.608
 20
141.619
 30
0.0
 11
592.638
 21
140.37
 31
0.0
  0
LINE
  8
0
 62
     0
 10
592.638
 20
140.37
 30
0.0
 11
593.669
 21
140.017
 31
0.0
  0
LINE
  8
0
 62
     0
 10
593.669
 20
140.017
 30
0.0
 11
595.101
 21
139.489
 31
0.0
  0
LINE
  8
0
 62
     0
 10
595.101
 20
139.489
 30
0.0
 11
599.331
 21
137.725
 31
0.0
  0
LINE
  8
0
 62
     0
 10
599.331
 20
137.725
 30
0.0
 11
604.665
 21
135.091
 31
0.0
  0
LINE
  8
0
 62
     0
 10
604.665
 20
135.091
 30
0.0
 11
609.536
 21
132.067
 31
0.0
  0
LINE
  8
0
 62
     0
 10
609.536
 20
132.067
 30
0.0
 11
613.823
 21
128.614
 31
0.0
  0
LINE
  8
0
 62
     0
 10
613.823
 20
128.614
 30
0.0
 11
617.386
 21
124.685
 31
0.0
  0
LINE
  8
0
 62
     0
 10
617.386
 20
124.685
 30
0.0
 11
620.092
 21
120.237
 31
0.0
  0
LINE
  8
0
 62
     0
 10
620.092
 20
120.237
 30
0.0
 11
621.813
 21
115.225
 31
0.0
  0
LINE
  8
0
 62
     0
 10
621.813
 20
115.225
 30
0.0
 11
622.416
 21
111.012
 31
0.0
  0
LINE
  8
0
 62
     0
 10
622.416
 20
111.012
 30
0.0
 11
622.416
 21
109.606
 31
0.0
  0
LINE
  8
0
 62
     0
 10
622.416
 20
109.606
 30
0.0
 11
622.416
 21
108.107
 31
0.0
  0
LINE
  8
0
 62
     0
 10
622.416
 20
108.107
 30
0.0
 11
621.891
 21
103.608
 31
0.0
  0
LINE
  8
0
 62
     0
 10
621.891
 20
103.608
 30
0.0
 11
620.346
 21
98.0641
 31
0.0
  0
LINE
  8
0
 62
     0
 10
620.346
 20
98.0641
 30
0.0
 11
617.83
 21
93.0674
 31
0.0
  0
LINE
  8
0
 62
     0
 10
617.83
 20
93.0674
 30
0.0
 11
614.394
 21
88.707
 31
0.0
  0
LINE
  8
0
 62
     0
 10
614.394
 20
88.707
 30
0.0
 11
610.087
 21
85.0773
 31
0.0
  0
LINE
  8
0
 62
     0
 10
610.087
 20
85.0773
 30
0.0
 11
604.957
 21
82.2674
 31
0.0
  0
LINE
  8
0
 62
     0
 10
604.957
 20
82.2674
 30
0.0
 11
599.052
 21
80.3698
 31
0.0
  0
LINE
  8
0
 62
     0
 10
599.052
 20
80.3698
 30
0.0
 11
594.085
 21
79.5595
 31
0.0
  0
LINE
  8
0
 62
     0
 10
594.085
 20
79.5595
 30
0.0
 11
592.42
 21
79.4727
 31
0.0
  0
LINE
  8
0
 62
     0
 10
592.42
 20
79.4727
 30
0.0
 11
591.824
 21
79.4286
 31
0.0
  0
LINE
  8
0
 62
     0
 10
591.824
 20
79.4286
 30
0.0
 11
590.028
 21
79.3792
 31
0.0
  0
LINE
  8
0
 62
     0
 10
590.028
 20
79.3792
 30
0.0
 11
587.068
 21
79.4494
 31
0.0
  0
LINE
  8
0
 62
     0
 10
587.068
 20
79.4494
 30
0.0
 11
583.6
 21
79.7444
 31
0.0
  0
LINE
  8
0
 62
     0
 10
583.6
 20
79.7444
 30
0.0
 11
579.695
 21
80.3233
 31
0.0
  0
LINE
  8
0
 62
     0
 10
579.695
 20
80.3233
 30
0.0
 11
575.419
 21
81.2479
 31
0.0
  0
LINE
  8
0
 62
     0
 10
575.419
 20
81.2479
 30
0.0
 11
570.84
 21
82.5775
 31
0.0
  0
LINE
  8
0
 62
     0
 10
570.84
 20
82.5775
 30
0.0
 11
566.021
 21
84.3732
 31
0.0
  0
LINE
  8
0
 62
     0
 10
566.021
 20
84.3732
 30
0.0
 11
562.257
 21
86.0654
 31
0.0
  0
LINE
  8
0
 62
     0
 10
562.257
 20
86.0654
 30
0.0
 11
561.037
 21
86.6937
 31
0.0
  0
LINE
  8
0
 62
     0
 10
561.037
 20
86.6937
 30
0.0
 11
561.037
 21
86.6937
 31
0.0
  0
LINE
  8
0
 62
     0
 10
686.851
 20
78.9174
 30
0.0
 11
685.303
 21
78.9174
 31
0.0
  0
LINE
  8
0
 62
     0
 10
685.303
 20
78.9174
 30
0.0
 11
680.646
 21
79.2124
 31
0.0
  0
LINE
  8
0
 62
     0
 10
680.646
 20
79.2124
 30
0.0
 11
674.843
 21
80.0682
 31
0.0
  0
LINE
  8
0
 62
     0
 10
674.843
 20
80.0682
 30
0.0
 11
669.438
 21
81.4476
 31
0.0
  0
LINE
  8
0
 62
     0
 10
669.438
 20
81.4476
 30
0.0
 11
664.432
 21
83.3162
 31
0.0
  0
LINE
  8
0
 62
     0
 10
664.432
 20
83.3162
 30
0.0
 11
659.829
 21
85.6326
 31
0.0
  0
LINE
  8
0
 62
     0
 10
659.829
 20
85.6326
 30
0.0
 11
655.623
 21
88.3627
 31
0.0
  0
LINE
  8
0
 62
     0
 10
655.623
 20
88.3627
 30
0.0
 11
651.824
 21
91.4672
 31
0.0
  0
LINE
  8
0
 62
     0
 10
651.824
 20
91.4672
 30
0.0
 11
648.42
 21
94.9096
 31
0.0
  0
LINE
  8
0
 62
     0
 10
648.42
 20
94.9096
 30
0.0
 11
645.418
 21
98.6511
 31
0.0
  0
LINE
  8
0
 62
     0
 10
645.418
 20
98.6511
 30
0.0
 11
642.814
 21
102.656
 31
0.0
  0
LINE
  8
0
 62
     0
 10
642.814
 20
102.656
 30
0.0
 11
640.613
 21
106.884
 31
0.0
  0
LINE
  8
0
 62
     0
 10
640.613
 20
106.884
 30
0.0
 11
638.81
 21
111.3
 31
0.0
  0
LINE
  8
0
 62
     0
 10
638.81
 20
111.3
 30
0.0
 11
637.409
 21
115.867
 31
0.0
  0
LINE
  8
0
 62
     0
 10
637.409
 20
115.867
 30
0.0
 11
636.411
 21
120.545
 31
0.0
  0
LINE
  8
0
 62
     0
 10
636.411
 20
120.545
 30
0.0
 11
635.808
 21
125.298
 31
0.0
  0
LINE
  8
0
 62
     0
 10
635.808
 20
125.298
 30
0.0
 11
635.61
 21
130.09
 31
0.0
  0
LINE
  8
0
 62
     0
 10
635.61
 20
130.09
 30
0.0
 11
635.808
 21
134.881
 31
0.0
  0
LINE
  8
0
 62
     0
 10
635.808
 20
134.881
 30
0.0
 11
636.411
 21
139.634
 31
0.0
  0
LINE
  8
0
 62
     0
 10
636.411
 20
139.634
 30
0.0
 11
637.409
 21
144.312
 31
0.0
  0
LINE
  8
0
 62
     0
 10
637.409
 20
144.312
 30
0.0
 11
638.81
 21
148.879
 31
0.0
  0
LINE
  8
0
 62
     0
 10
638.81
 20
148.879
 30
0.0
 11
640.613
 21
153.296
 31
0.0
  0
LINE
  8
0
 62
     0
 10
640.613
 20
153.296
 30
0.0
 11
642.814
 21
157.523
 31
0.0
  0
LINE
  8
0
 62
     0
 10
642.814
 20
157.523
 30
0.0
 11
645.418
 21
161.528
 31
0.0
  0
LINE
  8
0
 62
     0
 10
645.418
 20
161.528
 30
0.0
 11
648.42
 21
165.269
 31
0.0
  0
LINE
  8
0
 62
     0
 10
648.42
 20
165.269
 30
0.0
 11
651.824
 21
168.712
 31
0.0
  0
LINE
  8
0
 62
     0
 10
651.824
 20
168.712
 30
0.0
 11
655.623
 21
171.817
 31
0.0
  0
LINE
  8
0
 62
     0
 10
655.623
 20
171.817
 30
0.0
 11
659.829
 21
174.546
 31
0.0
  0
LINE
  8
0
 62
     0
 10
659.829
 20
174.546
 30
0.0
 11
664.432
 21
176.863
 31
0.0
  0
LINE
  8
0
 62
     0
 10
664.432
 20
176.863
 30
0.0
 11
669.438
 21
178.732
 31
0.0
  0
LINE
  8
0
 62
     0
 10
669.438
 20
178.732
 30
0.0
 11
674.843
 21
180.111
 31
0.0
  0
LINE
  8
0
 62
     0
 10
674.843
 20
180.111
 30
0.0
 11
680.646
 21
180.967
 31
0.0
  0
LINE
  8
0
 62
     0
 10
680.646
 20
180.967
 30
0.0
 11
685.303
 21
181.26
 31
0.0
  0
LINE
  8
0
 62
     0
 10
685.303
 20
181.26
 30
0.0
 11
686.851
 21
181.26
 31
0.0
  0
LINE
  8
0
 62
     0
 10
686.851
 20
181.26
 30
0.0
 11
688.404
 21
181.26
 31
0.0
  0
LINE
  8
0
 62
     0
 10
688.404
 20
181.26
 30
0.0
 11
693.057
 21
180.967
 31
0.0
  0
LINE
  8
0
 62
     0
 10
693.057
 20
180.967
 30
0.0
 11
698.863
 21
180.111
 31
0.0
  0
LINE
  8
0
 62
     0
 10
698.863
 20
180.111
 30
0.0
 11
704.268
 21
178.732
 31
0.0
  0
LINE
  8
0
 62
     0
 10
704.268
 20
178.732
 30
0.0
 11
709.274
 21
176.863
 31
0.0
  0
LINE
  8
0
 62
     0
 10
709.274
 20
176.863
 30
0.0
 11
713.878
 21
174.546
 31
0.0
  0
LINE
  8
0
 62
     0
 10
713.878
 20
174.546
 30
0.0
 11
718.079
 21
171.817
 31
0.0
  0
LINE
  8
0
 62
     0
 10
718.079
 20
171.817
 30
0.0
 11
721.882
 21
168.712
 31
0.0
  0
LINE
  8
0
 62
     0
 10
721.882
 20
168.712
 30
0.0
 11
725.286
 21
165.269
 31
0.0
  0
LINE
  8
0
 62
     0
 10
725.286
 20
165.269
 30
0.0
 11
728.289
 21
161.528
 31
0.0
  0
LINE
  8
0
 62
     0
 10
728.289
 20
161.528
 30
0.0
 11
730.892
 21
157.523
 31
0.0
  0
LINE
  8
0
 62
     0
 10
730.892
 20
157.523
 30
0.0
 11
733.093
 21
153.296
 31
0.0
  0
LINE
  8
0
 62
     0
 10
733.093
 20
153.296
 30
0.0
 11
734.893
 21
148.879
 31
0.0
  0
LINE
  8
0
 62
     0
 10
734.893
 20
148.879
 30
0.0
 11
736.297
 21
144.312
 31
0.0
  0
LINE
  8
0
 62
     0
 10
736.297
 20
144.312
 30
0.0
 11
737.295
 21
139.634
 31
0.0
  0
LINE
  8
0
 62
     0
 10
737.295
 20
139.634
 30
0.0
 11
737.898
 21
134.881
 31
0.0
  0
LINE
  8
0
 62
     0
 10
737.898
 20
134.881
 30
0.0
 11
738.096
 21
130.09
 31
0.0
  0
LINE
  8
0
 62
     0
 10
738.096
 20
130.09
 30
0.0
 11
737.898
 21
125.298
 31
0.0
  0
LINE
  8
0
 62
     0
 10
737.898
 20
125.298
 30
0.0
 11
737.295
 21
120.545
 31
0.0
  0
LINE
  8
0
 62
     0
 10
737.295
 20
120.545
 30
0.0
 11
736.297
 21
115.867
 31
0.0
  0
LINE
  8
0
 62
     0
 10
736.297
 20
115.867
 30
0.0
 11
734.893
 21
111.3
 31
0.0
  0
LINE
  8
0
 62
     0
 10
734.893
 20
111.3
 30
0.0
 11
733.093
 21
106.884
 31
0.0
  0
LINE
  8
0
 62
     0
 10
733.093
 20
106.884
 30
0.0
 11
730.892
 21
102.656
 31
0.0
  0
LINE
  8
0
 62
     0
 10
730.892
 20
102.656
 30
0.0
 11
728.289
 21
98.6511
 31
0.0
  0
LINE
  8
0
 62
     0
 10
728.289
 20
98.6511
 30
0.0
 11
725.286
 21
94.9096
 31
0.0
  0
LINE
  8
0
 62
     0
 10
725.286
 20
94.9096
 30
0.0
 11
721.882
 21
91.4672
 31
0.0
  0
LINE
  8
0
 62
     0
 10
721.882
 20
91.4672
 30
0.0
 11
718.079
 21
88.3627
 31
0.0
  0
LINE
  8
0
 62
     0
 10
718.079
 20
88.3627
 30
0.0
 11
713.878
 21
85.6326
 31
0.0
  0
LINE
  8
0
 62
     0
 10
713.878
 20
85.6326
 30
0.0
 11
709.274
 21
83.3162
 31
0.0
  0
LINE
  8
0
 62
     0
 10
709.274
 20
83.3162
 30
0.0
 11
704.268
 21
81.4476
 31
0.0
  0
LINE
  8
0
 62
     0
 10
704.268
 20
81.4476
 30
0.0
 11
698.863
 21
80.0682
 31
0.0
  0
LINE
  8
0
 62
     0
 10
698.863
 20
80.0682
 30
0.0
 11
693.057
 21
79.2124
 31
0.0
  0
LINE
  8
0
 62
     0
 10
693.057
 20
79.2124
 30
0.0
 11
688.404
 21
78.9174
 31
0.0
  0
LINE
  8
0
 62
     0
 10
688.404
 20
78.9174
 30
0.0
 11
686.851
 21
78.9174
 31
0.0
  0
LINE
  8
0
 62
     0
 10
686.851
 20
99.4682
 30
0.0
 11
688.598
 21
99.4682
 31
0.0
  0
LINE
  8
0
 62
     0
 10
688.598
 20
99.4682
 30
0.0
 11
693.833
 21
100.159
 31
0.0
  0
LINE
  8
0
 62
     0
 10
693.833
 20
100.159
 30
0.0
 11
699.886
 21
102.106
 31
0.0
  0
LINE
  8
0
 62
     0
 10
699.886
 20
102.106
 30
0.0
 11
705.005
 21
105.133
 31
0.0
  0
LINE
  8
0
 62
     0
 10
705.005
 20
105.133
 30
0.0
 11
709.193
 21
109.059
 31
0.0
  0
LINE
  8
0
 62
     0
 10
709.193
 20
109.059
 30
0.0
 11
712.452
 21
113.705
 31
0.0
  0
LINE
  8
0
 62
     0
 10
712.452
 20
113.705
 30
0.0
 11
714.777
 21
118.889
 31
0.0
  0
LINE
  8
0
 62
     0
 10
714.777
 20
118.889
 30
0.0
 11
716.174
 21
124.434
 31
0.0
  0
LINE
  8
0
 62
     0
 10
716.174
 20
124.434
 30
0.0
 11
716.64
 21
130.157
 31
0.0
  0
LINE
  8
0
 62
     0
 10
716.64
 20
130.157
 30
0.0
 11
716.174
 21
135.882
 31
0.0
  0
LINE
  8
0
 62
     0
 10
716.174
 20
135.882
 30
0.0
 11
714.777
 21
141.427
 31
0.0
  0
LINE
  8
0
 62
     0
 10
714.777
 20
141.427
 30
0.0
 11
712.452
 21
146.611
 31
0.0
  0
LINE
  8
0
 62
     0
 10
712.452
 20
146.611
 30
0.0
 11
709.193
 21
151.256
 31
0.0
  0
LINE
  8
0
 62
     0
 10
709.193
 20
151.256
 30
0.0
 11
705.005
 21
155.182
 31
0.0
  0
LINE
  8
0
 62
     0
 10
705.005
 20
155.182
 30
0.0
 11
699.886
 21
158.21
 31
0.0
  0
LINE
  8
0
 62
     0
 10
699.886
 20
158.21
 30
0.0
 11
693.833
 21
160.157
 31
0.0
  0
LINE
  8
0
 62
     0
 10
693.833
 20
160.157
 30
0.0
 11
688.598
 21
160.846
 31
0.0
  0
LINE
  8
0
 62
     0
 10
688.598
 20
160.846
 30
0.0
 11
686.851
 21
160.846
 31
0.0
  0
LINE
  8
0
 62
     0
 10
686.851
 20
160.846
 30
0.0
 11
685.109
 21
160.846
 31
0.0
  0
LINE
  8
0
 62
     0
 10
685.109
 20
160.846
 30
0.0
 11
679.87
 21
160.157
 31
0.0
  0
LINE
  8
0
 62
     0
 10
679.87
 20
160.157
 30
0.0
 11
673.82
 21
158.21
 31
0.0
  0
LINE
  8
0
 62
     0
 10
673.82
 20
158.21
 30
0.0
 11
668.701
 21
155.182
 31
0.0
  0
LINE
  8
0
 62
     0
 10
668.701
 20
155.182
 30
0.0
 11
664.51
 21
151.256
 31
0.0
  0
LINE
  8
0
 62
     0
 10
664.51
 20
151.256
 30
0.0
 11
661.254
 21
146.611
 31
0.0
  0
LINE
  8
0
 62
     0
 10
661.254
 20
146.611
 30
0.0
 11
658.925
 21
141.427
 31
0.0
  0
LINE
  8
0
 62
     0
 10
658.925
 20
141.427
 30
0.0
 11
657.528
 21
135.882
 31
0.0
  0
LINE
  8
0
 62
     0
 10
657.528
 20
135.882
 30
0.0
 11
657.063
 21
130.157
 31
0.0
  0
LINE
  8
0
 62
     0
 10
657.063
 20
130.157
 30
0.0
 11
657.528
 21
124.434
 31
0.0
  0
LINE
  8
0
 62
     0
 10
657.528
 20
124.434
 30
0.0
 11
658.925
 21
118.889
 31
0.0
  0
LINE
  8
0
 62
     0
 10
658.925
 20
118.889
 30
0.0
 11
661.254
 21
113.705
 31
0.0
  0
LINE
  8
0
 62
     0
 10
661.254
 20
113.705
 30
0.0
 11
664.51
 21
109.059
 31
0.0
  0
LINE
  8
0
 62
     0
 10
664.51
 20
109.059
 30
0.0
 11
668.701
 21
105.133
 31
0.0
  0
LINE
  8
0
 62
     0
 10
668.701
 20
105.133
 30
0.0
 11
673.82
 21
102.106
 31
0.0
  0
LINE
  8
0
 62
     0
 10
673.82
 20
102.106
 30
0.0
 11
679.87
 21
100.159
 31
0.0
  0
LINE
  8
0
 62
     0
 10
679.87
 20
100.159
 30
0.0
 11
685.109
 21
99.4682
 31
0.0
  0
LINE
  8
0
 62
     0
 10
685.109
 20
99.4682
 30
0.0
 11
686.851
 21
99.4682
 31
0.0
  0
LINE
  8
0
 62
     0
 10
808.087
 20
80.3053
 30
0.0
 11
756.705
 21
80.3053
 31
0.0
  0
LINE
  8
0
 62
     0
 10
756.705
 20
80.3053
 30
0.0
 11
756.705
 21
179.593
 31
0.0
  0
LINE
  8
0
 62
     0
 10
756.705
 20
179.593
 30
0.0
 11
806.422
 21
179.593
 31
0.0
  0
LINE
  8
0
 62
     0
 10
806.422
 20
179.593
 30
0.0
 11
806.422
 21
159.735
 31
0.0
  0
LINE
  8
0
 62
     0
 10
806.422
 20
159.735
 30
0.0
 11
776.566
 21
159.735
 31
0.0
  0
LINE
  8
0
 62
     0
 10
776.566
 20
159.735
 30
0.0
 11
776.566
 21
139.878
 31
0.0
  0
LINE
  8
0
 62
     0
 10
776.566
 20
139.878
 30
0.0
 11
802.672
 21
139.878
 31
0.0
  0
LINE
  8
0
 62
     0
 10
802.672
 20
139.878
 30
0.0
 11
802.672
 21
120.02
 31
0.0
  0
LINE
  8
0
 62
     0
 10
802.672
 20
120.02
 30
0.0
 11
776.566
 21
120.02
 31
0.0
  0
LINE
  8
0
 62
     0
 10
776.566
 20
120.02
 30
0.0
 11
776.566
 21
100.163
 31
0.0
  0
LINE
  8
0
 62
     0
 10
776.566
 20
100.163
 30
0.0
 11
808.087
 21
100.163
 31
0.0
  0
LINE
  8
0
 62
     0
 10
808.087
 20
100.163
 30
0.0
 11
808.087
 21
80.3053
 31
0.0
  0
LINE
  8
0
 62
     0
 10
808.087
 20
80.3053
 30
0.0
 11
808.087
 21
80.3053
 31
0.0
  0
ENDSEC
  0
EOF
