<?xml version="1.0" standalone="no"?>
<!DOCTYPE svg PUBLIC "-//W3C//DTD SVG 1.1//EN" "http://www.w3.org/Graphics/SVG/1.1/DTD/svg11.dtd">
<svg width="102mm" height="102mm" viewBox="-51 -51 102 102" xmlns="http://www.w3.org/2000/svg" version="1.1">
<title>OpenSCAD Model</title>
<path d="
M 1.12428,50.8937 L 1.8541,50.7063 L 2.55467,50.429 L 3.21495,50.066 L 3.82454,49.6231 L 4.37381,49.1073
 L 4.8541,48.5267 L 5.25783,47.8905 L 5.57864,47.2087 L 5.81149,46.4921 L 5.95268,45.752 L 6,45
 L 6,34.4506 L 6.55833,34.3801 L 10.8156,33.287 L 14.9023,31.6689 L 18.7539,29.5515 L 22.3098,26.968
 L 25.5139,23.9591 L 28.3156,20.5725 L 30.6707,16.8614 L 32.5422,12.8844 L 33.9004,8.70413 L 34.4185,5.98816
 L 45.3767,5.98816 L 46.1243,5.89372 L 46.8541,5.70633 L 47.5547,5.42896 L 48.215,5.06596 L 48.8245,4.62308
 L 49.3738,4.10727 L 49.8541,3.5267 L 50.2578,2.89052 L 50.5786,2.20874 L 50.8115,1.49213 L 50.9527,0.751999
 L 51,-0 L 50.9527,-0.751999 L 50.8115,-1.49213 L 50.5786,-2.20874 L 50.2578,-2.89052 L 49.8541,-3.5267
 L 49.3738,-4.10727 L 48.8245,-4.62308 L 48.215,-5.06596 L 47.5547,-5.42896 L 46.8541,-5.70633 L 46.1243,-5.89372
 L 45.3767,-5.98816 L 34.4185,-5.98816 L 33.9004,-8.70413 L 32.5422,-12.8844 L 30.6707,-16.8614 L 28.3156,-20.5725
 L 25.5139,-23.9591 L 22.3098,-26.968 L 18.7539,-29.5515 L 14.9023,-31.6689 L 10.8156,-33.287 L 6.55833,-34.3801
 L 6,-34.4506 L 6,-45 L 5.95268,-45.752 L 5.81149,-46.4921 L 5.57864,-47.2087 L 5.25783,-47.8905
 L 4.8541,-48.5267 L 4.37381,-49.1073 L 3.82454,-49.6231 L 3.21495,-50.066 L 2.55467,-50.429 L 1.8541,-50.7063
 L 1.12428,-50.8937 L 0.37674,-50.9882 L -0.37674,-50.9882 L -1.12428,-50.8937 L -1.8541,-50.7063 L -2.55467,-50.429
 L -3.21495,-50.066 L -3.82454,-49.6231 L -4.37381,-49.1073 L -4.8541,-48.5267 L -5.25783,-47.8905 L -5.57864,-47.2087
 L -5.81149,-46.4921 L -5.95268,-45.752 L -6,-45 L -6,-34.4506 L -6.55833,-34.3801 L -10.8156,-33.287
 L -14.9023,-31.6689 L -18.7539,-29.5515 L -22.3098,-26.968 L -25.5139,-23.9591 L -28.3156,-20.5725 L -30.6707,-16.8614
 L -32.5422,-12.8844 L -33.9004,-8.70413 L -34.4185,-5.98816 L -45.3767,-5.98816 L -46.1243,-5.89372 L -46.8541,-5.70633
 L -47.5547,-5.42896 L -48.215,-5.06596 L -48.8245,-4.62308 L -49.3738,-4.10727 L -49.8541,-3.5267 L -50.2578,-2.89052
 L -50.5786,-2.20874 L -50.8115,-1.49213 L -50.9527,-0.751999 L -51,-0 L -50.9527,0.751999 L -50.8115,1.49213
 L -50.5786,2.20874 L -50.2578,2.89052 L -49.8541,3.5267 L -49.3738,4.10727 L -48.8245,4.62308 L -48.215,5.06596
 L -47.5547,5.42896 L -46.8541,5.70633 L -46.1243,5.89372 L -45.3767,5.98816 L -34.4185,5.98816 L -33.9004,8.70413
 L -32.5422,12.8844 L -30.6707,16.8614 L -28.3156,20.5725 L -25.5139,23.9591 L -22.3098,26.968 L -18.7539,29.5515
 L -14.9023,31.6689 L -10.8156,33.287 L -6.55833,34.3801 L -6,34.4506 L -6,45 L -5.95268,45.752
 L -5.81149,46.4921 L -5.57864,47.2087 L -5.25783,47.8905 L -4.8541,48.5267 L -4.37381,49.1073 L -3.82454,49.6231
 L -3.21495,50.066 L -2.55467,50.429 L -1.8541,50.7063 L -1.12428,50.8937 L -0.37674,50.9882 L 0.37674,50.9882
 z
" stroke="black" fill="lightgray" stroke-width="0.5"/>
</svg>
