<?xml version="1.0" encoding="utf-8"?>
<!-- Generator: Adobe Illustrator 25.3.0, SVG Export Plug-In . SVG Version: 6.00 Build 0)  -->
<svg version="1.1" xmlns="http://www.w3.org/2000/svg" xmlns:xlink="http://www.w3.org/1999/xlink" x="0px" y="0px"
	 viewBox="0 0 612 792" style="enable-background:new 0 0 612 792;" xml:space="preserve">
<style type="text/css">
	.st0{display:none;}
	.st1{display:inline;}
	.st2{opacity:0.23;}
	.st3{fill:#FFFFFF;}
	.st4{fill:none;stroke:#000000;stroke-miterlimit:10;}
</style>
<g id="Layer_1" class="st0">
	<g id="Bv9oWt_1_" class="st1">
		<g class="st2">
			<g>
				<path class="st3" d="M306.13,597.65c-83.95,0-167.9-0.03-251.85,0.11c-3.75,0.01-4.28-0.95-4.28-4.41
					c0.1-133.39,0.1-266.79,0-400.18c0-3.44,0.51-4.42,4.27-4.41c167.9,0.13,335.8,0.12,503.69,0.01c3.53,0,4.03,0.84,4.03,4.15
					c-0.1,133.56-0.1,267.12,0,400.68c0,3.29-0.48,4.16-4.03,4.16C474.03,597.62,390.08,597.65,306.13,597.65z M110.94,432.66
					c0,8.33,0.11,16.65-0.06,24.98c-0.06,3.04,0.91,4.78,3.69,6.27c14.07,7.55,28.06,15.24,41.94,23.14
					c3.14,1.79,5.43,1.98,8.59,0.04c10.78-6.6,21.85-12.74,32.62-19.34c3.55-2.18,6.23-2.3,9.87,0.01
					c10.39,6.59,21.1,12.67,31.63,19.06c3.09,1.88,5.64,2.17,9.07,0.16c13.49-7.91,27.12-15.59,40.91-22.94
					c4.08-2.17,5.14-4.88,5.07-9.12c-0.24-14.81-0.46-29.64-0.12-44.44c0.1-4.24-1.33-6.26-4.72-8.17
					c-11.01-6.21-21.84-12.74-32.81-19.02c-2.6-1.49-3.65-3.31-3.63-6.37c0.09-12.64-0.67-25.32,0.08-37.91
					c0.4-6.76-2.16-9.64-7.67-12.43c-12.46-6.3-24.7-13.05-36.74-20.12c-3.91-2.29-6.78-2.86-10.85-0.52
					c-13.4,7.7-26.99,15.08-40.58,22.45c-2.68,1.45-3.64,3.18-3.6,6.3c0.18,13.31,0.17,26.63-0.17,39.94
					c-0.05,1.99-1.71,4.67-3.42,5.76c-11.79,7.5-23.76,14.73-35.78,21.86c-2.48,1.47-3.43,3.11-3.38,5.95
					C111.05,416.35,110.95,424.51,110.94,432.66z M323.77,432.67c0.02,0,0.04,0,0.06,0c0,8.49-0.16,16.99,0.13,25.47
					c0.06,1.73,1.41,4.15,2.88,4.99c14.41,8.26,28.93,16.35,43.57,24.22c1.65,0.89,4.6,0.9,6.23,0.01
					c11.97-6.52,23.69-13.48,35.67-19.98c1.8-0.97,5-1.15,6.71-0.19c11.46,6.4,22.78,13.08,33.96,19.98
					c2.81,1.74,4.85,1.93,7.68,0.29c14.25-8.25,28.63-16.26,42.87-24.53c1.29-0.75,2.63-2.75,2.64-4.17
					c0.16-16.81,0.18-33.62-0.12-50.43c-0.03-1.96-1.74-4.63-3.47-5.7c-10.89-6.72-21.97-13.14-33.08-19.5
					c-2.65-1.52-3.57-3.36-3.54-6.39c0.13-13.97,0.1-27.95-0.1-41.93c-0.02-1.67-0.95-4.13-2.23-4.86
					c-14.89-8.48-29.89-16.77-44.99-24.87c-1.54-0.83-4.31-0.8-5.87,0.03c-14.1,7.5-28.03,15.31-42.08,22.91
					c-2.78,1.5-4.1,3.27-4.05,6.62c0.19,12.65-0.19,25.31,0.18,37.95c0.13,4.48-1.28,6.86-5.1,9.02
					c-11.58,6.55-22.99,13.4-34.28,20.43c-1.74,1.08-3.45,3.69-3.54,5.67C323.54,416.01,323.77,424.35,323.77,432.67z"/>
				<path d="M110.94,432.66c0-8.16,0.11-16.32-0.05-24.47c-0.06-2.84,0.9-4.48,3.38-5.95c12.02-7.13,23.98-14.36,35.78-21.86
					c1.72-1.09,3.37-3.77,3.42-5.76c0.33-13.31,0.35-26.62,0.17-39.94c-0.04-3.13,0.92-4.85,3.6-6.3
					c13.59-7.37,27.18-14.74,40.58-22.45c4.07-2.34,6.94-1.77,10.85,0.52c12.04,7.06,24.29,13.82,36.74,20.12
					c5.51,2.78,8.08,5.67,7.67,12.43c-0.75,12.59,0.01,25.27-0.08,37.91c-0.02,3.06,1.03,4.88,3.63,6.37
					c10.97,6.28,21.8,12.81,32.81,19.02c3.39,1.91,4.82,3.93,4.72,8.17c-0.34,14.81-0.12,29.63,0.12,44.44
					c0.07,4.24-0.99,6.95-5.07,9.12c-13.8,7.35-27.43,15.03-40.91,22.94c-3.43,2.01-5.98,1.72-9.07-0.16
					c-10.52-6.38-21.23-12.47-31.63-19.06c-3.64-2.31-6.32-2.18-9.87-0.01c-10.78,6.6-21.85,12.73-32.62,19.34
					c-3.16,1.94-5.45,1.75-8.59-0.04c-13.87-7.9-27.87-15.59-41.94-23.14c-2.77-1.49-3.75-3.23-3.69-6.27
					C111.05,449.32,110.94,440.99,110.94,432.66z M281.63,432.73c0.02,0,0.04,0,0.06,0c0-5.99,0.13-11.99-0.09-17.97
					c-0.05-1.37-0.94-3.29-2.04-3.95c-10.55-6.33-21.2-12.49-31.91-18.52c-1.14-0.64-3.24-0.71-4.36-0.09
					c-10.47,5.8-20.9,11.68-31.12,17.9c-1.71,1.04-3.23,3.82-3.3,5.86c-0.42,11.29-0.27,22.6-0.56,33.9
					c-0.08,3.13,1.09,4.82,3.71,6.29c9.85,5.53,19.52,11.4,29.45,16.78c1.77,0.96,4.92,1.03,6.66,0.09
					c10.22-5.55,20.29-11.41,30.21-17.48c1.59-0.97,3.03-3.46,3.16-5.35C281.89,444.4,281.63,438.56,281.63,432.73z M196.43,432.91
					c0.09,0,0.19,0,0.28,0c0-5.32-0.15-10.64,0.06-15.96c0.13-3.27-0.57-5.41-3.78-7.17c-10.21-5.56-20.13-11.66-30.32-17.25
					c-1.47-0.81-4.21-0.62-5.75,0.23c-10.19,5.6-20.28,11.39-30.21,17.45c-1.57,0.96-3.01,3.55-3.04,5.42
					c-0.19,11.79-0.05,23.58,0.24,35.36c0.04,1.5,1.15,3.6,2.4,4.36c10.39,6.24,20.9,12.3,31.49,18.19c1.27,0.71,3.6,0.72,4.86,0.02
					c10.31-5.72,20.54-11.6,30.65-17.67c1.43-0.86,2.89-2.95,2.98-4.55C196.64,445.22,196.43,439.06,196.43,432.91z M166.37,359.06
					c-0.07,0-0.15,0-0.22,0c0,5.82-0.21,11.64,0.12,17.44c0.1,1.8,1.22,4.27,2.66,5.14c10.11,6.06,20.36,11.89,30.74,17.48
					c1.65,0.89,4.59,0.96,6.22,0.08c10.37-5.6,20.62-11.45,30.69-17.56c1.52-0.92,2.72-3.64,2.75-5.55
					c0.15-10.78-0.27-21.57-0.13-32.35c0.05-3.94-1.06-6.4-4.62-8.37c-9.72-5.39-19.17-11.28-28.91-16.62
					c-1.57-0.86-4.5-0.68-6.14,0.22c-9.45,5.2-18.63,10.91-28.07,16.13c-3.77,2.09-5.62,4.48-5.2,9.01
					C166.72,349.05,166.37,354.07,166.37,359.06z"/>
				<path d="M323.77,432.67c0-8.32-0.23-16.65,0.17-24.96c0.09-1.98,1.8-4.59,3.54-5.67c11.29-7.03,22.71-13.88,34.28-20.43
					c3.81-2.16,5.23-4.54,5.1-9.02c-0.37-12.64,0-25.3-0.18-37.95c-0.05-3.35,1.27-5.12,4.05-6.62
					c14.05-7.6,27.98-15.41,42.08-22.91c1.56-0.83,4.32-0.86,5.87-0.03c15.1,8.1,30.1,16.39,44.99,24.87
					c1.28,0.73,2.2,3.19,2.23,4.86c0.2,13.97,0.23,27.95,0.1,41.93c-0.03,3.03,0.89,4.87,3.54,6.39
					c11.11,6.36,22.19,12.78,33.08,19.5c1.72,1.06,3.43,3.74,3.47,5.7c0.3,16.81,0.27,33.62,0.12,50.43
					c-0.01,1.43-1.35,3.42-2.64,4.17c-14.23,8.27-28.62,16.28-42.87,24.53c-2.84,1.64-4.87,1.44-7.68-0.29
					c-11.17-6.9-22.49-13.58-33.96-19.98c-1.71-0.96-4.92-0.78-6.71,0.19c-11.98,6.5-23.7,13.47-35.67,19.98
					c-1.63,0.89-4.59,0.87-6.23-0.01c-14.63-7.87-29.15-15.95-43.57-24.22c-1.47-0.84-2.82-3.26-2.88-4.99
					c-0.29-8.48-0.13-16.98-0.13-25.47C323.81,432.67,323.79,432.67,323.77,432.67z M409.83,433.24c-0.09,0-0.18,0-0.27,0
					c0-5.82,0.29-11.67-0.16-17.46c-0.16-2.04-1.66-4.73-3.37-5.78c-10.05-6.19-20.3-12.05-30.61-17.8
					c-1.27-0.71-3.61-0.72-4.87-0.02c-10.15,5.69-20.12,11.71-30.25,17.44c-2.68,1.52-3.58,3.37-3.57,6.39
					c0.05,11.3-0.05,22.61-0.35,33.91c-0.08,3.13,1.08,4.78,3.73,6.24c10.19,5.63,20.2,11.57,30.43,17.14
					c1.39,0.76,3.93,0.7,5.34-0.07c10.22-5.58,20.23-11.54,30.43-17.15c2.75-1.51,3.66-3.4,3.58-6.37
					C409.71,444.23,409.83,438.74,409.83,433.24z M494.48,432.35c0.06,0,0.11,0,0.17,0c0-5.65,0.22-11.31-0.13-16.94
					c-0.11-1.75-1.35-4.12-2.8-4.99c-10.11-6.07-20.35-11.92-30.7-17.57c-1.54-0.84-4.27-0.98-5.76-0.17
					c-10.51,5.7-20.89,11.63-31.16,17.76c-1.36,0.81-2.59,3.08-2.6,4.69c-0.1,11.95,0.02,23.9,0.37,35.84
					c0.05,1.57,1.43,3.7,2.82,4.55c9.91,6.07,19.92,11.99,30.07,17.64c1.63,0.91,4.58,1.01,6.19,0.14
					c9.62-5.24,18.97-10.99,28.54-16.32c3.79-2.11,5.42-4.76,5.08-9.18C494.17,442.68,494.48,437.5,494.48,432.35z M452,359.29
					c0.13,0,0.25,0,0.38,0c0-5.99,0.15-11.99-0.1-17.96c-0.06-1.54-0.97-3.7-2.18-4.43c-10.4-6.26-20.92-12.32-31.54-18.22
					c-1.32-0.74-3.75-0.8-5.05-0.07c-10.61,5.91-21.14,11.97-31.52,18.29c-1.46,0.89-2.71,3.38-2.74,5.15
					c-0.22,11.65-0.18,23.31,0.07,34.97c0.03,1.64,1.25,3.92,2.62,4.75c10.25,6.18,20.63,12.17,31.11,17.95
					c1.39,0.77,3.96,0.74,5.36-0.04c10.3-5.78,20.48-11.76,30.56-17.91c1.41-0.86,2.81-2.94,2.9-4.53
					C452.21,371.27,452,365.27,452,359.29z"/>
				<path class="st3" d="M281.63,432.73c0,5.83,0.26,11.67-0.15,17.47c-0.13,1.89-1.57,4.37-3.16,5.35
					c-9.93,6.07-19.99,11.93-30.21,17.48c-1.74,0.94-4.89,0.87-6.66-0.09c-9.93-5.38-19.6-11.25-29.45-16.78
					c-2.63-1.47-3.79-3.16-3.71-6.29c0.29-11.3,0.14-22.61,0.56-33.9c0.08-2.04,1.6-4.82,3.3-5.86c10.22-6.22,20.65-12.1,31.12-17.9
					c1.12-0.62,3.22-0.55,4.36,0.09c10.72,6.03,21.37,12.2,31.91,18.52c1.1,0.66,1.99,2.58,2.04,3.95
					c0.22,5.98,0.09,11.98,0.09,17.97C281.67,432.73,281.65,432.73,281.63,432.73z"/>
				<path class="st3" d="M196.43,432.91c0,6.15,0.21,12.31-0.14,18.44c-0.09,1.6-1.55,3.69-2.98,4.55
					c-10.11,6.07-20.33,11.95-30.65,17.67c-1.26,0.7-3.6,0.69-4.86-0.02c-10.59-5.9-21.1-11.95-31.49-18.19
					c-1.26-0.75-2.37-2.85-2.4-4.36c-0.28-11.79-0.42-23.58-0.24-35.36c0.03-1.86,1.46-4.46,3.04-5.42
					c9.92-6.05,20.02-11.84,30.21-17.45c1.54-0.85,4.28-1.03,5.75-0.23c10.2,5.59,20.11,11.69,30.32,17.25
					c3.21,1.75,3.91,3.9,3.78,7.17c-0.21,5.31-0.06,10.64-0.06,15.96C196.62,432.91,196.52,432.91,196.43,432.91z"/>
				<path class="st3" d="M166.37,359.06c0-4.99,0.35-10.01-0.1-14.95c-0.42-4.53,1.43-6.92,5.2-9.01
					c9.44-5.22,18.61-10.93,28.07-16.13c1.64-0.9,4.56-1.09,6.14-0.22c9.74,5.35,19.19,11.24,28.91,16.62
					c3.56,1.97,4.67,4.43,4.62,8.37c-0.14,10.78,0.28,21.57,0.13,32.35c-0.03,1.91-1.23,4.62-2.75,5.55
					c-10.08,6.11-20.32,11.96-30.69,17.56c-1.63,0.88-4.56,0.81-6.22-0.08c-10.38-5.59-20.63-11.42-30.74-17.48
					c-1.44-0.86-2.56-3.34-2.66-5.14c-0.33-5.8-0.12-11.62-0.12-17.44C166.22,359.06,166.29,359.06,166.37,359.06z"/>
				<path class="st3" d="M409.83,433.24c0,5.49-0.11,10.98,0.04,16.47c0.08,2.97-0.83,4.86-3.58,6.37
					c-10.2,5.61-20.21,11.57-30.43,17.15c-1.41,0.77-3.95,0.83-5.34,0.07c-10.22-5.57-20.24-11.51-30.43-17.14
					c-2.65-1.46-3.81-3.11-3.73-6.24c0.29-11.3,0.4-22.61,0.35-33.91c-0.01-3.02,0.89-4.88,3.57-6.39
					c10.13-5.73,20.1-11.75,30.25-17.44c1.26-0.71,3.6-0.69,4.87,0.02c10.31,5.75,20.56,11.62,30.61,17.8
					c1.71,1.05,3.21,3.74,3.37,5.78c0.45,5.79,0.16,11.64,0.16,17.46C409.64,433.24,409.74,433.24,409.83,433.24z"/>
				<path class="st3" d="M494.48,432.35c0,5.15-0.3,10.33,0.09,15.45c0.34,4.42-1.29,7.07-5.08,9.18
					c-9.57,5.34-18.92,11.08-28.54,16.32c-1.61,0.87-4.56,0.77-6.19-0.14c-10.15-5.65-20.16-11.57-30.07-17.64
					c-1.39-0.85-2.78-2.97-2.82-4.55c-0.35-11.94-0.47-23.9-0.37-35.84c0.01-1.61,1.24-3.88,2.6-4.69
					c10.27-6.12,20.65-12.06,31.16-17.76c1.49-0.81,4.22-0.67,5.76,0.17c10.35,5.65,20.59,11.5,30.7,17.57
					c1.45,0.87,2.69,3.24,2.8,4.99c0.35,5.63,0.13,11.29,0.13,16.94C494.59,432.35,494.53,432.35,494.48,432.35z"/>
				<path class="st3" d="M452,359.29c0,5.98,0.2,11.98-0.14,17.94c-0.09,1.59-1.49,3.67-2.9,4.53
					c-10.08,6.15-20.27,12.13-30.56,17.91c-1.39,0.78-3.96,0.81-5.36,0.04c-10.48-5.79-20.86-11.77-31.11-17.95
					c-1.37-0.83-2.58-3.11-2.62-4.75c-0.25-11.65-0.28-23.31-0.07-34.97c0.03-1.77,1.28-4.26,2.74-5.15
					c10.37-6.32,20.9-12.38,31.52-18.29c1.3-0.72,3.72-0.67,5.05,0.07c10.61,5.9,21.13,11.97,31.54,18.22
					c1.21,0.73,2.11,2.89,2.18,4.43c0.25,5.98,0.1,11.97,0.1,17.96C452.25,359.29,452.13,359.29,452,359.29z"/>
			</g>
		</g>
	</g>
</g>
<g id="Layer_2">
	<path class="st4" d="M122.57,452.39l-10.09,5.46c-1.55,0.81-1.36-0.61-1.36-1.36v-47.86c-0.01-1.31,0.5-1.83,1.36-1.36l10.68,6.3
		c0.37,0.44,0.37,0.44,0.37,1.19v35.96C123.54,451.69,123.52,451.73,122.57,452.39z"/>
	<path class="st4" d="M158.08,474.61l-0.08,11.47c-0.04,1.75-1.19,0.9-1.85,0.54l-41.92-23.09c-1.15-0.62-1.36-1.32-0.54-1.85
		l10.67-6.32c0.56-0.12,0.56-0.12,1.22,0.25l31.5,17.35C157.94,473.42,157.96,473.45,158.08,474.61z"/>
	<path class="st4" d="M244.34,475.41l-0.08,11.47c-0.04,1.75-1.19,0.9-1.85,0.54l-37.33-20.82c-1.15-0.62-0.98-1.11-1.14-2.37
		l-0.12-10.91c0.04-1.16,0.83-1.61,1.49-1.24l38.03,21.67C244.21,474.23,244.22,474.26,244.34,475.41z"/>
	<path class="st4" d="M160.69,475.41l0.08,11.47c0.04,1.75,1.19,0.9,1.85,0.54l37.33-20.82c1.15-0.62,0.98-1.11,1.14-2.37
		l0.12-10.91c-0.04-1.16-0.83-1.61-1.49-1.24l-38.03,21.67C160.83,474.23,160.81,474.26,160.69,475.41z"/>
	<path class="st4" d="M247.13,474.61l0.08,11.47c0.04,1.75,1.19,0.9,1.85,0.54l41.92-23.09c1.15-0.62,1.36-1.32,0.54-1.85
		l-10.67-6.32c-0.56-0.12-0.56-0.12-1.22,0.25l-31.5,17.35C247.27,473.42,247.25,473.45,247.13,474.61z"/>
	<path class="st4" d="M282.61,453.06l10.09,5.46c1.55,0.81,1.36-0.61,1.36-1.36V409.3c0.01-1.31-0.5-1.83-1.36-1.36l-10.68,6.3
		c-0.37,0.44-0.37,0.44-0.37,1.19v35.96C281.64,452.37,281.65,452.4,282.61,453.06z"/>
	<path class="st4" d="M252.08,381.12l-9.92,5.76c-1.5,0.9-0.19,1.48,0.45,1.87l36.58,22.12c1.11,0.69,1.45,0.3,2.62-0.19l9.54-5.3
		c0.99-0.61,0.98-1.52,0.34-1.91l-37.67-22.3C253.18,380.65,253.15,380.65,252.08,381.12z"/>
	<path class="st4" d="M123.66,410.23l-9.92-5.76c-1.5-0.9-0.19-1.48,0.45-1.87l36.58-22.12c1.11-0.69,1.45-0.3,2.62,0.19l9.54,5.3
		c0.99,0.61,0.98,1.52,0.34,1.91l-37.67,22.3C124.76,410.69,124.73,410.7,123.66,410.23z"/>
	<path class="st4" d="M155.36,378.37l10.02,5.58c1.54,0.83,1.37-0.59,1.38-1.35l0.29-42.74c0.02-1.31-0.48-1.4-1.5-2.16l-9.43-5.48
		c-1.03-0.54-1.81-0.07-1.82,0.68l0.11,43.77C154.4,377.67,154.42,377.7,155.36,378.37z"/>
	<path class="st4" d="M167.01,335.89l-9.67-6.17c-1.46-0.96-0.13-1.49,0.53-1.85l41.85-23.22c1.14-0.64,1.84-0.45,1.85,0.53
		l-0.33,12.4c-0.2,0.54-0.2,0.54-0.86,0.9l-31.44,17.45C168.08,336.4,168.05,336.4,167.01,335.89z"/>
	<path class="st4" d="M238.81,336.51l9.78-5.99c1.48-0.93,0.16-1.49-0.5-1.86l-41.41-23.99c-1.13-0.66-1.83-0.48-1.86,0.5l0.1,12.4
		c0.19,0.54,0.19,0.54,0.84,0.92l31.11,18.03C237.72,337,237.76,337,238.81,336.51z"/>
	<path class="st4" d="M240.22,338.83l10.02-5.58c1.54-0.83,1.37,0.59,1.38,1.35l0.29,42.74c0.02,1.31-0.48,1.4-1.5,2.16l-9.43,5.48
		c-1.03,0.54-1.81,0.07-1.82-0.68l0.11-43.77C239.26,339.54,239.28,339.5,240.22,338.83z"/>
</g>
<g id="Layer_3">
	<path class="st4" d="M254.01,335.77l-0.28-6.65c0.37-0.65-4.97-2.59-4.32-2.96l36.78-20.41c1.14-0.64,1.84-0.45,1.85,0.53
		l-0.32,12.4c-0.2,0.54-0.2,0.54-0.86,0.9l-30.73,17.06C255.28,337.12,254.15,336.88,254.01,335.77z"/>
	<path class="st4" d="M296.44,462.06l-2.15,2.88c-1.51,0.88-4.42,2.11-3.78,2.51l34.98,22.21c1.1,0.7,1.82,0.54,1.88-0.43l0.34-12.4
		c-0.17-0.55-0.17-0.55-0.81-0.95l-29.83-18.73C296.24,456.63,297.58,460.14,296.44,462.06z"/>
	<path class="st4" d="M330.57,477.25l0.12,11.47c0.04,1.75,1.2,0.9,1.85,0.53l41.84-23.23c1.15-0.63,1.35-1.33,0.53-1.85l-10.7-6.28
		c-0.56-0.11-0.56-0.11-1.22,0.25l-31.44,17.45C330.71,476.07,330.69,476.1,330.57,477.25z"/>
	<path class="st4" d="M378.66,415.65l-9.85-5.88c-1.51-0.88-1.39,0.55-1.42,1.3l-1.58,42.72c-0.06,1.31,0.44,1.41,1.43,2.2
		l9.26,5.76c1.01,0.57,1.81,0.12,1.84-0.63l1.21-43.76C379.6,416.38,379.58,416.35,378.66,415.65z"/>
	<path class="st4" d="M290.88,317.5l0.22-11.47c0.06-1.75,1.2-0.89,1.86-0.51l37.09,21.25c1.14,0.64,0.97,1.12,1.11,2.38
		l-0.01,10.91c-0.05,1.16-0.85,1.6-1.51,1.23l-37.78-22.11C291.01,318.68,290.99,318.65,290.88,317.5z"/>
	<path class="st4" d="M334.12,329.75l-0.02,11.47c0.02,1.75,1.18,0.91,1.85,0.55l37.52-20.49c1.16-0.61,0.99-1.1,1.16-2.36
		l0.21-10.91c-0.03-1.16-0.82-1.61-1.48-1.26l-38.22,21.34C334.27,328.57,334.25,328.6,334.12,329.75z"/>
	<path class="st4" d="M376.92,319.31l0.7-11.45c0.13-1.75,1.24-0.83,1.88-0.44l40.61,25.32c1.11,0.69,1.28,1.39,0.44,1.88l-11,5.73
		c-0.57,0.09-0.57,0.09-1.21-0.31l-30.51-19.02C376.99,320.5,376.98,320.47,376.92,319.31z"/>
	<path class="st4" d="M411.22,382.39l9.99,5.64c1.54,0.84,1.37-0.59,1.39-1.34l0.88-47.85c0.03-1.31-0.47-1.84-1.34-1.39l-10.8,6.1
		c-0.38,0.43-0.38,0.43-0.39,1.18l-0.66,35.95C410.26,381.68,410.28,381.71,411.22,382.39z"/>
	<path class="st4" d="M409.88,384.76l9.74,6.05c1.47,0.94,0.15,1.49-0.51,1.86l-37.23,21c-1.13,0.66-1.46,0.26-2.61-0.27l-9.37-5.59
		c-0.97-0.64-0.94-1.55-0.28-1.92l38.33-21.15C408.79,384.26,408.83,384.26,409.88,384.76z"/>
</g>
<g id="Layer_4">
	<path class="st4" d="M206.19,301.67l-3.82-0.49c-2.24,0.52-3.45,1.26-3.48,1.25l-0.15-39.57c-0.01-1.31,0.5-1.83,1.36-1.36
		l10.68,6.3c0.37,0.44,0.37,0.44,0.37,1.19v35.12C211.16,305.09,208.87,302.37,206.19,301.67z"/>
	<path class="st4" d="M374.21,304.01l2.84,0.05c2.34,0.13,4.62,2.46,4.62,1.71v-42.24c0.01-1.31-0.5-1.83-1.36-1.36l-10.68,6.3
		c-0.37,0.44-0.37,0.44-0.37,1.19l0.17,36.24C369.02,306.93,371.98,304.07,374.21,304.01z"/>
	<path class="st4" d="M339.7,235.35l-9.92,5.76c-1.5,0.9-0.19,1.48,0.45,1.87l36.58,22.12c1.11,0.69,1.45,0.3,2.62-0.19l9.54-5.3
		c0.99-0.61,0.98-1.52,0.34-1.91l-37.67-22.3C340.8,234.89,340.76,234.88,339.7,235.35z"/>
	<path class="st4" d="M211.28,264.46l-9.92-5.76c-1.5-0.9-0.19-1.48,0.45-1.87l36.58-22.12c1.11-0.69,1.45-0.3,2.62,0.19l9.54,5.3
		c0.99,0.61,0.98,1.52,0.34,1.91l-37.67,22.3C212.38,264.93,212.34,264.93,211.28,264.46z"/>
	<path class="st4" d="M242.98,232.61l10.02,5.58c1.54,0.83,1.37-0.59,1.38-1.35l0.29-42.74c0.02-1.31-0.48-1.4-1.5-2.16l-9.43-5.48
		c-1.03-0.54-1.81-0.07-1.82,0.68l0.11,43.77C242.01,231.9,242.03,231.94,242.98,232.61z"/>
	<path class="st4" d="M254.62,190.12l-9.67-6.17c-1.46-0.96-0.13-1.49,0.53-1.85l41.85-23.22c1.14-0.64,1.84-0.45,1.85,0.53
		l-0.33,12.4c-0.2,0.54-0.2,0.54-0.86,0.9l-31.44,17.45C255.7,190.63,255.66,190.63,254.62,190.12z"/>
	<path class="st4" d="M326.42,190.74l9.78-5.99c1.48-0.93,0.16-1.49-0.5-1.86L294.3,158.9c-1.13-0.66-1.83-0.48-1.86,0.5l0.1,12.4
		c0.19,0.54,0.19,0.54,0.84,0.92l31.11,18.03C325.34,191.23,325.37,191.23,326.42,190.74z"/>
	<path class="st4" d="M327.84,193.07l10.02-5.58c1.54-0.83,1.37,0.59,1.38,1.35l0.29,42.74c0.02,1.31-0.48,1.4-1.5,2.16l-9.43,5.48
		c-1.03,0.54-1.81,0.07-1.82-0.68l0.11-43.77C326.88,193.77,326.89,193.74,327.84,193.07z"/>
</g>
</svg>
