<svg xmlns="http://www.w3.org/2000/svg" viewBox="0 0 313.36 332.59"><defs><style>.cls-1{fill:none;stroke:#231f20;stroke-miterlimit:10;}</style></defs><g id="Layer_2" data-name="Layer 2"><path class="cls-1" d="M122.57,452.39l-10.09,5.46c-1.55.81-1.36-.61-1.36-1.37V408.63c0-1.31.51-1.83,1.36-1.37l10.69,6.31c.37.43.37.43.37,1.19v35.95C123.54,451.69,123.52,451.73,122.57,452.39Z" transform="translate(-110.61 -158)"/><path class="cls-1" d="M158.08,474.61,158,486.08c0,1.75-1.19.9-1.85.53l-41.92-23.08c-1.15-.63-1.35-1.33-.53-1.85l10.67-6.32c.56-.12.56-.12,1.22.24L157.08,473C157.94,473.42,158,473.45,158.08,474.61Z" transform="translate(-110.61 -158)"/><path class="cls-1" d="M244.34,475.41l-.08,11.47c0,1.75-1.19.9-1.85.54L205.08,466.6c-1.15-.63-1-1.11-1.14-2.37l-.12-10.91c0-1.16.83-1.61,1.49-1.24l38,21.67C244.21,474.23,244.22,474.26,244.34,475.41Z" transform="translate(-110.61 -158)"/><path class="cls-1" d="M160.69,475.41l.08,11.47c0,1.75,1.19.9,1.85.54L200,466.6c1.15-.63,1-1.11,1.13-2.37l.12-10.91c0-1.16-.83-1.61-1.49-1.24l-38,21.67C160.83,474.23,160.81,474.26,160.69,475.41Z" transform="translate(-110.61 -158)"/><path class="cls-1" d="M247.13,474.61l.08,11.47c0,1.75,1.2.9,1.86.53L291,463.53c1.15-.63,1.35-1.33.53-1.85l-10.67-6.32c-.56-.12-.56-.12-1.22.24L248.13,473C247.27,473.42,247.25,473.45,247.13,474.61Z" transform="translate(-110.61 -158)"/><path class="cls-1" d="M282.61,453.06l10.08,5.46c1.55.81,1.37-.61,1.37-1.36V409.3c0-1.31-.51-1.83-1.37-1.36L282,414.24c-.37.44-.37.44-.37,1.19v35.95C281.64,452.37,281.65,452.4,282.61,453.06Z" transform="translate(-110.61 -158)"/><path class="cls-1" d="M252.08,381.12l-9.92,5.75c-1.5.9-.19,1.48.45,1.88l36.58,22.11c1.12.69,1.45.3,2.62-.19l9.54-5.3c1-.61,1-1.52.34-1.91L254,381.16C253.18,380.65,253.15,380.65,252.08,381.12Z" transform="translate(-110.61 -158)"/><path class="cls-1" d="M123.66,410.23l-9.92-5.76c-1.5-.9-.19-1.48.45-1.87l36.58-22.12c1.12-.69,1.45-.3,2.62.19l9.54,5.3c1,.61,1,1.52.34,1.92L125.6,410.18C124.76,410.69,124.73,410.7,123.66,410.23Z" transform="translate(-110.61 -158)"/><path class="cls-1" d="M155.36,378.37l10,5.59c1.54.83,1.37-.6,1.38-1.35l.29-42.75c0-1.3-.48-1.39-1.5-2.15l-9.43-5.48c-1-.54-1.81-.07-1.82.68l.11,43.78C154.4,377.67,154.42,377.7,155.36,378.37Z" transform="translate(-110.61 -158)"/><path class="cls-1" d="M167,335.89l-9.67-6.18c-1.46-1-.13-1.48.53-1.85l41.84-23.22c1.14-.64,1.85-.45,1.86.53l-.33,12.4c-.2.54-.2.54-.86.9l-31.44,17.45C168.08,336.4,168.05,336.4,167,335.89Z" transform="translate(-110.61 -158)"/><path class="cls-1" d="M238.81,336.51l9.78-6c1.48-.94.15-1.49-.5-1.87l-41.41-24c-1.12-.66-1.83-.48-1.86.5l.1,12.4c.19.54.19.54.84.92l31.11,18C237.72,337,237.76,337,238.81,336.51Z" transform="translate(-110.61 -158)"/><path class="cls-1" d="M240.22,338.83l10-5.58c1.55-.83,1.38.59,1.38,1.35l.3,42.74c0,1.31-.49,1.4-1.5,2.16L241,385c-1,.53-1.81.06-1.81-.69l.1-43.77C239.26,339.54,239.28,339.5,240.22,338.83Z" transform="translate(-110.61 -158)"/></g><g id="Layer_3" data-name="Layer 3"><path class="cls-1" d="M254,335.77l-.28-6.65c.37-.64-5-2.59-4.31-2.95l36.77-20.42c1.14-.64,1.85-.44,1.86.53l-.33,12.4c-.2.54-.2.54-.86.91l-30.72,17.05A1.34,1.34,0,0,1,254,335.77Z" transform="translate(-110.61 -158)"/><path class="cls-1" d="M296.44,462.06l-2.16,2.88c-1.51.88-4.42,2.11-3.78,2.51l35,22.21c1.1.7,1.81.54,1.88-.43l.34-12.4c-.17-.55-.17-.55-.81-.95l-29.83-18.73C296.24,456.63,297.58,460.14,296.44,462.06Z" transform="translate(-110.61 -158)"/><path class="cls-1" d="M330.57,477.25l.12,11.47c.05,1.75,1.2.9,1.86.53L374.39,466c1.15-.63,1.35-1.33.53-1.86l-10.7-6.28c-.56-.12-.56-.12-1.22.25l-31.43,17.45C330.71,476.07,330.69,476.1,330.57,477.25Z" transform="translate(-110.61 -158)"/><path class="cls-1" d="M378.66,415.65l-9.85-5.88c-1.51-.88-1.38.55-1.42,1.3l-1.58,42.72c-.06,1.3.44,1.41,1.44,2.2l9.26,5.76c1,.57,1.81.12,1.84-.63l1.21-43.76C379.6,416.38,379.58,416.35,378.66,415.65Z" transform="translate(-110.61 -158)"/><path class="cls-1" d="M290.88,317.5,291.1,306c.06-1.75,1.2-.89,1.86-.52l37.09,21.25c1.14.64,1,1.13,1.1,2.38v10.91c-.05,1.16-.85,1.6-1.5,1.23l-37.78-22.11C291,318.68,291,318.65,290.88,317.5Z" transform="translate(-110.61 -158)"/><path class="cls-1" d="M334.12,329.75l0,11.47c0,1.75,1.18.91,1.85.55l37.51-20.49c1.16-.61,1-1.1,1.16-2.35l.21-10.91c0-1.16-.82-1.62-1.48-1.26L335.13,328.1C334.27,328.57,334.25,328.6,334.12,329.75Z" transform="translate(-110.61 -158)"/><path class="cls-1" d="M376.92,319.31l.7-11.45c.13-1.74,1.24-.83,1.88-.43l40.61,25.31c1.12.69,1.28,1.4.44,1.88l-11,5.74c-.57.08-.57.08-1.21-.32l-30.51-19C377,320.5,377,320.47,376.92,319.31Z" transform="translate(-110.61 -158)"/><path class="cls-1" d="M411.22,382.39l10,5.65c1.53.84,1.37-.59,1.38-1.34l.89-47.85c0-1.31-.48-1.84-1.34-1.39l-10.8,6.11c-.38.42-.38.42-.4,1.18l-.66,35.95C410.26,381.68,410.28,381.71,411.22,382.39Z" transform="translate(-110.61 -158)"/><path class="cls-1" d="M409.88,384.76l9.74,6.05c1.47.94.15,1.49-.51,1.86l-37.23,21c-1.13.66-1.46.26-2.61-.26l-9.37-5.59c-1-.64-.94-1.55-.29-1.92l38.33-21.15C408.79,384.26,408.83,384.26,409.88,384.76Z" transform="translate(-110.61 -158)"/></g><g id="Layer_4" data-name="Layer 4"><path class="cls-1" d="M206.19,301.67l-3.82-.49a14.06,14.06,0,0,0-3.48,1.25l-.15-39.57c0-1.31.5-1.82,1.36-1.36l10.68,6.3c.38.44.38.44.38,1.19v35.12C211.16,305.09,208.87,302.37,206.19,301.67Z" transform="translate(-110.61 -158)"/><path class="cls-1" d="M374.21,304l2.84.06c2.34.13,4.62,2.46,4.62,1.7V263.54c0-1.31-.5-1.83-1.36-1.37l-10.69,6.3c-.37.44-.37.44-.37,1.19l.17,36.25C369,306.93,372,304.07,374.21,304Z" transform="translate(-110.61 -158)"/><path class="cls-1" d="M339.7,235.35l-9.92,5.76c-1.5.9-.19,1.48.45,1.87l36.58,22.12c1.11.69,1.45.3,2.62-.19l9.53-5.3c1-.61,1-1.52.34-1.92L341.63,235.4C340.8,234.89,340.76,234.88,339.7,235.35Z" transform="translate(-110.61 -158)"/><path class="cls-1" d="M211.28,264.46l-9.92-5.75c-1.51-.9-.19-1.48.45-1.88l36.58-22.11c1.11-.69,1.45-.3,2.62.19l9.53,5.3c1,.61,1,1.52.34,1.91l-37.67,22.3C212.38,264.93,212.34,264.93,211.28,264.46Z" transform="translate(-110.61 -158)"/><path class="cls-1" d="M243,232.61l10,5.58c1.54.83,1.37-.59,1.38-1.35l.29-42.74c0-1.31-.49-1.4-1.5-2.15l-9.44-5.49c-1-.53-1.8-.06-1.81.69l.11,43.77C242,231.9,242,231.94,243,232.61Z" transform="translate(-110.61 -158)"/><path class="cls-1" d="M254.62,190.12,245,184c-1.46-1-.12-1.49.53-1.85l41.85-23.23c1.14-.64,1.84-.44,1.85.54l-.32,12.4c-.2.53-.2.53-.86.9l-31.44,17.45C255.7,190.63,255.66,190.63,254.62,190.12Z" transform="translate(-110.61 -158)"/><path class="cls-1" d="M326.42,190.74l9.78-6c1.48-.93.16-1.48-.49-1.86l-41.41-24c-1.13-.67-1.83-.48-1.86.49l.09,12.41c.19.54.19.54.84.92l31.12,18C325.34,191.23,325.37,191.23,326.42,190.74Z" transform="translate(-110.61 -158)"/><path class="cls-1" d="M327.84,193.07l10-5.59c1.54-.83,1.37.6,1.38,1.35l.29,42.75c0,1.3-.48,1.4-1.5,2.15l-9.43,5.48c-1,.54-1.81.07-1.82-.68l.11-43.78C326.88,193.77,326.89,193.74,327.84,193.07Z" transform="translate(-110.61 -158)"/></g></svg>