<?xml version="1.0" encoding="utf-8"?>
<!-- Generator: Adobe Illustrator 25.3.0, SVG Export Plug-In . SVG Version: 6.00 Build 0)  -->
<svg version="1.1" id="Layer_1" xmlns="http://www.w3.org/2000/svg" xmlns:xlink="http://www.w3.org/1999/xlink" x="0px" y="0px"
	 viewBox="0 0 313.36 332.59" style="enable-background:new 0 0 313.36 332.59;" xml:space="preserve">
<style type="text/css">
	.st0{fill:none;stroke:#231F20;stroke-miterlimit:10;}
</style>
<g id="Layer_2_1_">
	<path class="st0" d="M11.96,294.39l-10.09,5.46c-1.55,0.81-1.36-0.61-1.36-1.37v-47.85c0-1.31,0.51-1.83,1.36-1.37l10.69,6.31
		c0.37,0.43,0.37,0.43,0.37,1.19v35.95C12.93,293.69,12.91,293.73,11.96,294.39z"/>
	<path class="st0" d="M47.47,316.61l-0.08,11.47c0,1.75-1.19,0.9-1.85,0.53L3.62,305.53c-1.15-0.63-1.35-1.33-0.53-1.85l10.67-6.32
		c0.56-0.12,0.56-0.12,1.22,0.24L46.47,315C47.33,315.42,47.39,315.45,47.47,316.61z"/>
	<path class="st0" d="M133.73,317.41l-0.08,11.47c0,1.75-1.19,0.9-1.85,0.54L94.47,308.6c-1.15-0.63-1-1.11-1.14-2.37l-0.12-10.91
		c0-1.16,0.83-1.61,1.49-1.24l38,21.67C133.6,316.23,133.61,316.26,133.73,317.41z"/>
	<path class="st0" d="M50.08,317.41l0.08,11.47c0,1.75,1.19,0.9,1.85,0.54l37.38-20.82c1.15-0.63,1-1.11,1.13-2.37l0.12-10.91
		c0-1.16-0.83-1.61-1.49-1.24l-38,21.67C50.22,316.23,50.2,316.26,50.08,317.41z"/>
	<path class="st0" d="M136.52,316.61l0.08,11.47c0,1.75,1.2,0.9,1.86,0.53l41.93-23.08c1.15-0.63,1.35-1.33,0.53-1.85l-10.67-6.32
		c-0.56-0.12-0.56-0.12-1.22,0.24L137.52,315C136.66,315.42,136.64,315.45,136.52,316.61z"/>
	<path class="st0" d="M172,295.06l10.08,5.46c1.55,0.81,1.37-0.61,1.37-1.36V251.3c0-1.31-0.51-1.83-1.37-1.36l-10.69,6.3
		c-0.37,0.44-0.37,0.44-0.37,1.19v35.95C171.03,294.37,171.04,294.4,172,295.06z"/>
	<path class="st0" d="M141.47,223.12l-9.92,5.75c-1.5,0.9-0.19,1.48,0.45,1.88l36.58,22.11c1.12,0.69,1.45,0.3,2.62-0.19l9.54-5.3
		c1-0.61,1-1.52,0.34-1.91l-37.69-22.3C142.57,222.65,142.54,222.65,141.47,223.12z"/>
	<path class="st0" d="M13.05,252.23l-9.92-5.76c-1.5-0.9-0.19-1.48,0.45-1.87l36.58-22.12c1.12-0.69,1.45-0.3,2.62,0.19l9.54,5.3
		c1,0.61,1,1.52,0.34,1.92l-37.67,22.29C14.15,252.69,14.12,252.7,13.05,252.23z"/>
	<path class="st0" d="M44.75,220.37l10,5.59c1.54,0.83,1.37-0.6,1.38-1.35l0.29-42.75c0-1.3-0.48-1.39-1.5-2.15l-9.43-5.48
		c-1-0.54-1.81-0.07-1.82,0.68l0.11,43.78C43.79,219.67,43.81,219.7,44.75,220.37z"/>
	<path class="st0" d="M56.39,177.89l-9.67-6.18c-1.46-1-0.13-1.48,0.53-1.85l41.84-23.22c1.14-0.64,1.85-0.45,1.86,0.53l-0.33,12.4
		c-0.2,0.54-0.2,0.54-0.86,0.9l-31.44,17.45C57.47,178.4,57.44,178.4,56.39,177.89z"/>
	<path class="st0" d="M128.2,178.51l9.78-6c1.48-0.94,0.15-1.49-0.5-1.87l-41.41-24c-1.12-0.66-1.83-0.48-1.86,0.5l0.1,12.4
		c0.19,0.54,0.19,0.54,0.84,0.92l31.11,18C127.11,179,127.15,179,128.2,178.51z"/>
	<path class="st0" d="M129.61,180.83l10-5.58c1.55-0.83,1.38,0.59,1.38,1.35l0.3,42.74c0,1.31-0.49,1.4-1.5,2.16l-9.4,5.5
		c-1,0.53-1.81,0.06-1.81-0.69l0.1-43.77C128.65,181.54,128.67,181.5,129.61,180.83z"/>
</g>
<g id="Layer_3">
	<path class="st0" d="M143.39,177.77l-0.28-6.65c0.37-0.64-5-2.59-4.31-2.95l36.77-20.42c1.14-0.64,1.85-0.44,1.86,0.53l-0.33,12.4
		c-0.2,0.54-0.2,0.54-0.86,0.91l-30.72,17.05c-0.59,0.44-1.43,0.33-1.88-0.27C143.51,178.2,143.42,177.99,143.39,177.77z"/>
	<path class="st0" d="M185.83,304.06l-2.16,2.88c-1.51,0.88-4.42,2.11-3.78,2.51l35,22.21c1.1,0.7,1.81,0.54,1.88-0.43l0.34-12.4
		c-0.17-0.55-0.17-0.55-0.81-0.95l-29.83-18.73C185.63,298.63,186.97,302.14,185.83,304.06z"/>
	<path class="st0" d="M219.96,319.25l0.12,11.47c0.05,1.75,1.2,0.9,1.86,0.53L263.78,308c1.15-0.63,1.35-1.33,0.53-1.86l-10.7-6.28
		c-0.56-0.12-0.56-0.12-1.22,0.25l-31.43,17.45C220.1,318.07,220.08,318.1,219.96,319.25z"/>
	<path class="st0" d="M268.05,257.65l-9.85-5.88c-1.51-0.88-1.38,0.55-1.42,1.3l-1.58,42.72c-0.06,1.3,0.44,1.41,1.44,2.2l9.26,5.76
		c1,0.57,1.81,0.12,1.84-0.63l1.21-43.76C268.99,258.38,268.97,258.35,268.05,257.65z"/>
	<path class="st0" d="M180.27,159.5l0.22-11.5c0.06-1.75,1.2-0.89,1.86-0.52l37.09,21.25c1.14,0.64,1,1.13,1.1,2.38v10.91
		c-0.05,1.16-0.85,1.6-1.5,1.23l-37.78-22.11C180.39,160.68,180.39,160.65,180.27,159.5z"/>
	<path class="st0" d="M223.51,171.75v11.47c0,1.75,1.18,0.91,1.85,0.55l37.51-20.49c1.16-0.61,1-1.1,1.16-2.35l0.21-10.91
		c0-1.16-0.82-1.62-1.48-1.26l-38.24,21.34C223.66,170.57,223.64,170.6,223.51,171.75z"/>
	<path class="st0" d="M266.31,161.31l0.7-11.45c0.13-1.74,1.24-0.83,1.88-0.43l40.61,25.31c1.12,0.69,1.28,1.4,0.44,1.88l-11,5.74
		c-0.57,0.08-0.57,0.08-1.21-0.32l-30.51-19C266.39,162.5,266.39,162.47,266.31,161.31z"/>
	<path class="st0" d="M300.61,224.39l10,5.65c1.53,0.84,1.37-0.59,1.38-1.34l0.89-47.85c0-1.31-0.48-1.84-1.34-1.39l-10.8,6.11
		c-0.38,0.42-0.38,0.42-0.4,1.18l-0.66,35.95C299.65,223.68,299.67,223.71,300.61,224.39z"/>
	<path class="st0" d="M299.27,226.76l9.74,6.05c1.47,0.94,0.15,1.49-0.51,1.86l-37.23,21c-1.13,0.66-1.46,0.26-2.61-0.26l-9.37-5.59
		c-1-0.64-0.94-1.55-0.29-1.92l38.33-21.15C298.18,226.26,298.22,226.26,299.27,226.76z"/>
</g>
<g id="Layer_4">
	<path class="st0" d="M95.58,143.67l-3.82-0.49c-1.21,0.26-2.38,0.68-3.48,1.25l-0.15-39.57c0-1.31,0.5-1.82,1.36-1.36l10.68,6.3
		c0.38,0.44,0.38,0.44,0.38,1.19v35.12C100.55,147.09,98.26,144.37,95.58,143.67z"/>
	<path class="st0" d="M263.6,146l2.84,0.06c2.34,0.13,4.62,2.46,4.62,1.7v-42.22c0-1.31-0.5-1.83-1.36-1.37l-10.69,6.3
		c-0.37,0.44-0.37,0.44-0.37,1.19l0.17,36.25C258.39,148.93,261.39,146.07,263.6,146z"/>
	<path class="st0" d="M229.09,77.35l-9.92,5.76c-1.5,0.9-0.19,1.48,0.45,1.87l36.58,22.12c1.11,0.69,1.45,0.3,2.62-0.19l9.53-5.3
		c1-0.61,1-1.52,0.34-1.92L231.02,77.4C230.19,76.89,230.15,76.88,229.09,77.35z"/>
	<path class="st0" d="M100.67,106.46l-9.92-5.75c-1.51-0.9-0.19-1.48,0.45-1.88l36.58-22.11c1.11-0.69,1.45-0.3,2.62,0.19l9.53,5.3
		c1,0.61,1,1.52,0.34,1.91l-37.67,22.3C101.77,106.93,101.73,106.93,100.67,106.46z"/>
	<path class="st0" d="M132.39,74.61l10,5.58c1.54,0.83,1.37-0.59,1.38-1.35l0.29-42.74c0-1.31-0.49-1.4-1.5-2.15l-9.44-5.49
		c-1-0.53-1.8-0.06-1.81,0.69l0.11,43.77C131.39,73.9,131.39,73.94,132.39,74.61z"/>
	<path class="st0" d="M144.01,32.12L134.39,26c-1.46-1-0.12-1.49,0.53-1.85l41.85-23.23c1.14-0.64,1.84-0.44,1.85,0.54l-0.32,12.4
		c-0.2,0.53-0.2,0.53-0.86,0.9L146,32.21C145.09,32.63,145.05,32.63,144.01,32.12z"/>
	<path class="st0" d="M215.81,32.74l9.78-6c1.48-0.93,0.16-1.48-0.49-1.86l-41.41-24c-1.13-0.67-1.83-0.48-1.86,0.49l0.09,12.41
		c0.19,0.54,0.19,0.54,0.84,0.92l31.12,18C214.73,33.23,214.76,33.23,215.81,32.74z"/>
	<path class="st0" d="M217.23,35.07l10-5.59c1.54-0.83,1.37,0.6,1.38,1.35l0.29,42.75c0,1.3-0.48,1.4-1.5,2.15l-9.43,5.48
		c-1,0.54-1.81,0.07-1.82-0.68l0.11-43.78C216.27,35.77,216.28,35.74,217.23,35.07z"/>
</g>
</svg>
