<?xml version="1.0" standalone="no"?>
<!DOCTYPE svg PUBLIC "-//W3C//DTD SVG 1.1//EN" "http://www.w3.org/Graphics/SVG/1.1/DTD/svg11.dtd">
<svg width="228mm" height="228mm" viewBox="-56 -98 228 228" xmlns="http://www.w3.org/2000/svg" version="1.1">
<title>OpenSCAD Model</title>
<path d="
M 56.6914,-90.1686 L 56.6936,-97.0981 L 3,-66.0981 L 9.00218,-62.6352 z
M 113.387,-66.0981 L 59.6936,-97.0981 L 59.6958,-90.1686 L 107.385,-62.6352 z
M 7.5,-60.0334 L 1.5,-63.5 L 1.5,-1.5 L 7.5,1.96663 z
M 114.887,-1.5 L 114.887,-63.5 L 108.887,-60.0334 L 108.887,1.96663 z
M 6.00218,3.46283 L 0,-0 L -53.6936,31 L -47.6914,34.4628 z
M 170.081,31 L 116.387,-0 L 110.385,3.46283 L 164.079,34.4628 z
M -49.1936,92.1314 L -49.1936,37.0647 L -55.1936,33.5981 L -55.1936,95.5981 z
M 171.581,33.5981 L 165.581,37.0647 L 165.581,92.1314 L 171.581,95.5981 z
M 56.6936,98.1961 L 56.6958,91.2667 L 3.00218,122.267 L 2.99998,129.196 z
M 113.385,122.267 L 59.6914,91.2667 L 59.6936,98.1961 L 113.387,129.196 z
M -0.00219727,122.267 L -47.6914,94.7333 L -53.6936,98.1961 L 0,129.196 z
M 170.081,98.1961 L 164.079,94.7333 L 116.389,122.267 L 116.387,129.196 z
" stroke="black" fill="lightgray" stroke-width="0.5"/>
</svg>
